<svg width="180" height="50" viewBox="0 0 157 35" fill="none" xmlns="http://www.w3.org/2000/svg">
<path d="M154.188 8.85144C153.034 7.84684 151.481 7.15188 149.773 6.86784V5.76339C149.773 4.52016 148.428 3.50872 146.775 3.50872H143.559C143.01 1.48257 140.636 0 137.835 0H18.3366C15.5358 0 13.1617 1.48257 12.6133 3.50872H9.39647C7.74323 3.50872 6.39821 4.52016 6.39821 5.76339V6.86784C4.69032 7.15152 3.13727 7.84684 1.98302 8.85144C0.704149 9.96454 0 11.3887 0 12.8616V21.4196C0 22.8924 0.704149 24.3166 1.98302 25.4301C3.13727 26.4347 4.69032 27.13 6.39821 27.4133V28.5181C6.39821 29.761 7.74323 30.7721 9.39647 30.7721H12.6133C13.1617 32.7986 15.5358 34.2815 18.3366 34.2815H137.835C140.636 34.2815 143.01 32.7986 143.559 30.7721H146.775C148.428 30.7721 149.773 29.761 149.773 28.5181V27.4306C151.481 27.1469 153.034 26.4516 154.188 25.447C155.467 24.3339 156.171 22.9097 156.171 21.4369V17.1579V12.8273C156.171 11.3548 155.467 9.9649 154.188 8.85144ZM154.995 21.3853C154.995 23.9918 152.514 26.1748 149.095 26.576L148.597 26.6344V28.4839C148.597 29.239 147.78 29.8536 146.775 29.8536H142.531L142.473 30.2465C142.208 32.0232 140.215 33.363 137.835 33.363H18.3366C15.9572 33.363 13.9636 32.0236 13.6995 30.2469L13.641 29.8536H9.39647C8.39178 29.8536 7.57402 29.239 7.57402 28.4839V26.6344L7.07695 26.576C3.65735 26.1751 1.17582 23.9922 1.17582 21.3853V12.8273C1.17582 10.2205 3.65735 8.03753 7.07695 7.63706L7.57402 7.57866V5.72915C7.57402 4.97362 8.39178 4.35868 9.39647 4.35868H13.641L13.6995 3.96578C13.9636 2.18943 15.9572 0.849605 18.3366 0.849605H137.835C140.215 0.849605 142.208 2.18943 142.473 3.96578L142.531 4.35868H146.775C147.78 4.35868 148.597 4.97362 148.597 5.72915V7.57866L149.095 7.63706C152.514 8.03789 154.995 10.2208 154.995 12.8273V21.3853Z" fill="#FDC787"/>
<path d="M149.773 6.86784C151.481 7.15188 153.034 7.84684 154.188 8.85144C155.467 9.9649 156.171 11.3548 156.171 12.8273V17.1579V21.4369C156.171 22.9097 155.467 24.3339 154.188 25.447C153.034 26.4516 151.481 27.1469 149.773 27.4306V28.5181C149.773 29.761 148.428 30.7721 146.775 30.7721H143.559C143.01 32.7986 140.636 34.2815 137.835 34.2815H18.3366C15.5358 34.2815 13.1617 32.7986 12.6133 30.7721H9.39647C7.74323 30.7721 6.39821 29.761 6.39821 28.5181V27.4133C4.69032 27.13 3.13727 26.4347 1.98302 25.4301C0.704149 24.3166 0 22.8924 0 21.4196V12.8616C0 11.3887 0.704149 9.96454 1.98302 8.85144C3.13727 7.84684 4.69032 7.15152 6.39821 6.86784V5.76339C6.39821 4.52016 7.74323 3.50872 9.39647 3.50872H12.6133C13.1617 1.48257 15.5358 0 18.3366 0H137.835C140.636 0 143.01 1.48257 143.559 3.50872H146.775C148.428 3.50872 149.773 4.52016 149.773 5.76339V6.86784Z" fill="#FDC787"/>
<path d="M154.188 8.85144C153.034 7.84684 151.481 7.15188 149.773 6.86784V5.76339C149.773 4.52016 148.428 3.50872 146.775 3.50872H143.559C143.01 1.48257 140.636 0 137.835 0H18.3366C15.5358 0 13.1617 1.48257 12.6133 3.50872H9.39647C7.74323 3.50872 6.39821 4.52016 6.39821 5.76339V6.86784C4.69032 7.15152 3.13727 7.84684 1.98302 8.85144C0.704149 9.96454 0 11.3887 0 12.8616V21.4196C0 22.8924 0.704149 24.3166 1.98302 25.4301C3.13727 26.4347 4.69032 27.13 6.39821 27.4133V28.5181C6.39821 29.761 7.74323 30.7721 9.39647 30.7721H12.6133C13.1617 32.7986 15.5358 34.2815 18.3366 34.2815H137.835C140.636 34.2815 143.01 32.7986 143.559 30.7721H146.775C148.428 30.7721 149.773 29.761 149.773 28.5181V27.4306C151.481 27.1469 153.034 26.4516 154.188 25.447C155.467 24.3339 156.171 22.9097 156.171 21.4369V17.1579V12.8273C156.171 11.3548 155.467 9.9649 154.188 8.85144ZM154.995 21.3853C154.995 23.9918 152.514 26.1748 149.095 26.576L148.597 26.6344V28.4839C148.597 29.239 147.78 29.8536 146.775 29.8536H142.531L142.473 30.2465C142.208 32.0232 140.215 33.363 137.835 33.363H18.3366C15.9572 33.363 13.9636 32.0236 13.6995 30.2469L13.641 29.8536H9.39647C8.39178 29.8536 7.57402 29.239 7.57402 28.4839V26.6344L7.07695 26.576C3.65735 26.1751 1.17582 23.9922 1.17582 21.3853V12.8273C1.17582 10.2205 3.65735 8.03753 7.07695 7.63706L7.57402 7.57866V5.72915C7.57402 4.97362 8.39178 4.35868 9.39647 4.35868H13.641L13.6995 3.96578C13.9636 2.18943 15.9572 0.849605 18.3366 0.849605H137.835C140.215 0.849605 142.208 2.18943 142.473 3.96578L142.531 4.35868H146.775C147.78 4.35868 148.597 4.97362 148.597 5.72915V7.57866L149.095 7.63706C152.514 8.03789 154.995 10.2208 154.995 12.8273V21.3853Z" fill="#784508"/>
<path d="M148.967 8.25266L147.769 8.11208V5.72944C147.769 5.31744 147.323 4.98185 146.775 4.98185H141.79L141.65 4.03529C141.432 2.57471 139.793 1.47315 137.835 1.47315H18.337C16.3798 1.47315 14.74 2.57435 14.5229 4.03529L14.3824 4.98185H9.39685C8.84896 4.98185 8.4027 5.31744 8.4027 5.72944V8.11244L7.20483 8.25266C5.77065 8.42063 4.45535 8.97141 3.50003 9.80263C2.5356 10.6421 2.0045 11.7167 2.0045 12.8276V21.3856C2.0045 22.4969 2.5356 23.5711 3.50003 24.4106C4.45535 25.2422 5.77065 25.7926 7.20483 25.9606L8.4027 26.1011V28.4841C8.4027 28.8958 8.84896 29.231 9.39685 29.231H14.3824L14.5229 30.1779C14.74 31.6389 16.3798 32.7404 18.337 32.7404H137.835C139.793 32.7404 141.432 31.6389 141.65 30.1776L141.79 29.231H146.775C147.323 29.231 147.769 28.8958 147.769 28.4841V26.1011L148.967 25.9606C150.401 25.7926 151.717 25.2422 152.672 24.4106C153.636 23.5711 154.167 22.4969 154.167 21.3856V12.8276C154.167 11.7167 153.636 10.6425 152.672 9.80299C151.717 8.97141 150.401 8.42099 148.967 8.25266ZM153.793 21.3856C153.793 22.4295 153.294 23.4384 152.389 24.2268C151.491 25.0079 150.256 25.5248 148.91 25.6826L147.395 25.8604V28.4841C147.395 28.7408 147.117 28.9499 146.775 28.9499H141.456L141.278 30.1466C141.082 31.4648 139.602 32.4593 137.835 32.4593H18.337C16.5706 32.4593 15.0909 31.4651 14.8949 30.1466L14.717 28.9499H9.39685C9.05508 28.9499 8.77706 28.7408 8.77706 28.4841V25.8604L7.26235 25.6826C5.91589 25.5248 4.68016 25.0079 3.78332 24.2268C2.87737 23.4384 2.37886 22.4295 2.37886 21.3856V12.8276C2.37886 11.7841 2.87737 10.7751 3.78332 9.98646C4.68016 9.20535 5.91589 8.68845 7.26235 8.53057L8.77706 8.35323V5.72944C8.77706 5.47244 9.05508 5.26337 9.39685 5.26337H14.717L14.8949 4.06629C15.0909 2.74845 16.5706 1.7543 18.337 1.7543H137.835C139.602 1.7543 141.082 2.74845 141.278 4.06665L141.456 5.26337H146.775C147.117 5.26337 147.395 5.47244 147.395 5.72944V8.35287L148.91 8.53057C150.256 8.68845 151.491 9.20571 152.389 9.98682C153.294 10.7751 153.793 11.7841 153.793 12.8276V21.3856Z" fill="#784508"/>
<path d="M59.0706 11.0159V11.4159C58.6172 11.4293 58.2706 11.4826 58.0306 11.5759C57.8039 11.6559 57.6506 11.8159 57.5706 12.0559C57.4906 12.2826 57.4506 12.6426 57.4506 13.1359V23.2159C57.4506 23.6426 57.4839 23.9693 57.5506 24.1959C57.6306 24.4093 57.7706 24.5493 57.9706 24.6159C58.1706 24.6826 58.4572 24.7159 58.8306 24.7159H59.9706C60.4906 24.7159 60.9439 24.6226 61.3306 24.4359C61.7306 24.2493 62.0772 23.9759 62.3706 23.6159C62.6639 23.2559 62.9039 22.8159 63.0906 22.2959C63.2772 21.7626 63.4106 21.1626 63.4906 20.4959H63.9506C63.9106 20.9359 63.8906 21.5093 63.8906 22.2159C63.8906 22.5093 63.8972 22.9293 63.9106 23.4759C63.9372 24.0226 63.9772 24.5893 64.0306 25.1759C63.3506 25.1493 62.5839 25.1359 61.7306 25.1359C60.8772 25.1226 60.1172 25.1159 59.4506 25.1159C59.1306 25.1159 58.7239 25.1159 58.2306 25.1159C57.7372 25.1159 57.1972 25.1226 56.6106 25.1359C56.0372 25.1359 55.4506 25.1426 54.8506 25.1559C54.2639 25.1559 53.7039 25.1626 53.1706 25.1759V24.7759C53.6106 24.7493 53.9372 24.6959 54.1506 24.6159C54.3772 24.5359 54.5239 24.3759 54.5906 24.1359C54.6706 23.8959 54.7106 23.5359 54.7106 23.0559V13.1359C54.7106 12.6426 54.6706 12.2826 54.5906 12.0559C54.5239 11.8159 54.3772 11.6559 54.1506 11.5759C53.9372 11.4826 53.6106 11.4293 53.1706 11.4159V11.0159C53.5039 11.0293 53.9306 11.0426 54.4506 11.0559C54.9706 11.0693 55.5306 11.0759 56.1306 11.0759C56.6772 11.0759 57.2172 11.0693 57.7506 11.0559C58.2839 11.0426 58.7239 11.0293 59.0706 11.0159Z" fill="#784508"/>
<path d="M70.1013 14.5559C71.0213 14.5559 71.8347 14.7426 72.5413 15.1159C73.2613 15.4759 73.828 16.0559 74.2413 16.8559C74.668 17.6559 74.8813 18.7093 74.8813 20.0159C74.8813 21.3226 74.668 22.3759 74.2413 23.1759C73.828 23.9759 73.2613 24.5559 72.5413 24.9159C71.8347 25.2759 71.0213 25.4559 70.1013 25.4559C69.1813 25.4559 68.3613 25.2759 67.6413 24.9159C66.9213 24.5559 66.3547 23.9759 65.9413 23.1759C65.528 22.3759 65.3213 21.3226 65.3213 20.0159C65.3213 18.7093 65.528 17.6559 65.9413 16.8559C66.3547 16.0559 66.9213 15.4759 67.6413 15.1159C68.3613 14.7426 69.1813 14.5559 70.1013 14.5559ZM70.1013 14.9559C69.4747 14.9559 68.9613 15.3559 68.5613 16.1559C68.1747 16.9426 67.9813 18.2293 67.9813 20.0159C67.9813 21.8026 68.1747 23.0893 68.5613 23.8759C68.9613 24.6626 69.4747 25.0559 70.1013 25.0559C70.7147 25.0559 71.2213 24.6626 71.6213 23.8759C72.0213 23.0893 72.2213 21.8026 72.2213 20.0159C72.2213 18.2293 72.0213 16.9426 71.6213 16.1559C71.2213 15.3559 70.7147 14.9559 70.1013 14.9559Z" fill="#784508"/>
<path d="M79.9932 28.9359C79.2066 28.9359 78.4932 28.8626 77.8532 28.7159C77.2132 28.5693 76.7066 28.3493 76.3332 28.0559C75.9599 27.7759 75.7732 27.4159 75.7732 26.9759C75.7732 26.5493 75.9599 26.1693 76.3332 25.8359C76.7066 25.5026 77.2532 25.2493 77.9732 25.0759L78.1132 25.3959C77.8599 25.5426 77.6666 25.7426 77.5332 25.9959C77.3999 26.2493 77.3332 26.5159 77.3332 26.7959C77.3332 27.3693 77.5932 27.8093 78.1132 28.1159C78.6466 28.4359 79.3532 28.5959 80.2332 28.5959C80.8332 28.5959 81.3866 28.5159 81.8932 28.3559C82.3999 28.1959 82.8066 27.9493 83.1132 27.6159C83.4199 27.2826 83.5732 26.8693 83.5732 26.3759C83.5732 25.9626 83.4199 25.6159 83.1132 25.3359C82.8199 25.0559 82.2266 24.9159 81.3332 24.9159H80.0132C79.5199 24.9159 79.0666 24.8626 78.6532 24.7559C78.2532 24.6493 77.9332 24.4759 77.6932 24.2359C77.4532 23.9959 77.3332 23.6626 77.3332 23.2359C77.3332 22.7159 77.5466 22.2493 77.9732 21.8359C78.3999 21.4093 79.0666 20.9959 79.9732 20.5959L80.1932 20.7759C79.8599 20.9493 79.5599 21.1359 79.2932 21.3359C79.0399 21.5359 78.9132 21.7893 78.9132 22.0959C78.9132 22.5226 79.2066 22.7359 79.7932 22.7359H82.0532C82.7465 22.7359 83.3599 22.8226 83.8932 22.9959C84.4399 23.1693 84.8732 23.4426 85.1932 23.8159C85.5132 24.1893 85.6732 24.6826 85.6732 25.2959C85.6732 25.9359 85.4665 26.5293 85.0532 27.0759C84.6399 27.6359 84.0132 28.0826 83.1732 28.4159C82.3466 28.7626 81.2866 28.9359 79.9932 28.9359ZM80.1732 20.9159C79.4532 20.9159 78.7999 20.8093 78.2132 20.5959C77.6399 20.3693 77.1866 20.0226 76.8532 19.5559C76.5199 19.0759 76.3532 18.4693 76.3532 17.7359C76.3532 17.0026 76.5199 16.4026 76.8532 15.9359C77.1866 15.4693 77.6399 15.1226 78.2132 14.8959C78.7999 14.6693 79.4532 14.5559 80.1732 14.5559C80.9066 14.5559 81.5599 14.6693 82.1332 14.8959C82.7066 15.1226 83.1599 15.4693 83.4932 15.9359C83.8266 16.4026 83.9932 17.0026 83.9932 17.7359C83.9932 18.4693 83.8266 19.0759 83.4932 19.5559C83.1599 20.0226 82.7066 20.3693 82.1332 20.5959C81.5599 20.8093 80.9066 20.9159 80.1732 20.9159ZM80.1732 20.5559C80.5732 20.5559 80.8866 20.3559 81.1132 19.9559C81.3532 19.5426 81.4732 18.8026 81.4732 17.7359C81.4732 16.6693 81.3532 15.9359 81.1132 15.5359C80.8866 15.1226 80.5732 14.9159 80.1732 14.9159C79.7732 14.9159 79.4532 15.1226 79.2132 15.5359C78.9866 15.9359 78.8732 16.6693 78.8732 17.7359C78.8732 18.8026 78.9866 19.5426 79.2132 19.9559C79.4532 20.3559 79.7732 20.5559 80.1732 20.5559ZM83.1932 16.2559L82.8132 16.1159C83.0132 15.6226 83.3399 15.2093 83.7932 14.8759C84.2466 14.5293 84.7265 14.3559 85.2332 14.3559C85.6199 14.3559 85.9199 14.4626 86.1332 14.6759C86.3599 14.8893 86.4732 15.1893 86.4732 15.5759C86.4732 15.9759 86.3666 16.2693 86.1532 16.4559C85.9399 16.6426 85.7065 16.7359 85.4532 16.7359C85.2266 16.7359 85.0199 16.6626 84.8332 16.5159C84.6466 16.3559 84.5399 16.1159 84.5132 15.7959C84.4866 15.4626 84.5932 15.0493 84.8332 14.5559L85.0332 14.6359C84.5132 14.8359 84.1265 15.0559 83.8732 15.2959C83.6199 15.5359 83.3932 15.8559 83.1932 16.2559Z" fill="#784508"/>
<path d="M89.5717 9.73594C90.0517 9.73594 90.445 9.86927 90.7517 10.1359C91.0583 10.4026 91.2117 10.7559 91.2117 11.1959C91.2117 11.6359 91.0583 11.9893 90.7517 12.2559C90.445 12.5226 90.0517 12.6559 89.5717 12.6559C89.0917 12.6559 88.6983 12.5226 88.3917 12.2559C88.085 11.9893 87.9317 11.6359 87.9317 11.1959C87.9317 10.7559 88.085 10.4026 88.3917 10.1359C88.6983 9.86927 89.0917 9.73594 89.5717 9.73594ZM90.9717 14.6159V23.3159C90.9717 23.8759 91.0717 24.2559 91.2717 24.4559C91.485 24.6559 91.8383 24.7559 92.3317 24.7559V25.1759C92.0917 25.1626 91.725 25.1493 91.2317 25.1359C90.7383 25.1093 90.2383 25.0959 89.7317 25.0959C89.2383 25.0959 88.7383 25.1093 88.2317 25.1359C87.725 25.1493 87.345 25.1626 87.0917 25.1759V24.7559C87.585 24.7559 87.9317 24.6559 88.1317 24.4559C88.345 24.2559 88.4517 23.8759 88.4517 23.3159V17.0359C88.4517 16.4226 88.3517 15.9759 88.1517 15.6959C87.965 15.4026 87.6117 15.2559 87.0917 15.2559V14.8359C87.5183 14.8759 87.9317 14.8959 88.3317 14.8959C88.825 14.8959 89.2917 14.8759 89.7317 14.8359C90.185 14.7826 90.5983 14.7093 90.9717 14.6159Z" fill="#784508"/>
<path d="M100.424 14.5559C100.984 14.5559 101.431 14.6293 101.764 14.7759C102.111 14.9226 102.391 15.1093 102.604 15.3359C102.844 15.5893 103.011 15.9159 103.104 16.3159C103.211 16.7159 103.264 17.2559 103.264 17.9359V23.3159C103.264 23.8759 103.364 24.2559 103.564 24.4559C103.777 24.6559 104.131 24.7559 104.624 24.7559V25.1759C104.384 25.1626 104.011 25.1493 103.504 25.1359C103.011 25.1093 102.531 25.0959 102.064 25.0959C101.571 25.0959 101.091 25.1093 100.624 25.1359C100.157 25.1493 99.8107 25.1626 99.584 25.1759V24.7559C100.011 24.7559 100.311 24.6559 100.484 24.4559C100.657 24.2559 100.744 23.8759 100.744 23.3159V17.2559C100.744 16.8959 100.711 16.5759 100.644 16.2959C100.577 16.0026 100.444 15.7759 100.244 15.6159C100.044 15.4426 99.7573 15.3559 99.384 15.3559C98.944 15.3559 98.5507 15.4759 98.204 15.7159C97.8707 15.9559 97.604 16.2893 97.404 16.7159C97.2173 17.1293 97.124 17.5959 97.124 18.1159V23.3159C97.124 23.8759 97.2107 24.2559 97.384 24.4559C97.5573 24.6559 97.8573 24.7559 98.284 24.7559V25.1759C98.0573 25.1626 97.7173 25.1493 97.264 25.1359C96.8107 25.1093 96.3507 25.0959 95.884 25.0959C95.3907 25.0959 94.8907 25.1093 94.384 25.1359C93.8773 25.1493 93.4973 25.1626 93.244 25.1759V24.7559C93.7373 24.7559 94.084 24.6559 94.284 24.4559C94.4973 24.2559 94.604 23.8759 94.604 23.3159V17.0159C94.604 16.4159 94.504 15.9759 94.304 15.6959C94.1173 15.4026 93.764 15.2559 93.244 15.2559V14.8359C93.6707 14.8759 94.084 14.8959 94.484 14.8959C94.9773 14.8959 95.444 14.8759 95.884 14.8359C96.3373 14.7826 96.7507 14.7093 97.124 14.6159V16.6159C97.4573 15.8559 97.9173 15.3226 98.504 15.0159C99.0907 14.7093 99.7307 14.5559 100.424 14.5559Z" fill="#784508"/>
</svg>
