<svg width="158" height="36" viewBox="0 0 158 36" fill="none" xmlns="http://www.w3.org/2000/svg">
<path d="M138.335 0C141.113 0 143.625 1.39435 144.421 3.50879H147.274C148.199 3.50879 149.057 3.79132 149.694 4.27051C150.331 4.74968 150.773 5.44952 150.773 6.26367V6.95312C152.287 7.26613 153.678 7.89259 154.78 8.77734L155.017 8.97461L155.266 9.20117C156.478 10.3545 157.171 11.7866 157.171 13.3271V21.9365C157.171 23.5766 156.386 25.1321 155.017 26.3242C153.88 27.3133 152.397 28.0092 150.773 28.3447V29.0186C150.773 29.8324 150.331 30.5318 149.694 31.0107C149.057 31.4898 148.199 31.7725 147.274 31.7725H144.421C143.625 33.887 141.113 35.2812 138.335 35.2812H18.8369C16.0593 35.2812 13.5464 33.8872 12.751 31.7725H9.89648C8.97151 31.7725 8.11378 31.4898 7.47656 31.0107C6.83962 30.5318 6.3986 29.8323 6.39844 29.0186V28.3271C4.77499 27.9919 3.29076 27.2967 2.1543 26.3076C0.784738 25.1152 0.000108485 23.5598 0 21.9199V13.3613C7.27612e-05 11.7215 0.784902 10.1667 2.1543 8.97461C3.29082 7.98543 4.77494 7.28864 6.39844 6.95312V6.26367C6.39844 5.44962 6.83953 4.74968 7.47656 4.27051C8.11378 3.79132 8.97147 3.50879 9.89648 3.50879H12.751C13.5463 1.39418 16.0592 0 18.8369 0H138.335Z" fill="#FDC787" stroke="#784508"/>
<path d="M154.688 9.35144C153.534 8.34684 151.981 7.65188 150.273 7.36784V6.26339C150.273 5.02016 148.928 4.00872 147.275 4.00872H144.059C143.51 1.98257 141.136 0.5 138.335 0.5H78.5859H18.8366C16.0358 0.5 13.6617 1.98257 13.1133 4.00872H9.89647C8.24323 4.00872 6.89821 5.02016 6.89821 6.26339V7.36784C5.19032 7.65152 3.63727 8.34684 2.48302 9.35144C1.20415 10.4645 0.5 11.8887 0.5 13.3616V21.9196C0.5 23.3924 1.20415 24.8166 2.48302 25.9301C3.63727 26.9347 5.19032 27.63 6.89821 27.9133V29.0181C6.89821 30.261 8.24323 31.2721 9.89647 31.2721H13.1133C13.6617 33.2986 16.0358 34.7815 18.8366 34.7815H138.335C141.136 34.7815 143.51 33.2986 144.059 31.2721H147.275C148.928 31.2721 150.273 30.261 150.273 29.0181V27.9306C151.981 27.6469 153.534 26.9516 154.688 25.947C155.967 24.8339 156.671 23.4097 156.671 21.9369V17.6579V13.3273C156.671 11.8548 155.967 10.4649 154.688 9.35144ZM155.495 21.8853C155.495 24.4918 153.014 26.6748 149.595 27.076L149.097 27.1344V28.9839C149.097 29.739 148.28 30.3536 147.275 30.3536H143.031L142.973 30.7465C142.708 32.5232 140.715 33.863 138.335 33.863H18.8366C16.4572 33.863 14.4636 32.5236 14.1995 30.7469L14.141 30.3536H9.89647C8.89178 30.3536 8.07402 29.739 8.07402 28.9839V27.1344L7.57695 27.076C4.15735 26.6751 1.67582 24.4922 1.67582 21.8853V13.3273C1.67582 10.7205 4.15735 8.53753 7.57695 8.13706L8.07402 8.07866V6.22914C8.07402 5.47362 8.89178 4.85868 9.89647 4.85868H14.141L14.1995 4.46578C14.4636 2.68943 16.4572 1.34961 18.8366 1.34961H138.335C140.715 1.34961 142.708 2.68943 142.973 4.46578L143.031 4.85868H147.275C148.28 4.85868 149.097 5.47362 149.097 6.22914V8.07866L149.595 8.13706C153.014 8.53789 155.495 10.7208 155.495 13.3273V21.8853Z" fill="#784508"/>
<path d="M149.467 8.75265L148.269 8.61207V6.22944C148.269 5.81744 147.823 5.48185 147.275 5.48185H142.29L142.15 4.53529C141.932 3.07471 140.293 1.97314 138.335 1.97314H18.837C16.8799 1.97314 15.24 3.07435 15.0229 4.53529L14.8825 5.48185H9.89687C9.34898 5.48185 8.90272 5.81744 8.90272 6.22944V8.61244L7.70485 8.75265C6.27067 8.92063 4.95537 9.47141 4.00005 10.3026C3.03562 11.1421 2.50452 12.2167 2.50452 13.3276V21.8856C2.50452 22.9969 3.03562 24.0711 4.00005 24.9106C4.95537 25.7422 6.27067 26.2926 7.70485 26.4606L8.90272 26.6011V28.9841C8.90272 29.3958 9.34898 29.731 9.89687 29.731H14.8825L15.0229 30.6779C15.24 32.1389 16.8799 33.2404 18.837 33.2404H138.335C140.293 33.2404 141.932 32.1389 142.15 30.6776L142.29 29.731H147.275C147.823 29.731 148.269 29.3958 148.269 28.9841V26.6011L149.467 26.4606C150.901 26.2926 152.217 25.7422 153.172 24.9106C154.136 24.0711 154.667 22.9969 154.667 21.8856V13.3276C154.667 12.2167 154.136 11.1425 153.172 10.303C152.217 9.47141 150.901 8.92099 149.467 8.75265ZM154.293 21.8856C154.293 22.9295 153.794 23.9384 152.889 24.7268C151.991 25.5079 150.756 26.0248 149.41 26.1826L147.895 26.3604V28.9841C147.895 29.2408 147.617 29.4498 147.275 29.4498H141.956L141.778 30.6466C141.582 31.9648 140.102 32.9593 138.335 32.9593H18.837C17.0706 32.9593 15.5909 31.9651 15.3949 30.6466L15.217 29.4498H9.89687C9.5551 29.4498 9.27708 29.2408 9.27708 28.9841V26.3604L7.76237 26.1826C6.41591 26.0248 5.18018 25.5079 4.28334 24.7268C3.37739 23.9384 2.87888 22.9295 2.87888 21.8856V13.3276C2.87888 12.2841 3.37739 11.2751 4.28334 10.4865C5.18018 9.70535 6.41591 9.18845 7.76237 9.03057L9.27708 8.85322V6.22944C9.27708 5.97243 9.5551 5.76337 9.89687 5.76337H15.217L15.3949 4.56628C15.5909 3.24845 17.0706 2.2543 18.837 2.2543H138.335C140.102 2.2543 141.582 3.24845 141.778 4.56664L141.956 5.76337H147.275C147.617 5.76337 147.895 5.97243 147.895 6.22944V8.85286L149.41 9.03057C150.756 9.18845 151.991 9.70571 152.889 10.4868C153.794 11.2751 154.293 12.2841 154.293 13.3276V21.8856Z" fill="#784508"/>
<path d="M49.1114 11.34C49.058 11.9133 49.018 12.4667 48.9914 13C48.978 13.5333 48.9714 13.94 48.9714 14.22C48.9714 14.5267 48.978 14.8133 48.9914 15.08C49.0047 15.3467 49.018 15.58 49.0314 15.78H48.5714C48.4247 14.78 48.2247 13.9933 47.9714 13.42C47.718 12.8333 47.378 12.42 46.9514 12.18C46.5247 11.9267 45.958 11.8 45.2514 11.8H44.3914C43.9914 11.8 43.6847 11.8333 43.4714 11.9C43.258 11.9667 43.1114 12.1067 43.0314 12.32C42.9647 12.5333 42.9314 12.86 42.9314 13.3V23.3C42.9314 23.8067 42.9847 24.1867 43.0914 24.44C43.198 24.6933 43.4047 24.86 43.7114 24.94C44.018 25.02 44.458 25.0667 45.0314 25.08V25.5C44.6447 25.4733 44.1447 25.46 43.5314 25.46C42.918 25.4467 42.2847 25.44 41.6314 25.44C41.0714 25.44 40.5314 25.4467 40.0114 25.46C39.4914 25.46 39.038 25.4733 38.6514 25.5V25.1C39.0914 25.0733 39.418 25.02 39.6314 24.94C39.858 24.86 40.0047 24.7 40.0714 24.46C40.1514 24.22 40.1914 23.86 40.1914 23.38V13.46C40.1914 12.9667 40.1514 12.6067 40.0714 12.38C40.0047 12.14 39.858 11.98 39.6314 11.9C39.418 11.8067 39.0914 11.7533 38.6514 11.74V11.34C39.1847 11.3533 39.7447 11.3667 40.3314 11.38C40.9314 11.38 41.518 11.3867 42.0914 11.4C42.678 11.4 43.218 11.4 43.7114 11.4C44.218 11.4 44.6247 11.4 44.9314 11.4C45.5447 11.4 46.238 11.4 47.0114 11.4C47.798 11.3867 48.498 11.3667 49.1114 11.34ZM46.0914 18.3C46.0914 18.3 46.0914 18.3667 46.0914 18.5C46.0914 18.6333 46.0914 18.7 46.0914 18.7H42.3314C42.3314 18.7 42.3314 18.6333 42.3314 18.5C42.3314 18.3667 42.3314 18.3 42.3314 18.3H46.0914ZM46.5514 15.66C46.498 16.42 46.4714 17 46.4714 17.4C46.4847 17.8 46.4914 18.1667 46.4914 18.5C46.4914 18.8333 46.498 19.2 46.5114 19.6C46.5247 20 46.558 20.58 46.6114 21.34H46.1514C46.098 20.8867 45.998 20.46 45.8514 20.06C45.7047 19.6467 45.478 19.32 45.1714 19.08C44.878 18.8267 44.4514 18.7 43.8914 18.7V18.3C44.3047 18.3 44.6447 18.2133 44.9114 18.04C45.178 17.8667 45.3847 17.6467 45.5314 17.38C45.6914 17.1 45.8114 16.8133 45.8914 16.52C45.9847 16.2133 46.0514 15.9267 46.0914 15.66H46.5514ZM52.6306 10.06C53.1106 10.06 53.5039 10.1933 53.8106 10.46C54.1172 10.7267 54.2706 11.08 54.2706 11.52C54.2706 11.96 54.1172 12.3133 53.8106 12.58C53.5039 12.8467 53.1106 12.98 52.6306 12.98C52.1506 12.98 51.7572 12.8467 51.4506 12.58C51.1439 12.3133 50.9906 11.96 50.9906 11.52C50.9906 11.08 51.1439 10.7267 51.4506 10.46C51.7572 10.1933 52.1506 10.06 52.6306 10.06ZM54.0306 14.94V23.64C54.0306 24.2 54.1306 24.58 54.3306 24.78C54.5439 24.98 54.8972 25.08 55.3906 25.08V25.5C55.1506 25.4867 54.7839 25.4733 54.2906 25.46C53.7972 25.4333 53.2972 25.42 52.7906 25.42C52.2972 25.42 51.7972 25.4333 51.2906 25.46C50.7839 25.4733 50.4039 25.4867 50.1506 25.5V25.08C50.6439 25.08 50.9906 24.98 51.1906 24.78C51.4039 24.58 51.5106 24.2 51.5106 23.64V17.36C51.5106 16.7467 51.4106 16.3 51.2106 16.02C51.0239 15.7267 50.6706 15.58 50.1506 15.58V15.16C50.5772 15.2 50.9906 15.22 51.3906 15.22C51.8839 15.22 52.3506 15.2 52.7906 15.16C53.2439 15.1067 53.6572 15.0333 54.0306 14.94ZM63.4829 14.88C64.0429 14.88 64.4896 14.9533 64.8229 15.1C65.1696 15.2467 65.4496 15.4333 65.6629 15.66C65.9029 15.9133 66.0696 16.24 66.1629 16.64C66.2696 17.04 66.3229 17.58 66.3229 18.26V23.64C66.3229 24.2 66.4229 24.58 66.6229 24.78C66.8362 24.98 67.1896 25.08 67.6829 25.08V25.5C67.4429 25.4867 67.0696 25.4733 66.5629 25.46C66.0696 25.4333 65.5896 25.42 65.1229 25.42C64.6296 25.42 64.1496 25.4333 63.6829 25.46C63.2162 25.4733 62.8696 25.4867 62.6429 25.5V25.08C63.0696 25.08 63.3696 24.98 63.5429 24.78C63.7162 24.58 63.8029 24.2 63.8029 23.64V17.58C63.8029 17.22 63.7696 16.9 63.7029 16.62C63.6362 16.3267 63.5029 16.1 63.3029 15.94C63.1029 15.7667 62.8162 15.68 62.4429 15.68C62.0029 15.68 61.6096 15.8 61.2629 16.04C60.9296 16.28 60.6629 16.6133 60.4629 17.04C60.2762 17.4533 60.1829 17.92 60.1829 18.44V23.64C60.1829 24.2 60.2696 24.58 60.4429 24.78C60.6162 24.98 60.9162 25.08 61.3429 25.08V25.5C61.1162 25.4867 60.7762 25.4733 60.3229 25.46C59.8696 25.4333 59.4096 25.42 58.9429 25.42C58.4496 25.42 57.9496 25.4333 57.4429 25.46C56.9362 25.4733 56.5562 25.4867 56.3029 25.5V25.08C56.7962 25.08 57.1429 24.98 57.3429 24.78C57.5562 24.58 57.6629 24.2 57.6629 23.64V17.34C57.6629 16.74 57.5629 16.3 57.3629 16.02C57.1762 15.7267 56.8229 15.58 56.3029 15.58V15.16C56.7296 15.2 57.1429 15.22 57.5429 15.22C58.0362 15.22 58.5029 15.2 58.9429 15.16C59.3962 15.1067 59.8096 15.0333 60.1829 14.94V16.94C60.5162 16.18 60.9762 15.6467 61.5629 15.34C62.1496 15.0333 62.7896 14.88 63.4829 14.88ZM71.2509 25.64C70.6775 25.64 70.1909 25.5333 69.7909 25.32C69.3909 25.0933 69.0909 24.7933 68.8909 24.42C68.6909 24.0333 68.5909 23.6067 68.5909 23.14C68.5909 22.5667 68.7242 22.1 68.9909 21.74C69.2575 21.3667 69.5975 21.0733 70.0109 20.86C70.4375 20.6333 70.8842 20.4467 71.3509 20.3C71.8175 20.14 72.2575 19.9933 72.6709 19.86C73.0842 19.7133 73.4242 19.5467 73.6909 19.36C73.9575 19.1733 74.0909 18.9267 74.0909 18.62V17.16C74.0909 16.7333 74.0242 16.3867 73.8909 16.12C73.7709 15.84 73.5842 15.6333 73.3309 15.5C73.0909 15.3533 72.7842 15.28 72.4109 15.28C72.1309 15.28 71.8375 15.32 71.5309 15.4C71.2242 15.48 70.9709 15.6333 70.7709 15.86C71.1175 15.9533 71.3842 16.1267 71.5709 16.38C71.7709 16.6333 71.8709 16.94 71.8709 17.3C71.8709 17.7133 71.7309 18.04 71.4509 18.28C71.1842 18.5067 70.8442 18.62 70.4309 18.62C69.9909 18.62 69.6575 18.48 69.4309 18.2C69.2042 17.92 69.0909 17.5933 69.0909 17.22C69.0909 16.8467 69.1842 16.54 69.3709 16.3C69.5575 16.0467 69.8175 15.82 70.1509 15.62C70.4842 15.3933 70.9109 15.2133 71.4309 15.08C71.9509 14.9467 72.5175 14.88 73.1309 14.88C73.7175 14.88 74.2375 14.9467 74.6909 15.08C75.1442 15.2 75.5309 15.42 75.8509 15.74C76.1709 16.0467 76.3775 16.4267 76.4709 16.88C76.5642 17.3333 76.6109 17.8867 76.6109 18.54V24.02C76.6109 24.3533 76.6509 24.5933 76.7309 24.74C76.8109 24.8733 76.9375 24.94 77.1109 24.94C77.2442 24.94 77.3709 24.9067 77.4909 24.84C77.6109 24.7733 77.7442 24.68 77.8909 24.56L78.1109 24.9C77.8175 25.1267 77.5109 25.3067 77.1909 25.44C76.8709 25.5733 76.4842 25.64 76.0309 25.64C75.5642 25.64 75.1909 25.5733 74.9109 25.44C74.6442 25.3067 74.4442 25.1133 74.3109 24.86C74.1909 24.6067 74.1242 24.3067 74.1109 23.96C73.7909 24.4933 73.3975 24.9067 72.9309 25.2C72.4642 25.4933 71.9042 25.64 71.2509 25.64ZM72.4509 24.52C72.7709 24.52 73.0642 24.4333 73.3309 24.26C73.6109 24.0867 73.8642 23.8267 74.0909 23.48V19.44C73.9575 19.64 73.7642 19.82 73.5109 19.98C73.2709 20.14 73.0109 20.3 72.7309 20.46C72.4509 20.62 72.1842 20.8067 71.9309 21.02C71.6909 21.22 71.4842 21.4733 71.3109 21.78C71.1509 22.0733 71.0709 22.4533 71.0709 22.92C71.0709 23.44 71.1975 23.84 71.4509 24.12C71.7042 24.3867 72.0375 24.52 72.4509 24.52ZM82.4457 9.84V23.64C82.4457 24.2 82.5457 24.58 82.7457 24.78C82.9591 24.98 83.3124 25.08 83.8057 25.08V25.5C83.5657 25.4867 83.1991 25.4733 82.7057 25.46C82.2257 25.4333 81.7324 25.42 81.2257 25.42C80.7324 25.42 80.2257 25.4333 79.7057 25.46C79.1991 25.4733 78.8191 25.4867 78.5657 25.5V25.08C79.0591 25.08 79.4057 24.98 79.6057 24.78C79.8191 24.58 79.9257 24.2 79.9257 23.64V12.24C79.9257 11.64 79.8324 11.2 79.6457 10.92C79.4591 10.6267 79.0991 10.48 78.5657 10.48V10.06C78.9924 10.1 79.4057 10.12 79.8057 10.12C80.3124 10.12 80.7857 10.1 81.2257 10.06C81.6657 10.0067 82.0724 9.93333 82.4457 9.84ZM87.2204 10.06C87.7004 10.06 88.0937 10.1933 88.4004 10.46C88.7071 10.7267 88.8604 11.08 88.8604 11.52C88.8604 11.96 88.7071 12.3133 88.4004 12.58C88.0937 12.8467 87.7004 12.98 87.2204 12.98C86.7404 12.98 86.3471 12.8467 86.0404 12.58C85.7337 12.3133 85.5804 11.96 85.5804 11.52C85.5804 11.08 85.7337 10.7267 86.0404 10.46C86.3471 10.1933 86.7404 10.06 87.2204 10.06ZM88.6204 14.94V23.64C88.6204 24.2 88.7204 24.58 88.9204 24.78C89.1337 24.98 89.4871 25.08 89.9804 25.08V25.5C89.7404 25.4867 89.3737 25.4733 88.8804 25.46C88.3871 25.4333 87.8871 25.42 87.3804 25.42C86.8871 25.42 86.3871 25.4333 85.8804 25.46C85.3737 25.4733 84.9937 25.4867 84.7404 25.5V25.08C85.2337 25.08 85.5804 24.98 85.7804 24.78C85.9937 24.58 86.1004 24.2 86.1004 23.64V17.36C86.1004 16.7467 86.0004 16.3 85.8004 16.02C85.6137 15.7267 85.2604 15.58 84.7404 15.58V15.16C85.1671 15.2 85.5804 15.22 85.9804 15.22C86.4737 15.22 86.9404 15.2 87.3804 15.16C87.8337 15.1067 88.2471 15.0333 88.6204 14.94ZM99.2128 15.08L93.9528 25.2H95.3928C95.9128 25.2 96.3861 25.0933 96.8128 24.88C97.2528 24.6533 97.6194 24.2867 97.9128 23.78C98.2061 23.2733 98.3794 22.5933 98.4328 21.74H98.8728C98.8728 22.6733 98.8794 23.4467 98.8928 24.06C98.9061 24.6733 98.9261 25.18 98.9528 25.58C98.3528 25.5533 97.7261 25.5333 97.0728 25.52C96.4328 25.5067 95.7928 25.5 95.1528 25.5C94.4728 25.5 93.7794 25.5067 93.0728 25.52C92.3661 25.5467 91.6861 25.5733 91.0328 25.6L96.2928 15.48H94.8128C94.2661 15.48 93.7728 15.5933 93.3328 15.82C92.9061 16.0333 92.5594 16.3933 92.2928 16.9C92.0394 17.3933 91.8794 18.0733 91.8128 18.94H91.3728C91.3728 17.9933 91.3661 17.22 91.3528 16.62C91.3394 16.0067 91.3194 15.5 91.2928 15.1C91.8928 15.1267 92.5128 15.1467 93.1528 15.16C93.8061 15.1733 94.4528 15.18 95.0928 15.18C95.7728 15.18 96.4661 15.1733 97.1728 15.16C97.8794 15.1333 98.5594 15.1067 99.2128 15.08ZM103.145 25.64C102.572 25.64 102.085 25.5333 101.685 25.32C101.285 25.0933 100.985 24.7933 100.785 24.42C100.585 24.0333 100.485 23.6067 100.485 23.14C100.485 22.5667 100.619 22.1 100.885 21.74C101.152 21.3667 101.492 21.0733 101.905 20.86C102.332 20.6333 102.779 20.4467 103.245 20.3C103.712 20.14 104.152 19.9933 104.565 19.86C104.979 19.7133 105.319 19.5467 105.585 19.36C105.852 19.1733 105.985 18.9267 105.985 18.62V17.16C105.985 16.7333 105.919 16.3867 105.785 16.12C105.665 15.84 105.479 15.6333 105.225 15.5C104.985 15.3533 104.679 15.28 104.305 15.28C104.025 15.28 103.732 15.32 103.425 15.4C103.119 15.48 102.865 15.6333 102.665 15.86C103.012 15.9533 103.279 16.1267 103.465 16.38C103.665 16.6333 103.765 16.94 103.765 17.3C103.765 17.7133 103.625 18.04 103.345 18.28C103.079 18.5067 102.739 18.62 102.325 18.62C101.885 18.62 101.552 18.48 101.325 18.2C101.099 17.92 100.985 17.5933 100.985 17.22C100.985 16.8467 101.079 16.54 101.265 16.3C101.452 16.0467 101.712 15.82 102.045 15.62C102.379 15.3933 102.805 15.2133 103.325 15.08C103.845 14.9467 104.412 14.88 105.025 14.88C105.612 14.88 106.132 14.9467 106.585 15.08C107.039 15.2 107.425 15.42 107.745 15.74C108.065 16.0467 108.272 16.4267 108.365 16.88C108.459 17.3333 108.505 17.8867 108.505 18.54V24.02C108.505 24.3533 108.545 24.5933 108.625 24.74C108.705 24.8733 108.832 24.94 109.005 24.94C109.139 24.94 109.265 24.9067 109.385 24.84C109.505 24.7733 109.639 24.68 109.785 24.56L110.005 24.9C109.712 25.1267 109.405 25.3067 109.085 25.44C108.765 25.5733 108.379 25.64 107.925 25.64C107.459 25.64 107.085 25.5733 106.805 25.44C106.539 25.3067 106.339 25.1133 106.205 24.86C106.085 24.6067 106.019 24.3067 106.005 23.96C105.685 24.4933 105.292 24.9067 104.825 25.2C104.359 25.4933 103.799 25.64 103.145 25.64ZM104.345 24.52C104.665 24.52 104.959 24.4333 105.225 24.26C105.505 24.0867 105.759 23.8267 105.985 23.48V19.44C105.852 19.64 105.659 19.82 105.405 19.98C105.165 20.14 104.905 20.3 104.625 20.46C104.345 20.62 104.079 20.8067 103.825 21.02C103.585 21.22 103.379 21.4733 103.205 21.78C103.045 22.0733 102.965 22.4533 102.965 22.92C102.965 23.44 103.092 23.84 103.345 24.12C103.599 24.3867 103.932 24.52 104.345 24.52ZM117.22 14.88C117.634 14.88 117.974 14.9667 118.24 15.14C118.52 15.3133 118.727 15.5333 118.86 15.8C118.994 16.0667 119.06 16.3467 119.06 16.64C119.06 17.08 118.927 17.4467 118.66 17.74C118.407 18.0333 118.067 18.18 117.64 18.18C117.24 18.18 116.914 18.0733 116.66 17.86C116.407 17.6467 116.28 17.3533 116.28 16.98C116.28 16.6467 116.36 16.3667 116.52 16.14C116.694 15.9133 116.887 15.7333 117.1 15.6C116.954 15.52 116.787 15.4933 116.6 15.52C116.28 15.5467 115.987 15.66 115.72 15.86C115.454 16.06 115.227 16.3067 115.04 16.6C114.854 16.8933 114.707 17.2067 114.6 17.54C114.507 17.8733 114.46 18.1933 114.46 18.5V23.44C114.46 24.0933 114.627 24.5333 114.96 24.76C115.294 24.9733 115.78 25.08 116.42 25.08V25.5C116.114 25.4867 115.667 25.4733 115.08 25.46C114.507 25.4333 113.907 25.42 113.28 25.42C112.76 25.42 112.24 25.4333 111.72 25.46C111.214 25.4733 110.834 25.4867 110.58 25.5V25.08C111.074 25.08 111.42 24.98 111.62 24.78C111.834 24.58 111.94 24.2 111.94 23.64V17.34C111.94 16.74 111.84 16.3 111.64 16.02C111.454 15.7267 111.1 15.58 110.58 15.58V15.16C111.007 15.2 111.42 15.22 111.82 15.22C112.314 15.22 112.78 15.2 113.22 15.16C113.674 15.1067 114.087 15.0333 114.46 14.94V17.02C114.62 16.6467 114.827 16.3 115.08 15.98C115.347 15.66 115.66 15.4 116.02 15.2C116.394 14.9867 116.794 14.88 117.22 14.88Z" fill="#784508"/>
</svg>
