<svg width="180" height="50" viewBox="0 0 157 35" fill="none" xmlns="http://www.w3.org/2000/svg">
<path d="M154.188 8.85144C153.034 7.84684 151.481 7.15188 149.773 6.86784V5.76339C149.773 4.52016 148.428 3.50872 146.775 3.50872H143.559C143.01 1.48257 140.636 0 137.835 0H18.3366C15.5358 0 13.1617 1.48257 12.6133 3.50872H9.39647C7.74323 3.50872 6.39821 4.52016 6.39821 5.76339V6.86784C4.69032 7.15152 3.13727 7.84684 1.98302 8.85144C0.704149 9.96454 0 11.3887 0 12.8616V21.4196C0 22.8924 0.704149 24.3166 1.98302 25.4301C3.13727 26.4347 4.69032 27.13 6.39821 27.4133V28.5181C6.39821 29.761 7.74323 30.7721 9.39647 30.7721H12.6133C13.1617 32.7986 15.5358 34.2815 18.3366 34.2815H137.835C140.636 34.2815 143.01 32.7986 143.559 30.7721H146.775C148.428 30.7721 149.773 29.761 149.773 28.5181V27.4306C151.481 27.1469 153.034 26.4516 154.188 25.447C155.467 24.3339 156.171 22.9097 156.171 21.4369V17.1579V12.8273C156.171 11.3548 155.467 9.9649 154.188 8.85144ZM154.995 21.3853C154.995 23.9918 152.514 26.1748 149.095 26.576L148.597 26.6344V28.4839C148.597 29.239 147.78 29.8536 146.775 29.8536H142.531L142.473 30.2465C142.208 32.0232 140.215 33.363 137.835 33.363H18.3366C15.9572 33.363 13.9636 32.0236 13.6995 30.2469L13.641 29.8536H9.39647C8.39178 29.8536 7.57402 29.239 7.57402 28.4839V26.6344L7.07695 26.576C3.65735 26.1751 1.17582 23.9922 1.17582 21.3853V12.8273C1.17582 10.2205 3.65735 8.03753 7.07695 7.63706L7.57402 7.57866V5.72915C7.57402 4.97362 8.39178 4.35868 9.39647 4.35868H13.641L13.6995 3.96578C13.9636 2.18943 15.9572 0.849605 18.3366 0.849605H137.835C140.215 0.849605 142.208 2.18943 142.473 3.96578L142.531 4.35868H146.775C147.78 4.35868 148.597 4.97362 148.597 5.72915V7.57866L149.095 7.63706C152.514 8.03789 154.995 10.2208 154.995 12.8273V21.3853Z" fill="#FDC787"/>
<path d="M149.773 6.86784C151.481 7.15188 153.034 7.84684 154.188 8.85144C155.467 9.9649 156.171 11.3548 156.171 12.8273V17.1579V21.4369C156.171 22.9097 155.467 24.3339 154.188 25.447C153.034 26.4516 151.481 27.1469 149.773 27.4306V28.5181C149.773 29.761 148.428 30.7721 146.775 30.7721H143.559C143.01 32.7986 140.636 34.2815 137.835 34.2815H18.3366C15.5358 34.2815 13.1617 32.7986 12.6133 30.7721H9.39647C7.74323 30.7721 6.39821 29.761 6.39821 28.5181V27.4133C4.69032 27.13 3.13727 26.4347 1.98302 25.4301C0.704149 24.3166 0 22.8924 0 21.4196V12.8616C0 11.3887 0.704149 9.96454 1.98302 8.85144C3.13727 7.84684 4.69032 7.15152 6.39821 6.86784V5.76339C6.39821 4.52016 7.74323 3.50872 9.39647 3.50872H12.6133C13.1617 1.48257 15.5358 0 18.3366 0H137.835C140.636 0 143.01 1.48257 143.559 3.50872H146.775C148.428 3.50872 149.773 4.52016 149.773 5.76339V6.86784Z" fill="#FDC787"/>
<path d="M154.188 8.85144C153.034 7.84684 151.481 7.15188 149.773 6.86784V5.76339C149.773 4.52016 148.428 3.50872 146.775 3.50872H143.559C143.01 1.48257 140.636 0 137.835 0H18.3366C15.5358 0 13.1617 1.48257 12.6133 3.50872H9.39647C7.74323 3.50872 6.39821 4.52016 6.39821 5.76339V6.86784C4.69032 7.15152 3.13727 7.84684 1.98302 8.85144C0.704149 9.96454 0 11.3887 0 12.8616V21.4196C0 22.8924 0.704149 24.3166 1.98302 25.4301C3.13727 26.4347 4.69032 27.13 6.39821 27.4133V28.5181C6.39821 29.761 7.74323 30.7721 9.39647 30.7721H12.6133C13.1617 32.7986 15.5358 34.2815 18.3366 34.2815H137.835C140.636 34.2815 143.01 32.7986 143.559 30.7721H146.775C148.428 30.7721 149.773 29.761 149.773 28.5181V27.4306C151.481 27.1469 153.034 26.4516 154.188 25.447C155.467 24.3339 156.171 22.9097 156.171 21.4369V17.1579V12.8273C156.171 11.3548 155.467 9.9649 154.188 8.85144ZM154.995 21.3853C154.995 23.9918 152.514 26.1748 149.095 26.576L148.597 26.6344V28.4839C148.597 29.239 147.78 29.8536 146.775 29.8536H142.531L142.473 30.2465C142.208 32.0232 140.215 33.363 137.835 33.363H18.3366C15.9572 33.363 13.9636 32.0236 13.6995 30.2469L13.641 29.8536H9.39647C8.39178 29.8536 7.57402 29.239 7.57402 28.4839V26.6344L7.07695 26.576C3.65735 26.1751 1.17582 23.9922 1.17582 21.3853V12.8273C1.17582 10.2205 3.65735 8.03753 7.07695 7.63706L7.57402 7.57866V5.72915C7.57402 4.97362 8.39178 4.35868 9.39647 4.35868H13.641L13.6995 3.96578C13.9636 2.18943 15.9572 0.849605 18.3366 0.849605H137.835C140.215 0.849605 142.208 2.18943 142.473 3.96578L142.531 4.35868H146.775C147.78 4.35868 148.597 4.97362 148.597 5.72915V7.57866L149.095 7.63706C152.514 8.03789 154.995 10.2208 154.995 12.8273V21.3853Z" fill="#784508"/>
<path d="M148.967 8.25266L147.769 8.11208V5.72944C147.769 5.31744 147.324 4.98185 146.775 4.98185H141.791L141.65 4.03529C141.432 2.57471 139.793 1.47315 137.835 1.47315H18.337C16.3799 1.47315 14.7401 2.57435 14.5229 4.03529L14.3825 4.98185H9.3969C8.84902 4.98185 8.40276 5.31744 8.40276 5.72944V8.11244L7.20489 8.25266C5.77071 8.42063 4.45541 8.97141 3.50009 9.80263C2.53566 10.6421 2.00455 11.7167 2.00455 12.8276V21.3856C2.00455 22.4969 2.53566 23.5711 3.50009 24.4106C4.45541 25.2422 5.77071 25.7926 7.20489 25.9606L8.40276 26.1011V28.4841C8.40276 28.8958 8.84902 29.231 9.3969 29.231H14.3825L14.5229 30.1779C14.7401 31.6389 16.3799 32.7404 18.337 32.7404H137.835C139.793 32.7404 141.432 31.6389 141.65 30.1776L141.791 29.231H146.775C147.324 29.231 147.769 28.8958 147.769 28.4841V26.1011L148.967 25.9606C150.401 25.7926 151.717 25.2422 152.672 24.4106C153.636 23.5711 154.167 22.4969 154.167 21.3856V12.8276C154.167 11.7167 153.636 10.6425 152.672 9.80299C151.717 8.97141 150.401 8.42099 148.967 8.25266ZM153.793 21.3856C153.793 22.4295 153.294 23.4384 152.389 24.2268C151.491 25.0079 150.256 25.5248 148.91 25.6826L147.395 25.8604V28.4841C147.395 28.7408 147.117 28.9499 146.775 28.9499H141.456L141.278 30.1466C141.082 31.4648 139.602 32.4593 137.835 32.4593H18.337C16.5707 32.4593 15.091 31.4651 14.8949 30.1466L14.7171 28.9499H9.3969C9.05513 28.9499 8.77712 28.7408 8.77712 28.4841V25.8604L7.26241 25.6826C5.91595 25.5248 4.68022 25.0079 3.78338 24.2268C2.87743 23.4384 2.37892 22.4295 2.37892 21.3856V12.8276C2.37892 11.7841 2.87743 10.7751 3.78338 9.98646C4.68022 9.20535 5.91595 8.68845 7.26241 8.53057L8.77712 8.35323V5.72944C8.77712 5.47244 9.05513 5.26337 9.3969 5.26337H14.7171L14.8949 4.06629C15.091 2.74845 16.5707 1.7543 18.337 1.7543H137.835C139.602 1.7543 141.082 2.74845 141.278 4.06665L141.456 5.26337H146.775C147.117 5.26337 147.395 5.47244 147.395 5.72944V8.35287L148.91 8.53057C150.256 8.68845 151.491 9.20571 152.389 9.98682C153.294 10.7751 153.793 11.7841 153.793 12.8276V21.3856Z" fill="#784508"/>
<path d="M30.6503 10.56C31.5303 10.56 32.2503 10.6933 32.8103 10.96C33.3837 11.2133 33.8903 11.5133 34.3303 11.86C34.597 12.06 34.797 12.0867 34.9303 11.94C35.077 11.78 35.177 11.4133 35.2303 10.84H35.6903C35.6637 11.3467 35.6437 11.9667 35.6303 12.7C35.617 13.4333 35.6103 14.4 35.6103 15.6H35.1503C35.0703 15 34.9837 14.5 34.8903 14.1C34.797 13.6867 34.6637 13.3333 34.4903 13.04C34.3303 12.7467 34.1037 12.4667 33.8103 12.2C33.4503 11.8 33.017 11.5067 32.5103 11.32C32.017 11.12 31.497 11.02 30.9503 11.02C30.257 11.02 29.6503 11.2067 29.1303 11.58C28.6237 11.94 28.197 12.44 27.8503 13.08C27.517 13.7067 27.2637 14.44 27.0903 15.28C26.9303 16.12 26.8503 17.0133 26.8503 17.96C26.8503 18.9333 26.937 19.84 27.1103 20.68C27.297 21.5067 27.5637 22.2333 27.9103 22.86C28.2703 23.4733 28.7103 23.9533 29.2303 24.3C29.7637 24.6467 30.377 24.82 31.0703 24.82C31.5637 24.82 32.0703 24.7267 32.5903 24.54C33.1103 24.3533 33.537 24.0667 33.8703 23.68C34.3103 23.28 34.6103 22.8067 34.7703 22.26C34.9303 21.7 35.057 20.96 35.1503 20.04H35.6103C35.6103 21.2933 35.617 22.3067 35.6303 23.08C35.6437 23.84 35.6637 24.48 35.6903 25H35.2303C35.177 24.4267 35.0837 24.0667 34.9503 23.92C34.8303 23.7733 34.6237 23.7933 34.3303 23.98C33.837 24.3267 33.3103 24.6333 32.7503 24.9C32.2036 25.1533 31.497 25.28 30.6303 25.28C29.2703 25.28 28.077 24.9933 27.0503 24.42C26.0237 23.8467 25.2237 23.02 24.6503 21.94C24.0903 20.86 23.8103 19.56 23.8103 18.04C23.8103 16.5467 24.1037 15.24 24.6903 14.12C25.277 13 26.0837 12.1267 27.1103 11.5C28.137 10.8733 29.317 10.56 30.6503 10.56Z" fill="#784508"/>
<path d="M40.1942 25.14C39.6209 25.14 39.1342 25.0333 38.7342 24.82C38.3342 24.5933 38.0342 24.2933 37.8342 23.92C37.6342 23.5333 37.5342 23.1067 37.5342 22.64C37.5342 22.0667 37.6676 21.6 37.9342 21.24C38.2009 20.8667 38.5409 20.5733 38.9542 20.36C39.3809 20.1333 39.8276 19.9467 40.2942 19.8C40.7609 19.64 41.2009 19.4933 41.6142 19.36C42.0276 19.2133 42.3676 19.0467 42.6342 18.86C42.9009 18.6733 43.0342 18.4267 43.0342 18.12V16.66C43.0342 16.2333 42.9676 15.8867 42.8342 15.62C42.7142 15.34 42.5276 15.1333 42.2742 15C42.0342 14.8533 41.7276 14.78 41.3542 14.78C41.0742 14.78 40.7809 14.82 40.4742 14.9C40.1676 14.98 39.9142 15.1333 39.7142 15.36C40.0609 15.4533 40.3276 15.6267 40.5142 15.88C40.7142 16.1333 40.8142 16.44 40.8142 16.8C40.8142 17.2133 40.6742 17.54 40.3942 17.78C40.1276 18.0067 39.7876 18.12 39.3742 18.12C38.9342 18.12 38.6009 17.98 38.3742 17.7C38.1476 17.42 38.0342 17.0933 38.0342 16.72C38.0342 16.3467 38.1276 16.04 38.3142 15.8C38.5009 15.5467 38.7609 15.32 39.0942 15.12C39.4276 14.8933 39.8542 14.7133 40.3742 14.58C40.8942 14.4467 41.4609 14.38 42.0742 14.38C42.6609 14.38 43.1809 14.4467 43.6342 14.58C44.0876 14.7 44.4742 14.92 44.7942 15.24C45.1142 15.5467 45.3209 15.9267 45.4142 16.38C45.5076 16.8333 45.5542 17.3867 45.5542 18.04V23.52C45.5542 23.8533 45.5942 24.0933 45.6742 24.24C45.7542 24.3733 45.8809 24.44 46.0542 24.44C46.1876 24.44 46.3142 24.4067 46.4342 24.34C46.5542 24.2733 46.6876 24.18 46.8342 24.06L47.0542 24.4C46.7609 24.6267 46.4542 24.8067 46.1342 24.94C45.8142 25.0733 45.4276 25.14 44.9742 25.14C44.5076 25.14 44.1342 25.0733 43.8542 24.94C43.5876 24.8067 43.3876 24.6133 43.2542 24.36C43.1342 24.1067 43.0676 23.8067 43.0542 23.46C42.7342 23.9933 42.3409 24.4067 41.8742 24.7C41.4076 24.9933 40.8476 25.14 40.1942 25.14ZM41.3942 24.02C41.7142 24.02 42.0076 23.9333 42.2742 23.76C42.5542 23.5867 42.8076 23.3267 43.0342 22.98V18.94C42.9009 19.14 42.7076 19.32 42.4542 19.48C42.2142 19.64 41.9542 19.8 41.6742 19.96C41.3942 20.12 41.1276 20.3067 40.8742 20.52C40.6342 20.72 40.4276 20.9733 40.2542 21.28C40.0942 21.5733 40.0142 21.9533 40.0142 22.42C40.0142 22.94 40.1409 23.34 40.3942 23.62C40.6476 23.8867 40.9809 24.02 41.3942 24.02Z" fill="#784508"/>
<path d="M57.2091 9.34V22.82C57.2091 23.42 57.3091 23.8667 57.5091 24.16C57.7091 24.44 58.0624 24.58 58.5691 24.58V25C58.1557 24.96 57.7424 24.94 57.3291 24.94C56.8357 24.94 56.3691 24.96 55.9291 25C55.4891 25.04 55.0757 25.1133 54.6891 25.22V11.74C54.6891 11.14 54.5891 10.7 54.3891 10.42C54.2024 10.1267 53.8491 9.98 53.3291 9.98V9.56C53.7557 9.6 54.1691 9.62 54.5691 9.62C55.0757 9.62 55.5491 9.6 55.9891 9.56C56.4291 9.50667 56.8357 9.43334 57.2091 9.34ZM52.4291 14.38C53.0157 14.38 53.5424 14.4933 54.0091 14.72C54.4757 14.9467 54.8224 15.3267 55.0491 15.86L54.8091 16.06C54.6224 15.6733 54.3691 15.3867 54.0491 15.2C53.7291 15.0133 53.3691 14.92 52.9691 14.92C52.2491 14.92 51.6691 15.3267 51.2291 16.14C50.8024 16.94 50.5891 18.1733 50.5891 19.84C50.5891 20.96 50.6757 21.8667 50.8491 22.56C51.0224 23.24 51.2691 23.7333 51.5891 24.04C51.9224 24.3467 52.3157 24.5 52.7691 24.5C53.2491 24.5 53.6824 24.3067 54.0691 23.92C54.4557 23.52 54.6824 22.9533 54.7491 22.22L54.8891 22.78C54.7157 23.5933 54.3891 24.2133 53.9091 24.64C53.4291 25.0667 52.7957 25.28 52.0091 25.28C51.2091 25.28 50.4957 25.0867 49.8691 24.7C49.2557 24.3 48.7757 23.7 48.4291 22.9C48.0957 22.0867 47.9291 21.06 47.9291 19.82C47.9291 18.6067 48.1291 17.6 48.5291 16.8C48.9291 15.9867 49.4691 15.38 50.1491 14.98C50.8291 14.58 51.5891 14.38 52.4291 14.38Z" fill="#784508"/>
<path d="M62.245 25.14C61.6717 25.14 61.185 25.0333 60.785 24.82C60.385 24.5933 60.085 24.2933 59.885 23.92C59.685 23.5333 59.585 23.1067 59.585 22.64C59.585 22.0667 59.7183 21.6 59.985 21.24C60.2517 20.8667 60.5917 20.5733 61.005 20.36C61.4317 20.1333 61.8783 19.9467 62.345 19.8C62.8117 19.64 63.2517 19.4933 63.665 19.36C64.0783 19.2133 64.4183 19.0467 64.685 18.86C64.9517 18.6733 65.085 18.4267 65.085 18.12V16.66C65.085 16.2333 65.0183 15.8867 64.885 15.62C64.765 15.34 64.5783 15.1333 64.325 15C64.085 14.8533 63.7783 14.78 63.405 14.78C63.125 14.78 62.8317 14.82 62.525 14.9C62.2183 14.98 61.965 15.1333 61.765 15.36C62.1117 15.4533 62.3783 15.6267 62.565 15.88C62.765 16.1333 62.865 16.44 62.865 16.8C62.865 17.2133 62.725 17.54 62.445 17.78C62.1783 18.0067 61.8383 18.12 61.425 18.12C60.985 18.12 60.6517 17.98 60.425 17.7C60.1983 17.42 60.085 17.0933 60.085 16.72C60.085 16.3467 60.1783 16.04 60.365 15.8C60.5517 15.5467 60.8117 15.32 61.145 15.12C61.4783 14.8933 61.905 14.7133 62.425 14.58C62.945 14.4467 63.5117 14.38 64.125 14.38C64.7117 14.38 65.2317 14.4467 65.685 14.58C66.1383 14.7 66.525 14.92 66.845 15.24C67.165 15.5467 67.3717 15.9267 67.465 16.38C67.5583 16.8333 67.605 17.3867 67.605 18.04V23.52C67.605 23.8533 67.645 24.0933 67.725 24.24C67.805 24.3733 67.9317 24.44 68.105 24.44C68.2383 24.44 68.365 24.4067 68.485 24.34C68.605 24.2733 68.7383 24.18 68.885 24.06L69.105 24.4C68.8117 24.6267 68.505 24.8067 68.185 24.94C67.865 25.0733 67.4783 25.14 67.025 25.14C66.5583 25.14 66.185 25.0733 65.905 24.94C65.6383 24.8067 65.4383 24.6133 65.305 24.36C65.185 24.1067 65.1183 23.8067 65.105 23.46C64.785 23.9933 64.3917 24.4067 63.925 24.7C63.4583 24.9933 62.8983 25.14 62.245 25.14ZM63.445 24.02C63.765 24.02 64.0583 23.9333 64.325 23.76C64.605 23.5867 64.8583 23.3267 65.085 22.98V18.94C64.9517 19.14 64.7583 19.32 64.505 19.48C64.265 19.64 64.005 19.8 63.725 19.96C63.445 20.12 63.1783 20.3067 62.925 20.52C62.685 20.72 62.4783 20.9733 62.305 21.28C62.145 21.5733 62.065 21.9533 62.065 22.42C62.065 22.94 62.1917 23.34 62.445 23.62C62.6983 23.8867 63.0317 24.02 63.445 24.02Z" fill="#784508"/>
<path d="M73.4998 14.38C74.0598 14.38 74.5398 14.46 74.9398 14.62C75.3398 14.78 75.6332 14.92 75.8198 15.04C76.2732 15.3733 76.5465 15.16 76.6398 14.4H77.0798C77.0532 14.7867 77.0332 15.2467 77.0199 15.78C77.0065 16.3 76.9998 17 76.9998 17.88H76.5599C76.4932 17.3867 76.3665 16.9067 76.1798 16.44C75.9932 15.9733 75.7198 15.5867 75.3598 15.28C74.9998 14.96 74.5265 14.8 73.9398 14.8C73.5265 14.8 73.1798 14.92 72.8998 15.16C72.6332 15.4 72.4998 15.74 72.4998 16.18C72.4998 16.58 72.6198 16.9333 72.8598 17.24C73.0998 17.5333 73.4065 17.8133 73.7798 18.08C74.1665 18.3333 74.5665 18.6133 74.9799 18.92C75.4599 19.24 75.8865 19.5667 76.2598 19.9C76.6332 20.22 76.9332 20.58 77.1599 20.98C77.3865 21.3667 77.4998 21.8267 77.4998 22.36C77.4998 22.9733 77.3265 23.5 76.9799 23.94C76.6465 24.3667 76.1998 24.7 75.6398 24.94C75.0932 25.1667 74.4865 25.28 73.8198 25.28C73.4598 25.28 73.1332 25.2467 72.8399 25.18C72.5465 25.1133 72.2865 25.0267 72.0599 24.92C71.8865 24.8267 71.7265 24.74 71.5798 24.66C71.4465 24.58 71.3065 24.5133 71.1599 24.46C71.0265 24.3933 70.9065 24.42 70.7999 24.54C70.7065 24.66 70.6332 24.86 70.5798 25.14H70.1398C70.1665 24.7133 70.1865 24.1933 70.1999 23.58C70.2132 22.9667 70.2198 22.1533 70.2198 21.14H70.6599C70.7532 21.8733 70.8932 22.52 71.0798 23.08C71.2798 23.6267 71.5665 24.06 71.9398 24.38C72.3132 24.6867 72.7932 24.84 73.3799 24.84C73.6332 24.84 73.8732 24.7867 74.0998 24.68C74.3398 24.5733 74.5332 24.4067 74.6798 24.18C74.8398 23.9533 74.9199 23.6467 74.9199 23.26C74.9199 22.6733 74.7198 22.1867 74.3198 21.8C73.9198 21.4133 73.4198 21 72.8198 20.56C72.3665 20.2267 71.9398 19.9 71.5398 19.58C71.1532 19.26 70.8332 18.9 70.5798 18.5C70.3398 18.1 70.2198 17.6267 70.2198 17.08C70.2198 16.48 70.3732 15.9867 70.6798 15.6C70.9865 15.2 71.3865 14.9 71.8799 14.7C72.3865 14.4867 72.9265 14.38 73.4998 14.38Z" fill="#784508"/>
<path d="M82.6005 11.38V14.68H85.1605V15.08H82.6005V23.04C82.6005 23.52 82.6871 23.86 82.8605 24.06C83.0338 24.26 83.2805 24.36 83.6005 24.36C83.9071 24.36 84.1871 24.2467 84.4405 24.02C84.6938 23.78 84.9205 23.3867 85.1205 22.84L85.4805 23C85.2805 23.6533 84.9671 24.2 84.5405 24.64C84.1271 25.0667 83.5405 25.28 82.7805 25.28C82.3271 25.28 81.9405 25.22 81.6205 25.1C81.3138 24.9933 81.0471 24.8333 80.8205 24.62C80.5271 24.3133 80.3271 23.9467 80.2205 23.52C80.1271 23.0933 80.0805 22.5267 80.0805 21.82V15.08H78.3205V14.68H80.0805V11.9C80.5605 11.8867 81.0071 11.84 81.4205 11.76C81.8338 11.68 82.2271 11.5533 82.6005 11.38Z" fill="#784508"/>
<path d="M92.4917 14.38C92.9051 14.38 93.2451 14.4667 93.5117 14.64C93.7917 14.8133 93.9984 15.0333 94.1317 15.3C94.2651 15.5667 94.3317 15.8467 94.3317 16.14C94.3317 16.58 94.1984 16.9467 93.9317 17.24C93.6784 17.5333 93.3384 17.68 92.9117 17.68C92.5117 17.68 92.1851 17.5733 91.9317 17.36C91.6784 17.1467 91.5517 16.8533 91.5517 16.48C91.5517 16.1467 91.6317 15.8667 91.7917 15.64C91.9651 15.4133 92.1584 15.2333 92.3717 15.1C92.2251 15.02 92.0584 14.9933 91.8717 15.02C91.5517 15.0467 91.2584 15.16 90.9917 15.36C90.7251 15.56 90.4984 15.8067 90.3117 16.1C90.1251 16.3933 89.9784 16.7067 89.8717 17.04C89.7784 17.3733 89.7317 17.6933 89.7317 18V22.94C89.7317 23.5933 89.8984 24.0333 90.2317 24.26C90.5651 24.4733 91.0517 24.58 91.6917 24.58V25C91.3851 24.9867 90.9384 24.9733 90.3517 24.96C89.7784 24.9333 89.1784 24.92 88.5517 24.92C88.0317 24.92 87.5117 24.9333 86.9917 24.96C86.4851 24.9733 86.1051 24.9867 85.8517 25V24.58C86.3451 24.58 86.6917 24.48 86.8917 24.28C87.1051 24.08 87.2117 23.7 87.2117 23.14V16.84C87.2117 16.24 87.1117 15.8 86.9117 15.52C86.7251 15.2267 86.3717 15.08 85.8517 15.08V14.66C86.2784 14.7 86.6917 14.72 87.0917 14.72C87.5851 14.72 88.0517 14.7 88.4917 14.66C88.9451 14.6067 89.3584 14.5333 89.7317 14.44V16.52C89.8917 16.1467 90.0984 15.8 90.3517 15.48C90.6184 15.16 90.9317 14.9 91.2917 14.7C91.6651 14.4867 92.0651 14.38 92.4917 14.38Z" fill="#784508"/>
<path d="M99.7589 14.38C100.932 14.38 101.852 14.7333 102.519 15.44C103.186 16.1467 103.519 17.2733 103.519 18.82H96.7789L96.7589 18.44H101.199C101.226 17.7867 101.186 17.1867 101.079 16.64C100.972 16.08 100.799 15.6333 100.559 15.3C100.332 14.9667 100.032 14.8 99.6589 14.8C99.1522 14.8 98.7122 15.1 98.3389 15.7C97.9656 16.2867 97.7322 17.2533 97.6389 18.6L97.7189 18.72C97.6922 18.8933 97.6722 19.08 97.6589 19.28C97.6589 19.48 97.6589 19.68 97.6589 19.88C97.6589 20.8 97.7922 21.56 98.0589 22.16C98.3256 22.76 98.6722 23.2 99.0989 23.48C99.5256 23.76 99.9656 23.9 100.419 23.9C100.726 23.9 101.039 23.8533 101.359 23.76C101.679 23.6667 101.992 23.4933 102.299 23.24C102.606 22.9867 102.886 22.6267 103.139 22.16L103.519 22.32C103.372 22.7867 103.126 23.2533 102.779 23.72C102.446 24.1733 102.012 24.5467 101.479 24.84C100.946 25.1333 100.319 25.28 99.5989 25.28C98.6922 25.28 97.8922 25.08 97.1989 24.68C96.5056 24.28 95.9656 23.6867 95.5789 22.9C95.1922 22.1 94.9989 21.1267 94.9989 19.98C94.9989 18.7667 95.1989 17.7467 95.5989 16.92C96.0122 16.0933 96.5789 15.4667 97.2989 15.04C98.0189 14.6 98.8389 14.38 99.7589 14.38Z" fill="#784508"/>
<path d="M112.777 18.86V20.34H105.557V18.86H112.777Z" fill="#784508"/>
<path d="M118.383 14.38C118.943 14.38 119.423 14.46 119.823 14.62C120.223 14.78 120.516 14.92 120.703 15.04C121.156 15.3733 121.429 15.16 121.523 14.4H121.963C121.936 14.7867 121.916 15.2467 121.903 15.78C121.889 16.3 121.883 17 121.883 17.88H121.443C121.376 17.3867 121.249 16.9067 121.063 16.44C120.876 15.9733 120.603 15.5867 120.243 15.28C119.883 14.96 119.409 14.8 118.823 14.8C118.409 14.8 118.063 14.92 117.783 15.16C117.516 15.4 117.383 15.74 117.383 16.18C117.383 16.58 117.503 16.9333 117.743 17.24C117.983 17.5333 118.289 17.8133 118.663 18.08C119.049 18.3333 119.449 18.6133 119.863 18.92C120.343 19.24 120.769 19.5667 121.143 19.9C121.516 20.22 121.816 20.58 122.043 20.98C122.269 21.3667 122.383 21.8267 122.383 22.36C122.383 22.9733 122.209 23.5 121.863 23.94C121.529 24.3667 121.083 24.7 120.523 24.94C119.976 25.1667 119.369 25.28 118.703 25.28C118.343 25.28 118.016 25.2467 117.723 25.18C117.429 25.1133 117.169 25.0267 116.943 24.92C116.769 24.8267 116.609 24.74 116.463 24.66C116.329 24.58 116.189 24.5133 116.043 24.46C115.909 24.3933 115.789 24.42 115.683 24.54C115.589 24.66 115.516 24.86 115.463 25.14H115.023C115.049 24.7133 115.069 24.1933 115.083 23.58C115.096 22.9667 115.103 22.1533 115.103 21.14H115.543C115.636 21.8733 115.776 22.52 115.963 23.08C116.163 23.6267 116.449 24.06 116.823 24.38C117.196 24.6867 117.676 24.84 118.263 24.84C118.516 24.84 118.756 24.7867 118.983 24.68C119.223 24.5733 119.416 24.4067 119.563 24.18C119.723 23.9533 119.803 23.6467 119.803 23.26C119.803 22.6733 119.603 22.1867 119.203 21.8C118.803 21.4133 118.303 21 117.703 20.56C117.249 20.2267 116.823 19.9 116.423 19.58C116.036 19.26 115.716 18.9 115.463 18.5C115.223 18.1 115.103 17.6267 115.103 17.08C115.103 16.48 115.256 15.9867 115.563 15.6C115.869 15.2 116.269 14.9 116.763 14.7C117.269 14.4867 117.809 14.38 118.383 14.38Z" fill="#784508"/>
<path d="M128.743 14.38C129.917 14.38 130.837 14.7333 131.503 15.44C132.17 16.1467 132.503 17.2733 132.503 18.82H125.763L125.743 18.44H130.183C130.21 17.7867 130.17 17.1867 130.063 16.64C129.957 16.08 129.783 15.6333 129.543 15.3C129.317 14.9667 129.017 14.8 128.643 14.8C128.137 14.8 127.697 15.1 127.323 15.7C126.95 16.2867 126.717 17.2533 126.623 18.6L126.703 18.72C126.677 18.8933 126.657 19.08 126.643 19.28C126.643 19.48 126.643 19.68 126.643 19.88C126.643 20.8 126.777 21.56 127.043 22.16C127.31 22.76 127.657 23.2 128.083 23.48C128.51 23.76 128.95 23.9 129.403 23.9C129.71 23.9 130.023 23.8533 130.343 23.76C130.663 23.6667 130.977 23.4933 131.283 23.24C131.59 22.9867 131.87 22.6267 132.123 22.16L132.503 22.32C132.357 22.7867 132.11 23.2533 131.763 23.72C131.43 24.1733 130.997 24.5467 130.463 24.84C129.93 25.1333 129.303 25.28 128.583 25.28C127.677 25.28 126.877 25.08 126.183 24.68C125.49 24.28 124.95 23.6867 124.563 22.9C124.177 22.1 123.983 21.1267 123.983 19.98C123.983 18.7667 124.183 17.7467 124.583 16.92C124.997 16.0933 125.563 15.4667 126.283 15.04C127.003 14.6 127.823 14.38 128.743 14.38Z" fill="#784508"/>
</svg>
