<svg width="305" height="20" viewBox="0 0 305 20" fill="none" xmlns="http://www.w3.org/2000/svg">
<mask id="mask0_181_186" style="mask-type:luminance" maskUnits="userSpaceOnUse" x="142" y="0" width="21" height="20">
<path d="M142.266 0H162.25V19.8698H142.266V0Z" fill="white"/>
</mask>
<g mask="url(#mask0_181_186)">
<mask id="mask1_181_186" style="mask-type:luminance" maskUnits="userSpaceOnUse" x="142" y="0" width="21" height="20">
<path d="M142.365 9.9375C147.844 9.9375 152.281 5.49479 152.281 0.015625C152.281 5.49479 156.724 9.9375 162.203 9.9375C156.724 9.9375 152.281 14.375 152.281 19.8542C152.281 14.375 147.844 9.9375 142.365 9.9375Z" fill="white"/>
</mask>
<g mask="url(#mask1_181_186)">
<mask id="mask2_181_186" style="mask-type:luminance" maskUnits="userSpaceOnUse" x="141" y="-2" width="22" height="23">
<path d="M162.667 -1.09375H141.333V20.2396H162.667V-1.09375Z" fill="white"/>
</mask>
<g mask="url(#mask2_181_186)">
<mask id="mask3_181_186" style="mask-type:luminance" maskUnits="userSpaceOnUse" x="142" y="0" width="21" height="20">
<path d="M142.266 0H162.25V19.8698H142.266V0Z" fill="white"/>
</mask>
<g mask="url(#mask3_181_186)">
<mask id="mask4_181_186" style="mask-type:luminance" maskUnits="userSpaceOnUse" x="142" y="0" width="21" height="20">
<path d="M142.365 9.9375C147.844 9.9375 152.281 5.49479 152.281 0.015625C152.281 5.49479 156.724 9.9375 162.203 9.9375C156.724 9.9375 152.281 14.375 152.281 19.8542C152.281 14.375 147.844 9.9375 142.365 9.9375Z" fill="white"/>
</mask>
<g mask="url(#mask4_181_186)">
<path d="M510 -183.094H-210V536.906H510V-183.094Z" fill="#E89028"/>
</g>
</g>
</g>
</g>
</g>
<mask id="mask5_181_186" style="mask-type:luminance" maskUnits="userSpaceOnUse" x="131" y="4" width="11" height="11">
<path d="M131.13 4.91162H141.177V14.9064H131.13V4.91162Z" fill="white"/>
</mask>
<g mask="url(#mask5_181_186)">
<mask id="mask6_181_186" style="mask-type:luminance" maskUnits="userSpaceOnUse" x="131" y="4" width="11" height="11">
<path d="M131.162 9.93766C133.906 9.93766 136.12 7.71891 136.12 4.97412C136.12 7.71891 138.344 9.93766 141.083 9.93766C138.339 9.93766 136.12 12.1512 136.12 14.896C136.12 12.1616 133.896 9.93766 131.162 9.93766Z" fill="white"/>
</mask>
<g mask="url(#mask6_181_186)">
<mask id="mask7_181_186" style="mask-type:luminance" maskUnits="userSpaceOnUse" x="130" y="4" width="12" height="11">
<path d="M141.334 4.23975H130.667V14.9064H141.334V4.23975Z" fill="white"/>
</mask>
<g mask="url(#mask7_181_186)">
<mask id="mask8_181_186" style="mask-type:luminance" maskUnits="userSpaceOnUse" x="131" y="4" width="11" height="11">
<path d="M131.13 4.91162H141.177V14.9064H131.13V4.91162Z" fill="white"/>
</mask>
<g mask="url(#mask8_181_186)">
<mask id="mask9_181_186" style="mask-type:luminance" maskUnits="userSpaceOnUse" x="131" y="4" width="11" height="11">
<path d="M131.162 9.93766C133.906 9.93766 136.12 7.71891 136.12 4.97412C136.12 7.71891 138.344 9.93766 141.083 9.93766C138.339 9.93766 136.12 12.1512 136.12 14.896C136.12 12.1616 133.896 9.93766 131.162 9.93766Z" fill="white"/>
</mask>
<g mask="url(#mask9_181_186)">
<path d="M510 -183.094H-210V536.906H510V-183.094Z" fill="#E89028"/>
</g>
</g>
</g>
</g>
</g>
<mask id="mask10_181_186" style="mask-type:luminance" maskUnits="userSpaceOnUse" x="163" y="4" width="11" height="11">
<path d="M163.453 4.91162H173.5V14.9064H163.453V4.91162Z" fill="white"/>
</mask>
<g mask="url(#mask10_181_186)">
<mask id="mask11_181_186" style="mask-type:luminance" maskUnits="userSpaceOnUse" x="163" y="4" width="11" height="11">
<path d="M163.484 9.93766C166.219 9.93766 168.443 7.71891 168.443 4.97412C168.443 7.71891 170.667 9.93766 173.401 9.93766C170.661 9.93766 168.443 12.1512 168.443 14.896C168.443 12.1616 166.219 9.93766 163.484 9.93766Z" fill="white"/>
</mask>
<g mask="url(#mask11_181_186)">
<mask id="mask12_181_186" style="mask-type:luminance" maskUnits="userSpaceOnUse" x="162" y="4" width="13" height="11">
<path d="M174.667 4.23975H162.667V14.9064H174.667V4.23975Z" fill="white"/>
</mask>
<g mask="url(#mask12_181_186)">
<mask id="mask13_181_186" style="mask-type:luminance" maskUnits="userSpaceOnUse" x="163" y="4" width="11" height="11">
<path d="M163.453 4.91162H173.5V14.9064H163.453V4.91162Z" fill="white"/>
</mask>
<g mask="url(#mask13_181_186)">
<mask id="mask14_181_186" style="mask-type:luminance" maskUnits="userSpaceOnUse" x="163" y="4" width="11" height="11">
<path d="M163.484 9.93766C166.219 9.93766 168.443 7.71891 168.443 4.97412C168.443 7.71891 170.667 9.93766 173.401 9.93766C170.661 9.93766 168.443 12.1512 168.443 14.896C168.443 12.1616 166.219 9.93766 163.484 9.93766Z" fill="white"/>
</mask>
<g mask="url(#mask14_181_186)">
<path d="M510 -183.094H-210V536.906H510V-183.094Z" fill="#E89028"/>
</g>
</g>
</g>
</g>
</g>
<mask id="mask15_181_186" style="mask-type:luminance" maskUnits="userSpaceOnUse" x="2" y="9" width="125" height="2">
<path d="M2.71338 9.28125H126.667V10.5885H2.71338V9.28125Z" fill="white"/>
</mask>
<g mask="url(#mask15_181_186)">
<mask id="mask16_181_186" style="mask-type:luminance" maskUnits="userSpaceOnUse" x="2" y="9" width="125" height="2">
<path d="M3.4165 9.3125H126.031C126.375 9.3125 126.656 9.58854 126.656 9.9375C126.656 10.2865 126.38 10.5625 126.031 10.5625H3.4165C3.07796 10.5625 2.7915 10.2865 2.7915 9.9375C2.7915 9.58854 3.06755 9.3125 3.4165 9.3125Z" fill="white"/>
</mask>
<g mask="url(#mask16_181_186)">
<mask id="mask17_181_186" style="mask-type:luminance" maskUnits="userSpaceOnUse" x="2" y="8" width="125" height="3">
<path d="M126.667 8.2395H2.6665V10.9062H126.667V8.2395Z" fill="white"/>
</mask>
<g mask="url(#mask17_181_186)">
<mask id="mask18_181_186" style="mask-type:luminance" maskUnits="userSpaceOnUse" x="2" y="9" width="125" height="2">
<path d="M2.71875 9.28125H126.667V10.5885H2.71875V9.28125Z" fill="white"/>
</mask>
<g mask="url(#mask18_181_186)">
<mask id="mask19_181_186" style="mask-type:luminance" maskUnits="userSpaceOnUse" x="2" y="9" width="125" height="2">
<path d="M3.4165 9.3125H126.031C126.375 9.3125 126.656 9.58854 126.656 9.9375C126.656 10.2865 126.38 10.5625 126.031 10.5625H3.4165C3.07796 10.5625 2.7915 10.2865 2.7915 9.9375C2.7915 9.58854 3.06755 9.3125 3.4165 9.3125Z" fill="white"/>
</mask>
<g mask="url(#mask19_181_186)">
<path d="M510 -183.094H-210V536.906H510V-183.094Z" fill="#E89028"/>
</g>
</g>
</g>
</g>
</g>
<mask id="mask20_181_186" style="mask-type:luminance" maskUnits="userSpaceOnUse" x="0" y="6" width="7" height="8">
<path d="M0 6.44287H6.86458V13.4272H0V6.44287Z" fill="white"/>
</mask>
<g mask="url(#mask20_181_186)">
<mask id="mask21_181_186" style="mask-type:luminance" maskUnits="userSpaceOnUse" x="0" y="6" width="7" height="8">
<path d="M6.83854 9.93774C6.83854 8.04191 5.30208 6.51587 3.41667 6.51587C1.53646 6.51587 0 8.04191 0 9.93774C0 11.8284 1.52604 13.3544 3.41667 13.3544C5.3125 13.3544 6.83854 11.818 6.83854 9.93774Z" fill="white"/>
</mask>
<g mask="url(#mask21_181_186)">
<mask id="mask22_181_186" style="mask-type:luminance" maskUnits="userSpaceOnUse" x="0" y="5" width="8" height="9">
<path d="M8 5.57324H0V13.5732H8V5.57324Z" fill="white"/>
</mask>
<g mask="url(#mask22_181_186)">
<mask id="mask23_181_186" style="mask-type:luminance" maskUnits="userSpaceOnUse" x="0" y="6" width="7" height="8">
<path d="M0 6.44312H6.86458V13.4275H0V6.44312Z" fill="white"/>
</mask>
<g mask="url(#mask23_181_186)">
<mask id="mask24_181_186" style="mask-type:luminance" maskUnits="userSpaceOnUse" x="0" y="6" width="7" height="8">
<path d="M6.83854 9.93799C6.83854 8.04215 5.30208 6.51611 3.41667 6.51611C1.53646 6.51611 0 8.04215 0 9.93799C0 11.8286 1.52604 13.3547 3.41667 13.3547C5.3125 13.3547 6.83854 11.8182 6.83854 9.93799Z" fill="white"/>
</mask>
<g mask="url(#mask24_181_186)">
<path d="M510 -183.093H-210V536.907H510V-183.093Z" fill="#E89028"/>
</g>
</g>
</g>
</g>
</g>
<mask id="mask25_181_186" style="mask-type:luminance" maskUnits="userSpaceOnUse" x="177" y="9" width="125" height="2">
<path d="M177.865 9.28125H301.807V10.5885H177.865V9.28125Z" fill="white"/>
</mask>
<g mask="url(#mask25_181_186)">
<mask id="mask26_181_186" style="mask-type:luminance" maskUnits="userSpaceOnUse" x="177" y="9" width="125" height="2">
<path d="M301.146 10.5625H178.531C178.193 10.5625 177.906 10.2865 177.906 9.9375C177.906 9.58854 178.182 9.3125 178.531 9.3125H301.146C301.49 9.3125 301.771 9.58854 301.771 9.9375C301.771 10.2865 301.495 10.5625 301.146 10.5625Z" fill="white"/>
</mask>
<g mask="url(#mask26_181_186)">
<mask id="mask27_181_186" style="mask-type:luminance" maskUnits="userSpaceOnUse" x="177" y="8" width="126" height="3">
<path d="M302.667 8.2395H177.333V10.9062H302.667V8.2395Z" fill="white"/>
</mask>
<g mask="url(#mask27_181_186)">
<mask id="mask28_181_186" style="mask-type:luminance" maskUnits="userSpaceOnUse" x="177" y="9" width="125" height="2">
<path d="M177.865 9.28125H301.807V10.5885H177.865V9.28125Z" fill="white"/>
</mask>
<g mask="url(#mask28_181_186)">
<mask id="mask29_181_186" style="mask-type:luminance" maskUnits="userSpaceOnUse" x="177" y="9" width="125" height="2">
<path d="M301.146 10.5625H178.531C178.193 10.5625 177.906 10.2865 177.906 9.9375C177.906 9.58854 178.182 9.3125 178.531 9.3125H301.146C301.49 9.3125 301.771 9.58854 301.771 9.9375C301.771 10.2865 301.495 10.5625 301.146 10.5625Z" fill="white"/>
</mask>
<g mask="url(#mask29_181_186)">
<path d="M510 -183.094H-210V536.906H510V-183.094Z" fill="#E89028"/>
</g>
</g>
</g>
</g>
</g>
<mask id="mask30_181_186" style="mask-type:luminance" maskUnits="userSpaceOnUse" x="297" y="6" width="8" height="8">
<path d="M297.656 6.44287H304.646V13.4272H297.656V6.44287Z" fill="white"/>
</mask>
<g mask="url(#mask30_181_186)">
<mask id="mask31_181_186" style="mask-type:luminance" maskUnits="userSpaceOnUse" x="297" y="6" width="8" height="8">
<path d="M297.729 9.93774C297.729 8.04191 299.26 6.51587 301.146 6.51587C303.031 6.51587 304.562 8.04191 304.562 9.93774C304.562 11.8284 303.031 13.3544 301.146 13.3544C299.26 13.3544 297.729 11.818 297.729 9.93774Z" fill="white"/>
</mask>
<g mask="url(#mask31_181_186)">
<mask id="mask32_181_186" style="mask-type:luminance" maskUnits="userSpaceOnUse" x="297" y="5" width="9" height="9">
<path d="M305.333 5.57324H297.333V13.5732H305.333V5.57324Z" fill="white"/>
</mask>
<g mask="url(#mask32_181_186)">
<mask id="mask33_181_186" style="mask-type:luminance" maskUnits="userSpaceOnUse" x="297" y="6" width="8" height="8">
<path d="M297.656 6.44312H304.645V13.4275H297.656V6.44312Z" fill="white"/>
</mask>
<g mask="url(#mask33_181_186)">
<mask id="mask34_181_186" style="mask-type:luminance" maskUnits="userSpaceOnUse" x="297" y="6" width="8" height="8">
<path d="M297.729 9.93799C297.729 8.04215 299.26 6.51611 301.145 6.51611C303.031 6.51611 304.562 8.04215 304.562 9.93799C304.562 11.8286 303.031 13.3547 301.145 13.3547C299.26 13.3547 297.729 11.8182 297.729 9.93799Z" fill="white"/>
</mask>
<g mask="url(#mask34_181_186)">
<path d="M510 -183.093H-210V536.907H510V-183.093Z" fill="#E89028"/>
</g>
</g>
</g>
</g>
</g>
</svg>
