<svg width="82" height="74" viewBox="0 0 82 74" fill="none" xmlns="http://www.w3.org/2000/svg">
<path d="M40.9997 0C31.2643 0.000322587 21.8465 3.20619 14.4319 9.0434C7.01703 14.8806 2.089 22.9688 0.529526 31.8606C-1.02994 40.7521 0.880956 49.8671 5.92021 57.5746C10.9591 65.2816 18.7979 71.0784 28.0338 73.9275C30.0838 74.2595 30.8526 73.1214 30.8526 72.1256C30.8526 71.2246 30.8013 68.2371 30.8013 65.0599C20.5 66.8145 17.835 62.7367 17.015 60.6028C16.105 58.5276 14.6627 56.6885 12.8125 55.2443C11.3775 54.533 9.32747 52.7784 12.7612 52.731C14.0725 52.8626 15.3297 53.2849 16.4272 53.9617C17.5244 54.6385 18.4294 55.5504 19.065 56.6195C19.6256 57.5514 20.3797 58.3721 21.2838 59.034C22.1878 59.696 23.2243 60.1866 24.3337 60.477C25.443 60.7676 26.6033 60.8531 27.7483 60.7283C28.8932 60.6034 30.0005 60.2708 31.006 59.7492C31.1834 57.8204 32.1125 56.0172 33.6201 54.6752C24.4975 53.7268 14.965 50.4548 14.965 35.9442C14.9075 32.1742 16.4108 28.5264 19.1675 25.7492C17.9141 22.4724 18.0606 18.8762 19.5775 15.6961C19.5775 15.6961 23.0109 14.7003 30.8526 19.5846C37.5611 17.8774 44.6434 17.8774 51.3523 19.5846C59.1936 14.6529 62.6273 15.6961 62.6273 15.6961C64.1443 18.8762 64.291 22.4724 63.0373 25.7492C65.8017 28.5215 67.3071 32.1729 67.2398 35.9442C67.2398 50.5023 57.656 53.7268 48.5335 54.6752C49.5118 55.5927 50.2652 56.6946 50.7429 57.9053C51.2205 59.1166 51.4108 60.4086 51.301 61.6934C51.301 66.7677 51.2498 70.8452 51.2498 72.1256C51.2498 73.1214 52.0185 74.3069 54.0685 73.9275C63.288 71.0555 71.1042 65.2451 76.1218 57.534C81.1398 49.8226 83.0322 40.7121 81.4619 31.829C79.8917 22.9462 74.9608 14.8687 67.5491 9.03856C60.1377 3.20813 50.7279 0.0048388 40.9997 0Z" fill="#784508"/>
</svg>
