<svg width="238" height="158" viewBox="0 0 238 158" fill="none" xmlns="http://www.w3.org/2000/svg">
<path d="M87.8848 2.51178C101.261 1.47919 104.322 1.38653 118.347 1.58405C141.138 1.90504 154.752 3.08004 174.205 6.40045C179.572 7.31662 180.751 7.5518 185.999 8.75006C192.734 10.2879 196.149 11.4138 197.792 12.4571C198.683 13.0228 199.027 13.4279 199.222 13.8965C199.45 14.4461 199.559 15.29 199.501 16.9337C199.479 17.5737 199.461 18.0996 199.463 18.5079C199.465 18.8854 199.481 19.3292 199.602 19.7315C199.758 20.252 200.084 20.6937 200.599 20.9698C200.956 21.161 201.373 21.2393 201.529 21.2735C201.988 21.3737 202.731 21.5843 203.134 21.7276C203.64 21.9078 206.355 22.7594 209.135 23.6124C216.583 25.8978 223.712 28.6436 229.446 31.4278C232.288 32.8077 233.627 33.6946 234.96 34.9825L236.464 36.4356L236.328 38.9063C236.282 39.7381 236.201 40.5843 236.11 41.2696C236.065 41.6127 236.019 41.9029 235.976 42.1241C235.925 42.3797 235.897 42.4473 235.912 42.4102C235.714 42.8816 234.987 44.6402 234.296 46.3155C232.262 51.2487 227.139 60.1607 222.529 66.7442C218.58 72.3846 216.569 74.9309 212.789 79.085C210.527 81.5711 209.424 82.6547 208.367 83.209C207.396 83.7184 206.359 83.8331 203.913 83.8331C199.638 83.833 196.423 83.2985 188.07 81.1104C186.244 80.6321 184.461 80.1791 183.058 79.835C181.704 79.5031 180.596 79.2449 180.205 79.1895L179.126 79.0362L177.855 78.8565L177.48 80.084L176.41 83.5899C175.824 85.5098 174.664 89.2027 173.834 91.7921C173.228 93.6828 172.846 94.9562 172.667 95.8067C172.579 96.2238 172.515 96.6521 172.538 97.0508C172.563 97.4829 172.704 98.0417 173.186 98.4756C173.431 98.6965 173.728 98.815 173.802 98.8458C173.948 98.9068 174.116 98.9672 174.288 99.0245C174.637 99.1403 175.087 99.2728 175.601 99.4122C176.632 99.6923 177.979 100.02 179.398 100.328C190.691 102.785 196.559 104.439 203.092 106.985C212.195 110.533 216.635 113.726 218.817 117.657C219.231 118.402 219.387 118.771 219.477 119.195C219.577 119.67 219.61 120.291 219.61 121.576C219.61 123.222 219.418 124.399 218.947 125.531C218.465 126.69 217.649 127.903 216.24 129.561C213.966 132.237 212.554 133.543 209.229 136.023C207.938 136.987 205.007 138.733 201.882 140.445C198.765 142.154 195.612 143.742 193.907 144.417C189.392 146.203 183.678 148.143 180.176 149.085C178.953 149.414 177.252 149.897 176.387 150.161C175.614 150.398 173.839 150.82 172.468 151.086C171.057 151.36 168.452 151.906 166.67 152.3C160.489 153.666 147.84 155.295 137.879 155.996C131.101 156.473 108.444 156.675 101.76 156.319C87.6588 155.569 69.1892 153.213 58.2373 150.775C56.9302 150.485 54.7915 150.011 53.4844 149.723C49.3271 148.805 38.806 145.515 35.0752 143.967C30.1546 141.925 22.1416 137.881 19.5186 136.137C14.6181 132.879 11.1356 129.479 9.92676 127.094C9.59661 126.442 9.36413 125.322 9.34863 124.034C9.33329 122.758 9.53401 121.551 9.875 120.758C10.6887 118.866 12.6695 116.599 15.9023 114.119C19.1015 111.665 23.3918 109.104 28.6211 106.579C29.7415 106.038 30.7726 105.497 31.5352 105.057C31.9118 104.839 32.2498 104.631 32.5068 104.449C32.63 104.362 32.7751 104.253 32.9043 104.131C32.9665 104.072 33.0652 103.973 33.1592 103.84C33.2202 103.754 33.456 103.417 33.4561 102.925C33.4561 102.494 33.318 102.132 33.167 101.84C33.0221 101.56 32.815 101.253 32.5615 100.905C32.049 100.202 31.1737 99.1061 29.7275 97.3243C27.5667 94.6619 22.2102 87.6767 20.8828 85.793C20.3687 85.0635 19.5279 83.8748 19.0137 83.1505C16.1666 79.1402 15.0254 77.3902 12.2441 72.7686C6.41887 63.0888 2.65486 53.9449 1.85938 47.877C1.56847 45.6577 1.4577 42.9872 1.51465 40.5987C1.5731 38.1479 1.80561 36.2069 2.10645 35.334C2.60783 33.8795 3.04271 32.8815 3.55273 32.0391C4.05702 31.2063 4.66824 30.4703 5.57715 29.5772C8.24361 26.9571 13.4539 23.6382 19.9844 20.3292C26.474 17.0408 34.131 13.8296 41.583 11.3917C54.8728 7.04398 72.1542 3.72612 87.8848 2.51178ZM196.34 41.4981C195.239 41.4993 194.249 41.5 193.42 41.6309C192.522 41.7727 191.708 42.0795 190.979 42.7403C190.303 43.3536 189.803 44.184 189.33 45.1553C188.853 46.1357 188.332 47.4183 187.678 49.0333C186.839 51.1048 186.196 52.8627 185.796 54.1768C185.597 54.8285 185.446 55.4103 185.365 55.8848C185.325 56.1193 185.294 56.3728 185.295 56.6182C185.295 56.802 185.307 57.2504 185.571 57.6768C185.773 58.0024 186.118 58.3904 186.706 58.5762C187.186 58.7278 187.666 58.6868 188.032 58.6309C188.77 58.5182 189.9 58.1867 191.616 57.6592C195.348 56.5124 198.322 55.1082 200.394 53.4161C202.489 51.7049 203.756 49.6111 203.772 47.1729C203.785 45.3864 203.322 43.7567 201.819 42.7012C200.472 41.755 198.566 41.4954 196.34 41.4981Z" fill="#FCD745" stroke="#784508" stroke-width="3"/>
<path d="M52.2752 21.3083C51.0745 21.3536 48.81 22.5948 44.1958 25.4458C37.3114 29.6995 34.413 31.6852 33.7878 32.5763C33.7272 32.6627 33.6699 32.7781 33.6155 32.9071C33.133 33.5108 33.0072 34.0232 33.0072 34.6557C33.0072 35.3643 33.101 35.9444 33.2159 35.9444C33.2426 35.9444 33.3152 35.9277 33.4107 35.902C33.5188 36.1256 33.697 36.2328 33.972 36.2401C34.0824 36.7266 34.5369 36.6994 35.8494 36.2255C36.7432 35.9029 37.4842 35.9499 38.1124 36.3869C38.2363 36.6245 38.3638 36.8935 38.5014 37.2033C39.3951 39.2156 40.125 48.9498 42.3317 88.278C43.7787 114.067 44.2534 121.102 44.5861 121.723C44.6577 121.856 44.7611 121.974 44.8724 122.074C44.9314 122.174 44.9987 122.259 45.0924 122.328C45.1827 122.446 45.3012 122.491 45.4609 122.489C45.4908 122.616 45.5196 122.72 45.547 122.773C45.8015 123.267 46.1167 123.35 47.1123 123.187C47.798 123.074 52.5581 122.459 57.6899 121.82C70.5064 120.224 70.2313 120.27 70.5644 119.649C70.5901 119.601 70.6109 119.522 70.6294 119.428C70.8901 119.338 71.0379 119.248 71.1721 119.14C71.6906 118.723 71.7143 116.266 71.249 111.26C70.7203 105.573 70.2871 103.725 69.2987 102.949C68.2366 102.115 67.5122 102.118 62.9171 102.974C60.8795 103.353 58.7311 103.752 58.1432 103.86L57.0743 104.055L56.8815 101.222C56.7754 99.6635 56.4487 89.9292 56.1552 79.5895C55.1686 44.8317 54.2533 24.6333 53.5654 22.4289C53.3332 21.6846 52.9956 21.2811 52.2752 21.3083ZM154.161 29.4689C153.371 29.4412 152.248 29.5609 150.798 29.8274C149.161 30.1283 148.437 30.367 148.135 30.9051C147.824 31.1089 147.688 31.3473 147.688 31.6389C147.689 32.5703 148.625 38.0423 149.076 39.7551C149.188 40.1798 149.318 40.4937 149.469 40.7038C149.471 40.7077 149.473 40.7166 149.475 40.7203C149.6 41.0421 149.831 41.2174 150.126 41.2781C150.147 41.3587 150.175 41.4918 150.188 41.5255C150.479 42.2828 150.721 42.187 152.076 40.7759C152.321 40.5202 152.543 40.2751 152.744 40.0349C153.214 39.5874 153.669 39.0389 154.058 38.4108C155.379 36.277 156.184 31.6841 155.534 29.9928C155.411 29.6712 154.952 29.4965 154.161 29.4689ZM112.625 29.4791C111.855 29.509 110.643 29.8457 108.732 30.5006C106.656 31.2121 105.532 31.3577 104.896 32.3318C104.642 32.4573 104.45 32.5643 104.382 32.6342C104.064 32.9572 103.827 38.3938 103.433 54.4048C102.468 93.6325 102.182 108.788 102.395 109.46C102.491 109.761 102.65 109.954 102.933 110.031C103.063 110.15 103.215 110.235 103.395 110.291C103.403 110.425 103.411 110.528 103.421 110.566C103.63 111.362 104.343 111.205 108.244 109.507L111.128 108.251L111.175 107.591C111.713 107.24 111.911 106.948 112.019 106.544C112.157 106.027 112.379 102.108 112.511 97.8356C112.631 93.9762 112.824 90.7958 112.962 90.2532C113.214 90.5265 113.556 90.9231 113.97 91.4209C114.895 92.6034 116.054 94.118 117.323 95.8145C120.213 99.6763 121.959 101.935 123.08 103.224C125.462 106.307 125.281 105.757 126.001 105.286C127.399 104.372 129.509 102.249 129.607 101.674C130.228 100.95 130.638 100.312 130.561 100.023C130.471 99.6829 128.26 96.1276 125.647 92.1222C119.217 82.2644 117.061 78.627 117.061 77.6349C117.061 77.1752 118.197 73.2731 119.585 68.9636C123.792 55.9051 125.883 49.0169 125.883 48.221C125.883 47.3221 124.037 46.055 122.728 46.055C122.19 46.055 121.817 46.1897 121.184 47.1427C120.34 48.3098 118.694 51.5647 115.471 58.3849C114.61 60.2073 113.785 61.8186 113.197 62.8585C113.085 62.733 113.059 61.9294 113.145 60.9016C113.474 56.9669 114.083 31.1598 113.868 30.3021C113.723 29.7268 113.395 29.4493 112.625 29.4791ZM169.197 36.7413C168.565 36.7194 167.66 36.8985 166.352 37.2606C161.405 38.6304 157.955 40.7485 155.791 43.754C155.226 44.4839 154.742 45.2618 154.352 46.0927C153.478 47.9537 153.324 48.6886 153.318 51.0043C153.309 54.448 154.012 56.604 157.626 64.2154C160.697 70.6818 161.001 72.1835 159.554 73.721C159.546 73.73 159.535 73.7381 159.527 73.7469C158.583 74.3626 156.823 74.8817 154.95 75.0455C152.575 75.2532 151.749 75.1373 151.465 76.2384C151.091 76.9061 151.08 78.2463 151.08 80.9508C151.08 83.5214 151.193 85.7364 151.33 85.8736C151.356 85.899 151.429 85.9183 151.522 85.9344C151.542 86.0581 151.563 86.1506 151.584 86.1726C151.631 86.2204 151.782 86.2538 152.013 86.2752V86.7581L154.812 86.7517C161.149 86.7384 165.588 84.8752 168.06 81.2176C169.599 79.3028 170.583 76.8286 171.016 73.7788C171.706 68.9221 170.377 64.9034 166.448 59.9676C163.125 55.7933 162.143 53.5542 162.868 51.8057C162.895 51.7418 162.924 51.6812 162.954 51.6211C163.706 51.014 164.854 50.6592 166.429 50.5216C168.178 50.3688 168.518 50.2258 168.862 49.4974C168.863 49.4949 168.865 49.4885 168.866 49.4859C169.22 49.3255 169.39 49.0803 169.596 48.649C170.144 47.5063 170.887 39.1658 170.558 37.8626C170.373 37.1297 170.011 36.7695 169.197 36.7413ZM81.2879 43.0726C80.473 43.0543 78.5727 43.5774 73.4623 45.1142C68.9113 46.4829 67.7405 46.8945 67.3928 47.5879C67.3581 47.6122 67.323 47.6364 67.3001 47.658C66.703 48.2193 67.1401 49.3244 68.1569 50.051C68.352 50.4883 68.8748 50.9995 69.6718 51.4912C69.8264 51.5866 69.9697 51.682 70.1058 51.7804C71.0817 53.7255 71.3595 58.2231 71.856 71.1719C73.0035 101.102 74.4519 112.583 77.3694 114.874C77.9007 115.914 78.26 116.228 78.9195 116.228C80.7523 116.228 82.9195 114.299 84.914 111.213C86.7214 108.723 88.3935 105.471 89.4434 102.146C89.8446 100.875 90.0155 100.457 90.1571 100.612C90.2943 102.028 90.4153 104.305 90.5322 107.585C90.7261 113.025 90.8039 114.214 91.3361 114.464C91.3924 114.654 91.4497 114.788 91.5084 114.847C91.6111 114.949 91.7654 114.995 91.9914 114.987C92.0232 115.241 92.053 115.418 92.077 115.442C92.3244 115.689 96.6237 113.928 96.9125 113.461C96.9327 113.429 96.9482 113.287 96.9615 113.098C97.3315 112.904 97.6208 112.736 97.6938 112.648C97.9213 112.375 97.9291 108.862 97.717 102.096C97.5421 96.517 97.2422 85.9117 97.0503 78.5281C96.8584 71.1445 96.548 64.2954 96.3605 63.3084C95.9751 61.2797 95.2489 60.2817 94.1591 60.2817C93.45 60.2817 92.9303 60.5478 92.4759 61.4666C92.162 61.8379 91.8874 62.3534 91.7012 63.0087C91.5106 63.6794 90.8219 67.9461 90.1711 72.4905C88.279 85.7012 86.8215 91.8904 84.7875 95.3554C84.3316 96.1319 83.9175 96.7167 83.5344 97.1231C82.7794 97.7945 82.51 97.5434 81.8876 95.9329C81.3124 94.4446 81.2681 93.0287 81.2952 77.0488C81.3112 67.5474 81.5208 56.1412 81.761 51.7023C82.0823 45.7677 82.0981 43.5316 81.82 43.2539C81.7109 43.1451 81.5595 43.0787 81.2879 43.0726ZM146.41 43.1751L145.359 43.2201C144.781 43.2445 140.748 44.6792 136.397 46.4089L128.488 49.5541L128.492 49.8326L128.244 49.9312L128.468 63.346C128.844 85.9434 129.065 91.4855 129.611 92.0308C129.658 92.0777 129.708 92.1203 129.757 92.1632C129.791 92.2309 129.826 92.2841 129.863 92.3206C129.977 92.4347 130.108 92.5265 130.266 92.5958L130.372 93.2806L132.117 93.096C134.004 92.8958 145.426 89.4043 145.97 88.8612C146.065 88.7662 146.162 88.5171 146.257 88.1685C146.648 87.959 146.887 87.7769 146.975 87.6128C147.179 87.2331 147.417 85.3106 147.504 83.3403C147.699 78.9349 147.448 78.4298 145.112 78.518C144.252 78.5506 142.465 78.8049 141.14 79.083C137.507 79.846 137.758 80.0532 137.759 76.2859L137.759 73.578L139.459 72.6168C140.859 71.8253 142.195 70.9197 142.428 70.6042C142.517 70.4835 142.59 70.3067 142.65 70.0988C143.442 69.4185 143.526 69.0997 143.526 67.0906C143.526 64.0106 143.143 63.5474 140.416 63.3308L138.267 63.1601V60.2909V57.7762L141.273 55.8199L145.122 53.3138L145.206 52.7058C145.591 52.4069 145.889 52.1618 145.939 52.0727C146.083 51.8154 146.248 49.7081 146.305 47.39L146.41 43.1751Z" fill="#800000"/>
</svg>
