<svg xmlns="http://www.w3.org/2000/svg" xmlns:xlink="http://www.w3.org/1999/xlink" width="500" zoomAndPan="magnify" viewBox="0 0 375 374.999991" height="500" preserveAspectRatio="xMidYMid meet" version="1.0"><defs><g/><clipPath id="2d2f5d51aa"><path d="M 37.5 208.304688 L 89.648438 208.304688 L 89.648438 257.804688 L 37.5 257.804688 Z M 37.5 208.304688 " clip-rule="nonzero"/></clipPath><clipPath id="929dae1cde"><rect x="0" width="297" y="0" height="153"/></clipPath><clipPath id="ecf2f3f022"><path d="M 285.34375 208.304688 L 337.488281 208.304688 L 337.488281 257.804688 L 285.34375 257.804688 Z M 285.34375 208.304688 " clip-rule="nonzero"/></clipPath></defs><rect x="-37.5" width="450" fill="#ffffff" y="-37.499999" height="449.999989" fill-opacity="1"/><rect x="-37.5" width="450" fill="#ffffff" y="-37.499999" height="449.999989" fill-opacity="1"/><g clip-path="url(#2d2f5d51aa)"><path fill="#fdd692" d="M 63.574219 208.304688 L 69.703125 227.285156 L 89.648438 227.246094 L 73.488281 238.941406 L 79.6875 257.898438 L 63.574219 246.144531 L 47.460938 257.898438 L 53.660156 238.941406 L 37.5 227.246094 L 57.445312 227.285156 L 63.574219 208.304688 " fill-opacity="1" fill-rule="evenodd"/></g><g transform="matrix(1, 0, 0, 1, 40, 72)"><g clip-path="url(#929dae1cde)"><g fill="#18628d" fill-opacity="1"><g transform="translate(36.694033, 69.721666)"><g><path d="M 12.828125 -38.625 C 12.828125 -36.851562 13.28125 -35.28125 14.1875 -33.90625 C 15.09375 -32.53125 16.207031 -31.328125 17.53125 -30.296875 C 18.863281 -29.265625 20.660156 -28.007812 22.921875 -26.53125 C 25.378906 -24.96875 27.34375 -23.59375 28.8125 -22.40625 C 30.289062 -21.226562 31.546875 -19.789062 32.578125 -18.09375 C 33.609375 -16.394531 34.125 -14.441406 34.125 -12.234375 C 34.125 -9.679688 33.4375 -7.410156 32.0625 -5.421875 C 30.6875 -3.429688 28.78125 -1.878906 26.34375 -0.765625 C 23.914062 0.335938 21.203125 0.890625 18.203125 0.890625 C 15.992188 0.890625 13.6875 0.582031 11.28125 -0.03125 C 8.875 -0.644531 7.25 -1.320312 6.40625 -2.0625 C 6.164062 -2.257812 5.984375 -2.441406 5.859375 -2.609375 C 5.734375 -2.785156 5.671875 -3.070312 5.671875 -3.46875 L 5.453125 -15.1875 L 5.453125 -15.265625 C 5.453125 -15.453125 5.570312 -15.554688 5.8125 -15.578125 C 6.0625 -15.609375 6.210938 -15.523438 6.265625 -15.328125 C 7.742188 -12.335938 9.035156 -9.90625 10.140625 -8.03125 C 11.242188 -6.164062 12.640625 -4.519531 14.328125 -3.09375 C 16.023438 -1.664062 17.957031 -0.953125 20.125 -0.953125 C 22.09375 -0.953125 23.710938 -1.476562 24.984375 -2.53125 C 26.265625 -3.59375 26.90625 -5.40625 26.90625 -7.96875 C 26.90625 -10.125 26.425781 -12.015625 25.46875 -13.640625 C 24.507812 -15.265625 23.34375 -16.640625 21.96875 -17.765625 C 20.59375 -18.898438 18.703125 -20.253906 16.296875 -21.828125 C 13.929688 -23.347656 12.097656 -24.644531 10.796875 -25.71875 C 9.492188 -26.800781 8.375 -28.101562 7.4375 -29.625 C 6.507812 -31.15625 6.046875 -32.953125 6.046875 -35.015625 C 6.046875 -37.617188 6.796875 -39.816406 8.296875 -41.609375 C 9.796875 -43.410156 11.722656 -44.738281 14.078125 -45.59375 C 16.441406 -46.457031 18.925781 -46.890625 21.53125 -46.890625 C 23.25 -46.890625 24.988281 -46.726562 26.75 -46.40625 C 28.519531 -46.082031 29.945312 -45.703125 31.03125 -45.265625 C 31.476562 -45.066406 31.773438 -44.859375 31.921875 -44.640625 C 32.066406 -44.421875 32.140625 -44.132812 32.140625 -43.78125 L 32.140625 -32.953125 C 32.140625 -32.804688 32.015625 -32.695312 31.765625 -32.625 C 31.523438 -32.550781 31.378906 -32.585938 31.328125 -32.734375 L 30.734375 -34.125 C 29.503906 -37.226562 28.066406 -39.859375 26.421875 -42.015625 C 24.773438 -44.179688 22.476562 -45.265625 19.53125 -45.265625 C 17.570312 -45.265625 15.960938 -44.695312 14.703125 -43.5625 C 13.453125 -42.4375 12.828125 -40.789062 12.828125 -38.625 Z M 12.828125 -38.625 "/></g></g></g><g fill="#18628d" fill-opacity="1"><g transform="translate(70.010748, 69.721666)"><g><path d="M 16.359375 -44.375 C 10.515625 -44.375 6.316406 -40.566406 3.765625 -32.953125 C 3.710938 -32.804688 3.5625 -32.742188 3.3125 -32.765625 C 3.070312 -32.796875 2.953125 -32.882812 2.953125 -33.03125 C 3.148438 -34.988281 3.367188 -37.53125 3.609375 -40.65625 C 3.859375 -43.78125 3.984375 -46.128906 3.984375 -47.703125 C 3.984375 -47.941406 4.117188 -48.0625 4.390625 -48.0625 C 4.660156 -48.0625 4.796875 -47.941406 4.796875 -47.703125 C 4.796875 -46.617188 6.195312 -46.078125 9 -46.078125 C 13.21875 -45.929688 18.15625 -45.859375 23.8125 -45.859375 C 26.707031 -45.859375 29.78125 -45.90625 33.03125 -46 L 38.03125 -46.078125 C 39.90625 -46.078125 41.269531 -46.195312 42.125 -46.4375 C 42.988281 -46.6875 43.539062 -47.179688 43.78125 -47.921875 C 43.832031 -48.117188 43.992188 -48.21875 44.265625 -48.21875 C 44.535156 -48.21875 44.671875 -48.117188 44.671875 -47.921875 C 44.523438 -46.441406 44.363281 -44.078125 44.1875 -40.828125 C 44.019531 -37.585938 43.9375 -34.988281 43.9375 -33.03125 C 43.9375 -32.882812 43.8125 -32.8125 43.5625 -32.8125 C 43.320312 -32.8125 43.175781 -32.882812 43.125 -33.03125 C 42.382812 -36.8125 41.003906 -39.644531 38.984375 -41.53125 C 36.972656 -43.425781 34.492188 -44.375 31.546875 -44.375 C 30.117188 -44.375 29.171875 -44.066406 28.703125 -43.453125 C 28.242188 -42.835938 28.015625 -41.671875 28.015625 -39.953125 L 28.015625 -5.96875 C 28.015625 -4.445312 28.160156 -3.34375 28.453125 -2.65625 C 28.742188 -1.96875 29.304688 -1.5 30.140625 -1.25 C 30.984375 -1.007812 32.3125 -0.890625 34.125 -0.890625 C 34.28125 -0.890625 34.359375 -0.738281 34.359375 -0.4375 C 34.359375 -0.144531 34.28125 0 34.125 0 C 32.363281 0 30.96875 -0.0234375 29.9375 -0.078125 L 23.8125 -0.140625 L 17.84375 -0.078125 C 16.8125 -0.0234375 15.382812 0 13.5625 0 C 13.414062 0 13.34375 -0.144531 13.34375 -0.4375 C 13.34375 -0.738281 13.414062 -0.890625 13.5625 -0.890625 C 15.332031 -0.890625 16.644531 -1.007812 17.5 -1.25 C 18.363281 -1.5 18.953125 -1.976562 19.265625 -2.6875 C 19.585938 -3.40625 19.75 -4.5 19.75 -5.96875 L 19.75 -40.109375 C 19.75 -41.773438 19.53125 -42.898438 19.09375 -43.484375 C 18.65625 -44.078125 17.742188 -44.375 16.359375 -44.375 Z M 16.359375 -44.375 "/></g></g></g><g fill="#18628d" fill-opacity="1"><g transform="translate(112.762642, 69.721666)"><g><path d="M 52.859375 -0.890625 C 53.097656 -0.890625 53.21875 -0.738281 53.21875 -0.4375 C 53.21875 -0.144531 53.097656 0 52.859375 0 C 51.867188 0 50.34375 -0.046875 48.28125 -0.140625 C 46.125 -0.242188 44.578125 -0.296875 43.640625 -0.296875 C 42.410156 -0.296875 40.910156 -0.242188 39.140625 -0.140625 C 37.472656 -0.046875 36.144531 0 35.15625 0 C 34.96875 0 34.875 -0.144531 34.875 -0.4375 C 34.875 -0.738281 34.96875 -0.890625 35.15625 -0.890625 C 36.4375 -0.890625 37.359375 -1.023438 37.921875 -1.296875 C 38.492188 -1.566406 38.78125 -2.046875 38.78125 -2.734375 C 38.78125 -3.566406 38.285156 -4.960938 37.296875 -6.921875 L 32.28125 -16.875 L 14.15625 -16.875 L 11.28125 -10.46875 C 10.644531 -9.039062 10.328125 -7.710938 10.328125 -6.484375 C 10.328125 -4.710938 10.953125 -3.335938 12.203125 -2.359375 C 13.453125 -1.378906 15.132812 -0.890625 17.25 -0.890625 C 17.5 -0.890625 17.625 -0.738281 17.625 -0.4375 C 17.625 -0.144531 17.5 0 17.25 0 C 16.363281 0 15.085938 -0.046875 13.421875 -0.140625 C 11.546875 -0.242188 9.921875 -0.296875 8.546875 -0.296875 C 7.222656 -0.296875 5.628906 -0.242188 3.765625 -0.140625 C 2.085938 -0.046875 0.734375 0 -0.296875 0 C -0.492188 0 -0.59375 -0.144531 -0.59375 -0.4375 C -0.59375 -0.738281 -0.492188 -0.890625 -0.296875 -0.890625 C 1.078125 -0.890625 2.234375 -1.171875 3.171875 -1.734375 C 4.109375 -2.296875 5.039062 -3.300781 5.96875 -4.75 C 6.90625 -6.195312 8.007812 -8.347656 9.28125 -11.203125 L 25.28125 -46.375 C 25.382812 -46.519531 25.609375 -46.59375 25.953125 -46.59375 C 26.335938 -46.59375 26.554688 -46.519531 26.609375 -46.375 L 45.046875 -10.09375 C 46.765625 -6.601562 48.1875 -4.195312 49.3125 -2.875 C 50.445312 -1.550781 51.628906 -0.890625 52.859375 -0.890625 Z M 15.109375 -18.953125 L 31.1875 -18.953125 L 22.703125 -35.75 Z M 15.109375 -18.953125 "/></g></g></g><g fill="#18628d" fill-opacity="1"><g transform="translate(160.895535, 69.721666)"><g><path d="M 52.1875 -0.890625 C 52.289062 -0.890625 52.34375 -0.738281 52.34375 -0.4375 C 52.34375 -0.144531 52.289062 0 52.1875 0 L 39.078125 0 C 37.992188 0 35.976562 -1.953125 33.03125 -5.859375 C 30.082031 -9.765625 26.519531 -15.234375 22.34375 -22.265625 C 21.945312 -22.210938 21.378906 -22.1875 20.640625 -22.1875 C 18.722656 -22.1875 17.375 -22.210938 16.59375 -22.265625 L 16.59375 -5.96875 C 16.59375 -4.445312 16.710938 -3.34375 16.953125 -2.65625 C 17.203125 -1.96875 17.679688 -1.5 18.390625 -1.25 C 19.109375 -1.007812 20.253906 -0.890625 21.828125 -0.890625 C 21.921875 -0.890625 21.96875 -0.738281 21.96875 -0.4375 C 21.96875 -0.144531 21.921875 0 21.828125 0 C 20.203125 0 18.921875 -0.0234375 17.984375 -0.078125 L 12.390625 -0.140625 L 7 -0.078125 C 6.019531 -0.0234375 4.691406 0 3.015625 0 C 2.867188 0 2.796875 -0.144531 2.796875 -0.4375 C 2.796875 -0.738281 2.867188 -0.890625 3.015625 -0.890625 C 4.585938 -0.890625 5.726562 -1.007812 6.4375 -1.25 C 7.15625 -1.5 7.648438 -1.976562 7.921875 -2.6875 C 8.191406 -3.40625 8.328125 -4.5 8.328125 -5.96875 L 8.328125 -40.109375 C 8.328125 -41.578125 8.203125 -42.65625 7.953125 -43.34375 C 7.710938 -44.03125 7.222656 -44.507812 6.484375 -44.78125 C 5.742188 -45.050781 4.613281 -45.1875 3.09375 -45.1875 C 3 -45.1875 2.953125 -45.332031 2.953125 -45.625 C 2.953125 -45.925781 3 -46.078125 3.09375 -46.078125 L 7 -46 C 9.257812 -45.90625 11.054688 -45.859375 12.390625 -45.859375 C 14.054688 -45.859375 15.800781 -45.929688 17.625 -46.078125 C 18.257812 -46.117188 19.054688 -46.164062 20.015625 -46.21875 C 20.972656 -46.269531 22.039062 -46.296875 23.21875 -46.296875 C 27.695312 -46.296875 31.160156 -45.472656 33.609375 -43.828125 C 36.066406 -42.179688 37.296875 -39.882812 37.296875 -36.9375 C 37.296875 -34.226562 36.554688 -31.78125 35.078125 -29.59375 C 33.609375 -27.40625 31.644531 -25.648438 29.1875 -24.328125 C 33.125 -18.429688 36.414062 -13.8125 39.0625 -10.46875 C 41.71875 -7.125 44.078125 -4.691406 46.140625 -3.171875 C 48.210938 -1.648438 50.226562 -0.890625 52.1875 -0.890625 Z M 16.59375 -24.328125 C 17.769531 -24.128906 19.191406 -24.03125 20.859375 -24.03125 C 23.710938 -24.03125 25.765625 -24.828125 27.015625 -26.421875 C 28.265625 -28.023438 28.890625 -30.59375 28.890625 -34.125 C 28.890625 -38.15625 28.300781 -40.929688 27.125 -42.453125 C 25.945312 -43.984375 24.253906 -44.75 22.046875 -44.75 C 20.078125 -44.75 18.675781 -44.378906 17.84375 -43.640625 C 17.007812 -42.898438 16.59375 -41.671875 16.59375 -39.953125 Z M 16.59375 -24.328125 "/></g></g></g><g fill="#18628d" fill-opacity="1"><g transform="translate(207.701611, 69.721666)"><g><path d="M 12.828125 -38.625 C 12.828125 -36.851562 13.28125 -35.28125 14.1875 -33.90625 C 15.09375 -32.53125 16.207031 -31.328125 17.53125 -30.296875 C 18.863281 -29.265625 20.660156 -28.007812 22.921875 -26.53125 C 25.378906 -24.96875 27.34375 -23.59375 28.8125 -22.40625 C 30.289062 -21.226562 31.546875 -19.789062 32.578125 -18.09375 C 33.609375 -16.394531 34.125 -14.441406 34.125 -12.234375 C 34.125 -9.679688 33.4375 -7.410156 32.0625 -5.421875 C 30.6875 -3.429688 28.78125 -1.878906 26.34375 -0.765625 C 23.914062 0.335938 21.203125 0.890625 18.203125 0.890625 C 15.992188 0.890625 13.6875 0.582031 11.28125 -0.03125 C 8.875 -0.644531 7.25 -1.320312 6.40625 -2.0625 C 6.164062 -2.257812 5.984375 -2.441406 5.859375 -2.609375 C 5.734375 -2.785156 5.671875 -3.070312 5.671875 -3.46875 L 5.453125 -15.1875 L 5.453125 -15.265625 C 5.453125 -15.453125 5.570312 -15.554688 5.8125 -15.578125 C 6.0625 -15.609375 6.210938 -15.523438 6.265625 -15.328125 C 7.742188 -12.335938 9.035156 -9.90625 10.140625 -8.03125 C 11.242188 -6.164062 12.640625 -4.519531 14.328125 -3.09375 C 16.023438 -1.664062 17.957031 -0.953125 20.125 -0.953125 C 22.09375 -0.953125 23.710938 -1.476562 24.984375 -2.53125 C 26.265625 -3.59375 26.90625 -5.40625 26.90625 -7.96875 C 26.90625 -10.125 26.425781 -12.015625 25.46875 -13.640625 C 24.507812 -15.265625 23.34375 -16.640625 21.96875 -17.765625 C 20.59375 -18.898438 18.703125 -20.253906 16.296875 -21.828125 C 13.929688 -23.347656 12.097656 -24.644531 10.796875 -25.71875 C 9.492188 -26.800781 8.375 -28.101562 7.4375 -29.625 C 6.507812 -31.15625 6.046875 -32.953125 6.046875 -35.015625 C 6.046875 -37.617188 6.796875 -39.816406 8.296875 -41.609375 C 9.796875 -43.410156 11.722656 -44.738281 14.078125 -45.59375 C 16.441406 -46.457031 18.925781 -46.890625 21.53125 -46.890625 C 23.25 -46.890625 24.988281 -46.726562 26.75 -46.40625 C 28.519531 -46.082031 29.945312 -45.703125 31.03125 -45.265625 C 31.476562 -45.066406 31.773438 -44.859375 31.921875 -44.640625 C 32.066406 -44.421875 32.140625 -44.132812 32.140625 -43.78125 L 32.140625 -32.953125 C 32.140625 -32.804688 32.015625 -32.695312 31.765625 -32.625 C 31.523438 -32.550781 31.378906 -32.585938 31.328125 -32.734375 L 30.734375 -34.125 C 29.503906 -37.226562 28.066406 -39.859375 26.421875 -42.015625 C 24.773438 -44.179688 22.476562 -45.265625 19.53125 -45.265625 C 17.570312 -45.265625 15.960938 -44.695312 14.703125 -43.5625 C 13.453125 -42.4375 12.828125 -40.789062 12.828125 -38.625 Z M 12.828125 -38.625 "/></g></g></g><g fill="#18628d" fill-opacity="1"><g transform="translate(241.037625, 69.721666)"><g/></g></g><g fill="#18628d" fill-opacity="1"><g transform="translate(0.722248, 130.774331)"><g><path d="M 53.96875 -0.890625 C 54.113281 -0.890625 54.1875 -0.738281 54.1875 -0.4375 C 54.1875 -0.144531 54.113281 0 53.96875 0 C 52.238281 0 50.859375 -0.0234375 49.828125 -0.078125 L 44.15625 -0.140625 L 37.515625 -0.078125 C 36.640625 -0.0234375 35.4375 0 33.90625 0 C 33.757812 0 33.6875 -0.144531 33.6875 -0.4375 C 33.6875 -0.738281 33.757812 -0.890625 33.90625 -0.890625 C 35.726562 -0.890625 37.054688 -1.007812 37.890625 -1.25 C 38.722656 -1.5 39.285156 -1.96875 39.578125 -2.65625 C 39.878906 -3.34375 40.03125 -4.445312 40.03125 -5.96875 L 40.03125 -22.921875 L 16.21875 -22.921875 L 16.21875 -5.96875 C 16.21875 -4.5 16.363281 -3.40625 16.65625 -2.6875 C 16.957031 -1.976562 17.523438 -1.5 18.359375 -1.25 C 19.191406 -1.007812 20.519531 -0.890625 22.34375 -0.890625 C 22.4375 -0.890625 22.484375 -0.738281 22.484375 -0.4375 C 22.484375 -0.144531 22.4375 0 22.34375 0 C 20.613281 0 19.234375 -0.0234375 18.203125 -0.078125 L 11.796875 -0.140625 L 6.265625 -0.078125 C 5.285156 -0.0234375 3.9375 0 2.21875 0 C 2.113281 0 2.0625 -0.144531 2.0625 -0.4375 C 2.0625 -0.738281 2.113281 -0.890625 2.21875 -0.890625 C 3.9375 -0.890625 5.1875 -1.007812 5.96875 -1.25 C 6.757812 -1.5 7.300781 -1.976562 7.59375 -2.6875 C 7.882812 -3.40625 8.03125 -4.5 8.03125 -5.96875 L 8.03125 -40.109375 C 8.03125 -41.578125 7.882812 -42.65625 7.59375 -43.34375 C 7.300781 -44.03125 6.769531 -44.507812 6 -44.78125 C 5.238281 -45.050781 4.023438 -45.1875 2.359375 -45.1875 C 2.210938 -45.1875 2.140625 -45.332031 2.140625 -45.625 C 2.140625 -45.925781 2.210938 -46.078125 2.359375 -46.078125 L 6.34375 -46 C 8.601562 -45.90625 10.421875 -45.859375 11.796875 -45.859375 C 13.660156 -45.859375 15.820312 -45.90625 18.28125 -46 L 22.34375 -46.078125 C 22.4375 -46.078125 22.484375 -45.925781 22.484375 -45.625 C 22.484375 -45.332031 22.4375 -45.1875 22.34375 -45.1875 C 20.570312 -45.1875 19.265625 -45.039062 18.421875 -44.75 C 17.585938 -44.457031 17.007812 -43.953125 16.6875 -43.234375 C 16.375 -42.523438 16.21875 -41.429688 16.21875 -39.953125 L 16.21875 -24.984375 L 40.03125 -24.984375 L 40.03125 -39.953125 C 40.03125 -41.429688 39.878906 -42.523438 39.578125 -43.234375 C 39.285156 -43.953125 38.722656 -44.457031 37.890625 -44.75 C 37.054688 -45.039062 35.726562 -45.1875 33.90625 -45.1875 C 33.757812 -45.1875 33.6875 -45.332031 33.6875 -45.625 C 33.6875 -45.925781 33.757812 -46.078125 33.90625 -46.078125 L 37.515625 -46 C 39.972656 -45.90625 42.1875 -45.859375 44.15625 -45.859375 C 45.476562 -45.859375 47.367188 -45.90625 49.828125 -46 L 53.96875 -46.078125 C 54.113281 -46.078125 54.1875 -45.925781 54.1875 -45.625 C 54.1875 -45.332031 54.113281 -45.1875 53.96875 -45.1875 C 52.289062 -45.1875 51.046875 -45.050781 50.234375 -44.78125 C 49.421875 -44.507812 48.878906 -44.03125 48.609375 -43.34375 C 48.347656 -42.65625 48.21875 -41.578125 48.21875 -40.109375 L 48.21875 -5.96875 C 48.21875 -4.5 48.347656 -3.40625 48.609375 -2.6875 C 48.878906 -1.976562 49.40625 -1.5 50.1875 -1.25 C 50.976562 -1.007812 52.238281 -0.890625 53.96875 -0.890625 Z M 53.96875 -0.890625 "/></g></g></g><g fill="#18628d" fill-opacity="1"><g transform="translate(52.393339, 130.774331)"><g><path d="M 26.984375 0.890625 C 22.410156 0.890625 18.34375 -0.175781 14.78125 -2.3125 C 11.21875 -4.457031 8.460938 -7.359375 6.515625 -11.015625 C 4.578125 -14.679688 3.609375 -18.675781 3.609375 -23 C 3.609375 -28.0625 4.882812 -32.398438 7.4375 -36.015625 C 10 -39.628906 13.28125 -42.34375 17.28125 -44.15625 C 21.289062 -45.976562 25.382812 -46.890625 29.5625 -46.890625 C 34.226562 -46.890625 38.332031 -45.796875 41.875 -43.609375 C 45.414062 -41.421875 48.128906 -38.53125 50.015625 -34.9375 C 51.910156 -31.351562 52.859375 -27.546875 52.859375 -23.515625 C 52.859375 -19.046875 51.675781 -14.941406 49.3125 -11.203125 C 46.957031 -7.472656 43.800781 -4.523438 39.84375 -2.359375 C 35.882812 -0.191406 31.597656 0.890625 26.984375 0.890625 Z M 29.40625 -0.953125 C 32.164062 -0.953125 34.640625 -1.75 36.828125 -3.34375 C 39.015625 -4.945312 40.71875 -7.285156 41.9375 -10.359375 C 43.164062 -13.429688 43.78125 -17.101562 43.78125 -21.375 C 43.78125 -25.894531 43.09375 -29.9375 41.71875 -33.5 C 40.34375 -37.0625 38.351562 -39.847656 35.75 -41.859375 C 33.144531 -43.878906 30.097656 -44.890625 26.609375 -44.890625 C 22.140625 -44.890625 18.695312 -43.207031 16.28125 -39.84375 C 13.875 -36.476562 12.671875 -31.773438 12.671875 -25.734375 C 12.671875 -20.960938 13.394531 -16.695312 14.84375 -12.9375 C 16.300781 -9.175781 18.296875 -6.238281 20.828125 -4.125 C 23.359375 -2.007812 26.21875 -0.953125 29.40625 -0.953125 Z M 29.40625 -0.953125 "/></g></g></g><g fill="#18628d" fill-opacity="1"><g transform="translate(104.211853, 130.774331)"><g><path d="M 15.703125 -6.265625 C 15.703125 -4.984375 15.800781 -4.0625 16 -3.5 C 16.195312 -2.9375 16.578125 -2.554688 17.140625 -2.359375 C 17.703125 -2.160156 18.625 -2.0625 19.90625 -2.0625 L 22.40625 -2.0625 C 26.238281 -2.0625 29.554688 -3.082031 32.359375 -5.125 C 35.160156 -7.164062 37.03125 -9.929688 37.96875 -13.421875 C 37.96875 -13.515625 38.066406 -13.5625 38.265625 -13.5625 C 38.359375 -13.5625 38.46875 -13.523438 38.59375 -13.453125 C 38.71875 -13.378906 38.78125 -13.316406 38.78125 -13.265625 C 38.332031 -8.398438 38.109375 -4.347656 38.109375 -1.109375 C 38.109375 -0.710938 38.019531 -0.425781 37.84375 -0.25 C 37.675781 -0.0820312 37.394531 0 37 0 L 2.21875 0 C 2.113281 0 2.0625 -0.144531 2.0625 -0.4375 C 2.0625 -0.738281 2.113281 -0.890625 2.21875 -0.890625 C 3.789062 -0.890625 4.929688 -1.007812 5.640625 -1.25 C 6.347656 -1.5 6.835938 -1.976562 7.109375 -2.6875 C 7.378906 -3.40625 7.515625 -4.5 7.515625 -5.96875 L 7.515625 -40.109375 C 7.515625 -41.578125 7.378906 -42.65625 7.109375 -43.34375 C 6.835938 -44.03125 6.332031 -44.507812 5.59375 -44.78125 C 4.863281 -45.050781 3.738281 -45.1875 2.21875 -45.1875 C 2.113281 -45.1875 2.0625 -45.332031 2.0625 -45.625 C 2.0625 -45.925781 2.113281 -46.078125 2.21875 -46.078125 L 5.96875 -46 C 8.226562 -45.90625 10.097656 -45.859375 11.578125 -45.859375 C 13.046875 -45.859375 14.910156 -45.90625 17.171875 -46 L 20.9375 -46.078125 C 21.082031 -46.078125 21.15625 -45.925781 21.15625 -45.625 C 21.15625 -45.332031 21.082031 -45.1875 20.9375 -45.1875 C 19.414062 -45.1875 18.285156 -45.050781 17.546875 -44.78125 C 16.804688 -44.507812 16.3125 -44.015625 16.0625 -43.296875 C 15.820312 -42.585938 15.703125 -41.5 15.703125 -40.03125 Z M 15.703125 -6.265625 "/></g></g></g><g fill="#18628d" fill-opacity="1"><g transform="translate(139.739949, 130.774331)"><g><path d="M 15.703125 -6.265625 C 15.703125 -4.984375 15.800781 -4.0625 16 -3.5 C 16.195312 -2.9375 16.578125 -2.554688 17.140625 -2.359375 C 17.703125 -2.160156 18.625 -2.0625 19.90625 -2.0625 L 22.40625 -2.0625 C 26.238281 -2.0625 29.554688 -3.082031 32.359375 -5.125 C 35.160156 -7.164062 37.03125 -9.929688 37.96875 -13.421875 C 37.96875 -13.515625 38.066406 -13.5625 38.265625 -13.5625 C 38.359375 -13.5625 38.46875 -13.523438 38.59375 -13.453125 C 38.71875 -13.378906 38.78125 -13.316406 38.78125 -13.265625 C 38.332031 -8.398438 38.109375 -4.347656 38.109375 -1.109375 C 38.109375 -0.710938 38.019531 -0.425781 37.84375 -0.25 C 37.675781 -0.0820312 37.394531 0 37 0 L 2.21875 0 C 2.113281 0 2.0625 -0.144531 2.0625 -0.4375 C 2.0625 -0.738281 2.113281 -0.890625 2.21875 -0.890625 C 3.789062 -0.890625 4.929688 -1.007812 5.640625 -1.25 C 6.347656 -1.5 6.835938 -1.976562 7.109375 -2.6875 C 7.378906 -3.40625 7.515625 -4.5 7.515625 -5.96875 L 7.515625 -40.109375 C 7.515625 -41.578125 7.378906 -42.65625 7.109375 -43.34375 C 6.835938 -44.03125 6.332031 -44.507812 5.59375 -44.78125 C 4.863281 -45.050781 3.738281 -45.1875 2.21875 -45.1875 C 2.113281 -45.1875 2.0625 -45.332031 2.0625 -45.625 C 2.0625 -45.925781 2.113281 -46.078125 2.21875 -46.078125 L 5.96875 -46 C 8.226562 -45.90625 10.097656 -45.859375 11.578125 -45.859375 C 13.046875 -45.859375 14.910156 -45.90625 17.171875 -46 L 20.9375 -46.078125 C 21.082031 -46.078125 21.15625 -45.925781 21.15625 -45.625 C 21.15625 -45.332031 21.082031 -45.1875 20.9375 -45.1875 C 19.414062 -45.1875 18.285156 -45.050781 17.546875 -44.78125 C 16.804688 -44.507812 16.3125 -44.015625 16.0625 -43.296875 C 15.820312 -42.585938 15.703125 -41.5 15.703125 -40.03125 Z M 15.703125 -6.265625 "/></g></g></g><g fill="#18628d" fill-opacity="1"><g transform="translate(175.268045, 130.774331)"><g><path d="M 26.984375 0.890625 C 22.410156 0.890625 18.34375 -0.175781 14.78125 -2.3125 C 11.21875 -4.457031 8.460938 -7.359375 6.515625 -11.015625 C 4.578125 -14.679688 3.609375 -18.675781 3.609375 -23 C 3.609375 -28.0625 4.882812 -32.398438 7.4375 -36.015625 C 10 -39.628906 13.28125 -42.34375 17.28125 -44.15625 C 21.289062 -45.976562 25.382812 -46.890625 29.5625 -46.890625 C 34.226562 -46.890625 38.332031 -45.796875 41.875 -43.609375 C 45.414062 -41.421875 48.128906 -38.53125 50.015625 -34.9375 C 51.910156 -31.351562 52.859375 -27.546875 52.859375 -23.515625 C 52.859375 -19.046875 51.675781 -14.941406 49.3125 -11.203125 C 46.957031 -7.472656 43.800781 -4.523438 39.84375 -2.359375 C 35.882812 -0.191406 31.597656 0.890625 26.984375 0.890625 Z M 29.40625 -0.953125 C 32.164062 -0.953125 34.640625 -1.75 36.828125 -3.34375 C 39.015625 -4.945312 40.71875 -7.285156 41.9375 -10.359375 C 43.164062 -13.429688 43.78125 -17.101562 43.78125 -21.375 C 43.78125 -25.894531 43.09375 -29.9375 41.71875 -33.5 C 40.34375 -37.0625 38.351562 -39.847656 35.75 -41.859375 C 33.144531 -43.878906 30.097656 -44.890625 26.609375 -44.890625 C 22.140625 -44.890625 18.695312 -43.207031 16.28125 -39.84375 C 13.875 -36.476562 12.671875 -31.773438 12.671875 -25.734375 C 12.671875 -20.960938 13.394531 -16.695312 14.84375 -12.9375 C 16.300781 -9.175781 18.296875 -6.238281 20.828125 -4.125 C 23.359375 -2.007812 26.21875 -0.953125 29.40625 -0.953125 Z M 29.40625 -0.953125 "/></g></g></g><g fill="#18628d" fill-opacity="1"><g transform="translate(227.086559, 130.774331)"><g><path d="M 67.59375 -46.078125 C 67.695312 -46.078125 67.75 -45.925781 67.75 -45.625 C 67.75 -45.332031 67.695312 -45.1875 67.59375 -45.1875 C 65.78125 -45.1875 64.070312 -44.410156 62.46875 -42.859375 C 60.875 -41.316406 59.5625 -39.191406 58.53125 -36.484375 L 44.890625 -0.078125 C 44.847656 0.117188 44.578125 0.21875 44.078125 0.21875 C 43.585938 0.21875 43.316406 0.117188 43.265625 -0.078125 L 33.84375 -20.046875 L 26.390625 -0.078125 C 26.335938 0.117188 26.066406 0.21875 25.578125 0.21875 C 25.085938 0.21875 24.816406 0.117188 24.765625 -0.078125 L 5.96875 -39.953125 C 5.226562 -41.523438 4.625 -42.65625 4.15625 -43.34375 C 3.695312 -44.03125 3.179688 -44.507812 2.609375 -44.78125 C 2.046875 -45.050781 1.300781 -45.1875 0.375 -45.1875 C 0.21875 -45.1875 0.140625 -45.332031 0.140625 -45.625 C 0.140625 -45.925781 0.21875 -46.078125 0.375 -46.078125 C 1.101562 -46.078125 1.617188 -46.050781 1.921875 -46 C 2.898438 -45.90625 4.175781 -45.859375 5.75 -45.859375 C 9.039062 -45.859375 11.816406 -45.90625 14.078125 -46 C 14.710938 -46.050781 15.5 -46.078125 16.4375 -46.078125 C 16.582031 -46.078125 16.65625 -45.925781 16.65625 -45.625 C 16.65625 -45.332031 16.582031 -45.1875 16.4375 -45.1875 C 15.207031 -45.1875 14.332031 -45.0625 13.8125 -44.8125 C 13.300781 -44.570312 13.046875 -44.132812 13.046875 -43.5 C 13.046875 -42.65625 13.613281 -41.03125 14.75 -38.625 L 28.015625 -10.46875 L 32.65625 -22.625 L 24.46875 -39.953125 C 23.632812 -41.722656 22.847656 -43.035156 22.109375 -43.890625 C 21.378906 -44.753906 20.59375 -45.1875 19.75 -45.1875 C 19.601562 -45.1875 19.53125 -45.332031 19.53125 -45.625 C 19.53125 -45.925781 19.601562 -46.078125 19.75 -46.078125 C 20.25 -46.078125 20.828125 -46.039062 21.484375 -45.96875 C 22.148438 -45.894531 23.097656 -45.859375 24.328125 -45.859375 C 27.128906 -45.859375 29.460938 -45.90625 31.328125 -46 C 31.816406 -46.050781 32.457031 -46.078125 33.25 -46.078125 C 33.394531 -46.078125 33.46875 -45.925781 33.46875 -45.625 C 33.46875 -45.332031 33.394531 -45.1875 33.25 -45.1875 C 32.5625 -45.1875 32.054688 -45.097656 31.734375 -44.921875 C 31.410156 -44.753906 31.25 -44.453125 31.25 -44.015625 C 31.25 -43.171875 31.914062 -41.375 33.25 -38.625 L 36.484375 -31.765625 L 38.328125 -36.71875 C 39.410156 -39.507812 39.953125 -41.617188 39.953125 -43.046875 C 39.953125 -44.472656 39.335938 -45.1875 38.109375 -45.1875 C 37.960938 -45.1875 37.890625 -45.332031 37.890625 -45.625 C 37.890625 -45.925781 37.960938 -46.078125 38.109375 -46.078125 C 38.503906 -46.078125 38.9375 -46.039062 39.40625 -45.96875 C 39.875 -45.894531 41.039062 -45.859375 42.90625 -45.859375 C 43.738281 -45.859375 44.742188 -45.90625 45.921875 -46 L 48.65625 -46.078125 C 48.75 -46.078125 48.796875 -45.925781 48.796875 -45.625 C 48.796875 -45.332031 48.75 -45.1875 48.65625 -45.1875 C 45.363281 -45.1875 42.632812 -42.285156 40.46875 -36.484375 L 37.75 -29.1875 L 46.59375 -10.546875 L 56.09375 -35.96875 C 56.6875 -37.539062 56.984375 -38.96875 56.984375 -40.25 C 56.984375 -41.769531 56.601562 -42.972656 55.84375 -43.859375 C 55.082031 -44.742188 54.0625 -45.1875 52.78125 -45.1875 C 52.632812 -45.1875 52.5625 -45.332031 52.5625 -45.625 C 52.5625 -45.925781 52.632812 -46.078125 52.78125 -46.078125 L 56.171875 -46 C 57.941406 -45.90625 59.566406 -45.859375 61.046875 -45.859375 C 62.023438 -45.859375 63.15625 -45.90625 64.4375 -46 Z M 67.59375 -46.078125 "/></g></g></g></g></g><g clip-path="url(#ecf2f3f022)"><path fill="#fdd692" d="M 311.414062 208.304688 L 317.542969 227.285156 L 337.488281 227.246094 L 321.332031 238.941406 L 327.53125 257.898438 L 311.414062 246.144531 L 295.300781 257.898438 L 301.5 238.941406 L 285.34375 227.246094 L 305.289062 227.285156 L 311.414062 208.304688 " fill-opacity="1" fill-rule="evenodd"/></g><g fill="#e89028" fill-opacity="1"><g transform="translate(110.679298, 243.54643)"><g><path d="M 41.578125 -11.765625 C 41.578125 -11.359375 41.425781 -11.003906 41.125 -10.703125 L 39.90625 -9.484375 C 36.488281 -6.066406 33.070312 -3.503906 29.65625 -1.796875 C 26.238281 -0.0859375 22.722656 0.765625 19.109375 0.765625 C 18.191406 1.066406 17.273438 1.21875 16.359375 1.21875 C 15.085938 1.21875 13.914062 0.960938 12.84375 0.453125 C 11.769531 -0.0546875 10.90625 -0.585938 10.25 -1.140625 C 9.78125 -1.554688 9.46875 -1.878906 9.3125 -2.109375 C 9.164062 -2.335938 9.09375 -2.550781 9.09375 -2.75 C 9.09375 -3.15625 9.257812 -3.5 9.59375 -3.78125 C 9.925781 -4.0625 10.296875 -4.203125 10.703125 -4.203125 C 10.859375 -4.203125 11.050781 -4.160156 11.28125 -4.078125 C 11.507812 -4.003906 11.828125 -3.816406 12.234375 -3.515625 C 12.796875 -3.160156 13.421875 -2.789062 14.109375 -2.40625 C 14.796875 -2.019531 15.546875 -1.828125 16.359375 -1.828125 C 17.578125 -1.828125 18.847656 -2.296875 20.171875 -3.234375 C 21.503906 -4.179688 22.71875 -5.445312 23.8125 -7.03125 C 24.90625 -8.613281 25.796875 -10.359375 26.484375 -12.265625 C 27.171875 -14.179688 27.515625 -16.082031 27.515625 -17.96875 C 27.515625 -18.832031 27.257812 -19.53125 26.75 -20.0625 C 26.238281 -20.601562 25.550781 -20.875 24.6875 -20.875 C 24.03125 -20.875 23.238281 -20.59375 22.3125 -20.03125 C 21.394531 -19.46875 20.453125 -18.753906 19.484375 -17.890625 C 17.960938 -16.515625 16.472656 -15 15.015625 -13.34375 C 13.566406 -11.6875 12.484375 -10.421875 11.765625 -9.546875 C 11.304688 -9.046875 10.65625 -8.269531 9.8125 -7.21875 C 8.976562 -6.175781 8.023438 -4.941406 6.953125 -3.515625 C 5.984375 -0.460938 4.925781 2.601562 3.78125 5.6875 C 2.632812 8.769531 1.515625 11.609375 0.421875 14.203125 C -0.671875 16.804688 -1.648438 18.925781 -2.515625 20.5625 C -3.179688 21.78125 -3.921875 22.820312 -4.734375 23.6875 C -5.554688 24.5625 -6.453125 25 -7.421875 25 C -8.535156 25 -9.285156 24.539062 -9.671875 23.625 C -10.054688 22.707031 -10.25 21.890625 -10.25 21.171875 C -10.25 19.390625 -9.554688 17.054688 -8.171875 14.171875 C -6.796875 11.296875 -5.015625 8.175781 -2.828125 4.8125 C -0.640625 1.445312 1.703125 -1.863281 4.203125 -5.125 C 5.066406 -7.875 5.867188 -10.40625 6.609375 -12.71875 C 7.347656 -15.039062 7.894531 -16.835938 8.25 -18.109375 C 7.28125 -16.941406 6.160156 -15.628906 4.890625 -14.171875 C 3.617188 -12.722656 2.550781 -11.566406 1.6875 -10.703125 L 0.453125 -9.484375 C 0.148438 -9.171875 -0.203125 -9.015625 -0.609375 -9.015625 C -1.015625 -9.015625 -1.367188 -9.164062 -1.671875 -9.46875 C -1.984375 -9.78125 -2.140625 -10.140625 -2.140625 -10.546875 C -2.140625 -10.953125 -1.988281 -11.3125 -1.6875 -11.625 L -0.453125 -12.84375 C 0.253906 -13.550781 1.101562 -14.476562 2.09375 -15.625 C 3.09375 -16.769531 4.085938 -17.929688 5.078125 -19.109375 C 6.078125 -20.285156 6.832031 -21.203125 7.34375 -21.859375 C 7.644531 -22.210938 7.984375 -22.453125 8.359375 -22.578125 C 8.742188 -22.710938 9.117188 -22.78125 9.484375 -22.78125 C 9.992188 -22.78125 10.523438 -22.613281 11.078125 -22.28125 C 11.640625 -21.945312 11.921875 -21.347656 11.921875 -20.484375 C 11.921875 -20.023438 11.753906 -19.207031 11.421875 -18.03125 C 11.097656 -16.863281 10.742188 -15.664062 10.359375 -14.4375 C 9.972656 -13.21875 9.679688 -12.28125 9.484375 -11.625 C 10.953125 -13.40625 12.347656 -15.019531 13.671875 -16.46875 C 15.003906 -17.925781 16.226562 -19.140625 17.34375 -20.109375 C 18.519531 -21.171875 19.71875 -22.070312 20.9375 -22.8125 C 22.164062 -23.550781 23.414062 -23.921875 24.6875 -23.921875 C 26.46875 -23.921875 27.894531 -23.347656 28.96875 -22.203125 C 30.039062 -21.054688 30.578125 -19.644531 30.578125 -17.96875 C 30.578125 -15.625 30.050781 -13.113281 29 -10.4375 C 27.957031 -7.757812 26.597656 -5.425781 24.921875 -3.4375 C 27.109375 -4.15625 29.257812 -5.160156 31.375 -6.453125 C 33.488281 -7.753906 35.617188 -9.476562 37.765625 -11.625 L 38.984375 -12.84375 C 39.285156 -13.144531 39.640625 -13.296875 40.046875 -13.296875 C 40.460938 -13.296875 40.820312 -13.144531 41.125 -12.84375 C 41.425781 -12.539062 41.578125 -12.179688 41.578125 -11.765625 Z M 0.84375 4.890625 C -0.582031 6.984375 -1.90625 9.046875 -3.125 11.078125 C -4.351562 13.117188 -5.335938 15.019531 -6.078125 16.78125 C -6.816406 18.539062 -7.1875 20.003906 -7.1875 21.171875 L -7.1875 21.78125 C -6.46875 21.269531 -5.675781 20.1875 -4.8125 18.53125 C -3.945312 16.875 -3.03125 14.859375 -2.0625 12.484375 C -1.09375 10.117188 -0.125 7.585938 0.84375 4.890625 Z M 0.84375 4.890625 "/></g></g></g><g fill="#e89028" fill-opacity="1"><g transform="translate(150.117033, 243.54643)"><g><path d="M 32.5625 -11.765625 C 32.5625 -11.359375 32.410156 -11.003906 32.109375 -10.703125 L 30.875 -9.484375 C 30.269531 -8.867188 29.507812 -8.078125 28.59375 -7.109375 C 27.675781 -6.140625 26.664062 -5.171875 25.5625 -4.203125 C 24.46875 -3.234375 23.359375 -2.40625 22.234375 -1.71875 C 21.117188 -1.03125 20.101562 -0.6875 19.1875 -0.6875 C 17.65625 -0.6875 16.570312 -1.257812 15.9375 -2.40625 C 15.300781 -3.550781 14.984375 -4.738281 14.984375 -5.96875 C 14.984375 -6.375 15.007812 -6.804688 15.0625 -7.265625 C 15.113281 -7.722656 15.210938 -8.207031 15.359375 -8.71875 C 13.984375 -6.925781 12.546875 -5.253906 11.046875 -3.703125 C 9.546875 -2.148438 8.066406 -0.890625 6.609375 0.078125 C 5.160156 1.046875 3.796875 1.53125 2.515625 1.53125 C 1.242188 1.53125 0.238281 1.171875 -0.5 0.453125 C -1.238281 -0.253906 -1.75 -1.101562 -2.03125 -2.09375 C -2.3125 -3.09375 -2.453125 -4.050781 -2.453125 -4.96875 C -2.453125 -6.90625 -2.054688 -8.878906 -1.265625 -10.890625 C -0.472656 -12.898438 0.617188 -14.757812 2.015625 -16.46875 C 3.421875 -18.175781 5.023438 -19.566406 6.828125 -20.640625 C 8.640625 -21.710938 10.539062 -22.25 12.53125 -22.25 C 14.007812 -22.25 15.269531 -21.890625 16.3125 -21.171875 C 17.363281 -20.460938 18.21875 -19.546875 18.875 -18.421875 L 20.71875 -21.015625 C 20.863281 -21.273438 21.050781 -21.441406 21.28125 -21.515625 C 21.507812 -21.585938 21.726562 -21.625 21.9375 -21.625 C 22.34375 -21.625 22.695312 -21.472656 23 -21.171875 C 23.3125 -20.867188 23.46875 -20.515625 23.46875 -20.109375 C 23.46875 -19.796875 23.363281 -19.515625 23.15625 -19.265625 L 21.78125 -17.28125 C 21.632812 -17.019531 21.253906 -16.273438 20.640625 -15.046875 C 20.023438 -13.828125 19.4375 -12.390625 18.875 -10.734375 C 18.320312 -9.078125 18.046875 -7.488281 18.046875 -5.96875 C 18.046875 -4.4375 18.398438 -3.671875 19.109375 -3.671875 C 19.617188 -3.671875 20.332031 -4 21.25 -4.65625 C 22.164062 -5.320312 23.144531 -6.140625 24.1875 -7.109375 C 25.238281 -8.078125 26.179688 -8.992188 27.015625 -9.859375 C 27.859375 -10.722656 28.429688 -11.3125 28.734375 -11.625 L 29.96875 -12.84375 C 30.269531 -13.144531 30.625 -13.296875 31.03125 -13.296875 C 31.4375 -13.296875 31.789062 -13.144531 32.09375 -12.84375 C 32.40625 -12.539062 32.5625 -12.179688 32.5625 -11.765625 Z M 16.890625 -15.59375 C 16.535156 -16.5625 16.015625 -17.398438 15.328125 -18.109375 C 14.640625 -18.828125 13.707031 -19.1875 12.53125 -19.1875 C 11.101562 -19.1875 9.675781 -18.765625 8.25 -17.921875 C 6.820312 -17.078125 5.535156 -15.953125 4.390625 -14.546875 C 3.242188 -13.148438 2.328125 -11.613281 1.640625 -9.9375 C 0.953125 -8.257812 0.609375 -6.601562 0.609375 -4.96875 C 0.609375 -3.695312 0.800781 -2.804688 1.1875 -2.296875 C 1.570312 -1.785156 2.015625 -1.53125 2.515625 -1.53125 C 3.390625 -1.53125 4.410156 -1.960938 5.578125 -2.828125 C 6.753906 -3.691406 8.003906 -4.820312 9.328125 -6.21875 C 10.648438 -7.625 11.960938 -9.140625 13.265625 -10.765625 C 14.566406 -12.398438 15.773438 -14.007812 16.890625 -15.59375 Z M 16.890625 -15.59375 "/></g></g></g><g fill="#e89028" fill-opacity="1"><g transform="translate(180.536056, 243.54643)"><g><path d="M 34.546875 -11.765625 C 34.546875 -11.359375 34.394531 -11.003906 34.09375 -10.703125 L 32.875 -9.484375 C 30.375 -6.984375 27.707031 -4.6875 24.875 -2.59375 C 22.050781 -0.507812 19.0625 1.296875 15.90625 2.828125 C 15.394531 4.460938 14.816406 6.054688 14.171875 7.609375 C 13.535156 9.160156 12.785156 10.675781 11.921875 12.15625 C 11.054688 13.632812 10.050781 15.0625 8.90625 16.4375 C 7.757812 17.8125 6.472656 18.914062 5.046875 19.75 C 3.617188 20.59375 2.039062 21.015625 0.3125 21.015625 C -0.707031 21.015625 -1.738281 20.785156 -2.78125 20.328125 C -3.832031 19.867188 -4.703125 19.191406 -5.390625 18.296875 C -6.078125 17.410156 -6.421875 16.332031 -6.421875 15.0625 C -6.421875 13.320312 -5.9375 11.789062 -4.96875 10.46875 C -4 9.144531 -2.75 7.984375 -1.21875 6.984375 C 0.300781 5.992188 1.96875 5.128906 3.78125 4.390625 C 5.59375 3.648438 7.351562 2.972656 9.0625 2.359375 C 10.769531 1.753906 12.234375 1.171875 13.453125 0.609375 C 14.015625 -1.015625 14.535156 -2.734375 15.015625 -4.546875 C 15.503906 -6.359375 15.976562 -7.976562 16.4375 -9.40625 C 14.09375 -6.601562 11.875 -4.5625 9.78125 -3.28125 C 7.695312 -2.007812 5.8125 -1.375 4.125 -1.375 C 2.34375 -1.375 0.957031 -2.007812 -0.03125 -3.28125 C -1.03125 -4.5625 -1.53125 -5.914062 -1.53125 -7.34375 C -1.53125 -9.632812 -0.972656 -11.796875 0.140625 -13.828125 C 1.265625 -15.867188 2.71875 -17.664062 4.5 -19.21875 C 6.289062 -20.78125 8.203125 -22.003906 10.234375 -22.890625 C 12.273438 -23.785156 14.238281 -24.234375 16.125 -24.234375 C 18.320312 -24.234375 20.132812 -23.59375 21.5625 -22.3125 L 22.09375 -23.234375 C 22.394531 -23.742188 22.800781 -24 23.3125 -24 C 23.71875 -24 24.085938 -23.84375 24.421875 -23.53125 C 24.753906 -23.226562 24.921875 -22.875 24.921875 -22.46875 C 24.921875 -22.164062 24.867188 -21.910156 24.765625 -21.703125 C 24.609375 -21.453125 24.425781 -21.144531 24.21875 -20.78125 C 24.019531 -20.425781 23.796875 -20.046875 23.546875 -19.640625 C 22.117188 -16.890625 20.945312 -13.929688 20.03125 -10.765625 C 19.113281 -7.609375 18.171875 -4.453125 17.203125 -1.296875 C 19.546875 -2.617188 21.835938 -4.117188 24.078125 -5.796875 C 26.316406 -7.484375 28.535156 -9.425781 30.734375 -11.625 L 31.953125 -12.84375 C 32.253906 -13.144531 32.609375 -13.296875 33.015625 -13.296875 C 33.421875 -13.296875 33.773438 -13.144531 34.078125 -12.84375 C 34.390625 -12.539062 34.546875 -12.179688 34.546875 -11.765625 Z M 19.953125 -19.5625 C 18.984375 -20.632812 17.707031 -21.171875 16.125 -21.171875 C 14.59375 -21.171875 12.972656 -20.785156 11.265625 -20.015625 C 9.566406 -19.253906 7.976562 -18.222656 6.5 -16.921875 C 5.019531 -15.628906 3.820312 -14.15625 2.90625 -12.5 C 1.988281 -10.84375 1.53125 -9.125 1.53125 -7.34375 C 1.53125 -6.519531 1.769531 -5.828125 2.25 -5.265625 C 2.738281 -4.710938 3.363281 -4.4375 4.125 -4.4375 C 5.445312 -4.4375 6.832031 -4.921875 8.28125 -5.890625 C 9.738281 -6.859375 11.164062 -8.101562 12.5625 -9.625 C 13.96875 -11.15625 15.304688 -12.800781 16.578125 -14.5625 C 17.859375 -16.320312 18.984375 -17.988281 19.953125 -19.5625 Z M 12.15625 4.515625 C 11.082031 4.921875 9.691406 5.425781 7.984375 6.03125 C 6.273438 6.644531 4.539062 7.375 2.78125 8.21875 C 1.03125 9.0625 -0.425781 10.039062 -1.59375 11.15625 C -2.769531 12.28125 -3.359375 13.582031 -3.359375 15.0625 C -3.359375 15.820312 -3 16.492188 -2.28125 17.078125 C -1.570312 17.671875 -0.707031 17.96875 0.3125 17.96875 C 2.09375 17.96875 3.722656 17.273438 5.203125 15.890625 C 6.679688 14.515625 8.003906 12.796875 9.171875 10.734375 C 10.347656 8.671875 11.34375 6.597656 12.15625 4.515625 Z M 12.15625 4.515625 "/></g></g></g><g fill="#e89028" fill-opacity="1"><g transform="translate(212.942254, 243.54643)"><g><path d="M 25.984375 -11.765625 C 25.984375 -11.359375 25.832031 -11.003906 25.53125 -10.703125 L 24.3125 -9.484375 C 22.882812 -8.054688 21.25 -6.523438 19.40625 -4.890625 C 17.570312 -3.265625 15.609375 -1.863281 13.515625 -0.6875 C 11.429688 0.476562 9.320312 1.0625 7.1875 1.0625 C 4.4375 1.0625 2.359375 0.046875 0.953125 -1.984375 C -0.441406 -4.023438 -1.140625 -6.5 -1.140625 -9.40625 C -1.140625 -11.132812 -0.804688 -12.914062 -0.140625 -14.75 C 0.515625 -16.582031 1.441406 -18.289062 2.640625 -19.875 C 3.835938 -21.457031 5.25 -22.742188 6.875 -23.734375 C 8.507812 -24.722656 10.269531 -25.21875 12.15625 -25.21875 C 13.53125 -25.21875 14.738281 -24.835938 15.78125 -24.078125 C 16.820312 -23.316406 17.34375 -22.195312 17.34375 -20.71875 C 17.34375 -19.1875 16.804688 -17.796875 15.734375 -16.546875 C 14.671875 -15.296875 13.3125 -14.210938 11.65625 -13.296875 C 10 -12.378906 8.300781 -11.601562 6.5625 -10.96875 C 4.832031 -10.332031 3.28125 -9.835938 1.90625 -9.484375 C 1.90625 -8.359375 2.054688 -7.222656 2.359375 -6.078125 C 2.671875 -4.929688 3.207031 -3.960938 3.96875 -3.171875 C 4.738281 -2.378906 5.8125 -1.984375 7.1875 -1.984375 C 8.96875 -1.984375 10.773438 -2.53125 12.609375 -3.625 C 14.441406 -4.726562 16.195312 -6.039062 17.875 -7.5625 C 19.5625 -9.09375 20.992188 -10.445312 22.171875 -11.625 L 23.390625 -12.84375 C 23.691406 -13.144531 24.046875 -13.296875 24.453125 -13.296875 C 24.867188 -13.296875 25.226562 -13.144531 25.53125 -12.84375 C 25.832031 -12.539062 25.984375 -12.179688 25.984375 -11.765625 Z M 14.296875 -20.71875 C 14.296875 -21.070312 14.140625 -21.398438 13.828125 -21.703125 C 13.523438 -22.015625 12.96875 -22.171875 12.15625 -22.171875 C 10.625 -22.171875 9.207031 -21.710938 7.90625 -20.796875 C 6.613281 -19.878906 5.492188 -18.691406 4.546875 -17.234375 C 3.609375 -15.785156 2.910156 -14.296875 2.453125 -12.765625 C 3.566406 -13.066406 4.796875 -13.484375 6.140625 -14.015625 C 7.492188 -14.554688 8.796875 -15.15625 10.046875 -15.8125 C 11.296875 -16.476562 12.316406 -17.234375 13.109375 -18.078125 C 13.898438 -18.921875 14.296875 -19.800781 14.296875 -20.71875 Z M 14.296875 -20.71875 "/></g></g></g><g fill="#e89028" fill-opacity="1"><g transform="translate(236.78833, 243.54643)"><g><path d="M 29.65625 -11.765625 C 29.65625 -11.359375 29.503906 -11.003906 29.203125 -10.703125 L 27.96875 -9.484375 C 24.914062 -6.421875 22.191406 -4.035156 19.796875 -2.328125 C 17.398438 -0.617188 15.09375 0.5625 12.875 1.21875 C 10.65625 1.882812 8.222656 2.21875 5.578125 2.21875 C 4.609375 2.21875 3.78125 2 3.09375 1.5625 C 2.40625 1.132812 1.832031 0.71875 1.375 0.3125 C 1.070312 0.0507812 0.921875 -0.304688 0.921875 -0.765625 C 0.921875 -1.171875 1.097656 -1.539062 1.453125 -1.875 C 1.804688 -2.207031 2.1875 -2.375 2.59375 -2.375 C 3 -2.375 3.332031 -2.242188 3.59375 -1.984375 C 4.457031 -1.273438 5.117188 -0.921875 5.578125 -0.921875 C 7.359375 -0.921875 8.796875 -1.476562 9.890625 -2.59375 C 10.992188 -3.71875 11.546875 -5.070312 11.546875 -6.65625 C 11.546875 -8.03125 11.335938 -9.328125 10.921875 -10.546875 C 10.515625 -11.773438 10.082031 -12.984375 9.625 -14.171875 C 9.164062 -15.367188 8.890625 -16.632812 8.796875 -17.96875 C 7.617188 -16.6875 6.390625 -15.410156 5.109375 -14.140625 C 3.835938 -12.867188 2.695312 -11.722656 1.6875 -10.703125 L 0.453125 -9.484375 C 0.148438 -9.171875 -0.203125 -9.015625 -0.609375 -9.015625 C -1.015625 -9.015625 -1.367188 -9.164062 -1.671875 -9.46875 C -1.984375 -9.78125 -2.140625 -10.140625 -2.140625 -10.546875 C -2.140625 -10.953125 -1.988281 -11.3125 -1.6875 -11.625 L -0.453125 -12.84375 C 0.554688 -13.863281 1.660156 -14.984375 2.859375 -16.203125 C 4.054688 -17.429688 5.238281 -18.65625 6.40625 -19.875 C 7.582031 -21.09375 8.617188 -22.210938 9.515625 -23.234375 C 10.410156 -24.253906 11.0625 -25.046875 11.46875 -25.609375 C 11.769531 -26.066406 12.175781 -26.296875 12.6875 -26.296875 C 13.09375 -26.296875 13.445312 -26.140625 13.75 -25.828125 C 14.0625 -25.523438 14.21875 -25.171875 14.21875 -24.765625 C 14.21875 -24.359375 14.113281 -24.023438 13.90625 -23.765625 C 13.5 -23.253906 13.039062 -22.503906 12.53125 -21.515625 C 12.019531 -20.523438 11.765625 -19.617188 11.765625 -18.796875 C 11.765625 -17.421875 12.003906 -16.125 12.484375 -14.90625 C 12.972656 -13.6875 13.445312 -12.425781 13.90625 -11.125 C 14.363281 -9.820312 14.59375 -8.332031 14.59375 -6.65625 C 14.59375 -5.019531 14.210938 -3.539062 13.453125 -2.21875 C 15.234375 -2.925781 17.09375 -4.019531 19.03125 -5.5 C 20.96875 -6.976562 23.234375 -9.019531 25.828125 -11.625 L 27.0625 -12.84375 C 27.363281 -13.144531 27.71875 -13.296875 28.125 -13.296875 C 28.53125 -13.296875 28.882812 -13.144531 29.1875 -12.84375 C 29.5 -12.539062 29.65625 -12.179688 29.65625 -11.765625 Z M 29.65625 -11.765625 "/></g></g></g></svg>