<svg width="213" height="47" viewBox="0 0 213 47" fill="none" xmlns="http://www.w3.org/2000/svg">
<path d="M187.609 0C191.381 0.000133721 194.743 1.89553 195.743 4.70801H199.744C200.963 4.70801 202.088 5.0765 202.919 5.69434C203.75 6.31201 204.314 7.20425 204.314 8.2334V9.29688C206.547 9.73029 208.584 10.6649 210.134 11.998H210.135C211.958 13.5676 213 15.5633 213 17.7119V29.2646C213 31.4105 211.96 33.4526 210.134 35.0244C208.584 36.3576 206.547 37.2915 204.314 37.7246V38.7666C204.314 39.7956 203.75 40.6882 202.919 41.3057C202.088 41.9232 200.963 42.291 199.744 42.291H195.743C194.743 45.104 191.381 46.9999 187.609 47H25.3916C21.6203 47 18.2567 45.1042 17.2578 42.291H13.2559C12.0369 42.291 10.9122 41.9232 10.0811 41.3057C9.2501 40.6882 8.68558 39.7956 8.68555 38.7666V37.7021C6.45342 37.2695 4.41585 36.335 2.86621 35.002C1.03923 33.4296 0 31.387 0 29.2412V17.7578C7.42355e-05 15.6122 1.03923 13.5699 2.86621 11.998C4.4159 10.6649 6.45341 9.72996 8.68555 9.29688V8.2334C8.68558 7.20425 9.25009 6.31201 10.0811 5.69434C10.9123 5.07651 12.0367 4.70801 13.2559 4.70801H17.2578C18.2568 1.89526 21.6204 1.55129e-05 25.3916 0H187.609Z" fill="#FDC787" stroke="#784508"/>
<path d="M209.808 12.3771C208.241 11.0291 206.134 10.0966 203.815 9.71548V8.23349C203.815 6.5653 201.989 5.20811 199.744 5.20811H195.379C194.633 2.48936 191.411 0.5 187.609 0.5H106.5H25.3916C21.5896 0.5 18.3668 2.48936 17.6224 5.20811H13.2556C11.0113 5.20811 9.18546 6.5653 9.18546 8.23349V9.71548C6.86704 10.0961 4.75879 11.0291 3.19192 12.3771C1.45587 13.8707 0.5 15.7817 0.5 17.758V29.2415C0.5 31.2178 1.45587 33.1288 3.19192 34.6229C4.75879 35.9709 6.86704 36.9039 9.18546 37.284V38.7665C9.18546 40.4342 11.0113 41.7909 13.2556 41.7909H17.6224C18.3668 44.5102 21.5896 46.5 25.3916 46.5H187.609C191.411 46.5 194.633 44.5102 195.379 41.7909H199.744C201.989 41.7909 203.815 40.4342 203.815 38.7665V37.3073C206.134 36.9266 208.241 35.9936 209.808 34.6456C211.543 33.152 212.5 31.241 212.5 29.2647V23.523V17.7121C212.5 15.7363 211.543 13.8712 209.808 12.3771ZM210.904 29.1955C210.904 32.693 207.535 35.6221 202.894 36.1605L202.218 36.2388V38.7206C202.218 39.7339 201.109 40.5585 199.744 40.5585H193.984L193.904 41.0857C193.545 43.4698 190.839 45.2676 187.609 45.2676H25.3916C22.1616 45.2676 19.4554 43.4703 19.0968 41.0862L19.0174 40.5585H13.2556C11.8917 40.5585 10.7816 39.7339 10.7816 38.7206V36.2388L10.1068 36.1605C5.4648 35.6226 2.09615 32.6935 2.09615 29.1955V17.7121C2.09615 14.2142 5.4648 11.285 10.1068 10.7476L10.7816 10.6693V8.18755C10.7816 7.17376 11.8917 6.34861 13.2556 6.34861H19.0174L19.0968 5.8214C19.4554 3.43785 22.1616 1.64003 25.3916 1.64003H187.609C190.839 1.64003 193.545 3.43785 193.904 5.8214L193.984 6.34861H199.744C201.109 6.34861 202.218 7.17376 202.218 8.18755V10.6693L202.894 10.7476C207.535 11.2855 210.904 14.2146 210.904 17.7121V29.1955Z" fill="#784508"/>
<path d="M202.72 11.5737L201.094 11.385V8.18795C201.094 7.63511 200.489 7.18481 199.745 7.18481H192.978L192.787 5.91468C192.492 3.95482 190.266 2.47672 187.609 2.47672H25.3922C22.7354 2.47672 20.5093 3.95434 20.2146 5.91468L20.0239 7.18481H13.2561C12.5123 7.18481 11.9065 7.63511 11.9065 8.18795V11.3855L10.2804 11.5737C8.33357 11.7991 6.54806 12.5381 5.25123 13.6535C3.94204 14.78 3.22107 16.2218 3.22107 17.7125V29.1959C3.22107 30.6871 3.94204 32.1284 5.25123 33.2549C6.54806 34.3707 8.33357 35.1093 10.2804 35.3347L11.9065 35.5233V38.7209C11.9065 39.2733 12.5123 39.7231 13.2561 39.7231H20.0239L20.2146 40.9937C20.5093 42.9541 22.7354 44.4322 25.3922 44.4322H187.609C190.266 44.4322 192.492 42.9541 192.787 40.9932L192.978 39.7231H199.745C200.489 39.7231 201.094 39.2733 201.094 38.7209V35.5233L202.72 35.3347C204.667 35.1093 206.453 34.3707 207.75 33.2549C209.059 32.1284 209.779 30.6871 209.779 29.1959V17.7125C209.779 16.2218 209.059 14.7804 207.75 13.654C206.453 12.5381 204.667 11.7996 202.72 11.5737ZM209.272 29.1959C209.272 30.5966 208.594 31.9504 207.365 33.0082C206.147 34.0564 204.47 34.7499 202.642 34.9618L200.587 35.2003V38.7209C200.587 39.0653 200.209 39.3458 199.745 39.3458H192.524L192.283 40.9516C192.017 42.7204 190.007 44.0549 187.609 44.0549H25.3922C22.9943 44.0549 20.9857 42.7209 20.7195 40.9516L20.4781 39.3458H13.2561C12.7921 39.3458 12.4147 39.0653 12.4147 38.7209V35.2003L10.3585 34.9618C8.53073 34.7499 6.85324 34.0564 5.63579 33.0082C4.40598 31.9504 3.72926 30.5966 3.72926 29.1959V17.7125C3.72926 16.3122 4.40598 14.9584 5.63579 13.9002C6.85324 12.852 8.53073 12.1584 10.3585 11.9466L12.4147 11.7086V8.18795C12.4147 7.84309 12.7921 7.56256 13.2561 7.56256H20.4781L20.7195 5.95627C20.9857 4.18796 22.9943 2.85398 25.3922 2.85398H187.609C190.007 2.85398 192.017 4.18796 192.283 5.95676L192.524 7.56256H199.745C200.209 7.56256 200.587 7.84309 200.587 8.18795V11.7081L202.642 11.9466C204.47 12.1584 206.147 12.8525 207.365 13.9006C208.594 14.9584 209.272 16.3122 209.272 17.7125V29.1959Z" fill="#784508"/>
<path d="M35.8286 17.34C35.7753 17.9533 35.7353 18.5533 35.7086 19.14C35.6953 19.7133 35.6886 20.1533 35.6886 20.46C35.6886 20.7667 35.6953 21.0533 35.7086 21.32C35.7219 21.5867 35.7353 21.82 35.7486 22.02H35.2886C35.1019 20.9533 34.8753 20.12 34.6086 19.52C34.3419 18.9067 33.9886 18.4667 33.5486 18.2C33.1219 17.9333 32.5553 17.8 31.8486 17.8H31.2086V29.2C31.2086 29.7467 31.2553 30.1533 31.3486 30.42C31.4553 30.6867 31.6619 30.8667 31.9686 30.96C32.2753 31.04 32.7219 31.0867 33.3086 31.1V31.5C32.9086 31.4733 32.3886 31.46 31.7486 31.46C31.1086 31.4467 30.4553 31.44 29.7886 31.44C29.0953 31.44 28.4419 31.4467 27.8286 31.46C27.2286 31.46 26.7419 31.4733 26.3686 31.5V31.1C26.9419 31.0867 27.3819 31.04 27.6886 30.96C27.9953 30.8667 28.2019 30.6867 28.3086 30.42C28.4153 30.1533 28.4686 29.7467 28.4686 29.2V17.8H27.8086C27.1153 17.8 26.5486 17.9333 26.1086 18.2C25.6686 18.4667 25.3153 18.9067 25.0486 19.52C24.7819 20.12 24.5619 20.9533 24.3886 22.02H23.9286C23.9553 21.82 23.9686 21.5867 23.9686 21.32C23.9819 21.0533 23.9886 20.7667 23.9886 20.46C23.9886 20.1533 23.9753 19.7133 23.9486 19.14C23.9353 18.5533 23.9019 17.9533 23.8486 17.34C24.4353 17.3533 25.0819 17.3667 25.7886 17.38C26.4953 17.3933 27.2019 17.4 27.9086 17.4C28.6153 17.4 29.2619 17.4 29.8486 17.4C30.4219 17.4 31.0619 17.4 31.7686 17.4C32.4753 17.4 33.1819 17.3933 33.8886 17.38C34.5953 17.3667 35.2419 17.3533 35.8286 17.34ZM41.0756 20.88C42.249 20.88 43.169 21.2333 43.8356 21.94C44.5023 22.6467 44.8356 23.7733 44.8356 25.32H38.0956L38.0756 24.94H42.5156C42.5423 24.2867 42.5023 23.6867 42.3956 23.14C42.289 22.58 42.1156 22.1333 41.8756 21.8C41.649 21.4667 41.349 21.3 40.9756 21.3C40.469 21.3 40.029 21.6 39.6556 22.2C39.2823 22.7867 39.049 23.7533 38.9556 25.1L39.0356 25.22C39.009 25.3933 38.989 25.58 38.9756 25.78C38.9756 25.98 38.9756 26.18 38.9756 26.38C38.9756 27.3 39.109 28.06 39.3756 28.66C39.6423 29.26 39.989 29.7 40.4156 29.98C40.8423 30.26 41.2823 30.4 41.7356 30.4C42.0423 30.4 42.3556 30.3533 42.6756 30.26C42.9956 30.1667 43.309 29.9933 43.6156 29.74C43.9223 29.4867 44.2023 29.1267 44.4556 28.66L44.8356 28.82C44.689 29.2867 44.4423 29.7533 44.0956 30.22C43.7623 30.6733 43.329 31.0467 42.7956 31.34C42.2623 31.6333 41.6356 31.78 40.9156 31.78C40.009 31.78 39.209 31.58 38.5156 31.18C37.8223 30.78 37.2823 30.1867 36.8956 29.4C36.509 28.6 36.3156 27.6267 36.3156 26.48C36.3156 25.2667 36.5156 24.2467 36.9156 23.42C37.329 22.5933 37.8956 21.9667 38.6156 21.54C39.3356 21.1 40.1556 20.88 41.0756 20.88ZM53.2352 20.88C53.7952 20.88 54.2418 20.9533 54.5752 21.1C54.9218 21.2467 55.2018 21.4333 55.4152 21.66C55.6552 21.9133 55.8218 22.24 55.9152 22.64C56.0218 23.04 56.0752 23.58 56.0752 24.26V29.64C56.0752 30.2 56.1752 30.58 56.3752 30.78C56.5885 30.98 56.9418 31.08 57.4352 31.08V31.5C57.1952 31.4867 56.8218 31.4733 56.3152 31.46C55.8218 31.4333 55.3418 31.42 54.8752 31.42C54.3818 31.42 53.9018 31.4333 53.4352 31.46C52.9685 31.4733 52.6218 31.4867 52.3952 31.5V31.08C52.8218 31.08 53.1218 30.98 53.2952 30.78C53.4685 30.58 53.5552 30.2 53.5552 29.64V23.58C53.5552 23.22 53.5218 22.9 53.4552 22.62C53.3885 22.3267 53.2552 22.1 53.0552 21.94C52.8552 21.7667 52.5685 21.68 52.1952 21.68C51.7552 21.68 51.3618 21.8 51.0152 22.04C50.6818 22.28 50.4152 22.6133 50.2152 23.04C50.0285 23.4533 49.9352 23.92 49.9352 24.44V29.64C49.9352 30.2 50.0218 30.58 50.1952 30.78C50.3685 30.98 50.6685 31.08 51.0952 31.08V31.5C50.8685 31.4867 50.5285 31.4733 50.0752 31.46C49.6218 31.4333 49.1618 31.42 48.6952 31.42C48.2018 31.42 47.7018 31.4333 47.1952 31.46C46.6885 31.4733 46.3085 31.4867 46.0552 31.5V31.08C46.5485 31.08 46.8952 30.98 47.0952 30.78C47.3085 30.58 47.4152 30.2 47.4152 29.64V23.34C47.4152 22.74 47.3152 22.3 47.1152 22.02C46.9285 21.7267 46.5752 21.58 46.0552 21.58V21.16C46.4818 21.2 46.8952 21.22 47.2952 21.22C47.7885 21.22 48.2552 21.2 48.6952 21.16C49.1485 21.1067 49.5618 21.0333 49.9352 20.94V22.94C50.2685 22.18 50.7285 21.6467 51.3152 21.34C51.9018 21.0333 52.5418 20.88 53.2352 20.88ZM62.0031 17.88V21.18H64.5631V21.58H62.0031V29.54C62.0031 30.02 62.0898 30.36 62.2631 30.56C62.4365 30.76 62.6831 30.86 63.0031 30.86C63.3098 30.86 63.5898 30.7467 63.8431 30.52C64.0965 30.28 64.3231 29.8867 64.5231 29.34L64.8831 29.5C64.6831 30.1533 64.3698 30.7 63.9431 31.14C63.5298 31.5667 62.9431 31.78 62.1831 31.78C61.7298 31.78 61.3431 31.72 61.0231 31.6C60.7165 31.4933 60.4498 31.3333 60.2231 31.12C59.9298 30.8133 59.7298 30.4467 59.6231 30.02C59.5298 29.5933 59.4831 29.0267 59.4831 28.32V21.58H57.7231V21.18H59.4831V18.4C59.9631 18.3867 60.4098 18.34 60.8231 18.26C61.2365 18.18 61.6298 18.0533 62.0031 17.88ZM68.0344 31.64C67.461 31.64 66.9744 31.5333 66.5744 31.32C66.1744 31.0933 65.8744 30.7933 65.6744 30.42C65.4744 30.0333 65.3744 29.6067 65.3744 29.14C65.3744 28.5667 65.5077 28.1 65.7744 27.74C66.041 27.3667 66.381 27.0733 66.7944 26.86C67.221 26.6333 67.6677 26.4467 68.1344 26.3C68.601 26.14 69.041 25.9933 69.4544 25.86C69.8677 25.7133 70.2077 25.5467 70.4744 25.36C70.741 25.1733 70.8744 24.9267 70.8744 24.62V23.16C70.8744 22.7333 70.8077 22.3867 70.6744 22.12C70.5544 21.84 70.3677 21.6333 70.1144 21.5C69.8744 21.3533 69.5677 21.28 69.1944 21.28C68.9144 21.28 68.621 21.32 68.3144 21.4C68.0077 21.48 67.7544 21.6333 67.5544 21.86C67.901 21.9533 68.1677 22.1267 68.3544 22.38C68.5544 22.6333 68.6544 22.94 68.6544 23.3C68.6544 23.7133 68.5144 24.04 68.2344 24.28C67.9677 24.5067 67.6277 24.62 67.2144 24.62C66.7744 24.62 66.441 24.48 66.2144 24.2C65.9877 23.92 65.8744 23.5933 65.8744 23.22C65.8744 22.8467 65.9677 22.54 66.1544 22.3C66.341 22.0467 66.601 21.82 66.9344 21.62C67.2677 21.3933 67.6944 21.2133 68.2144 21.08C68.7344 20.9467 69.301 20.88 69.9144 20.88C70.501 20.88 71.021 20.9467 71.4744 21.08C71.9277 21.2 72.3144 21.42 72.6344 21.74C72.9544 22.0467 73.161 22.4267 73.2544 22.88C73.3477 23.3333 73.3944 23.8867 73.3944 24.54V30.02C73.3944 30.3533 73.4344 30.5933 73.5144 30.74C73.5944 30.8733 73.721 30.94 73.8944 30.94C74.0277 30.94 74.1544 30.9067 74.2744 30.84C74.3944 30.7733 74.5277 30.68 74.6744 30.56L74.8944 30.9C74.601 31.1267 74.2944 31.3067 73.9744 31.44C73.6544 31.5733 73.2677 31.64 72.8144 31.64C72.3477 31.64 71.9744 31.5733 71.6944 31.44C71.4277 31.3067 71.2277 31.1133 71.0944 30.86C70.9744 30.6067 70.9077 30.3067 70.8944 29.96C70.5744 30.4933 70.181 30.9067 69.7144 31.2C69.2477 31.4933 68.6877 31.64 68.0344 31.64ZM69.2344 30.52C69.5544 30.52 69.8477 30.4333 70.1144 30.26C70.3944 30.0867 70.6477 29.8267 70.8744 29.48V25.44C70.741 25.64 70.5477 25.82 70.2944 25.98C70.0544 26.14 69.7944 26.3 69.5144 26.46C69.2344 26.62 68.9677 26.8067 68.7144 27.02C68.4744 27.22 68.2677 27.4733 68.0944 27.78C67.9344 28.0733 67.8544 28.4533 67.8544 28.92C67.8544 29.44 67.981 29.84 68.2344 30.12C68.4877 30.3867 68.821 30.52 69.2344 30.52ZM82.1092 20.88C82.5226 20.88 82.8626 20.9667 83.1292 21.14C83.4092 21.3133 83.6159 21.5333 83.7492 21.8C83.8826 22.0667 83.9492 22.3467 83.9492 22.64C83.9492 23.08 83.8159 23.4467 83.5492 23.74C83.2959 24.0333 82.9559 24.18 82.5292 24.18C82.1292 24.18 81.8026 24.0733 81.5492 23.86C81.2959 23.6467 81.1692 23.3533 81.1692 22.98C81.1692 22.6467 81.2492 22.3667 81.4092 22.14C81.5826 21.9133 81.7759 21.7333 81.9892 21.6C81.8426 21.52 81.6759 21.4933 81.4892 21.52C81.1692 21.5467 80.8759 21.66 80.6092 21.86C80.3426 22.06 80.1159 22.3067 79.9292 22.6C79.7426 22.8933 79.5959 23.2067 79.4892 23.54C79.3959 23.8733 79.3492 24.1933 79.3492 24.5V29.44C79.3492 30.0933 79.5159 30.5333 79.8492 30.76C80.1826 30.9733 80.6692 31.08 81.3092 31.08V31.5C81.0026 31.4867 80.5559 31.4733 79.9692 31.46C79.3959 31.4333 78.7959 31.42 78.1692 31.42C77.6492 31.42 77.1292 31.4333 76.6092 31.46C76.1026 31.4733 75.7226 31.4867 75.4692 31.5V31.08C75.9626 31.08 76.3092 30.98 76.5092 30.78C76.7226 30.58 76.8292 30.2 76.8292 29.64V23.34C76.8292 22.74 76.7292 22.3 76.5292 22.02C76.3426 21.7267 75.9892 21.58 75.4692 21.58V21.16C75.8959 21.2 76.3092 21.22 76.7092 21.22C77.2026 21.22 77.6692 21.2 78.1092 21.16C78.5626 21.1067 78.9759 21.0333 79.3492 20.94V23.02C79.5092 22.6467 79.7159 22.3 79.9692 21.98C80.2359 21.66 80.5492 21.4 80.9092 21.2C81.2826 20.9867 81.6826 20.88 82.1092 20.88ZM102.184 17.34V17.74C101.758 17.78 101.431 17.88 101.204 18.04C100.978 18.1867 100.824 18.4267 100.744 18.76C100.678 19.08 100.644 19.54 100.644 20.14V31.56C100.524 31.5467 100.391 31.54 100.244 31.54C100.111 31.54 99.9644 31.5467 99.8044 31.56L91.2244 19.9V28.54C91.2244 29.18 91.2644 29.68 91.3444 30.04C91.4244 30.3867 91.5977 30.64 91.8644 30.8C92.1444 30.9467 92.5644 31.0467 93.1244 31.1V31.5C92.871 31.4733 92.5444 31.46 92.1444 31.46C91.7444 31.4467 91.3644 31.44 91.0044 31.44C90.6844 31.44 90.3577 31.4467 90.0244 31.46C89.7044 31.46 89.4377 31.4733 89.2244 31.5V31.1C89.6644 31.0467 89.991 30.9467 90.2044 30.8C90.431 30.6533 90.5777 30.4133 90.6444 30.08C90.7244 29.7467 90.7644 29.2867 90.7644 28.7V19.46C90.7644 18.9667 90.7244 18.6067 90.6444 18.38C90.5777 18.14 90.431 17.98 90.2044 17.9C89.991 17.8067 89.6644 17.7533 89.2244 17.74V17.34C89.4377 17.3533 89.7044 17.3667 90.0244 17.38C90.3577 17.3933 90.6844 17.4 91.0044 17.4C91.311 17.4 91.611 17.3933 91.9044 17.38C92.1977 17.3667 92.4577 17.3533 92.6844 17.34L100.184 27.32V20.3C100.184 19.6467 100.144 19.1467 100.064 18.8C99.9844 18.4533 99.811 18.2 99.5444 18.04C99.2777 17.88 98.8577 17.78 98.2844 17.74V17.34C98.5377 17.3533 98.8644 17.3667 99.2644 17.38C99.6777 17.3933 100.058 17.4 100.404 17.4C100.738 17.4 101.064 17.3933 101.384 17.38C101.718 17.3667 101.984 17.3533 102.184 17.34ZM108.03 20.88C108.95 20.88 109.763 21.0667 110.47 21.44C111.19 21.8 111.756 22.38 112.17 23.18C112.596 23.98 112.81 25.0333 112.81 26.34C112.81 27.6467 112.596 28.7 112.17 29.5C111.756 30.3 111.19 30.88 110.47 31.24C109.763 31.6 108.95 31.78 108.03 31.78C107.11 31.78 106.29 31.6 105.57 31.24C104.85 30.88 104.283 30.3 103.87 29.5C103.456 28.7 103.25 27.6467 103.25 26.34C103.25 25.0333 103.456 23.98 103.87 23.18C104.283 22.38 104.85 21.8 105.57 21.44C106.29 21.0667 107.11 20.88 108.03 20.88ZM108.03 21.28C107.403 21.28 106.89 21.68 106.49 22.48C106.103 23.2667 105.91 24.5533 105.91 26.34C105.91 28.1267 106.103 29.4133 106.49 30.2C106.89 30.9867 107.403 31.38 108.03 31.38C108.643 31.38 109.15 30.9867 109.55 30.2C109.95 29.4133 110.15 28.1267 110.15 26.34C110.15 24.5533 109.95 23.2667 109.55 22.48C109.15 21.68 108.643 21.28 108.03 21.28ZM123.387 21.16V21.58C123.133 21.6333 122.893 21.7733 122.667 22C122.453 22.2267 122.247 22.6267 122.047 23.2L118.987 31.56C118.827 31.5467 118.667 31.54 118.507 31.54C118.347 31.54 118.18 31.5467 118.007 31.56L114.407 22.7C114.207 22.1933 114 21.88 113.787 21.76C113.573 21.64 113.393 21.58 113.247 21.58V21.16C113.62 21.1867 114.007 21.2133 114.407 21.24C114.807 21.2533 115.247 21.26 115.727 21.26C116.14 21.26 116.573 21.2533 117.027 21.24C117.493 21.2133 117.927 21.1867 118.327 21.16V21.58C118.033 21.58 117.767 21.6 117.527 21.64C117.3 21.68 117.147 21.7867 117.067 21.96C116.987 22.12 117.02 22.4067 117.167 22.82L119.567 29.04L119.387 29.26L121.207 24.32C121.433 23.6933 121.527 23.1867 121.487 22.8C121.447 22.4133 121.3 22.12 121.047 21.92C120.807 21.72 120.46 21.6067 120.007 21.58V21.16C120.233 21.1733 120.447 21.1867 120.647 21.2C120.86 21.2133 121.067 21.2267 121.267 21.24C121.48 21.24 121.68 21.24 121.867 21.24C122.147 21.24 122.42 21.2333 122.687 21.22C122.967 21.2067 123.2 21.1867 123.387 21.16ZM126.511 31.64C125.938 31.64 125.451 31.5333 125.051 31.32C124.651 31.0933 124.351 30.7933 124.151 30.42C123.951 30.0333 123.851 29.6067 123.851 29.14C123.851 28.5667 123.984 28.1 124.251 27.74C124.518 27.3667 124.858 27.0733 125.271 26.86C125.698 26.6333 126.144 26.4467 126.611 26.3C127.078 26.14 127.518 25.9933 127.931 25.86C128.344 25.7133 128.684 25.5467 128.951 25.36C129.218 25.1733 129.351 24.9267 129.351 24.62V23.16C129.351 22.7333 129.284 22.3867 129.151 22.12C129.031 21.84 128.844 21.6333 128.591 21.5C128.351 21.3533 128.044 21.28 127.671 21.28C127.391 21.28 127.098 21.32 126.791 21.4C126.484 21.48 126.231 21.6333 126.031 21.86C126.378 21.9533 126.644 22.1267 126.831 22.38C127.031 22.6333 127.131 22.94 127.131 23.3C127.131 23.7133 126.991 24.04 126.711 24.28C126.444 24.5067 126.104 24.62 125.691 24.62C125.251 24.62 124.918 24.48 124.691 24.2C124.464 23.92 124.351 23.5933 124.351 23.22C124.351 22.8467 124.444 22.54 124.631 22.3C124.818 22.0467 125.078 21.82 125.411 21.62C125.744 21.3933 126.171 21.2133 126.691 21.08C127.211 20.9467 127.778 20.88 128.391 20.88C128.978 20.88 129.498 20.9467 129.951 21.08C130.404 21.2 130.791 21.42 131.111 21.74C131.431 22.0467 131.638 22.4267 131.731 22.88C131.824 23.3333 131.871 23.8867 131.871 24.54V30.02C131.871 30.3533 131.911 30.5933 131.991 30.74C132.071 30.8733 132.198 30.94 132.371 30.94C132.504 30.94 132.631 30.9067 132.751 30.84C132.871 30.7733 133.004 30.68 133.151 30.56L133.371 30.9C133.078 31.1267 132.771 31.3067 132.451 31.44C132.131 31.5733 131.744 31.64 131.291 31.64C130.824 31.64 130.451 31.5733 130.171 31.44C129.904 31.3067 129.704 31.1133 129.571 30.86C129.451 30.6067 129.384 30.3067 129.371 29.96C129.051 30.4933 128.658 30.9067 128.191 31.2C127.724 31.4933 127.164 31.64 126.511 31.64ZM127.711 30.52C128.031 30.52 128.324 30.4333 128.591 30.26C128.871 30.0867 129.124 29.8267 129.351 29.48V25.44C129.218 25.64 129.024 25.82 128.771 25.98C128.531 26.14 128.271 26.3 127.991 26.46C127.711 26.62 127.444 26.8067 127.191 27.02C126.951 27.22 126.744 27.4733 126.571 27.78C126.411 28.0733 126.331 28.4533 126.331 28.92C126.331 29.44 126.458 29.84 126.711 30.12C126.964 30.3867 127.298 30.52 127.711 30.52ZM140.986 20.88C141.506 20.88 141.939 20.9533 142.286 21.1C142.646 21.2467 142.926 21.4333 143.126 21.66C143.366 21.9133 143.532 22.2533 143.626 22.68C143.719 23.0933 143.766 23.62 143.766 24.26V29.64C143.766 30.2 143.859 30.58 144.046 30.78C144.246 30.98 144.579 31.08 145.046 31.08V31.5C144.806 31.4867 144.446 31.4733 143.966 31.46C143.486 31.4333 143.019 31.42 142.566 31.42C142.086 31.42 141.619 31.4333 141.166 31.46C140.726 31.4733 140.392 31.4867 140.166 31.5V31.08C140.552 31.08 140.826 30.98 140.986 30.78C141.159 30.58 141.246 30.2 141.246 29.64V23.58C141.246 23.22 141.219 22.9 141.166 22.62C141.112 22.3267 140.999 22.1 140.826 21.94C140.652 21.7667 140.386 21.68 140.026 21.68C139.612 21.68 139.239 21.8 138.906 22.04C138.572 22.28 138.306 22.6133 138.106 23.04C137.919 23.4533 137.826 23.92 137.826 24.44V29.64C137.826 30.2 137.906 30.58 138.066 30.78C138.226 30.98 138.506 31.08 138.906 31.08V31.5C138.679 31.4867 138.346 31.4733 137.906 31.46C137.479 31.4333 137.039 31.42 136.586 31.42C136.092 31.42 135.592 31.4333 135.086 31.46C134.579 31.4733 134.199 31.4867 133.946 31.5V31.08C134.439 31.08 134.786 30.98 134.986 30.78C135.199 30.58 135.306 30.2 135.306 29.64V23.34C135.306 22.74 135.206 22.3 135.006 22.02C134.819 21.7267 134.466 21.58 133.946 21.58V21.16C134.372 21.2 134.786 21.22 135.186 21.22C135.679 21.22 136.146 21.2 136.586 21.16C137.039 21.1067 137.452 21.0333 137.826 20.94V22.94C138.159 22.2067 138.606 21.68 139.166 21.36C139.726 21.04 140.332 20.88 140.986 20.88ZM147.006 20.88C147.526 20.88 147.959 20.9533 148.306 21.1C148.666 21.2467 148.946 21.4333 149.146 21.66C149.386 21.9133 149.552 22.2533 149.646 22.68C149.739 23.0933 149.786 23.62 149.786 24.26V29.64C149.786 30.2 149.886 30.58 150.086 30.78C150.299 30.98 150.652 31.08 151.146 31.08V31.5C150.906 31.4867 150.532 31.4733 150.026 31.46C149.532 31.4333 149.052 31.42 148.586 31.42C148.106 31.42 147.639 31.4333 147.186 31.46C146.746 31.4733 146.412 31.4867 146.186 31.5V31.08C146.572 31.08 146.846 30.98 147.006 30.78C147.179 30.58 147.266 30.2 147.266 29.64V23.58C147.266 23.22 147.232 22.9 147.166 22.62C147.112 22.3267 146.992 22.1 146.806 21.94C146.619 21.7667 146.339 21.68 145.966 21.68C145.552 21.68 145.179 21.8067 144.846 22.06C144.512 22.3133 144.246 22.6533 144.046 23.08C143.859 23.4933 143.759 23.96 143.746 24.48L143.646 23.04C144.006 22.2133 144.486 21.6467 145.086 21.34C145.686 21.0333 146.326 20.88 147.006 20.88ZM156.974 20.88C158.147 20.88 159.067 21.2333 159.734 21.94C160.401 22.6467 160.734 23.7733 160.734 25.32H153.994L153.974 24.94H158.414C158.441 24.2867 158.401 23.6867 158.294 23.14C158.187 22.58 158.014 22.1333 157.774 21.8C157.547 21.4667 157.247 21.3 156.874 21.3C156.367 21.3 155.927 21.6 155.554 22.2C155.181 22.7867 154.947 23.7533 154.854 25.1L154.934 25.22C154.907 25.3933 154.887 25.58 154.874 25.78C154.874 25.98 154.874 26.18 154.874 26.38C154.874 27.3 155.007 28.06 155.274 28.66C155.541 29.26 155.887 29.7 156.314 29.98C156.741 30.26 157.181 30.4 157.634 30.4C157.941 30.4 158.254 30.3533 158.574 30.26C158.894 30.1667 159.207 29.9933 159.514 29.74C159.821 29.4867 160.101 29.1267 160.354 28.66L160.734 28.82C160.587 29.2867 160.341 29.7533 159.994 30.22C159.661 30.6733 159.227 31.0467 158.694 31.34C158.161 31.6333 157.534 31.78 156.814 31.78C155.907 31.78 155.107 31.58 154.414 31.18C153.721 30.78 153.181 30.1867 152.794 29.4C152.407 28.6 152.214 27.6267 152.214 26.48C152.214 25.2667 152.414 24.2467 152.814 23.42C153.227 22.5933 153.794 21.9667 154.514 21.54C155.234 21.1 156.054 20.88 156.974 20.88ZM169.134 20.88C169.694 20.88 170.14 20.9533 170.474 21.1C170.82 21.2467 171.1 21.4333 171.314 21.66C171.554 21.9133 171.72 22.24 171.814 22.64C171.92 23.04 171.974 23.58 171.974 24.26V29.64C171.974 30.2 172.074 30.58 172.274 30.78C172.487 30.98 172.84 31.08 173.334 31.08V31.5C173.094 31.4867 172.72 31.4733 172.214 31.46C171.72 31.4333 171.24 31.42 170.774 31.42C170.28 31.42 169.8 31.4333 169.334 31.46C168.867 31.4733 168.52 31.4867 168.294 31.5V31.08C168.72 31.08 169.02 30.98 169.194 30.78C169.367 30.58 169.454 30.2 169.454 29.64V23.58C169.454 23.22 169.42 22.9 169.354 22.62C169.287 22.3267 169.154 22.1 168.954 21.94C168.754 21.7667 168.467 21.68 168.094 21.68C167.654 21.68 167.26 21.8 166.914 22.04C166.58 22.28 166.314 22.6133 166.114 23.04C165.927 23.4533 165.834 23.92 165.834 24.44V29.64C165.834 30.2 165.92 30.58 166.094 30.78C166.267 30.98 166.567 31.08 166.994 31.08V31.5C166.767 31.4867 166.427 31.4733 165.974 31.46C165.52 31.4333 165.06 31.42 164.594 31.42C164.1 31.42 163.6 31.4333 163.094 31.46C162.587 31.4733 162.207 31.4867 161.954 31.5V31.08C162.447 31.08 162.794 30.98 162.994 30.78C163.207 30.58 163.314 30.2 163.314 29.64V23.34C163.314 22.74 163.214 22.3 163.014 22.02C162.827 21.7267 162.474 21.58 161.954 21.58V21.16C162.38 21.2 162.794 21.22 163.194 21.22C163.687 21.22 164.154 21.2 164.594 21.16C165.047 21.1067 165.46 21.0333 165.834 20.94V22.94C166.167 22.18 166.627 21.6467 167.214 21.34C167.8 21.0333 168.44 20.88 169.134 20.88ZM177.902 17.88V21.18H180.462V21.58H177.902V29.54C177.902 30.02 177.988 30.36 178.162 30.56C178.335 30.76 178.582 30.86 178.902 30.86C179.208 30.86 179.488 30.7467 179.742 30.52C179.995 30.28 180.222 29.8867 180.422 29.34L180.782 29.5C180.582 30.1533 180.268 30.7 179.842 31.14C179.428 31.5667 178.842 31.78 178.082 31.78C177.628 31.78 177.242 31.72 176.922 31.6C176.615 31.4933 176.348 31.3333 176.122 31.12C175.828 30.8133 175.628 30.4467 175.522 30.02C175.428 29.5933 175.382 29.0267 175.382 28.32V21.58H173.622V21.18H175.382V18.4C175.862 18.3867 176.308 18.34 176.722 18.26C177.135 18.18 177.528 18.0533 177.902 17.88ZM186.154 20.88C187.327 20.88 188.247 21.2333 188.914 21.94C189.58 22.6467 189.914 23.7733 189.914 25.32H183.174L183.154 24.94H187.594C187.62 24.2867 187.58 23.6867 187.474 23.14C187.367 22.58 187.194 22.1333 186.954 21.8C186.727 21.4667 186.427 21.3 186.054 21.3C185.547 21.3 185.107 21.6 184.734 22.2C184.36 22.7867 184.127 23.7533 184.034 25.1L184.114 25.22C184.087 25.3933 184.067 25.58 184.054 25.78C184.054 25.98 184.054 26.18 184.054 26.38C184.054 27.3 184.187 28.06 184.454 28.66C184.72 29.26 185.067 29.7 185.494 29.98C185.92 30.26 186.36 30.4 186.814 30.4C187.12 30.4 187.434 30.3533 187.754 30.26C188.074 30.1667 188.387 29.9933 188.694 29.74C189 29.4867 189.28 29.1267 189.534 28.66L189.914 28.82C189.767 29.2867 189.52 29.7533 189.174 30.22C188.84 30.6733 188.407 31.0467 187.874 31.34C187.34 31.6333 186.714 31.78 185.994 31.78C185.087 31.78 184.287 31.58 183.594 31.18C182.9 30.78 182.36 30.1867 181.974 29.4C181.587 28.6 181.394 27.6267 181.394 26.48C181.394 25.2667 181.594 24.2467 181.994 23.42C182.407 22.5933 182.974 21.9667 183.694 21.54C184.414 21.1 185.234 20.88 186.154 20.88Z" fill="#784508"/>
</svg>
