<svg width="158" height="36" viewBox="0 0 158 36" fill="none" xmlns="http://www.w3.org/2000/svg">
<path d="M138.335 0C141.113 0 143.625 1.39435 144.421 3.50879H147.274C148.199 3.50879 149.057 3.79132 149.694 4.27051C150.331 4.74968 150.773 5.44952 150.773 6.26367V6.95312C152.287 7.26613 153.678 7.89259 154.78 8.77734L155.017 8.97461L155.266 9.20117C156.478 10.3545 157.171 11.7866 157.171 13.3271V21.9365C157.171 23.5766 156.386 25.1321 155.017 26.3242C153.88 27.3133 152.397 28.0092 150.773 28.3447V29.0186C150.773 29.8324 150.331 30.5318 149.694 31.0107C149.057 31.4898 148.199 31.7725 147.274 31.7725H144.421C143.625 33.887 141.113 35.2812 138.335 35.2812H18.8369C16.0593 35.2812 13.5464 33.8872 12.751 31.7725H9.89648C8.97151 31.7725 8.11378 31.4898 7.47656 31.0107C6.83962 30.5318 6.3986 29.8323 6.39844 29.0186V28.3271C4.77499 27.9919 3.29076 27.2967 2.1543 26.3076C0.784738 25.1152 0.000108485 23.5598 0 21.9199V13.3613C7.27612e-05 11.7215 0.784902 10.1667 2.1543 8.97461C3.29082 7.98543 4.77494 7.28864 6.39844 6.95312V6.26367C6.39844 5.44962 6.83953 4.74968 7.47656 4.27051C8.11378 3.79132 8.97147 3.50879 9.89648 3.50879H12.751C13.5463 1.39418 16.0592 0 18.8369 0H138.335Z" fill="#FDC787" stroke="#784508"/>
<path d="M154.688 9.35144C153.534 8.34684 151.981 7.65188 150.273 7.36784V6.26339C150.273 5.02016 148.928 4.00872 147.275 4.00872H144.059C143.51 1.98257 141.136 0.5 138.335 0.5H78.5859H18.8366C16.0358 0.5 13.6617 1.98257 13.1133 4.00872H9.89647C8.24323 4.00872 6.89821 5.02016 6.89821 6.26339V7.36784C5.19032 7.65152 3.63727 8.34684 2.48302 9.35144C1.20415 10.4645 0.5 11.8887 0.5 13.3616V21.9196C0.5 23.3924 1.20415 24.8166 2.48302 25.9301C3.63727 26.9347 5.19032 27.63 6.89821 27.9133V29.0181C6.89821 30.261 8.24323 31.2721 9.89647 31.2721H13.1133C13.6617 33.2986 16.0358 34.7815 18.8366 34.7815H138.335C141.136 34.7815 143.51 33.2986 144.059 31.2721H147.275C148.928 31.2721 150.273 30.261 150.273 29.0181V27.9306C151.981 27.6469 153.534 26.9516 154.688 25.947C155.967 24.8339 156.671 23.4097 156.671 21.9369V17.6579V13.3273C156.671 11.8548 155.967 10.4649 154.688 9.35144ZM155.495 21.8853C155.495 24.4918 153.014 26.6748 149.595 27.076L149.097 27.1344V28.9839C149.097 29.739 148.28 30.3536 147.275 30.3536H143.031L142.973 30.7465C142.708 32.5232 140.715 33.863 138.335 33.863H18.8366C16.4572 33.863 14.4636 32.5236 14.1995 30.7469L14.141 30.3536H9.89647C8.89178 30.3536 8.07402 29.739 8.07402 28.9839V27.1344L7.57695 27.076C4.15735 26.6751 1.67582 24.4922 1.67582 21.8853V13.3273C1.67582 10.7205 4.15735 8.53753 7.57695 8.13706L8.07402 8.07866V6.22914C8.07402 5.47362 8.89178 4.85868 9.89647 4.85868H14.141L14.1995 4.46578C14.4636 2.68943 16.4572 1.34961 18.8366 1.34961H138.335C140.715 1.34961 142.708 2.68943 142.973 4.46578L143.031 4.85868H147.275C148.28 4.85868 149.097 5.47362 149.097 6.22914V8.07866L149.595 8.13706C153.014 8.53789 155.495 10.7208 155.495 13.3273V21.8853Z" fill="#784508"/>
<path d="M149.467 8.75265L148.269 8.61207V6.22944C148.269 5.81744 147.823 5.48185 147.275 5.48185H142.29L142.15 4.53529C141.932 3.07471 140.293 1.97314 138.335 1.97314H18.837C16.8799 1.97314 15.24 3.07435 15.0229 4.53529L14.8825 5.48185H9.89687C9.34898 5.48185 8.90272 5.81744 8.90272 6.22944V8.61244L7.70485 8.75265C6.27067 8.92063 4.95537 9.47141 4.00005 10.3026C3.03562 11.1421 2.50452 12.2167 2.50452 13.3276V21.8856C2.50452 22.9969 3.03562 24.0711 4.00005 24.9106C4.95537 25.7422 6.27067 26.2926 7.70485 26.4606L8.90272 26.6011V28.9841C8.90272 29.3958 9.34898 29.731 9.89687 29.731H14.8825L15.0229 30.6779C15.24 32.1389 16.8799 33.2404 18.837 33.2404H138.335C140.293 33.2404 141.932 32.1389 142.15 30.6776L142.29 29.731H147.275C147.823 29.731 148.269 29.3958 148.269 28.9841V26.6011L149.467 26.4606C150.901 26.2926 152.217 25.7422 153.172 24.9106C154.136 24.0711 154.667 22.9969 154.667 21.8856V13.3276C154.667 12.2167 154.136 11.1425 153.172 10.303C152.217 9.47141 150.901 8.92099 149.467 8.75265ZM154.293 21.8856C154.293 22.9295 153.794 23.9384 152.889 24.7268C151.991 25.5079 150.756 26.0248 149.41 26.1826L147.895 26.3604V28.9841C147.895 29.2408 147.617 29.4498 147.275 29.4498H141.956L141.778 30.6466C141.582 31.9648 140.102 32.9593 138.335 32.9593H18.837C17.0706 32.9593 15.5909 31.9651 15.3949 30.6466L15.217 29.4498H9.89687C9.5551 29.4498 9.27708 29.2408 9.27708 28.9841V26.3604L7.76237 26.1826C6.41591 26.0248 5.18018 25.5079 4.28334 24.7268C3.37739 23.9384 2.87888 22.9295 2.87888 21.8856V13.3276C2.87888 12.2841 3.37739 11.2751 4.28334 10.4865C5.18018 9.70535 6.41591 9.18845 7.76237 9.03057L9.27708 8.85322V6.22944C9.27708 5.97243 9.5551 5.76337 9.89687 5.76337H15.217L15.3949 4.56628C15.5909 3.24845 17.0706 2.2543 18.837 2.2543H138.335C140.102 2.2543 141.582 3.24845 141.778 4.56664L141.956 5.76337H147.275C147.617 5.76337 147.895 5.97243 147.895 6.22944V8.85286L149.41 9.03057C150.756 9.18845 151.991 9.70571 152.889 10.4868C153.794 11.2751 154.293 12.2841 154.293 13.3276V21.8856Z" fill="#784508"/>
<path d="M39.3999 11.1C40.1466 11.1 40.7199 11.18 41.1199 11.34C41.5199 11.5 41.8666 11.6733 42.1599 11.86C42.3199 11.9533 42.4466 12.0267 42.5399 12.08C42.6466 12.12 42.7466 12.14 42.8399 12.14C42.9733 12.14 43.0666 12.0667 43.1199 11.92C43.1866 11.7733 43.2399 11.5533 43.2799 11.26H43.7399C43.7266 11.5133 43.7066 11.8067 43.6799 12.14C43.6666 12.4733 43.6533 12.92 43.6399 13.48C43.6399 14.0267 43.6399 14.7533 43.6399 15.66H43.1799C43.1399 14.98 42.9866 14.3267 42.7199 13.7C42.4666 13.0733 42.0999 12.56 41.6199 12.16C41.1533 11.7467 40.5533 11.54 39.8199 11.54C39.1666 11.54 38.6199 11.7333 38.1799 12.12C37.7533 12.5067 37.5399 13.0267 37.5399 13.68C37.5399 14.24 37.6799 14.7133 37.9599 15.1C38.2399 15.4733 38.6333 15.84 39.1399 16.2C39.6599 16.5467 40.2733 16.9467 40.9799 17.4C41.6333 17.8267 42.2199 18.2533 42.7399 18.68C43.2599 19.0933 43.6666 19.5533 43.9599 20.06C44.2666 20.5667 44.4199 21.1867 44.4199 21.92C44.4199 22.7867 44.2066 23.5067 43.7799 24.08C43.3533 24.6533 42.7799 25.08 42.0599 25.36C41.3399 25.64 40.5533 25.78 39.6999 25.78C38.9133 25.78 38.2866 25.7 37.8199 25.54C37.3666 25.38 36.9733 25.2133 36.6399 25.04C36.3466 24.8533 36.1199 24.76 35.9599 24.76C35.8266 24.76 35.7266 24.8333 35.6599 24.98C35.6066 25.1267 35.5599 25.3467 35.5199 25.64H35.0599C35.0866 25.3333 35.0999 24.9733 35.0999 24.56C35.1133 24.1467 35.1199 23.6133 35.1199 22.96C35.1333 22.2933 35.1399 21.4533 35.1399 20.44H35.5999C35.6533 21.2933 35.7999 22.0933 36.0399 22.84C36.2933 23.5733 36.6733 24.1667 37.1799 24.62C37.6999 25.0733 38.3866 25.3 39.2399 25.3C39.7066 25.3 40.1266 25.22 40.4999 25.06C40.8866 24.8867 41.1933 24.6267 41.4199 24.28C41.6466 23.92 41.7599 23.4667 41.7599 22.92C41.7599 22.3733 41.6333 21.8933 41.3799 21.48C41.1266 21.0667 40.7733 20.68 40.3199 20.32C39.8666 19.96 39.3333 19.5933 38.7199 19.22C38.0933 18.82 37.5066 18.4133 36.9599 18C36.4133 17.5867 35.9733 17.12 35.6399 16.6C35.3199 16.0667 35.1599 15.4267 35.1599 14.68C35.1599 13.8533 35.3599 13.18 35.7599 12.66C36.1599 12.1267 36.6799 11.7333 37.3199 11.48C37.9733 11.2267 38.6666 11.1 39.3999 11.1ZM55.4866 14.94V23.34C55.4866 23.94 55.5866 24.3867 55.7866 24.68C55.9866 24.96 56.34 25.1 56.8466 25.1V25.52C56.4333 25.48 56.02 25.46 55.6066 25.46C55.1133 25.46 54.64 25.48 54.1866 25.52C53.7466 25.56 53.34 25.6333 52.9666 25.74V23.74C52.6333 24.4733 52.1733 25 51.5866 25.32C51.0133 25.6267 50.3933 25.78 49.7266 25.78C49.2066 25.78 48.7666 25.7067 48.4066 25.56C48.06 25.4267 47.78 25.24 47.5666 25C47.34 24.7467 47.18 24.4133 47.0866 24C46.9933 23.5867 46.9466 23.0533 46.9466 22.4V17.34C46.9466 16.74 46.8466 16.3 46.6466 16.02C46.46 15.7267 46.1066 15.58 45.5866 15.58V15.16C46.0133 15.2 46.4266 15.22 46.8266 15.22C47.32 15.22 47.7866 15.2 48.2266 15.16C48.68 15.1067 49.0933 15.0333 49.4666 14.94V23.1C49.4666 23.46 49.4933 23.78 49.5466 24.06C49.6133 24.34 49.74 24.5667 49.9266 24.74C50.1133 24.9 50.3933 24.98 50.7666 24.98C51.18 24.98 51.5533 24.86 51.8866 24.62C52.22 24.38 52.48 24.0533 52.6666 23.64C52.8666 23.2267 52.9666 22.76 52.9666 22.24V17.34C52.9666 16.74 52.8666 16.3 52.6666 16.02C52.48 15.7267 52.1266 15.58 51.6066 15.58V15.16C52.0333 15.2 52.4466 15.22 52.8466 15.22C53.34 15.22 53.8066 15.2 54.2466 15.16C54.7 15.1067 55.1133 15.0333 55.4866 14.94ZM64.3202 14.88C65.3602 14.88 66.2269 15.32 66.9202 16.2C67.6269 17.0667 67.9802 18.3867 67.9802 20.16C67.9802 21.48 67.7736 22.56 67.3602 23.4C66.9469 24.2267 66.3936 24.8333 65.7002 25.22C65.0069 25.5933 64.2536 25.78 63.4402 25.78C62.8669 25.78 62.3136 25.66 61.7802 25.42C61.2602 25.1667 60.8402 24.7733 60.5202 24.24H60.8602C61.1269 24.6133 61.4469 24.8933 61.8202 25.08C62.2069 25.2533 62.5936 25.34 62.9802 25.34C63.7669 25.34 64.3536 24.9333 64.7402 24.12C65.1269 23.2933 65.3202 22.0333 65.3202 20.34C65.3202 19.22 65.2402 18.32 65.0802 17.64C64.9336 16.9467 64.7136 16.4467 64.4202 16.14C64.1269 15.82 63.7602 15.66 63.3202 15.66C62.8002 15.66 62.3202 15.88 61.8802 16.32C61.4536 16.76 61.2069 17.3867 61.1402 18.2L61.0002 17.64C61.2136 16.76 61.6136 16.08 62.2002 15.6C62.8002 15.12 63.5069 14.88 64.3202 14.88ZM61.2202 9.84V24.9C60.9402 24.9133 60.6536 24.9667 60.3602 25.06C60.0669 25.14 59.7936 25.2467 59.5402 25.38C59.2869 25.5 59.0669 25.6467 58.8802 25.82L58.5602 25.66C58.6269 25.4733 58.6669 25.2867 58.6802 25.1C58.6936 24.9133 58.7002 24.72 58.7002 24.52V12.24C58.7002 11.64 58.6002 11.2 58.4002 10.92C58.2136 10.6267 57.8602 10.48 57.3402 10.48V10.06C57.7669 10.1 58.1802 10.12 58.5802 10.12C59.0869 10.12 59.5602 10.1 60.0002 10.06C60.4402 10.0067 60.8469 9.93333 61.2202 9.84ZM76.3627 14.88C76.8827 14.88 77.3161 14.9533 77.6627 15.1C78.0227 15.2467 78.3027 15.4333 78.5027 15.66C78.7427 15.9133 78.9094 16.2533 79.0027 16.68C79.0961 17.0933 79.1427 17.62 79.1427 18.26V23.64C79.1427 24.2 79.2361 24.58 79.4227 24.78C79.6227 24.98 79.9561 25.08 80.4227 25.08V25.5C80.1827 25.4867 79.8227 25.4733 79.3427 25.46C78.8627 25.4333 78.3961 25.42 77.9427 25.42C77.4627 25.42 76.9961 25.4333 76.5427 25.46C76.1027 25.4733 75.7694 25.4867 75.5427 25.5V25.08C75.9294 25.08 76.2027 24.98 76.3627 24.78C76.5361 24.58 76.6227 24.2 76.6227 23.64V17.58C76.6227 17.22 76.5961 16.9 76.5427 16.62C76.4894 16.3267 76.3761 16.1 76.2027 15.94C76.0294 15.7667 75.7627 15.68 75.4027 15.68C74.9894 15.68 74.6161 15.8 74.2827 16.04C73.9494 16.28 73.6827 16.6133 73.4827 17.04C73.2961 17.4533 73.2027 17.92 73.2027 18.44V23.64C73.2027 24.2 73.2827 24.58 73.4427 24.78C73.6027 24.98 73.8827 25.08 74.2827 25.08V25.5C74.0561 25.4867 73.7227 25.4733 73.2827 25.46C72.8561 25.4333 72.4161 25.42 71.9627 25.42C71.4694 25.42 70.9694 25.4333 70.4627 25.46C69.9561 25.4733 69.5761 25.4867 69.3227 25.5V25.08C69.8161 25.08 70.1627 24.98 70.3627 24.78C70.5761 24.58 70.6827 24.2 70.6827 23.64V17.34C70.6827 16.74 70.5827 16.3 70.3827 16.02C70.1961 15.7267 69.8427 15.58 69.3227 15.58V15.16C69.7494 15.2 70.1627 15.22 70.5627 15.22C71.0561 15.22 71.5227 15.2 71.9627 15.16C72.4161 15.1067 72.8294 15.0333 73.2027 14.94V16.94C73.5361 16.2067 73.9827 15.68 74.5427 15.36C75.1027 15.04 75.7094 14.88 76.3627 14.88ZM82.3827 14.88C82.9027 14.88 83.3361 14.9533 83.6827 15.1C84.0427 15.2467 84.3227 15.4333 84.5227 15.66C84.7627 15.9133 84.9294 16.2533 85.0227 16.68C85.1161 17.0933 85.1627 17.62 85.1627 18.26V23.64C85.1627 24.2 85.2627 24.58 85.4627 24.78C85.6761 24.98 86.0294 25.08 86.5227 25.08V25.5C86.2827 25.4867 85.9094 25.4733 85.4027 25.46C84.9094 25.4333 84.4294 25.42 83.9627 25.42C83.4827 25.42 83.0161 25.4333 82.5627 25.46C82.1227 25.4733 81.7894 25.4867 81.5627 25.5V25.08C81.9494 25.08 82.2227 24.98 82.3827 24.78C82.5561 24.58 82.6427 24.2 82.6427 23.64V17.58C82.6427 17.22 82.6094 16.9 82.5427 16.62C82.4894 16.3267 82.3694 16.1 82.1827 15.94C81.9961 15.7667 81.7161 15.68 81.3427 15.68C80.9294 15.68 80.5561 15.8067 80.2227 16.06C79.8894 16.3133 79.6227 16.6533 79.4227 17.08C79.2361 17.4933 79.1361 17.96 79.1227 18.48L79.0227 17.04C79.3827 16.2133 79.8627 15.6467 80.4627 15.34C81.0627 15.0333 81.7027 14.88 82.3827 14.88ZM92.351 14.88C93.5243 14.88 94.4443 15.2333 95.111 15.94C95.7777 16.6467 96.111 17.7733 96.111 19.32H89.371L89.351 18.94H93.791C93.8177 18.2867 93.7777 17.6867 93.671 17.14C93.5643 16.58 93.391 16.1333 93.151 15.8C92.9243 15.4667 92.6243 15.3 92.251 15.3C91.7443 15.3 91.3043 15.6 90.931 16.2C90.5577 16.7867 90.3243 17.7533 90.231 19.1L90.311 19.22C90.2843 19.3933 90.2643 19.58 90.251 19.78C90.251 19.98 90.251 20.18 90.251 20.38C90.251 21.3 90.3843 22.06 90.651 22.66C90.9177 23.26 91.2643 23.7 91.691 23.98C92.1177 24.26 92.5577 24.4 93.011 24.4C93.3177 24.4 93.631 24.3533 93.951 24.26C94.271 24.1667 94.5843 23.9933 94.891 23.74C95.1977 23.4867 95.4777 23.1267 95.731 22.66L96.111 22.82C95.9643 23.2867 95.7177 23.7533 95.371 24.22C95.0377 24.6733 94.6043 25.0467 94.071 25.34C93.5377 25.6333 92.911 25.78 92.191 25.78C91.2843 25.78 90.4843 25.58 89.791 25.18C89.0977 24.78 88.5577 24.1867 88.171 23.4C87.7843 22.6 87.591 21.6267 87.591 20.48C87.591 19.2667 87.791 18.2467 88.191 17.42C88.6043 16.5933 89.171 15.9667 89.891 15.54C90.611 15.1 91.431 14.88 92.351 14.88ZM101.189 11.88V15.18H103.749V15.58H101.189V23.54C101.189 24.02 101.275 24.36 101.449 24.56C101.622 24.76 101.869 24.86 102.189 24.86C102.495 24.86 102.775 24.7467 103.029 24.52C103.282 24.28 103.509 23.8867 103.709 23.34L104.069 23.5C103.869 24.1533 103.555 24.7 103.129 25.14C102.715 25.5667 102.129 25.78 101.369 25.78C100.915 25.78 100.529 25.72 100.209 25.6C99.902 25.4933 99.6353 25.3333 99.4087 25.12C99.1153 24.8133 98.9153 24.4467 98.8087 24.02C98.7153 23.5933 98.6687 23.0267 98.6687 22.32V15.58H96.9087V15.18H98.6687V12.4C99.1487 12.3867 99.5953 12.34 100.009 12.26C100.422 12.18 100.815 12.0533 101.189 11.88ZM109.441 14.88C110.614 14.88 111.534 15.2333 112.201 15.94C112.868 16.6467 113.201 17.7733 113.201 19.32H106.461L106.441 18.94H110.881C110.908 18.2867 110.868 17.6867 110.761 17.14C110.654 16.58 110.481 16.1333 110.241 15.8C110.014 15.4667 109.714 15.3 109.341 15.3C108.834 15.3 108.394 15.6 108.021 16.2C107.648 16.7867 107.414 17.7533 107.321 19.1L107.401 19.22C107.374 19.3933 107.354 19.58 107.341 19.78C107.341 19.98 107.341 20.18 107.341 20.38C107.341 21.3 107.474 22.06 107.741 22.66C108.008 23.26 108.354 23.7 108.781 23.98C109.208 24.26 109.648 24.4 110.101 24.4C110.408 24.4 110.721 24.3533 111.041 24.26C111.361 24.1667 111.674 23.9933 111.981 23.74C112.288 23.4867 112.568 23.1267 112.821 22.66L113.201 22.82C113.054 23.2867 112.808 23.7533 112.461 24.22C112.128 24.6733 111.694 25.0467 111.161 25.34C110.628 25.6333 110.001 25.78 109.281 25.78C108.374 25.78 107.574 25.58 106.881 25.18C106.188 24.78 105.648 24.1867 105.261 23.4C104.874 22.6 104.681 21.6267 104.681 20.48C104.681 19.2667 104.881 18.2467 105.281 17.42C105.694 16.5933 106.261 15.9667 106.981 15.54C107.701 15.1 108.521 14.88 109.441 14.88ZM121.06 14.88C121.474 14.88 121.814 14.9667 122.08 15.14C122.36 15.3133 122.567 15.5333 122.7 15.8C122.834 16.0667 122.9 16.3467 122.9 16.64C122.9 17.08 122.767 17.4467 122.5 17.74C122.247 18.0333 121.907 18.18 121.48 18.18C121.08 18.18 120.754 18.0733 120.5 17.86C120.247 17.6467 120.12 17.3533 120.12 16.98C120.12 16.6467 120.2 16.3667 120.36 16.14C120.534 15.9133 120.727 15.7333 120.94 15.6C120.794 15.52 120.627 15.4933 120.44 15.52C120.12 15.5467 119.827 15.66 119.56 15.86C119.294 16.06 119.067 16.3067 118.88 16.6C118.694 16.8933 118.547 17.2067 118.44 17.54C118.347 17.8733 118.3 18.1933 118.3 18.5V23.44C118.3 24.0933 118.467 24.5333 118.8 24.76C119.134 24.9733 119.62 25.08 120.26 25.08V25.5C119.954 25.4867 119.507 25.4733 118.92 25.46C118.347 25.4333 117.747 25.42 117.12 25.42C116.6 25.42 116.08 25.4333 115.56 25.46C115.054 25.4733 114.674 25.4867 114.42 25.5V25.08C114.914 25.08 115.26 24.98 115.46 24.78C115.674 24.58 115.78 24.2 115.78 23.64V17.34C115.78 16.74 115.68 16.3 115.48 16.02C115.294 15.7267 114.94 15.58 114.42 15.58V15.16C114.847 15.2 115.26 15.22 115.66 15.22C116.154 15.22 116.62 15.2 117.06 15.16C117.514 15.1067 117.927 15.0333 118.3 14.94V17.02C118.46 16.6467 118.667 16.3 118.92 15.98C119.187 15.66 119.5 15.4 119.86 15.2C120.234 14.9867 120.634 14.88 121.06 14.88Z" fill="#784508"/>
</svg>
