<svg width="158" height="36" viewBox="0 0 158 36" fill="none" xmlns="http://www.w3.org/2000/svg">
<path d="M138.335 0C141.113 0 143.625 1.39435 144.421 3.50879H147.274C148.199 3.50879 149.057 3.79132 149.694 4.27051C150.331 4.74968 150.773 5.44952 150.773 6.26367V6.95312C152.287 7.26613 153.678 7.89259 154.78 8.77734L155.017 8.97461L155.266 9.20117C156.478 10.3545 157.171 11.7866 157.171 13.3271V21.9365C157.171 23.5766 156.386 25.1321 155.017 26.3242C153.88 27.3133 152.397 28.0092 150.773 28.3447V29.0186C150.773 29.8324 150.331 30.5318 149.694 31.0107C149.057 31.4898 148.199 31.7725 147.274 31.7725H144.421C143.625 33.887 141.113 35.2812 138.335 35.2812H18.8369C16.0593 35.2812 13.5464 33.8872 12.751 31.7725H9.89648C8.97151 31.7725 8.11378 31.4898 7.47656 31.0107C6.83962 30.5318 6.3986 29.8323 6.39844 29.0186V28.3271C4.77499 27.9919 3.29076 27.2967 2.1543 26.3076C0.784738 25.1152 0.000108485 23.5598 0 21.9199V13.3613C7.27612e-05 11.7215 0.784902 10.1667 2.1543 8.97461C3.29082 7.98543 4.77494 7.28864 6.39844 6.95312V6.26367C6.39844 5.44962 6.83953 4.74968 7.47656 4.27051C8.11378 3.79132 8.97147 3.50879 9.89648 3.50879H12.751C13.5463 1.39418 16.0592 0 18.8369 0H138.335Z" fill="#FDC787" stroke="#784508"/>
<path d="M154.688 9.35144C153.534 8.34684 151.981 7.65188 150.273 7.36784V6.26339C150.273 5.02016 148.928 4.00872 147.275 4.00872H144.059C143.51 1.98257 141.136 0.5 138.335 0.5H78.5859H18.8366C16.0358 0.5 13.6617 1.98257 13.1133 4.00872H9.89647C8.24323 4.00872 6.89821 5.02016 6.89821 6.26339V7.36784C5.19032 7.65152 3.63727 8.34684 2.48302 9.35144C1.20415 10.4645 0.5 11.8887 0.5 13.3616V21.9196C0.5 23.3924 1.20415 24.8166 2.48302 25.9301C3.63727 26.9347 5.19032 27.63 6.89821 27.9133V29.0181C6.89821 30.261 8.24323 31.2721 9.89647 31.2721H13.1133C13.6617 33.2986 16.0358 34.7815 18.8366 34.7815H138.335C141.136 34.7815 143.51 33.2986 144.059 31.2721H147.275C148.928 31.2721 150.273 30.261 150.273 29.0181V27.9306C151.981 27.6469 153.534 26.9516 154.688 25.947C155.967 24.8339 156.671 23.4097 156.671 21.9369V17.6579V13.3273C156.671 11.8548 155.967 10.4649 154.688 9.35144ZM155.495 21.8853C155.495 24.4918 153.014 26.6748 149.595 27.076L149.097 27.1344V28.9839C149.097 29.739 148.28 30.3536 147.275 30.3536H143.031L142.973 30.7465C142.708 32.5232 140.715 33.863 138.335 33.863H18.8366C16.4572 33.863 14.4636 32.5236 14.1995 30.7469L14.141 30.3536H9.89647C8.89178 30.3536 8.07402 29.739 8.07402 28.9839V27.1344L7.57695 27.076C4.15735 26.6751 1.67582 24.4922 1.67582 21.8853V13.3273C1.67582 10.7205 4.15735 8.53753 7.57695 8.13706L8.07402 8.07866V6.22914C8.07402 5.47362 8.89178 4.85868 9.89647 4.85868H14.141L14.1995 4.46578C14.4636 2.68943 16.4572 1.34961 18.8366 1.34961H138.335C140.715 1.34961 142.708 2.68943 142.973 4.46578L143.031 4.85868H147.275C148.28 4.85868 149.097 5.47362 149.097 6.22914V8.07866L149.595 8.13706C153.014 8.53789 155.495 10.7208 155.495 13.3273V21.8853Z" fill="#784508"/>
<path d="M149.467 8.75265L148.269 8.61207V6.22944C148.269 5.81744 147.823 5.48185 147.275 5.48185H142.29L142.15 4.53529C141.932 3.07471 140.293 1.97314 138.335 1.97314H18.837C16.8799 1.97314 15.24 3.07435 15.0229 4.53529L14.8825 5.48185H9.89687C9.34898 5.48185 8.90272 5.81744 8.90272 6.22944V8.61244L7.70485 8.75265C6.27067 8.92063 4.95537 9.47141 4.00005 10.3026C3.03562 11.1421 2.50452 12.2167 2.50452 13.3276V21.8856C2.50452 22.9969 3.03562 24.0711 4.00005 24.9106C4.95537 25.7422 6.27067 26.2926 7.70485 26.4606L8.90272 26.6011V28.9841C8.90272 29.3958 9.34898 29.731 9.89687 29.731H14.8825L15.0229 30.6779C15.24 32.1389 16.8799 33.2404 18.837 33.2404H138.335C140.293 33.2404 141.932 32.1389 142.15 30.6776L142.29 29.731H147.275C147.823 29.731 148.269 29.3958 148.269 28.9841V26.6011L149.467 26.4606C150.901 26.2926 152.217 25.7422 153.172 24.9106C154.136 24.0711 154.667 22.9969 154.667 21.8856V13.3276C154.667 12.2167 154.136 11.1425 153.172 10.303C152.217 9.47141 150.901 8.92099 149.467 8.75265ZM154.293 21.8856C154.293 22.9295 153.794 23.9384 152.889 24.7268C151.991 25.5079 150.756 26.0248 149.41 26.1826L147.895 26.3604V28.9841C147.895 29.2408 147.617 29.4498 147.275 29.4498H141.956L141.778 30.6466C141.582 31.9648 140.102 32.9593 138.335 32.9593H18.837C17.0706 32.9593 15.5909 31.9651 15.3949 30.6466L15.217 29.4498H9.89687C9.5551 29.4498 9.27708 29.2408 9.27708 28.9841V26.3604L7.76237 26.1826C6.41591 26.0248 5.18018 25.5079 4.28334 24.7268C3.37739 23.9384 2.87888 22.9295 2.87888 21.8856V13.3276C2.87888 12.2841 3.37739 11.2751 4.28334 10.4865C5.18018 9.70535 6.41591 9.18845 7.76237 9.03057L9.27708 8.85322V6.22944C9.27708 5.97243 9.5551 5.76337 9.89687 5.76337H15.217L15.3949 4.56628C15.5909 3.24845 17.0706 2.2543 18.837 2.2543H138.335C140.102 2.2543 141.582 3.24845 141.778 4.56664L141.956 5.76337H147.275C147.617 5.76337 147.895 5.97243 147.895 6.22944V8.85286L149.41 9.03057C150.756 9.18845 151.991 9.70571 152.889 10.4868C153.794 11.2751 154.293 12.2841 154.293 13.3276V21.8856Z" fill="#784508"/>
<path d="M42.2831 11.06C43.1631 11.06 43.8831 11.1933 44.4431 11.46C45.0165 11.7133 45.5231 12.0133 45.9631 12.36C46.2298 12.56 46.4298 12.5867 46.5631 12.44C46.7098 12.28 46.8098 11.9133 46.8631 11.34H47.3231C47.2965 11.8467 47.2765 12.4667 47.2631 13.2C47.2498 13.9333 47.2431 14.9 47.2431 16.1H46.7831C46.7031 15.5 46.6165 15 46.5231 14.6C46.4298 14.1867 46.2965 13.8333 46.1231 13.54C45.9631 13.2467 45.7365 12.9667 45.4431 12.7C45.0831 12.3 44.6498 12.0067 44.1431 11.82C43.6498 11.62 43.1298 11.52 42.5831 11.52C41.8898 11.52 41.2831 11.7067 40.7631 12.08C40.2565 12.44 39.8298 12.94 39.4831 13.58C39.1498 14.2067 38.8965 14.94 38.7231 15.78C38.5631 16.62 38.4831 17.5133 38.4831 18.46C38.4831 19.4333 38.5698 20.34 38.7431 21.18C38.9298 22.0067 39.1965 22.7333 39.5431 23.36C39.9031 23.9733 40.3431 24.4533 40.8631 24.8C41.3965 25.1467 42.0098 25.32 42.7031 25.32C43.1965 25.32 43.7031 25.2267 44.2231 25.04C44.7431 24.8533 45.1698 24.5667 45.5031 24.18C45.9431 23.78 46.2431 23.3067 46.4031 22.76C46.5631 22.2 46.6898 21.46 46.7831 20.54H47.2431C47.2431 21.7933 47.2498 22.8067 47.2631 23.58C47.2765 24.34 47.2965 24.98 47.3231 25.5H46.8631C46.8098 24.9267 46.7165 24.5667 46.5831 24.42C46.4631 24.2733 46.2565 24.2933 45.9631 24.48C45.4698 24.8267 44.9431 25.1333 44.3831 25.4C43.8365 25.6533 43.1298 25.78 42.2631 25.78C40.9031 25.78 39.7098 25.4933 38.6831 24.92C37.6565 24.3467 36.8565 23.52 36.2831 22.44C35.7231 21.36 35.4431 20.06 35.4431 18.54C35.4431 17.0467 35.7365 15.74 36.3231 14.62C36.9098 13.5 37.7165 12.6267 38.7431 12C39.7698 11.3733 40.9498 11.06 42.2831 11.06ZM54.1271 14.88C55.0471 14.88 55.8604 15.0667 56.5671 15.44C57.2871 15.8 57.8537 16.38 58.2671 17.18C58.6937 17.98 58.9071 19.0333 58.9071 20.34C58.9071 21.6467 58.6937 22.7 58.2671 23.5C57.8537 24.3 57.2871 24.88 56.5671 25.24C55.8604 25.6 55.0471 25.78 54.1271 25.78C53.2071 25.78 52.3871 25.6 51.6671 25.24C50.9471 24.88 50.3804 24.3 49.9671 23.5C49.5537 22.7 49.3471 21.6467 49.3471 20.34C49.3471 19.0333 49.5537 17.98 49.9671 17.18C50.3804 16.38 50.9471 15.8 51.6671 15.44C52.3871 15.0667 53.2071 14.88 54.1271 14.88ZM54.1271 15.28C53.5004 15.28 52.9871 15.68 52.5871 16.48C52.2004 17.2667 52.0071 18.5533 52.0071 20.34C52.0071 22.1267 52.2004 23.4133 52.5871 24.2C52.9871 24.9867 53.5004 25.38 54.1271 25.38C54.7404 25.38 55.2471 24.9867 55.6471 24.2C56.0471 23.4133 56.2471 22.1267 56.2471 20.34C56.2471 18.5533 56.0471 17.2667 55.6471 16.48C55.2471 15.68 54.7404 15.28 54.1271 15.28ZM67.2589 14.88C67.7789 14.88 68.2123 14.9533 68.5589 15.1C68.9189 15.2467 69.1989 15.4333 69.3989 15.66C69.6389 15.9133 69.8056 16.2533 69.8989 16.68C69.9923 17.0933 70.0389 17.62 70.0389 18.26V23.64C70.0389 24.2 70.1323 24.58 70.3189 24.78C70.5189 24.98 70.8523 25.08 71.3189 25.08V25.5C71.0789 25.4867 70.7189 25.4733 70.2389 25.46C69.7589 25.4333 69.2923 25.42 68.8389 25.42C68.3589 25.42 67.8923 25.4333 67.4389 25.46C66.9989 25.4733 66.6656 25.4867 66.4389 25.5V25.08C66.8256 25.08 67.0989 24.98 67.2589 24.78C67.4323 24.58 67.5189 24.2 67.5189 23.64V17.58C67.5189 17.22 67.4923 16.9 67.4389 16.62C67.3856 16.3267 67.2723 16.1 67.0989 15.94C66.9256 15.7667 66.6589 15.68 66.2989 15.68C65.8856 15.68 65.5123 15.8 65.1789 16.04C64.8456 16.28 64.5789 16.6133 64.3789 17.04C64.1923 17.4533 64.0989 17.92 64.0989 18.44V23.64C64.0989 24.2 64.1789 24.58 64.3389 24.78C64.4989 24.98 64.7789 25.08 65.1789 25.08V25.5C64.9523 25.4867 64.6189 25.4733 64.1789 25.46C63.7523 25.4333 63.3123 25.42 62.8589 25.42C62.3656 25.42 61.8656 25.4333 61.3589 25.46C60.8523 25.4733 60.4723 25.4867 60.2189 25.5V25.08C60.7123 25.08 61.0589 24.98 61.2589 24.78C61.4723 24.58 61.5789 24.2 61.5789 23.64V17.34C61.5789 16.74 61.4789 16.3 61.2789 16.02C61.0923 15.7267 60.7389 15.58 60.2189 15.58V15.16C60.6456 15.2 61.0589 15.22 61.4589 15.22C61.9523 15.22 62.4189 15.2 62.8589 15.16C63.3123 15.1067 63.7256 15.0333 64.0989 14.94V16.94C64.4323 16.2067 64.8789 15.68 65.4389 15.36C65.9989 15.04 66.6056 14.88 67.2589 14.88ZM73.2789 14.88C73.7989 14.88 74.2323 14.9533 74.5789 15.1C74.9389 15.2467 75.2189 15.4333 75.4189 15.66C75.6589 15.9133 75.8256 16.2533 75.9189 16.68C76.0123 17.0933 76.0589 17.62 76.0589 18.26V23.64C76.0589 24.2 76.1589 24.58 76.3589 24.78C76.5723 24.98 76.9256 25.08 77.4189 25.08V25.5C77.1789 25.4867 76.8056 25.4733 76.2989 25.46C75.8056 25.4333 75.3256 25.42 74.8589 25.42C74.3789 25.42 73.9123 25.4333 73.4589 25.46C73.0189 25.4733 72.6856 25.4867 72.4589 25.5V25.08C72.8456 25.08 73.1189 24.98 73.2789 24.78C73.4523 24.58 73.5389 24.2 73.5389 23.64V17.58C73.5389 17.22 73.5056 16.9 73.4389 16.62C73.3856 16.3267 73.2656 16.1 73.0789 15.94C72.8923 15.7667 72.6123 15.68 72.2389 15.68C71.8256 15.68 71.4523 15.8067 71.1189 16.06C70.7856 16.3133 70.5189 16.6533 70.3189 17.08C70.1323 17.4933 70.0323 17.96 70.0189 18.48L69.9189 17.04C70.2789 16.2133 70.7589 15.6467 71.3589 15.34C71.9589 15.0333 72.5989 14.88 73.2789 14.88ZM83.2472 14.88C84.4205 14.88 85.3405 15.2333 86.0072 15.94C86.6739 16.6467 87.0072 17.7733 87.0072 19.32H80.2672L80.2472 18.94H84.6872C84.7139 18.2867 84.6739 17.6867 84.5672 17.14C84.4605 16.58 84.2872 16.1333 84.0472 15.8C83.8205 15.4667 83.5205 15.3 83.1472 15.3C82.6405 15.3 82.2005 15.6 81.8272 16.2C81.4539 16.7867 81.2205 17.7533 81.1272 19.1L81.2072 19.22C81.1805 19.3933 81.1605 19.58 81.1472 19.78C81.1472 19.98 81.1472 20.18 81.1472 20.38C81.1472 21.3 81.2805 22.06 81.5472 22.66C81.8139 23.26 82.1605 23.7 82.5872 23.98C83.0139 24.26 83.4539 24.4 83.9072 24.4C84.2139 24.4 84.5272 24.3533 84.8472 24.26C85.1672 24.1667 85.4805 23.9933 85.7872 23.74C86.0939 23.4867 86.3739 23.1267 86.6272 22.66L87.0072 22.82C86.8605 23.2867 86.6139 23.7533 86.2672 24.22C85.9339 24.6733 85.5005 25.0467 84.9672 25.34C84.4339 25.6333 83.8072 25.78 83.0872 25.78C82.1805 25.78 81.3805 25.58 80.6872 25.18C79.9939 24.78 79.4539 24.1867 79.0672 23.4C78.6805 22.6 78.4872 21.6267 78.4872 20.48C78.4872 19.2667 78.6872 18.2467 79.0872 17.42C79.5005 16.5933 80.0672 15.9667 80.7872 15.54C81.5072 15.1 82.3272 14.88 83.2472 14.88ZM93.4249 14.88C93.9182 14.88 94.3715 14.94 94.7849 15.06C95.2115 15.1667 95.5782 15.32 95.8849 15.52C96.2049 15.72 96.4582 15.9733 96.6449 16.28C96.8315 16.5733 96.9249 16.9 96.9249 17.26C96.9249 17.7 96.7915 18.0533 96.5249 18.32C96.2582 18.5867 95.9249 18.72 95.5249 18.72C95.1115 18.72 94.7715 18.6 94.5049 18.36C94.2515 18.12 94.1249 17.8 94.1249 17.4C94.1249 17.0133 94.2382 16.6933 94.4649 16.44C94.6915 16.1867 94.9649 16.02 95.2849 15.94C95.1649 15.7667 94.9782 15.6267 94.7249 15.52C94.4715 15.4 94.1915 15.34 93.8849 15.34C93.4849 15.34 93.1249 15.4467 92.8049 15.66C92.4849 15.86 92.2049 16.1667 91.9649 16.58C91.7382 16.98 91.5582 17.48 91.4249 18.08C91.3049 18.6667 91.2449 19.3467 91.2449 20.12C91.2449 21.2 91.3715 22.0533 91.6249 22.68C91.8915 23.3067 92.2315 23.7533 92.6449 24.02C93.0582 24.2733 93.4982 24.4 93.9649 24.4C94.2449 24.4 94.5449 24.3467 94.8649 24.24C95.1849 24.1333 95.4982 23.9533 95.8049 23.7C96.1249 23.4467 96.4115 23.0867 96.6649 22.62L97.0449 22.76C96.8982 23.2267 96.6582 23.6933 96.3249 24.16C96.0049 24.6267 95.5849 25.0133 95.0649 25.32C94.5449 25.6267 93.9115 25.78 93.1649 25.78C92.3115 25.78 91.5382 25.5867 90.8449 25.2C90.1515 24.8 89.5982 24.2 89.1849 23.4C88.7849 22.6 88.5849 21.6067 88.5849 20.42C88.5849 19.2467 88.7915 18.2533 89.2049 17.44C89.6182 16.6133 90.1915 15.98 90.9249 15.54C91.6715 15.1 92.5049 14.88 93.4249 14.88ZM93.0449 25.42L92.6049 26.84C92.8049 26.7733 93.0115 26.72 93.2249 26.68C93.4515 26.6533 93.6915 26.64 93.9449 26.64C94.3715 26.64 94.6982 26.7333 94.9249 26.92C95.1515 27.1067 95.2649 27.3533 95.2649 27.66C95.2649 28.0467 95.1315 28.3533 94.8649 28.58C94.6115 28.82 94.2849 28.9933 93.8849 29.1C93.4982 29.2067 93.0849 29.26 92.6449 29.26C92.2715 29.26 91.9382 29.2333 91.6449 29.18C91.3649 29.14 91.1249 29.0867 90.9249 29.02L91.0249 28.66C91.1049 28.6733 91.2182 28.6867 91.3649 28.7C91.5249 28.7267 91.6915 28.74 91.8649 28.74C92.1049 28.74 92.3449 28.7133 92.5849 28.66C92.8249 28.6067 93.0249 28.52 93.1849 28.4C93.3582 28.28 93.4449 28.1133 93.4449 27.9C93.4449 27.54 93.1982 27.36 92.7049 27.36C92.5982 27.36 92.4582 27.3667 92.2849 27.38C92.1249 27.4067 91.9849 27.4467 91.8649 27.5L92.5049 25.42H93.0449ZM100.948 25.64C100.375 25.64 99.8881 25.5333 99.4881 25.32C99.0881 25.0933 98.7881 24.7933 98.5881 24.42C98.3881 24.0333 98.2881 23.6067 98.2881 23.14C98.2881 22.5667 98.4215 22.1 98.6881 21.74C98.9548 21.3667 99.2948 21.0733 99.7081 20.86C100.135 20.6333 100.581 20.4467 101.048 20.3C101.515 20.14 101.955 19.9933 102.368 19.86C102.781 19.7133 103.121 19.5467 103.388 19.36C103.655 19.1733 103.788 18.9267 103.788 18.62V17.16C103.788 16.7333 103.721 16.3867 103.588 16.12C103.468 15.84 103.281 15.6333 103.028 15.5C102.788 15.3533 102.481 15.28 102.108 15.28C101.828 15.28 101.535 15.32 101.228 15.4C100.921 15.48 100.668 15.6333 100.468 15.86C100.815 15.9533 101.081 16.1267 101.268 16.38C101.468 16.6333 101.568 16.94 101.568 17.3C101.568 17.7133 101.428 18.04 101.148 18.28C100.881 18.5067 100.541 18.62 100.128 18.62C99.6881 18.62 99.3548 18.48 99.1281 18.2C98.9015 17.92 98.7881 17.5933 98.7881 17.22C98.7881 16.8467 98.8815 16.54 99.0681 16.3C99.2548 16.0467 99.5148 15.82 99.8481 15.62C100.181 15.3933 100.608 15.2133 101.128 15.08C101.648 14.9467 102.215 14.88 102.828 14.88C103.415 14.88 103.935 14.9467 104.388 15.08C104.841 15.2 105.228 15.42 105.548 15.74C105.868 16.0467 106.075 16.4267 106.168 16.88C106.261 17.3333 106.308 17.8867 106.308 18.54V24.02C106.308 24.3533 106.348 24.5933 106.428 24.74C106.508 24.8733 106.635 24.94 106.808 24.94C106.941 24.94 107.068 24.9067 107.188 24.84C107.308 24.7733 107.441 24.68 107.588 24.56L107.808 24.9C107.515 25.1267 107.208 25.3067 106.888 25.44C106.568 25.5733 106.181 25.64 105.728 25.64C105.261 25.64 104.888 25.5733 104.608 25.44C104.341 25.3067 104.141 25.1133 104.008 24.86C103.888 24.6067 103.821 24.3067 103.808 23.96C103.488 24.4933 103.095 24.9067 102.628 25.2C102.161 25.4933 101.601 25.64 100.948 25.64ZM102.148 24.52C102.468 24.52 102.761 24.4333 103.028 24.26C103.308 24.0867 103.561 23.8267 103.788 23.48V19.44C103.655 19.64 103.461 19.82 103.208 19.98C102.968 20.14 102.708 20.3 102.428 20.46C102.148 20.62 101.881 20.8067 101.628 21.02C101.388 21.22 101.181 21.4733 101.008 21.78C100.848 22.0733 100.768 22.4533 100.768 22.92C100.768 23.44 100.895 23.84 101.148 24.12C101.401 24.3867 101.735 24.52 102.148 24.52ZM115.023 14.88C115.436 14.88 115.776 14.9667 116.043 15.14C116.323 15.3133 116.53 15.5333 116.663 15.8C116.796 16.0667 116.863 16.3467 116.863 16.64C116.863 17.08 116.73 17.4467 116.463 17.74C116.21 18.0333 115.87 18.18 115.443 18.18C115.043 18.18 114.716 18.0733 114.463 17.86C114.21 17.6467 114.083 17.3533 114.083 16.98C114.083 16.6467 114.163 16.3667 114.323 16.14C114.496 15.9133 114.69 15.7333 114.903 15.6C114.756 15.52 114.59 15.4933 114.403 15.52C114.083 15.5467 113.79 15.66 113.523 15.86C113.256 16.06 113.03 16.3067 112.843 16.6C112.656 16.8933 112.51 17.2067 112.403 17.54C112.31 17.8733 112.263 18.1933 112.263 18.5V23.44C112.263 24.0933 112.43 24.5333 112.763 24.76C113.096 24.9733 113.583 25.08 114.223 25.08V25.5C113.916 25.4867 113.47 25.4733 112.883 25.46C112.31 25.4333 111.71 25.42 111.083 25.42C110.563 25.42 110.043 25.4333 109.523 25.46C109.016 25.4733 108.636 25.4867 108.383 25.5V25.08C108.876 25.08 109.223 24.98 109.423 24.78C109.636 24.58 109.743 24.2 109.743 23.64V17.34C109.743 16.74 109.643 16.3 109.443 16.02C109.256 15.7267 108.903 15.58 108.383 15.58V15.16C108.81 15.2 109.223 15.22 109.623 15.22C110.116 15.22 110.583 15.2 111.023 15.16C111.476 15.1067 111.89 15.0333 112.263 14.94V17.02C112.423 16.6467 112.63 16.3 112.883 15.98C113.15 15.66 113.463 15.4 113.823 15.2C114.196 14.9867 114.596 14.88 115.023 14.88ZM119.843 9.86C120.216 9.86 120.543 10.0067 120.823 10.3C121.103 10.58 121.243 10.9933 121.243 11.54C121.243 12.1 121.183 12.7467 121.063 13.48C120.943 14.2133 120.803 15.02 120.643 15.9C120.496 16.7667 120.356 17.68 120.223 18.64C120.103 19.6 120.036 20.58 120.023 21.58H119.663C119.636 20.58 119.563 19.6 119.443 18.64C119.323 17.68 119.183 16.7667 119.023 15.9C118.863 15.02 118.723 14.2133 118.603 13.48C118.496 12.7467 118.443 12.1 118.443 11.54C118.443 10.9933 118.576 10.58 118.843 10.3C119.109 10.0067 119.443 9.86 119.843 9.86ZM119.843 22.86C120.296 22.86 120.669 22.9933 120.963 23.26C121.256 23.5267 121.403 23.88 121.403 24.32C121.403 24.76 121.256 25.1133 120.963 25.38C120.669 25.6467 120.296 25.78 119.843 25.78C119.376 25.78 118.996 25.6467 118.703 25.38C118.423 25.1133 118.283 24.76 118.283 24.32C118.283 23.88 118.423 23.5267 118.703 23.26C118.996 22.9933 119.376 22.86 119.843 22.86Z" fill="#784508"/>
</svg>
