<svg width="158" height="36" viewBox="0 0 158 36" fill="none" xmlns="http://www.w3.org/2000/svg">
<path d="M138.335 0C141.113 0 143.625 1.39435 144.421 3.50879H147.274C148.199 3.50879 149.057 3.79132 149.694 4.27051C150.331 4.74968 150.773 5.44952 150.773 6.26367V6.95312C152.287 7.26613 153.678 7.89259 154.78 8.77734L155.017 8.97461L155.266 9.20117C156.478 10.3545 157.171 11.7866 157.171 13.3271V21.9365C157.171 23.5766 156.386 25.1321 155.017 26.3242C153.88 27.3133 152.397 28.0092 150.773 28.3447V29.0186C150.773 29.8324 150.331 30.5318 149.694 31.0107C149.057 31.4898 148.199 31.7725 147.274 31.7725H144.421C143.625 33.887 141.113 35.2812 138.335 35.2812H18.8369C16.0593 35.2812 13.5464 33.8872 12.751 31.7725H9.89648C8.97151 31.7725 8.11378 31.4898 7.47656 31.0107C6.83962 30.5318 6.3986 29.8323 6.39844 29.0186V28.3271C4.77499 27.9919 3.29076 27.2967 2.1543 26.3076C0.784738 25.1152 0.000108485 23.5598 0 21.9199V13.3613C7.27612e-05 11.7215 0.784902 10.1667 2.1543 8.97461C3.29082 7.98543 4.77494 7.28864 6.39844 6.95312V6.26367C6.39844 5.44962 6.83953 4.74968 7.47656 4.27051C8.11378 3.79132 8.97147 3.50879 9.89648 3.50879H12.751C13.5463 1.39418 16.0592 0 18.8369 0H138.335Z" fill="#FDC787" stroke="#784508"/>
<path d="M154.688 9.35144C153.534 8.34684 151.981 7.65188 150.273 7.36784V6.26339C150.273 5.02016 148.928 4.00872 147.275 4.00872H144.059C143.51 1.98257 141.136 0.5 138.335 0.5H78.5859H18.8366C16.0358 0.5 13.6617 1.98257 13.1133 4.00872H9.89647C8.24323 4.00872 6.89821 5.02016 6.89821 6.26339V7.36784C5.19032 7.65152 3.63727 8.34684 2.48302 9.35144C1.20415 10.4645 0.5 11.8887 0.5 13.3616V21.9196C0.5 23.3924 1.20415 24.8166 2.48302 25.9301C3.63727 26.9347 5.19032 27.63 6.89821 27.9133V29.0181C6.89821 30.261 8.24323 31.2721 9.89647 31.2721H13.1133C13.6617 33.2986 16.0358 34.7815 18.8366 34.7815H138.335C141.136 34.7815 143.51 33.2986 144.059 31.2721H147.275C148.928 31.2721 150.273 30.261 150.273 29.0181V27.9306C151.981 27.6469 153.534 26.9516 154.688 25.947C155.967 24.8339 156.671 23.4097 156.671 21.9369V17.6579V13.3273C156.671 11.8548 155.967 10.4649 154.688 9.35144ZM155.495 21.8853C155.495 24.4918 153.014 26.6748 149.595 27.076L149.097 27.1344V28.9839C149.097 29.739 148.28 30.3536 147.275 30.3536H143.031L142.973 30.7465C142.708 32.5232 140.715 33.863 138.335 33.863H18.8366C16.4572 33.863 14.4636 32.5236 14.1995 30.7469L14.141 30.3536H9.89647C8.89178 30.3536 8.07402 29.739 8.07402 28.9839V27.1344L7.57695 27.076C4.15735 26.6751 1.67582 24.4922 1.67582 21.8853V13.3273C1.67582 10.7205 4.15735 8.53753 7.57695 8.13706L8.07402 8.07866V6.22914C8.07402 5.47362 8.89178 4.85868 9.89647 4.85868H14.141L14.1995 4.46578C14.4636 2.68943 16.4572 1.34961 18.8366 1.34961H138.335C140.715 1.34961 142.708 2.68943 142.973 4.46578L143.031 4.85868H147.275C148.28 4.85868 149.097 5.47362 149.097 6.22914V8.07866L149.595 8.13706C153.014 8.53789 155.495 10.7208 155.495 13.3273V21.8853Z" fill="#784508"/>
<path d="M149.467 8.75265L148.269 8.61207V6.22944C148.269 5.81744 147.823 5.48185 147.275 5.48185H142.29L142.15 4.53529C141.932 3.07471 140.293 1.97314 138.335 1.97314H18.837C16.8799 1.97314 15.24 3.07435 15.0229 4.53529L14.8825 5.48185H9.89687C9.34898 5.48185 8.90272 5.81744 8.90272 6.22944V8.61244L7.70485 8.75265C6.27067 8.92063 4.95537 9.47141 4.00005 10.3026C3.03562 11.1421 2.50452 12.2167 2.50452 13.3276V21.8856C2.50452 22.9969 3.03562 24.0711 4.00005 24.9106C4.95537 25.7422 6.27067 26.2926 7.70485 26.4606L8.90272 26.6011V28.9841C8.90272 29.3958 9.34898 29.731 9.89687 29.731H14.8825L15.0229 30.6779C15.24 32.1389 16.8799 33.2404 18.837 33.2404H138.335C140.293 33.2404 141.932 32.1389 142.15 30.6776L142.29 29.731H147.275C147.823 29.731 148.269 29.3958 148.269 28.9841V26.6011L149.467 26.4606C150.901 26.2926 152.217 25.7422 153.172 24.9106C154.136 24.0711 154.667 22.9969 154.667 21.8856V13.3276C154.667 12.2167 154.136 11.1425 153.172 10.303C152.217 9.47141 150.901 8.92099 149.467 8.75265ZM154.293 21.8856C154.293 22.9295 153.794 23.9384 152.889 24.7268C151.991 25.5079 150.756 26.0248 149.41 26.1826L147.895 26.3604V28.9841C147.895 29.2408 147.617 29.4498 147.275 29.4498H141.956L141.778 30.6466C141.582 31.9648 140.102 32.9593 138.335 32.9593H18.837C17.0706 32.9593 15.5909 31.9651 15.3949 30.6466L15.217 29.4498H9.89687C9.5551 29.4498 9.27708 29.2408 9.27708 28.9841V26.3604L7.76237 26.1826C6.41591 26.0248 5.18018 25.5079 4.28334 24.7268C3.37739 23.9384 2.87888 22.9295 2.87888 21.8856V13.3276C2.87888 12.2841 3.37739 11.2751 4.28334 10.4865C5.18018 9.70535 6.41591 9.18845 7.76237 9.03057L9.27708 8.85322V6.22944C9.27708 5.97243 9.5551 5.76337 9.89687 5.76337H15.217L15.3949 4.56628C15.5909 3.24845 17.0706 2.2543 18.837 2.2543H138.335C140.102 2.2543 141.582 3.24845 141.778 4.56664L141.956 5.76337H147.275C147.617 5.76337 147.895 5.97243 147.895 6.22944V8.85286L149.41 9.03057C150.756 9.18845 151.991 9.70571 152.889 10.4868C153.794 11.2751 154.293 12.2841 154.293 13.3276V21.8856Z" fill="#784508"/>
<path d="M48.3605 11.28L53.2205 23.82C53.4205 24.3 53.6338 24.6333 53.8605 24.82C54.1005 24.9933 54.3205 25.0867 54.5205 25.1V25.5C54.1738 25.4733 53.7538 25.46 53.2605 25.46C52.7805 25.4467 52.2872 25.44 51.7805 25.44C51.1938 25.44 50.6472 25.4467 50.1405 25.46C49.6338 25.46 49.2205 25.4733 48.9005 25.5V25.1C49.5805 25.0733 50.0138 24.96 50.2005 24.76C50.3872 24.5467 50.3472 24.1 50.0805 23.42L46.5605 13.92L46.9205 13.48L43.7205 21.78C43.4672 22.4467 43.3138 22.9933 43.2605 23.42C43.2072 23.8467 43.2405 24.18 43.3605 24.42C43.4805 24.66 43.6805 24.8333 43.9605 24.94C44.2405 25.0333 44.5872 25.0867 45.0005 25.1V25.5C44.5738 25.4733 44.1605 25.46 43.7605 25.46C43.3605 25.4467 42.9605 25.44 42.5605 25.44C42.2672 25.44 41.9872 25.4467 41.7205 25.46C41.4672 25.46 41.2405 25.4733 41.0405 25.5V25.1C41.3338 25.0333 41.6205 24.86 41.9005 24.58C42.1938 24.3 42.4738 23.8133 42.7405 23.12L47.3205 11.28C47.4805 11.2933 47.6538 11.3 47.8405 11.3C48.0272 11.3 48.2005 11.2933 48.3605 11.28ZM50.1005 19.74V20.14H44.1405L44.3405 19.74H50.1005ZM64.406 15.16V15.58C64.1526 15.6333 63.9126 15.7733 63.686 16C63.4726 16.2267 63.266 16.6267 63.066 17.2L60.006 25.56C59.846 25.5467 59.686 25.54 59.526 25.54C59.366 25.54 59.1993 25.5467 59.026 25.56L55.426 16.7C55.226 16.1933 55.0193 15.88 54.806 15.76C54.5926 15.64 54.4126 15.58 54.266 15.58V15.16C54.6393 15.1867 55.026 15.2133 55.426 15.24C55.826 15.2533 56.266 15.26 56.746 15.26C57.1593 15.26 57.5926 15.2533 58.046 15.24C58.5126 15.2133 58.946 15.1867 59.346 15.16V15.58C59.0526 15.58 58.786 15.6 58.546 15.64C58.3193 15.68 58.166 15.7867 58.086 15.96C58.006 16.12 58.0393 16.4067 58.186 16.82L60.586 23.04L60.406 23.26L62.226 18.32C62.4526 17.6933 62.546 17.1867 62.506 16.8C62.466 16.4133 62.3193 16.12 62.066 15.92C61.826 15.72 61.4793 15.6067 61.026 15.58V15.16C61.2526 15.1733 61.466 15.1867 61.666 15.2C61.8793 15.2133 62.086 15.2267 62.286 15.24C62.4993 15.24 62.6993 15.24 62.886 15.24C63.166 15.24 63.4393 15.2333 63.706 15.22C63.986 15.2067 64.2193 15.1867 64.406 15.16ZM67.5302 25.64C66.9568 25.64 66.4702 25.5333 66.0702 25.32C65.6702 25.0933 65.3702 24.7933 65.1702 24.42C64.9702 24.0333 64.8702 23.6067 64.8702 23.14C64.8702 22.5667 65.0035 22.1 65.2702 21.74C65.5368 21.3667 65.8768 21.0733 66.2902 20.86C66.7168 20.6333 67.1635 20.4467 67.6302 20.3C68.0968 20.14 68.5368 19.9933 68.9502 19.86C69.3635 19.7133 69.7035 19.5467 69.9702 19.36C70.2368 19.1733 70.3702 18.9267 70.3702 18.62V17.16C70.3702 16.7333 70.3035 16.3867 70.1702 16.12C70.0502 15.84 69.8635 15.6333 69.6102 15.5C69.3702 15.3533 69.0635 15.28 68.6902 15.28C68.4102 15.28 68.1168 15.32 67.8102 15.4C67.5035 15.48 67.2502 15.6333 67.0502 15.86C67.3968 15.9533 67.6635 16.1267 67.8502 16.38C68.0502 16.6333 68.1502 16.94 68.1502 17.3C68.1502 17.7133 68.0102 18.04 67.7302 18.28C67.4635 18.5067 67.1235 18.62 66.7102 18.62C66.2702 18.62 65.9368 18.48 65.7102 18.2C65.4835 17.92 65.3702 17.5933 65.3702 17.22C65.3702 16.8467 65.4635 16.54 65.6502 16.3C65.8368 16.0467 66.0968 15.82 66.4302 15.62C66.7635 15.3933 67.1902 15.2133 67.7102 15.08C68.2302 14.9467 68.7968 14.88 69.4102 14.88C69.9968 14.88 70.5168 14.9467 70.9702 15.08C71.4235 15.2 71.8102 15.42 72.1302 15.74C72.4502 16.0467 72.6568 16.4267 72.7502 16.88C72.8435 17.3333 72.8902 17.8867 72.8902 18.54V24.02C72.8902 24.3533 72.9302 24.5933 73.0102 24.74C73.0902 24.8733 73.2168 24.94 73.3902 24.94C73.5235 24.94 73.6502 24.9067 73.7702 24.84C73.8902 24.7733 74.0235 24.68 74.1702 24.56L74.3902 24.9C74.0968 25.1267 73.7902 25.3067 73.4702 25.44C73.1502 25.5733 72.7635 25.64 72.3102 25.64C71.8435 25.64 71.4702 25.5733 71.1902 25.44C70.9235 25.3067 70.7235 25.1133 70.5902 24.86C70.4702 24.6067 70.4035 24.3067 70.3902 23.96C70.0702 24.4933 69.6768 24.9067 69.2102 25.2C68.7435 25.4933 68.1835 25.64 67.5302 25.64ZM68.7302 24.52C69.0502 24.52 69.3435 24.4333 69.6102 24.26C69.8902 24.0867 70.1435 23.8267 70.3702 23.48V19.44C70.2368 19.64 70.0435 19.82 69.7902 19.98C69.5502 20.14 69.2902 20.3 69.0102 20.46C68.7302 20.62 68.4635 20.8067 68.2102 21.02C67.9702 21.22 67.7635 21.4733 67.5902 21.78C67.4302 22.0733 67.3502 22.4533 67.3502 22.92C67.3502 23.44 67.4768 23.84 67.7302 24.12C67.9835 24.3867 68.3168 24.52 68.7302 24.52ZM82.145 14.88C82.705 14.88 83.1517 14.9533 83.485 15.1C83.8317 15.2467 84.1117 15.4333 84.325 15.66C84.565 15.9133 84.7317 16.24 84.825 16.64C84.9317 17.04 84.985 17.58 84.985 18.26V23.64C84.985 24.2 85.085 24.58 85.285 24.78C85.4984 24.98 85.8517 25.08 86.345 25.08V25.5C86.105 25.4867 85.7317 25.4733 85.225 25.46C84.7317 25.4333 84.2517 25.42 83.785 25.42C83.2917 25.42 82.8117 25.4333 82.345 25.46C81.8784 25.4733 81.5317 25.4867 81.305 25.5V25.08C81.7317 25.08 82.0317 24.98 82.205 24.78C82.3784 24.58 82.465 24.2 82.465 23.64V17.58C82.465 17.22 82.4317 16.9 82.365 16.62C82.2984 16.3267 82.165 16.1 81.965 15.94C81.765 15.7667 81.4784 15.68 81.105 15.68C80.665 15.68 80.2717 15.8 79.925 16.04C79.5917 16.28 79.325 16.6133 79.125 17.04C78.9384 17.4533 78.845 17.92 78.845 18.44V23.64C78.845 24.2 78.9317 24.58 79.105 24.78C79.2784 24.98 79.5784 25.08 80.005 25.08V25.5C79.7784 25.4867 79.4384 25.4733 78.985 25.46C78.5317 25.4333 78.0717 25.42 77.605 25.42C77.1117 25.42 76.6117 25.4333 76.105 25.46C75.5984 25.4733 75.2184 25.4867 74.965 25.5V25.08C75.4584 25.08 75.805 24.98 76.005 24.78C76.2184 24.58 76.325 24.2 76.325 23.64V17.34C76.325 16.74 76.225 16.3 76.025 16.02C75.8384 15.7267 75.485 15.58 74.965 15.58V15.16C75.3917 15.2 75.805 15.22 76.205 15.22C76.6984 15.22 77.165 15.2 77.605 15.16C78.0584 15.1067 78.4717 15.0333 78.845 14.94V16.94C79.1784 16.18 79.6384 15.6467 80.225 15.34C80.8117 15.0333 81.4517 14.88 82.145 14.88ZM92.253 14.88C92.7463 14.88 93.1997 14.94 93.613 15.06C94.0397 15.1667 94.4063 15.32 94.713 15.52C95.033 15.72 95.2863 15.9733 95.473 16.28C95.6597 16.5733 95.753 16.9 95.753 17.26C95.753 17.7 95.6197 18.0533 95.353 18.32C95.0863 18.5867 94.753 18.72 94.353 18.72C93.9397 18.72 93.5997 18.6 93.333 18.36C93.0797 18.12 92.953 17.8 92.953 17.4C92.953 17.0133 93.0663 16.6933 93.293 16.44C93.5197 16.1867 93.793 16.02 94.113 15.94C93.993 15.7667 93.8063 15.6267 93.553 15.52C93.2997 15.4 93.0197 15.34 92.713 15.34C92.313 15.34 91.953 15.4467 91.633 15.66C91.313 15.86 91.033 16.1667 90.793 16.58C90.5663 16.98 90.3863 17.48 90.253 18.08C90.133 18.6667 90.073 19.3467 90.073 20.12C90.073 21.2 90.1997 22.0533 90.453 22.68C90.7197 23.3067 91.0597 23.7533 91.473 24.02C91.8863 24.2733 92.3263 24.4 92.793 24.4C93.073 24.4 93.373 24.3467 93.693 24.24C94.013 24.1333 94.3263 23.9533 94.633 23.7C94.953 23.4467 95.2397 23.0867 95.493 22.62L95.873 22.76C95.7263 23.2267 95.4863 23.6933 95.153 24.16C94.833 24.6267 94.413 25.0133 93.893 25.32C93.373 25.6267 92.7397 25.78 91.993 25.78C91.1397 25.78 90.3663 25.5867 89.673 25.2C88.9797 24.8 88.4263 24.2 88.013 23.4C87.613 22.6 87.413 21.6067 87.413 20.42C87.413 19.2467 87.6197 18.2533 88.033 17.44C88.4463 16.6133 89.0197 15.98 89.753 15.54C90.4997 15.1 91.333 14.88 92.253 14.88ZM91.873 25.42L91.433 26.84C91.633 26.7733 91.8397 26.72 92.053 26.68C92.2797 26.6533 92.5197 26.64 92.773 26.64C93.1997 26.64 93.5263 26.7333 93.753 26.92C93.9797 27.1067 94.093 27.3533 94.093 27.66C94.093 28.0467 93.9597 28.3533 93.693 28.58C93.4397 28.82 93.113 28.9933 92.713 29.1C92.3263 29.2067 91.913 29.26 91.473 29.26C91.0997 29.26 90.7663 29.2333 90.473 29.18C90.193 29.14 89.953 29.0867 89.753 29.02L89.853 28.66C89.933 28.6733 90.0463 28.6867 90.193 28.7C90.353 28.7267 90.5197 28.74 90.693 28.74C90.933 28.74 91.173 28.7133 91.413 28.66C91.653 28.6067 91.853 28.52 92.013 28.4C92.1863 28.28 92.273 28.1133 92.273 27.9C92.273 27.54 92.0263 27.36 91.533 27.36C91.4263 27.36 91.2863 27.3667 91.113 27.38C90.953 27.4067 90.813 27.4467 90.693 27.5L91.333 25.42H91.873ZM99.7763 25.64C99.2029 25.64 98.7163 25.5333 98.3163 25.32C97.9163 25.0933 97.6163 24.7933 97.4163 24.42C97.2163 24.0333 97.1163 23.6067 97.1163 23.14C97.1163 22.5667 97.2496 22.1 97.5163 21.74C97.7829 21.3667 98.1229 21.0733 98.5363 20.86C98.9629 20.6333 99.4096 20.4467 99.8763 20.3C100.343 20.14 100.783 19.9933 101.196 19.86C101.61 19.7133 101.95 19.5467 102.216 19.36C102.483 19.1733 102.616 18.9267 102.616 18.62V17.16C102.616 16.7333 102.55 16.3867 102.416 16.12C102.296 15.84 102.11 15.6333 101.856 15.5C101.616 15.3533 101.31 15.28 100.936 15.28C100.656 15.28 100.363 15.32 100.056 15.4C99.7496 15.48 99.4963 15.6333 99.2963 15.86C99.6429 15.9533 99.9096 16.1267 100.096 16.38C100.296 16.6333 100.396 16.94 100.396 17.3C100.396 17.7133 100.256 18.04 99.9763 18.28C99.7096 18.5067 99.3696 18.62 98.9563 18.62C98.5163 18.62 98.1829 18.48 97.9563 18.2C97.7296 17.92 97.6163 17.5933 97.6163 17.22C97.6163 16.8467 97.7096 16.54 97.8963 16.3C98.0829 16.0467 98.3429 15.82 98.6763 15.62C99.0096 15.3933 99.4363 15.2133 99.9563 15.08C100.476 14.9467 101.043 14.88 101.656 14.88C102.243 14.88 102.763 14.9467 103.216 15.08C103.67 15.2 104.056 15.42 104.376 15.74C104.696 16.0467 104.903 16.4267 104.996 16.88C105.09 17.3333 105.136 17.8867 105.136 18.54V24.02C105.136 24.3533 105.176 24.5933 105.256 24.74C105.336 24.8733 105.463 24.94 105.636 24.94C105.77 24.94 105.896 24.9067 106.016 24.84C106.136 24.7733 106.27 24.68 106.416 24.56L106.636 24.9C106.343 25.1267 106.036 25.3067 105.716 25.44C105.396 25.5733 105.01 25.64 104.556 25.64C104.09 25.64 103.716 25.5733 103.436 25.44C103.17 25.3067 102.97 25.1133 102.836 24.86C102.716 24.6067 102.65 24.3067 102.636 23.96C102.316 24.4933 101.923 24.9067 101.456 25.2C100.99 25.4933 100.43 25.64 99.7763 25.64ZM100.976 24.52C101.296 24.52 101.59 24.4333 101.856 24.26C102.136 24.0867 102.39 23.8267 102.616 23.48V19.44C102.483 19.64 102.29 19.82 102.036 19.98C101.796 20.14 101.536 20.3 101.256 20.46C100.976 20.62 100.71 20.8067 100.456 21.02C100.216 21.22 100.01 21.4733 99.8363 21.78C99.6763 22.0733 99.5963 22.4533 99.5963 22.92C99.5963 23.44 99.7229 23.84 99.9763 24.12C100.23 24.3867 100.563 24.52 100.976 24.52ZM113.851 14.88C114.264 14.88 114.604 14.9667 114.871 15.14C115.151 15.3133 115.358 15.5333 115.491 15.8C115.624 16.0667 115.691 16.3467 115.691 16.64C115.691 17.08 115.558 17.4467 115.291 17.74C115.038 18.0333 114.698 18.18 114.271 18.18C113.871 18.18 113.544 18.0733 113.291 17.86C113.038 17.6467 112.911 17.3533 112.911 16.98C112.911 16.6467 112.991 16.3667 113.151 16.14C113.324 15.9133 113.518 15.7333 113.731 15.6C113.584 15.52 113.418 15.4933 113.231 15.52C112.911 15.5467 112.618 15.66 112.351 15.86C112.084 16.06 111.858 16.3067 111.671 16.6C111.484 16.8933 111.338 17.2067 111.231 17.54C111.138 17.8733 111.091 18.1933 111.091 18.5V23.44C111.091 24.0933 111.258 24.5333 111.591 24.76C111.924 24.9733 112.411 25.08 113.051 25.08V25.5C112.744 25.4867 112.298 25.4733 111.711 25.46C111.138 25.4333 110.538 25.42 109.911 25.42C109.391 25.42 108.871 25.4333 108.351 25.46C107.844 25.4733 107.464 25.4867 107.211 25.5V25.08C107.704 25.08 108.051 24.98 108.251 24.78C108.464 24.58 108.571 24.2 108.571 23.64V17.34C108.571 16.74 108.471 16.3 108.271 16.02C108.084 15.7267 107.731 15.58 107.211 15.58V15.16C107.638 15.2 108.051 15.22 108.451 15.22C108.944 15.22 109.411 15.2 109.851 15.16C110.304 15.1067 110.718 15.0333 111.091 14.94V17.02C111.251 16.6467 111.458 16.3 111.711 15.98C111.978 15.66 112.291 15.4 112.651 15.2C113.024 14.9867 113.424 14.88 113.851 14.88Z" fill="#784508"/>
</svg>
