<svg width="238" height="51" viewBox="0 0 238 51" fill="none" xmlns="http://www.w3.org/2000/svg">
<path d="M209.674 0C213.881 3.48944e-05 217.627 2.0623 218.723 5.11719H223.24C224.589 5.11719 225.831 5.51339 226.749 6.17676C227.666 6.83948 228.29 7.79841 228.29 8.90625V10.0967C230.628 10.5313 232.775 11.4443 234.461 12.7451L234.812 13.0264C236.839 14.7239 238 16.8828 238 19.209V31.7656L237.986 32.2002C237.852 34.3633 236.716 36.4046 234.812 37.998C233.077 39.4488 230.793 40.4628 228.29 40.9277V42.0938C228.29 43.2014 227.666 44.1607 226.749 44.8232C225.831 45.4863 224.588 45.8818 223.24 45.8818H218.723C217.627 48.9372 213.881 51 209.674 51H28.3271C24.12 51 20.3725 48.9374 19.2783 45.8818H14.7598C13.4116 45.8818 12.1688 45.4863 11.251 44.8232C10.334 44.1607 9.70996 43.2014 9.70996 42.0938V40.9023C7.3727 40.4685 5.2254 39.5557 3.53906 38.2549L3.18848 37.9736C1.15671 36.2735 0.000159521 34.0641 0 31.7412V19.2588L0.0136719 18.8242C0.148289 16.6612 1.28362 14.6198 3.18848 13.0264C4.92284 11.5756 7.20758 10.5616 9.70996 10.0967V8.90625L9.7168 8.7002C9.78869 7.67953 10.3913 6.7981 11.251 6.17676C12.1688 5.51339 13.4115 5.11719 14.7598 5.11719H19.2783C20.3726 2.06207 24.1201 0 28.3271 0H209.674Z" fill="#FDC787" stroke="#784508"/>
<path d="M234.491 13.4099C232.739 11.9447 230.383 10.9311 227.79 10.5168V8.90597C227.79 7.09271 225.749 5.61751 223.24 5.61751H218.36C217.526 2.66235 213.924 0.5 209.674 0.5H119H28.327C24.0766 0.5 20.4737 2.66235 19.6415 5.61751H14.7597C12.2509 5.61751 10.2097 7.09271 10.2097 8.90597V10.5168C7.61787 10.9306 5.26101 11.9447 3.50937 13.4099C1.56859 15.0334 0.5 17.1106 0.5 19.2587V31.7407C0.5 33.8889 1.56859 35.9661 3.50937 37.5901C5.26101 39.0553 7.61787 40.0694 10.2097 40.4827V42.094C10.2097 43.9068 12.2509 45.3814 14.7597 45.3814H19.6415C20.4737 48.3371 24.0766 50.5 28.327 50.5H209.674C213.924 50.5 217.526 48.3371 218.36 45.3814H223.24C225.749 45.3814 227.79 43.9068 227.79 42.094V40.5079C230.383 40.0941 232.739 39.08 234.491 37.6148C236.431 35.9913 237.5 33.9141 237.5 31.766V25.525V19.2088C237.5 17.0612 236.431 15.0339 234.491 13.4099ZM235.716 31.6908C235.716 35.4924 231.95 38.6762 226.761 39.2614L226.006 39.3465V42.0441C226.006 43.1455 224.766 44.0419 223.24 44.0419H216.8L216.712 44.6149C216.31 47.2063 213.285 49.1604 209.674 49.1604H28.327C24.716 49.1604 21.6907 47.2068 21.2899 44.6155L21.2011 44.0419H14.7597C13.2351 44.0419 11.9941 43.1455 11.9941 42.0441V39.3465L11.2397 39.2614C6.05027 38.6768 2.28438 35.4929 2.28438 31.6908V19.2088C2.28438 15.4067 6.05027 12.2228 11.2397 11.6387L11.9941 11.5536V8.85603C11.9941 7.75409 13.2351 6.85719 14.7597 6.85719H21.2011L21.2899 6.28413C21.6907 3.69331 24.716 1.73916 28.327 1.73916H209.674C213.285 1.73916 216.31 3.69331 216.712 6.28413L216.8 6.85719H223.24C224.766 6.85719 226.006 7.75409 226.006 8.85603V11.5536L226.761 11.6387C231.95 12.2234 235.716 15.4072 235.716 19.2088V31.6908Z" fill="#784508"/>
<path d="M226.567 12.5367L224.749 12.3316V8.85655C224.749 8.25563 224.073 7.76617 223.241 7.76617H215.676L215.462 6.3856C215.133 4.25532 212.644 2.64868 209.674 2.64868H28.3276C25.3575 2.64868 22.869 4.2548 22.5395 6.3856L22.3263 7.76617H14.7604C13.9289 7.76617 13.2517 8.25563 13.2517 8.85655V12.3322L11.4338 12.5367C9.25738 12.7817 7.26132 13.585 5.81156 14.7973C4.34798 16.0218 3.54199 17.589 3.54199 19.2093V31.6913C3.54199 33.3121 4.34798 34.8788 5.81156 36.1032C7.26132 37.3161 9.25738 38.1189 11.4338 38.3639L13.2517 38.5689V42.0445C13.2517 42.6449 13.9289 43.1339 14.7604 43.1339H22.3263L22.5395 44.515C22.869 46.6458 25.3575 48.2524 28.3276 48.2524H209.674C212.644 48.2524 215.133 46.6458 215.462 44.5145L215.676 43.1339H223.241C224.073 43.1339 224.749 42.6449 224.749 42.0445V38.5689L226.567 38.3639C228.744 38.1189 230.74 37.3161 232.19 36.1032C233.653 34.8788 234.458 33.3121 234.458 31.6913V19.2093C234.458 17.589 233.653 16.0223 232.19 14.7979C230.74 13.585 228.744 12.7822 226.567 12.5367ZM233.891 31.6913C233.891 33.2138 233.134 34.6853 231.76 35.8351C230.398 36.9744 228.523 37.7283 226.48 37.9585L224.182 38.2177V42.0445C224.182 42.4189 223.76 42.7238 223.241 42.7238H215.169L214.899 44.4692C214.601 46.3918 212.355 47.8423 209.674 47.8423H28.3276C25.647 47.8423 23.4015 46.3924 23.1039 44.4692L22.8341 42.7238H14.7604C14.2417 42.7238 13.8198 42.4189 13.8198 42.0445V38.2177L11.5211 37.9585C9.47779 37.7283 7.60249 36.9744 6.24147 35.8351C4.86663 34.6853 4.11011 33.2138 4.11011 31.6913V19.2093C4.11011 17.6873 4.86663 16.2158 6.24147 15.0655C7.60249 13.9262 9.47779 13.1723 11.5211 12.942L13.8198 12.6834V8.85655C13.8198 8.4817 14.2417 8.17678 14.7604 8.17678H22.8341L23.1039 6.43081C23.4015 4.50873 25.647 3.05875 28.3276 3.05875H209.674C212.355 3.05875 214.601 4.50873 214.899 6.43133L215.169 8.17678H223.241C223.76 8.17678 224.182 8.4817 224.182 8.85655V12.6828L226.48 12.942C228.523 13.1723 230.398 13.9267 231.76 15.066C233.134 16.2158 233.891 17.6873 233.891 19.2093V31.6913Z" fill="#784508"/>
<path d="M100.186 18.9372C100.132 19.4438 100.092 19.9372 100.066 20.4172C100.052 20.8838 100.046 21.2438 100.046 21.4972C100.046 21.7505 100.052 21.9905 100.066 22.2172C100.079 22.4438 100.092 22.6305 100.106 22.7772H99.6456C99.5523 21.9238 99.4056 21.2505 99.2056 20.7572C99.019 20.2638 98.7323 19.9172 98.3456 19.7172C97.9723 19.5038 97.4456 19.3972 96.7656 19.3972H95.3856C94.959 19.3972 94.6323 19.4372 94.4056 19.5172C94.1923 19.5838 94.0456 19.7305 93.9656 19.9572C93.8856 20.1705 93.8456 20.5105 93.8456 20.9772V31.0572C93.8456 31.5105 93.8856 31.8505 93.9656 32.0772C94.0456 32.3038 94.1923 32.4572 94.4056 32.5372C94.6323 32.6038 94.959 32.6372 95.3856 32.6372H96.6856C97.4456 32.6372 98.0456 32.5172 98.4856 32.2772C98.939 32.0372 99.279 31.6438 99.5056 31.0972C99.7456 30.5505 99.9256 29.8038 100.046 28.8572H100.506C100.466 29.2438 100.446 29.7505 100.446 30.3772C100.446 30.6438 100.452 31.0305 100.466 31.5372C100.492 32.0438 100.532 32.5638 100.586 33.0972C99.9056 33.0705 99.139 33.0572 98.2856 33.0572C97.4323 33.0438 96.6723 33.0372 96.0056 33.0372C95.699 33.0372 95.3056 33.0372 94.8256 33.0372C94.3456 33.0372 93.8256 33.0438 93.2656 33.0572C92.719 33.0572 92.159 33.0638 91.5856 33.0772C91.0256 33.0772 90.4856 33.0838 89.9656 33.0972V32.6972C90.419 32.6705 90.759 32.6172 90.9856 32.5372C91.2123 32.4572 91.359 32.2972 91.4256 32.0572C91.5056 31.8172 91.5456 31.4572 91.5456 30.9772V21.0572C91.5456 20.5638 91.5056 20.2038 91.4256 19.9772C91.359 19.7372 91.2056 19.5772 90.9656 19.4972C90.739 19.4038 90.4056 19.3505 89.9656 19.3372V18.9372C90.4856 18.9505 91.0256 18.9638 91.5856 18.9772C92.159 18.9772 92.719 18.9838 93.2656 18.9972C93.8256 18.9972 94.3456 18.9972 94.8256 18.9972C95.3056 18.9972 95.699 18.9972 96.0056 18.9972C96.619 18.9972 97.3123 18.9972 98.0856 18.9972C98.8723 18.9838 99.5723 18.9638 100.186 18.9372ZM96.8656 25.7772C96.8656 25.7772 96.8656 25.8438 96.8656 25.9772C96.8656 26.1105 96.8656 26.1772 96.8656 26.1772H93.2456C93.2456 26.1772 93.2456 26.1105 93.2456 25.9772C93.2456 25.8438 93.2456 25.7772 93.2456 25.7772H96.8656ZM97.4456 23.1372C97.3923 23.8972 97.3656 24.4772 97.3656 24.8772C97.379 25.2772 97.3856 25.6438 97.3856 25.9772C97.3856 26.3105 97.3923 26.6772 97.4056 27.0772C97.419 27.4772 97.4523 28.0572 97.5056 28.8172H97.0456C96.979 28.3772 96.8923 27.9572 96.7856 27.5572C96.679 27.1438 96.4856 26.8105 96.2056 26.5572C95.939 26.3038 95.519 26.1772 94.9456 26.1772V25.7772C95.3723 25.7772 95.7056 25.6905 95.9456 25.5172C96.199 25.3438 96.3923 25.1172 96.5256 24.8372C96.659 24.5572 96.7523 24.2705 96.8056 23.9772C96.8723 23.6705 96.9323 23.3905 96.9856 23.1372H97.4456ZM109.029 22.4972C109.563 22.4972 109.996 22.5705 110.329 22.7172C110.676 22.8505 110.963 23.0372 111.189 23.2772C111.429 23.5305 111.596 23.8572 111.689 24.2572C111.796 24.6572 111.849 25.1972 111.849 25.8772V31.2372C111.849 31.7972 111.956 32.1772 112.169 32.3772C112.396 32.5772 112.769 32.6772 113.289 32.6772V33.0972C113.063 33.0838 112.709 33.0705 112.229 33.0572C111.749 33.0305 111.276 33.0172 110.809 33.0172C110.356 33.0172 109.903 33.0305 109.449 33.0572C109.009 33.0705 108.676 33.0838 108.449 33.0972V32.6772C108.903 32.6772 109.223 32.5772 109.409 32.3772C109.596 32.1772 109.689 31.7972 109.689 31.2372V25.3172C109.689 24.9305 109.656 24.5838 109.589 24.2772C109.523 23.9572 109.383 23.7038 109.169 23.5172C108.956 23.3172 108.636 23.2172 108.209 23.2172C107.716 23.2172 107.276 23.3572 106.889 23.6372C106.516 23.9172 106.216 24.3038 105.989 24.7972C105.776 25.2772 105.669 25.8172 105.669 26.4172V31.2372C105.669 31.7972 105.763 32.1772 105.949 32.3772C106.149 32.5772 106.469 32.6772 106.909 32.6772V33.0972C106.696 33.0838 106.369 33.0705 105.929 33.0572C105.503 33.0305 105.056 33.0172 104.589 33.0172C104.136 33.0172 103.663 33.0305 103.169 33.0572C102.676 33.0705 102.309 33.0838 102.069 33.0972V32.6772C102.589 32.6772 102.956 32.5772 103.169 32.3772C103.396 32.1772 103.509 31.7972 103.509 31.2372V24.9572C103.509 24.3572 103.409 23.9172 103.209 23.6372C103.009 23.3438 102.629 23.1972 102.069 23.1972V22.7772C102.496 22.8172 102.909 22.8372 103.309 22.8372C103.763 22.8372 104.183 22.8172 104.569 22.7772C104.969 22.7238 105.336 22.6505 105.669 22.5572V24.7372C106.016 23.9105 106.489 23.3305 107.089 22.9972C107.703 22.6638 108.349 22.4972 109.029 22.4972ZM117.62 19.4772V22.7972H120.38V23.1972H117.62V31.0572C117.62 31.6038 117.72 31.9905 117.92 32.2172C118.12 32.4438 118.407 32.5572 118.78 32.5572C119.127 32.5572 119.434 32.4172 119.7 32.1372C119.98 31.8572 120.22 31.3838 120.42 30.7172L120.8 30.8572C120.64 31.5638 120.354 32.1638 119.94 32.6572C119.54 33.1372 118.947 33.3772 118.16 33.3772C117.707 33.3772 117.327 33.3172 117.02 33.1972C116.714 33.0905 116.447 32.9305 116.22 32.7172C115.927 32.4105 115.727 32.0438 115.62 31.6172C115.514 31.1905 115.46 30.6238 115.46 29.9172V23.1972H113.62V22.7972H115.46V19.8772C115.874 19.8638 116.26 19.8305 116.62 19.7772C116.98 19.7105 117.314 19.6105 117.62 19.4772ZM127.611 22.4972C127.998 22.4972 128.324 22.5772 128.591 22.7372C128.871 22.8972 129.078 23.1038 129.211 23.3572C129.358 23.5972 129.431 23.8705 129.431 24.1772C129.431 24.5638 129.311 24.8972 129.071 25.1772C128.844 25.4438 128.538 25.5772 128.151 25.5772C127.818 25.5772 127.531 25.4772 127.291 25.2772C127.064 25.0772 126.951 24.8038 126.951 24.4572C126.951 24.1638 127.024 23.9172 127.171 23.7172C127.331 23.5038 127.511 23.3372 127.711 23.2172C127.578 23.1105 127.418 23.0638 127.231 23.0772C126.871 23.0905 126.538 23.2105 126.231 23.4372C125.924 23.6505 125.664 23.9305 125.451 24.2772C125.238 24.6105 125.071 24.9705 124.951 25.3572C124.831 25.7438 124.771 26.1038 124.771 26.4372V31.0372C124.771 31.6905 124.951 32.1305 125.311 32.3572C125.671 32.5705 126.171 32.6772 126.811 32.6772V33.0972C126.504 33.0838 126.064 33.0705 125.491 33.0572C124.931 33.0305 124.338 33.0172 123.711 33.0172C123.231 33.0172 122.751 33.0305 122.271 33.0572C121.791 33.0705 121.424 33.0838 121.171 33.0972V32.6772C121.691 32.6772 122.058 32.5772 122.271 32.3772C122.498 32.1772 122.611 31.7972 122.611 31.2372V24.9572C122.611 24.3572 122.511 23.9172 122.311 23.6372C122.111 23.3438 121.731 23.1972 121.171 23.1972V22.7772C121.598 22.8172 122.011 22.8372 122.411 22.8372C122.864 22.8372 123.284 22.8172 123.671 22.7772C124.071 22.7238 124.438 22.6505 124.771 22.5572V24.8572C124.931 24.4705 125.144 24.0972 125.411 23.7372C125.678 23.3772 125.998 23.0838 126.371 22.8572C126.744 22.6172 127.158 22.4972 127.611 22.4972ZM133.034 33.2372C132.474 33.2372 131.994 33.1305 131.594 32.9172C131.194 32.7038 130.894 32.4105 130.694 32.0372C130.494 31.6638 130.394 31.2372 130.394 30.7572C130.394 30.1705 130.527 29.6972 130.794 29.3372C131.061 28.9638 131.401 28.6638 131.814 28.4372C132.241 28.2105 132.687 28.0238 133.154 27.8772C133.634 27.7172 134.081 27.5705 134.494 27.4372C134.921 27.2905 135.267 27.1238 135.534 26.9372C135.814 26.7505 135.954 26.5038 135.954 26.1972V24.8372C135.954 24.3572 135.874 23.9772 135.714 23.6972C135.567 23.4038 135.361 23.1972 135.094 23.0772C134.841 22.9572 134.534 22.8972 134.174 22.8972C133.867 22.8972 133.541 22.9438 133.194 23.0372C132.847 23.1172 132.574 23.2838 132.374 23.5372C132.667 23.6172 132.907 23.7772 133.094 24.0172C133.294 24.2438 133.394 24.5305 133.394 24.8772C133.394 25.2505 133.267 25.5438 133.014 25.7572C132.774 25.9705 132.467 26.0772 132.094 26.0772C131.681 26.0772 131.374 25.9505 131.174 25.6972C130.974 25.4305 130.874 25.1238 130.874 24.7772C130.874 24.4172 130.961 24.1238 131.134 23.8972C131.321 23.6705 131.561 23.4572 131.854 23.2572C132.174 23.0438 132.581 22.8638 133.074 22.7172C133.581 22.5705 134.141 22.4972 134.754 22.4972C135.327 22.4972 135.821 22.5638 136.234 22.6972C136.661 22.8172 137.014 23.0172 137.294 23.2972C137.627 23.6038 137.847 23.9905 137.954 24.4572C138.061 24.9105 138.114 25.4638 138.114 26.1172V31.6372C138.114 31.9705 138.154 32.2105 138.234 32.3572C138.327 32.4905 138.474 32.5572 138.674 32.5572C138.807 32.5572 138.934 32.5238 139.054 32.4572C139.187 32.3905 139.341 32.2905 139.514 32.1572L139.714 32.4972C139.434 32.7238 139.147 32.9038 138.854 33.0372C138.574 33.1705 138.214 33.2372 137.774 33.2372C137.347 33.2372 137.001 33.1705 136.734 33.0372C136.467 32.9038 136.267 32.7105 136.134 32.4572C136.014 32.2038 135.954 31.8905 135.954 31.5172C135.607 32.0772 135.194 32.5038 134.714 32.7972C134.234 33.0905 133.674 33.2372 133.034 33.2372ZM133.994 32.2772C134.367 32.2772 134.714 32.1705 135.034 31.9572C135.367 31.7438 135.674 31.4238 135.954 30.9972V27.0172C135.807 27.2305 135.594 27.4172 135.314 27.5772C135.034 27.7238 134.734 27.8772 134.414 28.0372C134.094 28.1972 133.787 28.3838 133.494 28.5972C133.214 28.7972 132.981 29.0572 132.794 29.3772C132.607 29.6972 132.514 30.1038 132.514 30.5972C132.514 31.1172 132.647 31.5305 132.914 31.8372C133.181 32.1305 133.541 32.2772 133.994 32.2772ZM146.752 22.4972C147.138 22.4972 147.465 22.5772 147.732 22.7372C148.012 22.8972 148.218 23.1038 148.352 23.3572C148.498 23.5972 148.572 23.8705 148.572 24.1772C148.572 24.5638 148.452 24.8972 148.212 25.1772C147.985 25.4438 147.678 25.5772 147.292 25.5772C146.958 25.5772 146.672 25.4772 146.432 25.2772C146.205 25.0772 146.092 24.8038 146.092 24.4572C146.092 24.1638 146.165 23.9172 146.312 23.7172C146.472 23.5038 146.652 23.3372 146.852 23.2172C146.718 23.1105 146.558 23.0638 146.372 23.0772C146.012 23.0905 145.678 23.2105 145.372 23.4372C145.065 23.6505 144.805 23.9305 144.592 24.2772C144.378 24.6105 144.212 24.9705 144.092 25.3572C143.972 25.7438 143.912 26.1038 143.912 26.4372V31.0372C143.912 31.6905 144.092 32.1305 144.452 32.3572C144.812 32.5705 145.312 32.6772 145.952 32.6772V33.0972C145.645 33.0838 145.205 33.0705 144.632 33.0572C144.072 33.0305 143.478 33.0172 142.852 33.0172C142.372 33.0172 141.892 33.0305 141.412 33.0572C140.932 33.0705 140.565 33.0838 140.312 33.0972V32.6772C140.832 32.6772 141.198 32.5772 141.412 32.3772C141.638 32.1772 141.752 31.7972 141.752 31.2372V24.9572C141.752 24.3572 141.652 23.9172 141.452 23.6372C141.252 23.3438 140.872 23.1972 140.312 23.1972V22.7772C140.738 22.8172 141.152 22.8372 141.552 22.8372C142.005 22.8372 142.425 22.8172 142.812 22.7772C143.212 22.7238 143.578 22.6505 143.912 22.5572V24.8572C144.072 24.4705 144.285 24.0972 144.552 23.7372C144.818 23.3772 145.138 23.0838 145.512 22.8572C145.885 22.6172 146.298 22.4972 146.752 22.4972Z" fill="#784508"/>
</svg>
