<svg width="238" height="51" viewBox="0 0 238 51" fill="none" xmlns="http://www.w3.org/2000/svg">
<path d="M209.674 0C213.881 3.48944e-05 217.627 2.0623 218.723 5.11719H223.24C224.589 5.11719 225.831 5.51339 226.749 6.17676C227.666 6.83948 228.29 7.79841 228.29 8.90625V10.0967C230.628 10.5313 232.775 11.4443 234.461 12.7451L234.812 13.0264C236.839 14.7239 238 16.8828 238 19.209V31.7656L237.986 32.2002C237.852 34.3633 236.716 36.4046 234.812 37.998C233.077 39.4488 230.793 40.4628 228.29 40.9277V42.0938C228.29 43.2014 227.666 44.1607 226.749 44.8232C225.831 45.4863 224.588 45.8818 223.24 45.8818H218.723C217.627 48.9372 213.881 51 209.674 51H28.3271C24.12 51 20.3725 48.9374 19.2783 45.8818H14.7598C13.4116 45.8818 12.1688 45.4863 11.251 44.8232C10.334 44.1607 9.70996 43.2014 9.70996 42.0938V40.9023C7.3727 40.4685 5.2254 39.5557 3.53906 38.2549L3.18848 37.9736C1.15671 36.2735 0.000159521 34.0641 0 31.7412V19.2588L0.0136719 18.8242C0.148289 16.6612 1.28362 14.6198 3.18848 13.0264C4.92284 11.5756 7.20758 10.5616 9.70996 10.0967V8.90625L9.7168 8.7002C9.78869 7.67953 10.3913 6.7981 11.251 6.17676C12.1688 5.51339 13.4115 5.11719 14.7598 5.11719H19.2783C20.3726 2.06207 24.1201 0 28.3271 0H209.674Z" fill="#FDC787" stroke="#784508"/>
<path d="M234.491 13.4099C232.739 11.9447 230.383 10.9311 227.79 10.5168V8.90597C227.79 7.09271 225.749 5.61751 223.24 5.61751H218.36C217.526 2.66235 213.924 0.5 209.674 0.5H119H28.327C24.0766 0.5 20.4737 2.66235 19.6415 5.61751H14.7597C12.2509 5.61751 10.2097 7.09271 10.2097 8.90597V10.5168C7.61787 10.9306 5.26101 11.9447 3.50937 13.4099C1.56859 15.0334 0.5 17.1106 0.5 19.2587V31.7407C0.5 33.8889 1.56859 35.9661 3.50937 37.5901C5.26101 39.0553 7.61787 40.0694 10.2097 40.4827V42.094C10.2097 43.9068 12.2509 45.3814 14.7597 45.3814H19.6415C20.4737 48.3371 24.0766 50.5 28.327 50.5H209.674C213.924 50.5 217.526 48.3371 218.36 45.3814H223.24C225.749 45.3814 227.79 43.9068 227.79 42.094V40.5079C230.383 40.0941 232.739 39.08 234.491 37.6148C236.431 35.9913 237.5 33.9141 237.5 31.766V25.525V19.2088C237.5 17.0612 236.431 15.0339 234.491 13.4099ZM235.716 31.6908C235.716 35.4924 231.95 38.6762 226.761 39.2614L226.006 39.3465V42.0441C226.006 43.1455 224.766 44.0419 223.24 44.0419H216.8L216.712 44.6149C216.31 47.2063 213.285 49.1604 209.674 49.1604H28.327C24.716 49.1604 21.6907 47.2068 21.2899 44.6155L21.2011 44.0419H14.7597C13.2351 44.0419 11.9941 43.1455 11.9941 42.0441V39.3465L11.2397 39.2614C6.05027 38.6768 2.28438 35.4929 2.28438 31.6908V19.2088C2.28438 15.4067 6.05027 12.2228 11.2397 11.6387L11.9941 11.5536V8.85603C11.9941 7.75409 13.2351 6.85719 14.7597 6.85719H21.2011L21.2899 6.28413C21.6907 3.69331 24.716 1.73916 28.327 1.73916H209.674C213.285 1.73916 216.31 3.69331 216.712 6.28413L216.8 6.85719H223.24C224.766 6.85719 226.006 7.75409 226.006 8.85603V11.5536L226.761 11.6387C231.95 12.2234 235.716 15.4072 235.716 19.2088V31.6908Z" fill="#784508"/>
<path d="M226.567 12.5367L224.749 12.3316V8.85655C224.749 8.25563 224.073 7.76617 223.241 7.76617H215.676L215.462 6.3856C215.133 4.25532 212.644 2.64868 209.674 2.64868H28.3276C25.3575 2.64868 22.869 4.2548 22.5395 6.3856L22.3263 7.76617H14.7604C13.9289 7.76617 13.2517 8.25563 13.2517 8.85655V12.3322L11.4338 12.5367C9.25738 12.7817 7.26132 13.585 5.81156 14.7973C4.34798 16.0218 3.54199 17.589 3.54199 19.2093V31.6913C3.54199 33.3121 4.34798 34.8788 5.81156 36.1032C7.26132 37.3161 9.25738 38.1189 11.4338 38.3639L13.2517 38.5689V42.0445C13.2517 42.6449 13.9289 43.1339 14.7604 43.1339H22.3263L22.5395 44.515C22.869 46.6458 25.3575 48.2524 28.3276 48.2524H209.674C212.644 48.2524 215.133 46.6458 215.462 44.5145L215.676 43.1339H223.241C224.073 43.1339 224.749 42.6449 224.749 42.0445V38.5689L226.567 38.3639C228.744 38.1189 230.74 37.3161 232.19 36.1032C233.653 34.8788 234.458 33.3121 234.458 31.6913V19.2093C234.458 17.589 233.653 16.0223 232.19 14.7979C230.74 13.585 228.744 12.7822 226.567 12.5367ZM233.891 31.6913C233.891 33.2138 233.134 34.6853 231.76 35.8351C230.398 36.9744 228.523 37.7283 226.48 37.9585L224.182 38.2177V42.0445C224.182 42.4189 223.76 42.7238 223.241 42.7238H215.169L214.899 44.4692C214.601 46.3918 212.355 47.8423 209.674 47.8423H28.3276C25.647 47.8423 23.4015 46.3924 23.1039 44.4692L22.8341 42.7238H14.7604C14.2417 42.7238 13.8198 42.4189 13.8198 42.0445V38.2177L11.5211 37.9585C9.47779 37.7283 7.60249 36.9744 6.24147 35.8351C4.86663 34.6853 4.11011 33.2138 4.11011 31.6913V19.2093C4.11011 17.6873 4.86663 16.2158 6.24147 15.0655C7.60249 13.9262 9.47779 13.1723 11.5211 12.942L13.8198 12.6834V8.85655C13.8198 8.4817 14.2417 8.17678 14.7604 8.17678H22.8341L23.1039 6.43081C23.4015 4.50873 25.647 3.05875 28.3276 3.05875H209.674C212.355 3.05875 214.601 4.50873 214.899 6.43133L215.169 8.17678H223.241C223.76 8.17678 224.182 8.4817 224.182 8.85655V12.6828L226.48 12.942C228.523 13.1723 230.398 13.9267 231.76 15.066C233.134 16.2158 233.891 17.6873 233.891 19.2093V31.6913Z" fill="#784508"/>
<path d="M46.836 18.9372C46.7827 19.4705 46.7427 19.9905 46.716 20.4972C46.7027 21.0038 46.696 21.3905 46.696 21.6572C46.696 21.9638 46.7027 22.2572 46.716 22.5372C46.7294 22.8172 46.7427 23.0572 46.756 23.2572H46.296C46.176 22.2838 46.0094 21.5238 45.796 20.9772C45.596 20.4172 45.2894 20.0172 44.876 19.7772C44.4627 19.5238 43.8694 19.3972 43.096 19.3972H42.036C41.6094 19.3972 41.2827 19.4372 41.056 19.5172C40.8427 19.5838 40.696 19.7305 40.616 19.9572C40.536 20.1705 40.496 20.5105 40.496 20.9772V30.9372C40.496 31.4305 40.5494 31.8038 40.656 32.0572C40.7627 32.2972 40.9627 32.4572 41.256 32.5372C41.5494 32.6172 41.9827 32.6638 42.556 32.6772V33.0972C42.196 33.0705 41.7294 33.0572 41.156 33.0572C40.5827 33.0438 39.9894 33.0372 39.376 33.0372C38.8427 33.0372 38.3294 33.0438 37.836 33.0572C37.356 33.0572 36.9494 33.0705 36.616 33.0972V32.6972C37.0694 32.6705 37.4094 32.6172 37.636 32.5372C37.8627 32.4572 38.0094 32.2972 38.076 32.0572C38.156 31.8172 38.196 31.4572 38.196 30.9772V21.0572C38.196 20.5638 38.156 20.2038 38.076 19.9772C38.0094 19.7372 37.856 19.5772 37.616 19.4972C37.3894 19.4038 37.056 19.3505 36.616 19.3372V18.9372C37.136 18.9505 37.676 18.9638 38.236 18.9772C38.8094 18.9772 39.3694 18.9838 39.916 18.9972C40.476 18.9972 40.996 18.9972 41.476 18.9972C41.956 18.9972 42.3494 18.9972 42.656 18.9972C43.2694 18.9972 43.9627 18.9972 44.736 18.9972C45.5227 18.9838 46.2227 18.9638 46.836 18.9372ZM43.776 25.9372C43.776 25.9372 43.776 26.0038 43.776 26.1372C43.776 26.2705 43.776 26.3372 43.776 26.3372H39.896C39.896 26.3372 39.896 26.2705 39.896 26.1372C39.896 26.0038 39.896 25.9372 39.896 25.9372H43.776ZM44.196 23.2972C44.1427 24.0572 44.116 24.6372 44.116 25.0372C44.1294 25.4372 44.136 25.8038 44.136 26.1372C44.136 26.4705 44.1427 26.8372 44.156 27.2372C44.1694 27.6372 44.2027 28.2172 44.256 28.9772H43.796C43.7427 28.5372 43.6627 28.1172 43.556 27.7172C43.4494 27.3038 43.256 26.9705 42.976 26.7172C42.696 26.4638 42.276 26.3372 41.716 26.3372V25.9372C42.1427 25.9372 42.476 25.8505 42.716 25.6772C42.9694 25.5038 43.1627 25.2772 43.296 24.9972C43.4294 24.7172 43.5227 24.4305 43.576 24.1372C43.6427 23.8305 43.696 23.5505 43.736 23.2972H44.196ZM50.319 17.7372C50.7323 17.7372 51.079 17.8705 51.359 18.1372C51.639 18.3905 51.779 18.7105 51.779 19.0972C51.779 19.4838 51.639 19.8105 51.359 20.0772C51.079 20.3305 50.7323 20.4572 50.319 20.4572C49.9057 20.4572 49.559 20.3305 49.279 20.0772C48.999 19.8105 48.859 19.4838 48.859 19.0972C48.859 18.7105 48.999 18.3905 49.279 18.1372C49.559 17.8705 49.9057 17.7372 50.319 17.7372ZM51.519 22.5572V31.2372C51.519 31.7972 51.6257 32.1772 51.839 32.3772C52.0657 32.5772 52.439 32.6772 52.959 32.6772V33.0972C52.7323 33.0838 52.379 33.0705 51.899 33.0572C51.4323 33.0305 50.9523 33.0172 50.459 33.0172C49.9923 33.0172 49.5123 33.0305 49.019 33.0572C48.5257 33.0705 48.159 33.0838 47.919 33.0972V32.6772C48.439 32.6772 48.8057 32.5772 49.019 32.3772C49.2457 32.1772 49.359 31.7972 49.359 31.2372V24.9572C49.359 24.3572 49.259 23.9172 49.059 23.6372C48.859 23.3438 48.479 23.1972 47.919 23.1972V22.7772C48.3457 22.8172 48.759 22.8372 49.159 22.8372C49.6123 22.8372 50.0323 22.8172 50.419 22.7772C50.819 22.7238 51.1857 22.6505 51.519 22.5572ZM60.8751 22.4972C61.4084 22.4972 61.8418 22.5705 62.1751 22.7172C62.5218 22.8505 62.8084 23.0372 63.0351 23.2772C63.2751 23.5305 63.4418 23.8572 63.5351 24.2572C63.6418 24.6572 63.6951 25.1972 63.6951 25.8772V31.2372C63.6951 31.7972 63.8018 32.1772 64.0151 32.3772C64.2418 32.5772 64.6151 32.6772 65.1351 32.6772V33.0972C64.9084 33.0838 64.5551 33.0705 64.0751 33.0572C63.5951 33.0305 63.1218 33.0172 62.6551 33.0172C62.2018 33.0172 61.7484 33.0305 61.2951 33.0572C60.8551 33.0705 60.5218 33.0838 60.2951 33.0972V32.6772C60.7484 32.6772 61.0684 32.5772 61.2551 32.3772C61.4418 32.1772 61.5351 31.7972 61.5351 31.2372V25.3172C61.5351 24.9305 61.5018 24.5838 61.4351 24.2772C61.3684 23.9572 61.2284 23.7038 61.0151 23.5172C60.8018 23.3172 60.4818 23.2172 60.0551 23.2172C59.5618 23.2172 59.1218 23.3572 58.7351 23.6372C58.3618 23.9172 58.0618 24.3038 57.8351 24.7972C57.6218 25.2772 57.5151 25.8172 57.5151 26.4172V31.2372C57.5151 31.7972 57.6084 32.1772 57.7951 32.3772C57.9951 32.5772 58.3151 32.6772 58.7551 32.6772V33.0972C58.5418 33.0838 58.2151 33.0705 57.7751 33.0572C57.3484 33.0305 56.9018 33.0172 56.4351 33.0172C55.9818 33.0172 55.5084 33.0305 55.0151 33.0572C54.5218 33.0705 54.1551 33.0838 53.9151 33.0972V32.6772C54.4351 32.6772 54.8018 32.5772 55.0151 32.3772C55.2418 32.1772 55.3551 31.7972 55.3551 31.2372V24.9572C55.3551 24.3572 55.2551 23.9172 55.0551 23.6372C54.8551 23.3438 54.4751 23.1972 53.9151 23.1972V22.7772C54.3418 22.8172 54.7551 22.8372 55.1551 22.8372C55.6084 22.8372 56.0284 22.8172 56.4151 22.7772C56.8151 22.7238 57.1818 22.6505 57.5151 22.5572V24.7372C57.8618 23.9105 58.3351 23.3305 58.9351 22.9972C59.5484 22.6638 60.1951 22.4972 60.8751 22.4972ZM68.7859 33.2372C68.2259 33.2372 67.7459 33.1305 67.3459 32.9172C66.9459 32.7038 66.6459 32.4105 66.4459 32.0372C66.2459 31.6638 66.1459 31.2372 66.1459 30.7572C66.1459 30.1705 66.2792 29.6972 66.5459 29.3372C66.8125 28.9638 67.1525 28.6638 67.5659 28.4372C67.9925 28.2105 68.4392 28.0238 68.9059 27.8772C69.3859 27.7172 69.8325 27.5705 70.2459 27.4372C70.6725 27.2905 71.0192 27.1238 71.2859 26.9372C71.5659 26.7505 71.7059 26.5038 71.7059 26.1972V24.8372C71.7059 24.3572 71.6259 23.9772 71.4659 23.6972C71.3192 23.4038 71.1125 23.1972 70.8459 23.0772C70.5925 22.9572 70.2859 22.8972 69.9259 22.8972C69.6192 22.8972 69.2925 22.9438 68.9459 23.0372C68.5992 23.1172 68.3259 23.2838 68.1259 23.5372C68.4192 23.6172 68.6592 23.7772 68.8459 24.0172C69.0459 24.2438 69.1459 24.5305 69.1459 24.8772C69.1459 25.2505 69.0192 25.5438 68.7659 25.7572C68.5259 25.9705 68.2192 26.0772 67.8459 26.0772C67.4325 26.0772 67.1259 25.9505 66.9259 25.6972C66.7259 25.4305 66.6259 25.1238 66.6259 24.7772C66.6259 24.4172 66.7125 24.1238 66.8859 23.8972C67.0725 23.6705 67.3125 23.4572 67.6059 23.2572C67.9259 23.0438 68.3325 22.8638 68.8259 22.7172C69.3325 22.5705 69.8925 22.4972 70.5059 22.4972C71.0792 22.4972 71.5725 22.5638 71.9859 22.6972C72.4125 22.8172 72.7659 23.0172 73.0459 23.2972C73.3792 23.6038 73.5992 23.9905 73.7059 24.4572C73.8125 24.9105 73.8659 25.4638 73.8659 26.1172V31.6372C73.8659 31.9705 73.9059 32.2105 73.9859 32.3572C74.0792 32.4905 74.2259 32.5572 74.4259 32.5572C74.5592 32.5572 74.6859 32.5238 74.8059 32.4572C74.9392 32.3905 75.0925 32.2905 75.2659 32.1572L75.4659 32.4972C75.1859 32.7238 74.8992 32.9038 74.6059 33.0372C74.3259 33.1705 73.9659 33.2372 73.5259 33.2372C73.0992 33.2372 72.7525 33.1705 72.4859 33.0372C72.2192 32.9038 72.0192 32.7105 71.8859 32.4572C71.7659 32.2038 71.7059 31.8905 71.7059 31.5172C71.3592 32.0772 70.9459 32.5038 70.4659 32.7972C69.9859 33.0905 69.4259 33.2372 68.7859 33.2372ZM69.7459 32.2772C70.1192 32.2772 70.4659 32.1705 70.7859 31.9572C71.1192 31.7438 71.4259 31.4238 71.7059 30.9972V27.0172C71.5592 27.2305 71.3459 27.4172 71.0659 27.5772C70.7859 27.7238 70.4859 27.8772 70.1659 28.0372C69.8459 28.1972 69.5392 28.3838 69.2459 28.5972C68.9659 28.7972 68.7325 29.0572 68.5459 29.3772C68.3592 29.6972 68.2659 30.1038 68.2659 30.5972C68.2659 31.1172 68.3992 31.5305 68.6659 31.8372C68.9325 32.1305 69.2925 32.2772 69.7459 32.2772ZM79.5435 17.4172V31.2372C79.5435 31.7972 79.6502 32.1772 79.8635 32.3772C80.0902 32.5772 80.4635 32.6772 80.9835 32.6772V33.0972C80.7569 33.0838 80.4035 33.0705 79.9235 33.0572C79.4435 33.0305 78.9635 33.0172 78.4835 33.0172C78.0035 33.0172 77.5169 33.0305 77.0235 33.0572C76.5435 33.0705 76.1835 33.0838 75.9435 33.0972V32.6772C76.4635 32.6772 76.8302 32.5772 77.0435 32.3772C77.2702 32.1772 77.3835 31.7972 77.3835 31.2372V19.8172C77.3835 19.2172 77.2835 18.7772 77.0835 18.4972C76.8835 18.2038 76.5035 18.0572 75.9435 18.0572V17.6372C76.3702 17.6772 76.7835 17.6972 77.1835 17.6972C77.6235 17.6972 78.0435 17.6772 78.4435 17.6372C78.8435 17.5838 79.2102 17.5105 79.5435 17.4172ZM84.3424 17.7372C84.7558 17.7372 85.1024 17.8705 85.3824 18.1372C85.6624 18.3905 85.8024 18.7105 85.8024 19.0972C85.8024 19.4838 85.6624 19.8105 85.3824 20.0772C85.1024 20.3305 84.7558 20.4572 84.3424 20.4572C83.9291 20.4572 83.5824 20.3305 83.3024 20.0772C83.0224 19.8105 82.8824 19.4838 82.8824 19.0972C82.8824 18.7105 83.0224 18.3905 83.3024 18.1372C83.5824 17.8705 83.9291 17.7372 84.3424 17.7372ZM85.5424 22.5572V31.2372C85.5424 31.7972 85.6491 32.1772 85.8624 32.3772C86.0891 32.5772 86.4624 32.6772 86.9824 32.6772V33.0972C86.7558 33.0838 86.4024 33.0705 85.9224 33.0572C85.4558 33.0305 84.9758 33.0172 84.4824 33.0172C84.0158 33.0172 83.5358 33.0305 83.0424 33.0572C82.5491 33.0705 82.1824 33.0838 81.9424 33.0972V32.6772C82.4624 32.6772 82.8291 32.5772 83.0424 32.3772C83.2691 32.1772 83.3824 31.7972 83.3824 31.2372V24.9572C83.3824 24.3572 83.2824 23.9172 83.0824 23.6372C82.8824 23.3438 82.5024 23.1972 81.9424 23.1972V22.7772C82.3691 22.8172 82.7824 22.8372 83.1824 22.8372C83.6358 22.8372 84.0558 22.8172 84.4424 22.7772C84.8424 22.7238 85.2091 22.6505 85.5424 22.5572ZM96.2185 22.6772L90.6985 32.7972H92.4985C93.0319 32.7972 93.5052 32.6905 93.9185 32.4772C94.3319 32.2638 94.6719 31.9105 94.9385 31.4172C95.2052 30.9238 95.3652 30.2705 95.4185 29.4572H95.8785C95.8785 30.3505 95.8852 31.0972 95.8985 31.6972C95.9119 32.2972 95.9319 32.7905 95.9585 33.1772C95.3585 33.1505 94.7385 33.1305 94.0985 33.1172C93.4585 33.1038 92.8252 33.0972 92.1985 33.0972C91.5185 33.0972 90.8252 33.1038 90.1185 33.1172C89.4252 33.1438 88.7585 33.1705 88.1185 33.1972L93.6385 23.0772H91.7985C91.2252 23.0772 90.7319 23.1905 90.3185 23.4172C89.9052 23.6305 89.5785 23.9838 89.3385 24.4772C89.1119 24.9572 88.9652 25.6038 88.8985 26.4172H88.4585C88.4585 25.5105 88.4519 24.7638 88.4385 24.1772C88.4252 23.5905 88.4052 23.0972 88.3785 22.6972C88.9652 22.7238 89.5785 22.7438 90.2185 22.7572C90.8585 22.7705 91.4985 22.7772 92.1385 22.7772C92.8052 22.7772 93.4852 22.7705 94.1785 22.7572C94.8852 22.7305 95.5652 22.7038 96.2185 22.6772ZM100.251 33.2372C99.6907 33.2372 99.2107 33.1305 98.8107 32.9172C98.4107 32.7038 98.1107 32.4105 97.9107 32.0372C97.7107 31.6638 97.6107 31.2372 97.6107 30.7572C97.6107 30.1705 97.7441 29.6972 98.0107 29.3372C98.2774 28.9638 98.6174 28.6638 99.0307 28.4372C99.4574 28.2105 99.9041 28.0238 100.371 27.8772C100.851 27.7172 101.297 27.5705 101.711 27.4372C102.137 27.2905 102.484 27.1238 102.751 26.9372C103.031 26.7505 103.171 26.5038 103.171 26.1972V24.8372C103.171 24.3572 103.091 23.9772 102.931 23.6972C102.784 23.4038 102.577 23.1972 102.311 23.0772C102.057 22.9572 101.751 22.8972 101.391 22.8972C101.084 22.8972 100.757 22.9438 100.411 23.0372C100.064 23.1172 99.7907 23.2838 99.5907 23.5372C99.8841 23.6172 100.124 23.7772 100.311 24.0172C100.511 24.2438 100.611 24.5305 100.611 24.8772C100.611 25.2505 100.484 25.5438 100.231 25.7572C99.9907 25.9705 99.6841 26.0772 99.3107 26.0772C98.8974 26.0772 98.5907 25.9505 98.3907 25.6972C98.1907 25.4305 98.0907 25.1238 98.0907 24.7772C98.0907 24.4172 98.1774 24.1238 98.3507 23.8972C98.5374 23.6705 98.7774 23.4572 99.0707 23.2572C99.3907 23.0438 99.7974 22.8638 100.291 22.7172C100.797 22.5705 101.357 22.4972 101.971 22.4972C102.544 22.4972 103.037 22.5638 103.451 22.6972C103.877 22.8172 104.231 23.0172 104.511 23.2972C104.844 23.6038 105.064 23.9905 105.171 24.4572C105.277 24.9105 105.331 25.4638 105.331 26.1172V31.6372C105.331 31.9705 105.371 32.2105 105.451 32.3572C105.544 32.4905 105.691 32.5572 105.891 32.5572C106.024 32.5572 106.151 32.5238 106.271 32.4572C106.404 32.3905 106.557 32.2905 106.731 32.1572L106.931 32.4972C106.651 32.7238 106.364 32.9038 106.071 33.0372C105.791 33.1705 105.431 33.2372 104.991 33.2372C104.564 33.2372 104.217 33.1705 103.951 33.0372C103.684 32.9038 103.484 32.7105 103.351 32.4572C103.231 32.2038 103.171 31.8905 103.171 31.5172C102.824 32.0772 102.411 32.5038 101.931 32.7972C101.451 33.0905 100.891 33.2372 100.251 33.2372ZM101.211 32.2772C101.584 32.2772 101.931 32.1705 102.251 31.9572C102.584 31.7438 102.891 31.4238 103.171 30.9972V27.0172C103.024 27.2305 102.811 27.4172 102.531 27.5772C102.251 27.7238 101.951 27.8772 101.631 28.0372C101.311 28.1972 101.004 28.3838 100.711 28.5972C100.431 28.7972 100.197 29.0572 100.011 29.3772C99.8241 29.6972 99.7307 30.1038 99.7307 30.5972C99.7307 31.1172 99.8641 31.5305 100.131 31.8372C100.397 32.1305 100.757 32.2772 101.211 32.2772ZM113.968 22.4972C114.355 22.4972 114.682 22.5772 114.948 22.7372C115.228 22.8972 115.435 23.1038 115.568 23.3572C115.715 23.5972 115.788 23.8705 115.788 24.1772C115.788 24.5638 115.668 24.8972 115.428 25.1772C115.202 25.4438 114.895 25.5772 114.508 25.5772C114.175 25.5772 113.888 25.4772 113.648 25.2772C113.422 25.0772 113.308 24.8038 113.308 24.4572C113.308 24.1638 113.382 23.9172 113.528 23.7172C113.688 23.5038 113.868 23.3372 114.068 23.2172C113.935 23.1105 113.775 23.0638 113.588 23.0772C113.228 23.0905 112.895 23.2105 112.588 23.4372C112.282 23.6505 112.022 23.9305 111.808 24.2772C111.595 24.6105 111.428 24.9705 111.308 25.3572C111.188 25.7438 111.128 26.1038 111.128 26.4372V31.0372C111.128 31.6905 111.308 32.1305 111.668 32.3572C112.028 32.5705 112.528 32.6772 113.168 32.6772V33.0972C112.862 33.0838 112.422 33.0705 111.848 33.0572C111.288 33.0305 110.695 33.0172 110.068 33.0172C109.588 33.0172 109.108 33.0305 108.628 33.0572C108.148 33.0705 107.782 33.0838 107.528 33.0972V32.6772C108.048 32.6772 108.415 32.5772 108.628 32.3772C108.855 32.1772 108.968 31.7972 108.968 31.2372V24.9572C108.968 24.3572 108.868 23.9172 108.668 23.6372C108.468 23.3438 108.088 23.1972 107.528 23.1972V22.7772C107.955 22.8172 108.368 22.8372 108.768 22.8372C109.222 22.8372 109.642 22.8172 110.028 22.7772C110.428 22.7238 110.795 22.6505 111.128 22.5572V24.8572C111.288 24.4705 111.502 24.0972 111.768 23.7372C112.035 23.3772 112.355 23.0838 112.728 22.8572C113.102 22.6172 113.515 22.4972 113.968 22.4972ZM128.084 18.6572C128.964 18.6572 129.684 18.7905 130.244 19.0572C130.818 19.3105 131.324 19.6105 131.764 19.9572C132.031 20.1572 132.231 20.1838 132.364 20.0372C132.511 19.8772 132.611 19.5105 132.664 18.9372H133.124C133.098 19.4438 133.078 20.0572 133.064 20.7772C133.051 21.4838 133.044 22.4305 133.044 23.6172H132.584C132.491 23.0305 132.398 22.5505 132.304 22.1772C132.224 21.8038 132.111 21.4838 131.964 21.2172C131.831 20.9505 131.644 20.6905 131.404 20.4372C131.018 19.9572 130.544 19.6105 129.984 19.3972C129.424 19.1838 128.831 19.0772 128.204 19.0772C127.524 19.0772 126.924 19.2505 126.404 19.5972C125.884 19.9305 125.444 20.4105 125.084 21.0372C124.738 21.6638 124.471 22.4038 124.284 23.2572C124.098 24.1105 124.004 25.0438 124.004 26.0572C124.004 27.0972 124.104 28.0438 124.304 28.8972C124.504 29.7372 124.791 30.4638 125.164 31.0772C125.551 31.6772 126.011 32.1438 126.544 32.4772C127.091 32.7972 127.698 32.9572 128.364 32.9572C128.911 32.9572 129.478 32.8505 130.064 32.6372C130.651 32.4105 131.118 32.0705 131.464 31.6172C131.838 31.2172 132.091 30.7705 132.224 30.2772C132.371 29.7705 132.491 29.0838 132.584 28.2172H133.044C133.044 29.4438 133.051 30.4372 133.064 31.1972C133.078 31.9438 133.098 32.5772 133.124 33.0972H132.664C132.611 32.5238 132.518 32.1638 132.384 32.0172C132.264 31.8705 132.058 31.8905 131.764 32.0772C131.271 32.4238 130.744 32.7305 130.184 32.9972C129.638 33.2505 128.931 33.3772 128.064 33.3772C126.744 33.3772 125.591 33.0905 124.604 32.5172C123.618 31.9438 122.851 31.1172 122.304 30.0372C121.758 28.9572 121.484 27.6572 121.484 26.1372C121.484 24.6438 121.764 23.3372 122.324 22.2172C122.898 21.0972 123.678 20.2238 124.664 19.5972C125.651 18.9705 126.791 18.6572 128.084 18.6572ZM137.731 33.2372C137.171 33.2372 136.691 33.1305 136.291 32.9172C135.891 32.7038 135.591 32.4105 135.391 32.0372C135.191 31.6638 135.091 31.2372 135.091 30.7572C135.091 30.1705 135.225 29.6972 135.491 29.3372C135.758 28.9638 136.098 28.6638 136.511 28.4372C136.938 28.2105 137.385 28.0238 137.851 27.8772C138.331 27.7172 138.778 27.5705 139.191 27.4372C139.618 27.2905 139.965 27.1238 140.231 26.9372C140.511 26.7505 140.651 26.5038 140.651 26.1972V24.8372C140.651 24.3572 140.571 23.9772 140.411 23.6972C140.265 23.4038 140.058 23.1972 139.791 23.0772C139.538 22.9572 139.231 22.8972 138.871 22.8972C138.565 22.8972 138.238 22.9438 137.891 23.0372C137.545 23.1172 137.271 23.2838 137.071 23.5372C137.365 23.6172 137.605 23.7772 137.791 24.0172C137.991 24.2438 138.091 24.5305 138.091 24.8772C138.091 25.2505 137.965 25.5438 137.711 25.7572C137.471 25.9705 137.165 26.0772 136.791 26.0772C136.378 26.0772 136.071 25.9505 135.871 25.6972C135.671 25.4305 135.571 25.1238 135.571 24.7772C135.571 24.4172 135.658 24.1238 135.831 23.8972C136.018 23.6705 136.258 23.4572 136.551 23.2572C136.871 23.0438 137.278 22.8638 137.771 22.7172C138.278 22.5705 138.838 22.4972 139.451 22.4972C140.025 22.4972 140.518 22.5638 140.931 22.6972C141.358 22.8172 141.711 23.0172 141.991 23.2972C142.325 23.6038 142.545 23.9905 142.651 24.4572C142.758 24.9105 142.811 25.4638 142.811 26.1172V31.6372C142.811 31.9705 142.851 32.2105 142.931 32.3572C143.025 32.4905 143.171 32.5572 143.371 32.5572C143.505 32.5572 143.631 32.5238 143.751 32.4572C143.885 32.3905 144.038 32.2905 144.211 32.1572L144.411 32.4972C144.131 32.7238 143.845 32.9038 143.551 33.0372C143.271 33.1705 142.911 33.2372 142.471 33.2372C142.045 33.2372 141.698 33.1705 141.431 33.0372C141.165 32.9038 140.965 32.7105 140.831 32.4572C140.711 32.2038 140.651 31.8905 140.651 31.5172C140.305 32.0772 139.891 32.5038 139.411 32.7972C138.931 33.0905 138.371 33.2372 137.731 33.2372ZM138.691 32.2772C139.065 32.2772 139.411 32.1705 139.731 31.9572C140.065 31.7438 140.371 31.4238 140.651 30.9972V27.0172C140.505 27.2305 140.291 27.4172 140.011 27.5772C139.731 27.7238 139.431 27.8772 139.111 28.0372C138.791 28.1972 138.485 28.3838 138.191 28.5972C137.911 28.7972 137.678 29.0572 137.491 29.3772C137.305 29.6972 137.211 30.1038 137.211 30.5972C137.211 31.1172 137.345 31.5305 137.611 31.8372C137.878 32.1305 138.238 32.2772 138.691 32.2772ZM154.369 17.4172V30.9172C154.369 31.5172 154.469 31.9638 154.669 32.2572C154.882 32.5372 155.262 32.6772 155.809 32.6772V33.0972C155.396 33.0572 154.982 33.0372 154.569 33.0372C154.116 33.0372 153.689 33.0572 153.289 33.0972C152.902 33.1372 152.542 33.2105 152.209 33.3172V19.8172C152.209 19.2172 152.102 18.7772 151.889 18.4972C151.689 18.2038 151.316 18.0572 150.769 18.0572V17.6372C151.196 17.6772 151.609 17.6972 152.009 17.6972C152.449 17.6972 152.869 17.6772 153.269 17.6372C153.669 17.5838 154.036 17.5105 154.369 17.4172ZM149.869 22.4972C150.456 22.4972 150.989 22.6238 151.469 22.8772C151.962 23.1305 152.309 23.5572 152.509 24.1572L152.269 24.3772C152.082 23.8972 151.809 23.5505 151.449 23.3372C151.089 23.1105 150.682 22.9972 150.229 22.9972C149.469 22.9972 148.849 23.4038 148.369 24.2172C147.889 25.0172 147.656 26.2572 147.669 27.9372C147.669 29.0438 147.762 29.9505 147.949 30.6572C148.136 31.3505 148.409 31.8638 148.769 32.1972C149.142 32.5305 149.589 32.6972 150.109 32.6972C150.629 32.6972 151.096 32.4772 151.509 32.0372C151.936 31.5972 152.189 30.9638 152.269 30.1372L152.449 30.5572C152.316 31.4638 151.996 32.1638 151.489 32.6572C150.982 33.1372 150.302 33.3772 149.449 33.3772C148.636 33.3772 147.916 33.1838 147.289 32.7972C146.676 32.3972 146.202 31.7972 145.869 30.9972C145.536 30.1838 145.369 29.1638 145.369 27.9372C145.369 26.7238 145.569 25.7172 145.969 24.9172C146.382 24.1038 146.929 23.4972 147.609 23.0972C148.289 22.6972 149.042 22.4972 149.869 22.4972ZM159.567 33.2372C159.007 33.2372 158.527 33.1305 158.127 32.9172C157.727 32.7038 157.427 32.4105 157.227 32.0372C157.027 31.6638 156.927 31.2372 156.927 30.7572C156.927 30.1705 157.06 29.6972 157.327 29.3372C157.594 28.9638 157.934 28.6638 158.347 28.4372C158.774 28.2105 159.22 28.0238 159.687 27.8772C160.167 27.7172 160.614 27.5705 161.027 27.4372C161.454 27.2905 161.8 27.1238 162.067 26.9372C162.347 26.7505 162.487 26.5038 162.487 26.1972V24.8372C162.487 24.3572 162.407 23.9772 162.247 23.6972C162.1 23.4038 161.894 23.1972 161.627 23.0772C161.374 22.9572 161.067 22.8972 160.707 22.8972C160.4 22.8972 160.074 22.9438 159.727 23.0372C159.38 23.1172 159.107 23.2838 158.907 23.5372C159.2 23.6172 159.44 23.7772 159.627 24.0172C159.827 24.2438 159.927 24.5305 159.927 24.8772C159.927 25.2505 159.8 25.5438 159.547 25.7572C159.307 25.9705 159 26.0772 158.627 26.0772C158.214 26.0772 157.907 25.9505 157.707 25.6972C157.507 25.4305 157.407 25.1238 157.407 24.7772C157.407 24.4172 157.494 24.1238 157.667 23.8972C157.854 23.6705 158.094 23.4572 158.387 23.2572C158.707 23.0438 159.114 22.8638 159.607 22.7172C160.114 22.5705 160.674 22.4972 161.287 22.4972C161.86 22.4972 162.354 22.5638 162.767 22.6972C163.194 22.8172 163.547 23.0172 163.827 23.2972C164.16 23.6038 164.38 23.9905 164.487 24.4572C164.594 24.9105 164.647 25.4638 164.647 26.1172V31.6372C164.647 31.9705 164.687 32.2105 164.767 32.3572C164.86 32.4905 165.007 32.5572 165.207 32.5572C165.34 32.5572 165.467 32.5238 165.587 32.4572C165.72 32.3905 165.874 32.2905 166.047 32.1572L166.247 32.4972C165.967 32.7238 165.68 32.9038 165.387 33.0372C165.107 33.1705 164.747 33.2372 164.307 33.2372C163.88 33.2372 163.534 33.1705 163.267 33.0372C163 32.9038 162.8 32.7105 162.667 32.4572C162.547 32.2038 162.487 31.8905 162.487 31.5172C162.14 32.0772 161.727 32.5038 161.247 32.7972C160.767 33.0905 160.207 33.2372 159.567 33.2372ZM160.527 32.2772C160.9 32.2772 161.247 32.1705 161.567 31.9572C161.9 31.7438 162.207 31.4238 162.487 30.9972V27.0172C162.34 27.2305 162.127 27.4172 161.847 27.5772C161.567 27.7238 161.267 27.8772 160.947 28.0372C160.627 28.1972 160.32 28.3838 160.027 28.5972C159.747 28.7972 159.514 29.0572 159.327 29.3772C159.14 29.6972 159.047 30.1038 159.047 30.5972C159.047 31.1172 159.18 31.5305 159.447 31.8372C159.714 32.1305 160.074 32.2772 160.527 32.2772ZM170.565 22.4972C171.098 22.4972 171.558 22.5838 171.945 22.7572C172.345 22.9172 172.631 23.0638 172.805 23.1972C173.245 23.5438 173.518 23.3172 173.625 22.5172H174.065C174.038 22.8905 174.018 23.3438 174.005 23.8772C173.991 24.3972 173.985 25.0905 173.985 25.9572H173.545C173.465 25.4638 173.325 24.9838 173.125 24.5172C172.938 24.0505 172.658 23.6638 172.285 23.3572C171.925 23.0505 171.451 22.8972 170.865 22.8972C170.425 22.8972 170.058 23.0238 169.765 23.2772C169.471 23.5172 169.325 23.8772 169.325 24.3572C169.325 24.7572 169.445 25.1038 169.685 25.3972C169.925 25.6905 170.231 25.9638 170.605 26.2172C170.991 26.4705 171.405 26.7438 171.845 27.0372C172.338 27.3705 172.778 27.7038 173.165 28.0372C173.565 28.3572 173.878 28.7172 174.105 29.1172C174.345 29.5172 174.465 29.9838 174.465 30.5172C174.465 31.1305 174.298 31.6505 173.965 32.0772C173.645 32.5038 173.218 32.8305 172.685 33.0572C172.151 33.2705 171.565 33.3772 170.925 33.3772C170.605 33.3772 170.305 33.3438 170.025 33.2772C169.745 33.2238 169.485 33.1505 169.245 33.0572C169.098 32.9772 168.951 32.8972 168.805 32.8172C168.671 32.7238 168.538 32.6372 168.405 32.5572C168.271 32.4638 168.151 32.4772 168.045 32.5972C167.938 32.7172 167.858 32.9305 167.805 33.2372H167.365C167.391 32.8105 167.411 32.2905 167.425 31.6772C167.438 31.0638 167.445 30.2505 167.445 29.2372H167.885C167.978 29.9705 168.118 30.6172 168.305 31.1772C168.491 31.7372 168.765 32.1772 169.125 32.4972C169.498 32.8038 170.005 32.9572 170.645 32.9572C170.898 32.9572 171.151 32.9038 171.405 32.7972C171.658 32.6772 171.865 32.4905 172.025 32.2372C172.198 31.9838 172.285 31.6438 172.285 31.2172C172.285 30.6305 172.078 30.1505 171.665 29.7772C171.265 29.3905 170.745 28.9838 170.105 28.5572C169.651 28.2372 169.218 27.9238 168.805 27.6172C168.405 27.2972 168.078 26.9438 167.825 26.5572C167.571 26.1572 167.445 25.6838 167.445 25.1372C167.445 24.5372 167.585 24.0438 167.865 23.6572C168.158 23.2705 168.545 22.9838 169.025 22.7972C169.505 22.5972 170.018 22.4972 170.565 22.4972ZM179.388 19.4772V22.7972H182.148V23.1972H179.388V31.0572C179.388 31.6038 179.488 31.9905 179.688 32.2172C179.888 32.4438 180.174 32.5572 180.548 32.5572C180.894 32.5572 181.201 32.4172 181.468 32.1372C181.748 31.8572 181.988 31.3838 182.188 30.7172L182.568 30.8572C182.408 31.5638 182.121 32.1638 181.708 32.6572C181.308 33.1372 180.714 33.3772 179.928 33.3772C179.474 33.3772 179.094 33.3172 178.788 33.1972C178.481 33.0905 178.214 32.9305 177.988 32.7172C177.694 32.4105 177.494 32.0438 177.388 31.6172C177.281 31.1905 177.228 30.6238 177.228 29.9172V23.1972H175.388V22.7972H177.228V19.8772C177.641 19.8638 178.028 19.8305 178.388 19.7772C178.748 19.7105 179.081 19.6105 179.388 19.4772ZM189.379 22.4972C189.765 22.4972 190.092 22.5772 190.359 22.7372C190.639 22.8972 190.845 23.1038 190.979 23.3572C191.125 23.5972 191.199 23.8705 191.199 24.1772C191.199 24.5638 191.079 24.8972 190.839 25.1772C190.612 25.4438 190.305 25.5772 189.919 25.5772C189.585 25.5772 189.299 25.4772 189.059 25.2772C188.832 25.0772 188.719 24.8038 188.719 24.4572C188.719 24.1638 188.792 23.9172 188.939 23.7172C189.099 23.5038 189.279 23.3372 189.479 23.2172C189.345 23.1105 189.185 23.0638 188.999 23.0772C188.639 23.0905 188.305 23.2105 187.999 23.4372C187.692 23.6505 187.432 23.9305 187.219 24.2772C187.005 24.6105 186.839 24.9705 186.719 25.3572C186.599 25.7438 186.539 26.1038 186.539 26.4372V31.0372C186.539 31.6905 186.719 32.1305 187.079 32.3572C187.439 32.5705 187.939 32.6772 188.579 32.6772V33.0972C188.272 33.0838 187.832 33.0705 187.259 33.0572C186.699 33.0305 186.105 33.0172 185.479 33.0172C184.999 33.0172 184.519 33.0305 184.039 33.0572C183.559 33.0705 183.192 33.0838 182.939 33.0972V32.6772C183.459 32.6772 183.825 32.5772 184.039 32.3772C184.265 32.1772 184.379 31.7972 184.379 31.2372V24.9572C184.379 24.3572 184.279 23.9172 184.079 23.6372C183.879 23.3438 183.499 23.1972 182.939 23.1972V22.7772C183.365 22.8172 183.779 22.8372 184.179 22.8372C184.632 22.8372 185.052 22.8172 185.439 22.7772C185.839 22.7238 186.205 22.6505 186.539 22.5572V24.8572C186.699 24.4705 186.912 24.0972 187.179 23.7372C187.445 23.3772 187.765 23.0838 188.139 22.8572C188.512 22.6172 188.925 22.4972 189.379 22.4972ZM196.63 22.4972C197.523 22.4972 198.317 22.6838 199.01 23.0572C199.703 23.4305 200.257 24.0172 200.67 24.8172C201.083 25.6172 201.29 26.6638 201.29 27.9572C201.29 29.2505 201.083 30.2972 200.67 31.0972C200.257 31.8838 199.703 32.4638 199.01 32.8372C198.317 33.1972 197.523 33.3772 196.63 33.3772C195.75 33.3772 194.957 33.1972 194.25 32.8372C193.543 32.4638 192.983 31.8838 192.57 31.0972C192.17 30.2972 191.97 29.2505 191.97 27.9572C191.97 26.6638 192.17 25.6172 192.57 24.8172C192.983 24.0172 193.543 23.4305 194.25 23.0572C194.957 22.6838 195.75 22.4972 196.63 22.4972ZM196.63 22.8972C195.937 22.8972 195.37 23.2972 194.93 24.0972C194.49 24.8838 194.27 26.1705 194.27 27.9572C194.27 29.7438 194.49 31.0305 194.93 31.8172C195.37 32.5905 195.937 32.9772 196.63 32.9772C197.31 32.9772 197.87 32.5905 198.31 31.8172C198.763 31.0305 198.99 29.7438 198.99 27.9572C198.99 26.1705 198.763 24.8838 198.31 24.0972C197.87 23.2972 197.31 22.8972 196.63 22.8972Z" fill="#784508"/>
</svg>
