<svg width="32" height="32" viewBox="0 0 36 33" fill="none" xmlns="http://www.w3.org/2000/svg">
<path d="M17.9999 0C13.7258 0.000143856 9.59113 1.42979 6.33597 4.03287C3.08065 6.63594 0.91712 10.2429 0.232475 14.2081C-0.45217 18.1732 0.386761 22.238 2.59912 25.6752C4.81132 29.112 8.25276 31.6971 12.3075 32.9677C13.2075 33.1157 13.545 32.6082 13.545 32.1641C13.545 31.7623 13.5225 30.4301 13.5225 29.0132C9.00001 29.7957 7.83 27.9772 7.47 27.0256C7.07051 26.1001 6.43729 25.28 5.62499 24.636C4.99499 24.3188 4.09499 23.5363 5.60249 23.5152C6.17816 23.5739 6.7301 23.7622 7.21194 24.064C7.69362 24.3658 8.09097 24.7725 8.37 25.2492C8.61613 25.6648 8.9472 26.0308 9.34409 26.326C9.74098 26.6212 10.196 26.84 10.6831 26.9694C11.1701 27.0991 11.6795 27.1372 12.1822 27.0815C12.6848 27.0258 13.1709 26.8775 13.6124 26.6449C13.6903 25.7848 14.0982 24.9806 14.76 24.3822C10.755 23.9593 6.57 22.5001 6.57 16.0292C6.54474 14.3479 7.20474 12.7212 8.415 11.4828C7.86475 10.0215 7.92903 8.41775 8.59501 6.99961C8.59501 6.99961 10.1024 6.55553 13.545 8.73366C16.4902 7.97237 19.5995 7.97237 22.5449 8.73366C25.9874 6.53438 27.4949 6.99961 27.4949 6.99961C28.1609 8.41775 28.2253 10.0215 27.6749 11.4828C28.8885 12.7191 29.5495 14.3474 29.5199 16.0292C29.5199 22.5213 25.3124 23.9593 21.3074 24.3822C21.7369 24.7913 22.0677 25.2827 22.2773 25.8226C22.487 26.3628 22.5706 26.939 22.5224 27.5119C22.5224 29.7748 22.4999 31.5931 22.4999 32.1641C22.4999 32.6082 22.8374 33.1369 23.7374 32.9677C27.785 31.6869 31.2165 29.0958 33.4193 25.657C35.6223 22.2182 36.4532 18.1554 35.7638 14.194C35.0744 10.2328 32.9096 6.63062 29.6557 4.03071C26.4019 1.43065 22.2708 0.00215784 17.9999 0Z" fill="white"/>
</svg>
