<svg width="345" height="185" viewBox="0 0 345 185" fill="none" xmlns="http://www.w3.org/2000/svg">
<path d="M340.132 48.0086C337.589 42.6166 334.17 38.8865 330.407 37.3619V31.434C330.407 24.7612 327.444 19.3324 323.802 19.3324H316.719C315.509 8.45745 310.28 0.5 304.111 0.5H172.501H40.8902C34.7209 0.5 29.4913 8.45745 28.2835 19.3324H21.1977C17.5561 19.3324 14.5934 24.7612 14.5934 31.434V37.3619C10.8314 38.8845 7.4105 42.6166 4.86803 48.0086C2.05104 53.983 0.5 61.627 0.5 69.5322V115.466C0.5 123.371 2.05104 131.015 4.86803 136.991C7.4105 142.383 10.8314 146.115 14.5934 147.636V153.566C14.5934 160.237 17.5561 165.664 21.1977 165.664H28.2835C29.4913 176.541 34.7209 184.5 40.8902 184.5H304.111C310.28 184.5 315.509 176.541 316.719 165.664H323.802C327.444 165.664 330.407 160.237 330.407 153.566V147.729C334.17 146.206 337.589 142.474 340.132 137.082C342.948 131.108 344.5 123.464 344.5 115.559V92.5919V80.9701V69.3484C344.5 61.4451 342.948 53.9849 340.132 48.0086ZM341.91 115.282C341.91 129.272 336.444 140.989 328.913 143.142L327.817 143.455V153.382C327.817 157.435 326.016 160.734 323.802 160.734H314.455L314.326 162.843C313.743 172.379 309.352 179.57 304.111 179.57H40.8902C35.649 179.57 31.2578 172.381 30.676 162.845L30.5472 160.734H21.1977C18.9846 160.734 17.1834 157.435 17.1834 153.382V143.455L16.0885 143.142C8.55608 140.99 3.08999 129.274 3.08999 115.282V69.3484C3.08999 55.3566 8.55608 43.64 16.0885 41.4906L17.1834 41.1772V31.2502C17.1834 27.1951 18.9846 23.8944 21.1977 23.8944H30.5472L30.676 21.7856C31.2578 12.2514 35.649 5.06011 40.8902 5.06011H304.111C309.352 5.06011 313.743 12.2514 314.326 21.7856L314.455 23.8944H323.802C326.016 23.8944 327.817 27.1951 327.817 31.2502V41.1772L328.913 41.4906C336.444 43.642 341.91 55.3585 341.91 69.3484V115.282Z" fill="white"/>
<path d="M330.407 37.3619C334.17 38.8865 337.589 42.6166 340.132 48.0086C342.948 53.9849 344.5 61.4451 344.5 69.3484V80.9701V92.5919V115.559C344.5 123.464 342.948 131.108 340.132 137.082C337.589 142.474 334.17 146.206 330.407 147.729V153.566C330.407 160.237 327.444 165.664 323.802 165.664H316.719C315.509 176.541 310.28 184.5 304.111 184.5H40.8902C34.7209 184.5 29.4913 176.541 28.2835 165.664H21.1977C17.5561 165.664 14.5934 160.237 14.5934 153.566V147.636C10.8314 146.115 7.4105 142.383 4.86803 136.991C2.05104 131.015 0.5 123.371 0.5 115.466V69.5322C0.5 61.627 2.05104 53.983 4.86803 48.0086C7.4105 42.6166 10.8314 38.8845 14.5934 37.3619V31.434C14.5934 24.7612 17.5561 19.3324 21.1977 19.3324H28.2835C29.4913 8.45745 34.7209 0.5 40.8902 0.5H172.501H304.111C310.28 0.5 315.509 8.45745 316.719 19.3324H323.802C327.444 19.3324 330.407 24.7612 330.407 31.434V37.3619Z" fill="white"/>
<path d="M340.132 48.0086C337.589 42.6166 334.17 38.8865 330.407 37.3619V31.434C330.407 24.7612 327.444 19.3324 323.802 19.3324H316.719C315.509 8.45745 310.28 0.5 304.111 0.5H172.501H40.8902C34.7209 0.5 29.4913 8.45745 28.2835 19.3324H21.1977C17.5561 19.3324 14.5934 24.7612 14.5934 31.434V37.3619C10.8314 38.8845 7.4105 42.6166 4.86803 48.0086C2.05104 53.983 0.5 61.627 0.5 69.5322V115.466C0.5 123.371 2.05104 131.015 4.86803 136.991C7.4105 142.383 10.8314 146.115 14.5934 147.636V153.566C14.5934 160.237 17.5561 165.664 21.1977 165.664H28.2835C29.4913 176.541 34.7209 184.5 40.8902 184.5H304.111C310.28 184.5 315.509 176.541 316.719 165.664H323.802C327.444 165.664 330.407 160.237 330.407 153.566V147.729C334.17 146.206 337.589 142.474 340.132 137.082C342.948 131.108 344.5 123.464 344.5 115.559V92.5919V80.9701V69.3484C344.5 61.4451 342.948 53.9849 340.132 48.0086ZM341.91 115.282C341.91 129.272 336.444 140.989 328.913 143.142L327.817 143.455V153.382C327.817 157.435 326.016 160.734 323.802 160.734H314.455L314.326 162.843C313.743 172.379 309.352 179.57 304.111 179.57H40.8902C35.649 179.57 31.2578 172.381 30.676 162.845L30.5472 160.734H21.1977C18.9846 160.734 17.1834 157.435 17.1834 153.382V143.455L16.0885 143.142C8.55608 140.99 3.08999 129.274 3.08999 115.282V69.3484C3.08999 55.3566 8.55608 43.64 16.0885 41.4906L17.1834 41.1772V31.2502C17.1834 27.1951 18.9846 23.8944 21.1977 23.8944H30.5472L30.676 21.7856C31.2578 12.2514 35.649 5.06011 40.8902 5.06011H304.111C309.352 5.06011 313.743 12.2514 314.326 21.7856L314.455 23.8944H323.802C326.016 23.8944 327.817 27.1951 327.817 31.2502V41.1772L328.913 41.4906C336.444 43.642 341.91 55.3585 341.91 69.3484V115.282Z" stroke="#18628D"/>
<path d="M330.407 37.3619C334.17 38.8865 337.589 42.6166 340.132 48.0086C342.948 53.9849 344.5 61.4451 344.5 69.3484V80.9701V92.5919V115.559C344.5 123.464 342.948 131.108 340.132 137.082C337.589 142.474 334.17 146.206 330.407 147.729V153.566C330.407 160.237 327.444 165.664 323.802 165.664H316.719C315.509 176.541 310.28 184.5 304.111 184.5H40.8902C34.7209 184.5 29.4913 176.541 28.2835 165.664H21.1977C17.5561 165.664 14.5934 160.237 14.5934 153.566V147.636C10.8314 146.115 7.4105 142.383 4.86803 136.991C2.05104 131.015 0.5 123.371 0.5 115.466V69.5322C0.5 61.627 2.05104 53.983 4.86803 48.0086C7.4105 42.6166 10.8314 38.8845 14.5934 37.3619V31.434C14.5934 24.7612 17.5561 19.3324 21.1977 19.3324H28.2835C29.4913 8.45745 34.7209 0.5 40.8902 0.5H172.501H304.111C310.28 0.5 315.509 8.45745 316.719 19.3324H323.802C327.444 19.3324 330.407 24.7612 330.407 31.434V37.3619Z" stroke="#18628D"/>
<path d="M340.132 48.0086C337.589 42.6166 334.17 38.8865 330.407 37.3619V31.434C330.407 24.7612 327.444 19.3324 323.802 19.3324H316.719C315.509 8.45745 310.28 0.5 304.111 0.5H172.501H40.8902C34.7209 0.5 29.4913 8.45745 28.2835 19.3324H21.1977C17.5561 19.3324 14.5934 24.7612 14.5934 31.434V37.3619C10.8314 38.8845 7.4105 42.6166 4.86803 48.0086C2.05104 53.983 0.5 61.627 0.5 69.5322V115.466C0.5 123.371 2.05104 131.015 4.86803 136.991C7.4105 142.383 10.8314 146.115 14.5934 147.636V153.566C14.5934 160.237 17.5561 165.664 21.1977 165.664H28.2835C29.4913 176.541 34.7209 184.5 40.8902 184.5H304.111C310.28 184.5 315.509 176.541 316.719 165.664H323.802C327.444 165.664 330.407 160.237 330.407 153.566V147.729C334.17 146.206 337.589 142.474 340.132 137.082C342.948 131.108 344.5 123.464 344.5 115.559V92.5919V69.3484C344.5 61.4451 342.948 53.9849 340.132 48.0086ZM341.91 115.282C341.91 129.272 336.444 140.989 328.913 143.142L327.817 143.455V153.382C327.817 157.435 326.016 160.734 323.802 160.734H314.455L314.326 162.843C313.743 172.379 309.352 179.57 304.111 179.57H40.8902C35.649 179.57 31.2578 172.381 30.676 162.845L30.5472 160.734H21.1977C18.9846 160.734 17.1834 157.435 17.1834 153.382V143.455L16.0885 143.142C8.55608 140.99 3.08999 129.274 3.08999 115.282V69.3484C3.08999 55.3566 8.55608 43.64 16.0885 41.4906L17.1834 41.1772V31.2502C17.1834 27.1951 18.9846 23.8944 21.1977 23.8944H30.5472L30.676 21.7856C31.2578 12.2514 35.649 5.06011 40.8902 5.06011H304.111C309.352 5.06011 313.743 12.2514 314.326 21.7856L314.455 23.8944H323.802C326.016 23.8944 327.817 27.1951 327.817 31.2502V41.1772L328.913 41.4906C336.444 43.642 341.91 55.3585 341.91 69.3484V115.282Z" fill="#18628D" stroke="#18628D"/>
<path d="M325.291 46.0592L322.709 45.3218V32.8247C322.709 30.6637 321.748 28.9035 320.566 28.9035H309.821L309.518 23.9387C309.049 16.2778 305.515 10.5 301.296 10.5H43.7061C39.4874 10.5 35.9526 16.2759 35.4845 23.9387L35.1818 28.9035H24.4349C23.2539 28.9035 22.2919 30.6637 22.2919 32.8247V45.3237L19.7098 46.0592C16.6183 46.9402 13.783 49.8291 11.7238 54.189C9.64485 58.5923 8.5 64.2283 8.5 70.0552V114.943C8.5 120.772 9.64485 126.406 11.7238 130.809C13.783 135.171 16.6183 138.058 19.7098 138.939L22.2919 139.676V152.175C22.2919 154.334 23.2539 156.093 24.4349 156.093H35.1818L35.4845 161.059C35.9526 168.722 39.4874 174.5 43.7061 174.5H301.296C305.515 174.5 309.049 168.722 309.518 161.058L309.821 156.093H320.566C321.748 156.093 322.709 154.334 322.709 152.175V139.676L325.291 138.939C328.383 138.058 331.218 135.171 333.277 130.809C335.356 126.406 336.5 120.772 336.5 114.943V70.0552C336.5 64.2283 335.356 58.5942 333.277 54.1909C331.218 49.8291 328.383 46.9421 325.291 46.0592ZM335.694 114.943C335.694 120.418 334.618 125.71 332.667 129.845C330.732 133.942 328.07 136.653 325.167 137.481L321.903 138.413V152.175C321.903 153.521 321.304 154.618 320.566 154.618H309.1L308.717 160.895C308.294 167.809 305.103 173.025 301.296 173.025H43.7061C39.8986 173.025 36.7089 167.811 36.2863 160.895L35.903 154.618H24.4349C23.6982 154.618 23.0989 153.521 23.0989 152.175V138.413L19.8338 137.481C16.9314 136.653 14.2676 133.942 12.3344 129.845C10.3816 125.71 9.30697 120.418 9.30697 114.943V70.0552C9.30697 64.5818 10.3816 59.2899 12.3344 55.1532C14.2676 51.0562 16.9314 48.345 19.8338 47.5169L23.0989 46.5867V32.8247C23.0989 31.4767 23.6982 30.3801 24.4349 30.3801H35.903L36.2863 24.1013C36.7089 17.1891 39.8986 11.9747 43.7061 11.9747H301.296C305.103 11.9747 308.294 17.1891 308.717 24.1032L309.1 30.3801H320.566C321.304 30.3801 321.903 31.4767 321.903 32.8247V46.5848L325.167 47.5169C328.07 48.345 330.732 51.0581 332.667 55.1551C334.618 59.2899 335.694 64.5818 335.694 70.0552V114.943Z" fill="#18628D" stroke="#18628D"/>
<mask id="mask0_78_93" style="mask-type:luminance" maskUnits="userSpaceOnUse" x="63" y="117" width="39" height="35">
<path d="M63.5 117.185H101.396V151.934H63.5V117.185Z" fill="white"/>
</mask>
<g mask="url(#mask0_78_93)">
<path fill-rule="evenodd" clip-rule="evenodd" d="M82.448 117.185L86.9019 130.51L101.396 130.482L89.6525 138.692L94.1575 152L82.448 143.749L70.7386 152L75.2435 138.692L63.5 130.482L77.9942 130.51L82.448 117.185Z" fill="#FDD692"/>
</g>
<mask id="mask1_78_93" style="mask-type:luminance" maskUnits="userSpaceOnUse" x="65" y="21" width="217" height="108">
<path d="M281.145 21.5H65.3168V128.905H281.145V21.5Z" fill="white"/>
</mask>
<g mask="url(#mask1_78_93)">
<path d="M101.304 43.3298C101.304 44.5747 101.633 45.6771 102.292 46.6423C102.951 47.6076 103.76 48.4522 104.722 49.1761C105.69 49.9 106.996 50.783 108.639 51.8195C110.425 52.9164 111.853 53.8816 112.92 54.7153C113.993 55.5434 114.907 56.5525 115.656 57.7426C116.406 58.9355 116.781 60.3066 116.781 61.8559C116.781 63.6493 116.281 65.2425 115.282 66.6382C114.283 68.0367 112.897 69.1254 111.126 69.9069C109.36 70.6802 107.39 71.0696 105.21 71.0696C103.604 71.0696 101.929 70.8529 100.18 70.4224C98.4315 69.9919 97.2506 69.5175 96.6375 68.9965C96.4615 68.8594 96.3309 68.7305 96.24 68.6126C96.1492 68.4892 96.1038 68.289 96.1038 68.0093L95.9448 59.7828V59.728C95.9448 59.5963 96.03 59.525 96.206 59.5086C96.3877 59.4866 96.4955 59.547 96.5353 59.6841C97.6083 61.7846 98.5479 63.4902 99.3512 64.8065C100.152 66.1172 101.168 67.2717 102.394 68.2726C103.626 69.2762 105.031 69.7753 106.607 69.7753C108.037 69.7753 109.213 69.4078 110.138 68.6674C111.069 67.9216 111.535 66.6492 111.535 64.8503C111.535 63.3367 111.186 62.0094 110.49 60.8687C109.792 59.728 108.946 58.7627 107.947 57.973C106.947 57.1777 105.574 56.2262 103.825 55.1211C102.105 54.0544 100.773 53.144 99.8281 52.3899C98.88 51.6303 98.0681 50.7172 97.3869 49.6477C96.7113 48.5728 96.3763 47.3114 96.3763 45.8635C96.3763 44.0373 96.9213 42.4934 98.0114 41.2348C99.1014 39.9706 100.501 39.0383 102.213 38.4377C103.93 37.8317 105.735 37.5273 107.629 37.5273C108.878 37.5273 110.141 37.6425 111.421 37.8674C112.707 38.095 113.743 38.361 114.532 38.6681C114.856 38.8079 115.072 38.9533 115.18 39.1068C115.285 39.2604 115.339 39.4633 115.339 39.7101V47.3114C115.339 47.4156 115.248 47.4924 115.066 47.5417C114.89 47.5939 114.785 47.5692 114.748 47.465L114.317 46.4888C113.422 44.3115 112.378 42.4633 111.183 40.9496C109.985 39.4304 108.316 38.6681 106.175 38.6681C104.75 38.6681 103.581 39.0684 102.667 39.8637C101.758 40.6534 101.304 41.8106 101.304 43.3298Z" fill="#18628D"/>
<path d="M128.081 39.2933C123.835 39.2933 120.783 41.9669 118.93 47.3114C118.89 47.4156 118.782 47.4595 118.6 47.443C118.424 47.4211 118.339 47.3607 118.339 47.2565C118.481 45.8827 118.64 44.0975 118.816 41.9038C118.998 39.7101 119.089 38.062 119.089 36.9569C119.089 36.7897 119.185 36.7047 119.384 36.7047C119.58 36.7047 119.679 36.7897 119.679 36.9569C119.679 37.7193 120.695 38.0977 122.733 38.0977C125.799 38.2019 129.387 38.2512 133.498 38.2512C135.601 38.2512 137.835 38.2183 140.197 38.1525L143.83 38.0977C145.193 38.0977 146.184 38.0154 146.805 37.8454C147.433 37.6699 147.833 37.3244 148.009 36.8034C148.046 36.6663 148.162 36.595 148.361 36.595C148.557 36.595 148.656 36.6663 148.656 36.8034C148.548 37.8427 148.432 39.5017 148.304 41.7832C148.182 44.0592 148.122 45.8827 148.122 47.2565C148.122 47.3607 148.031 47.4101 147.85 47.4101C147.674 47.4101 147.569 47.3607 147.532 47.2565C146.993 44.6021 145.99 42.614 144.523 41.2896C143.061 39.9596 141.258 39.2933 139.118 39.2933C138.079 39.2933 137.392 39.5099 137.052 39.9404C136.717 40.3737 136.552 41.1908 136.552 42.3974V66.2543C136.552 67.3237 136.657 68.097 136.87 68.5796C137.08 69.0623 137.489 69.3913 138.096 69.5668C138.709 69.7368 139.674 69.8191 140.992 69.8191C141.105 69.8191 141.162 69.9261 141.162 70.1372C141.162 70.3429 141.105 70.4443 140.992 70.4443C139.711 70.4443 138.698 70.4279 137.949 70.3895L133.498 70.3456L129.16 70.3895C128.411 70.4279 127.372 70.4443 126.049 70.4443C125.941 70.4443 125.89 70.3429 125.89 70.1372C125.89 69.9261 125.941 69.8191 126.049 69.8191C127.335 69.8191 128.289 69.7368 128.91 69.5668C129.538 69.3913 129.966 69.0568 130.193 68.5577C130.426 68.0532 130.545 67.2853 130.545 66.2543V42.2877C130.545 41.1196 130.386 40.3298 130.068 39.9185C129.751 39.5017 129.086 39.2933 128.081 39.2933Z" fill="#18628D"/>
<path d="M185.673 69.8192C185.847 69.8192 185.935 69.9262 185.935 70.1373C185.935 70.343 185.847 70.4444 185.673 70.4444C184.952 70.4444 183.845 70.4115 182.346 70.3457C180.78 70.2744 179.655 70.236 178.974 70.236C178.08 70.236 176.99 70.2744 175.704 70.3457C174.492 70.4115 173.527 70.4444 172.809 70.4444C172.672 70.4444 172.604 70.343 172.604 70.1373C172.604 69.9262 172.672 69.8192 172.809 69.8192C173.74 69.8192 174.41 69.726 174.818 69.534C175.233 69.3448 175.443 69.0076 175.443 68.5249C175.443 67.9408 175.082 66.9619 174.364 65.5853L170.719 58.5983H157.548L155.459 63.0954C154.996 64.0991 154.766 65.0314 154.766 65.8924C154.766 67.1374 155.22 68.1026 156.129 68.7882C157.037 69.4765 158.258 69.8192 159.796 69.8192C159.978 69.8192 160.069 69.9262 160.069 70.1373C160.069 70.343 159.978 70.4444 159.796 70.4444C159.152 70.4444 158.224 70.4115 157.014 70.3457C155.652 70.2744 154.471 70.236 153.472 70.236C152.509 70.236 151.351 70.2744 149.997 70.3457C148.777 70.4115 147.794 70.4444 147.045 70.4444C146.903 70.4444 146.829 70.343 146.829 70.1373C146.829 69.9262 146.903 69.8192 147.045 69.8192C148.044 69.8192 148.884 69.6218 149.566 69.2269C150.247 68.8321 150.923 68.1273 151.598 67.11C152.279 66.0954 153.08 64.5844 154.005 62.5799L165.632 37.8894C165.706 37.7879 165.871 37.7358 166.121 37.7358C166.399 37.7358 166.558 37.7879 166.598 37.8894L179.996 63.3587C181.245 65.8102 182.278 67.4994 183.096 68.4262C183.919 69.3558 184.779 69.8192 185.673 69.8192ZM158.241 57.1394H169.925L163.759 45.3481L158.241 57.1394Z" fill="#18628D"/>
<path d="M220.163 69.8191C220.237 69.8191 220.277 69.926 220.277 70.1372C220.277 70.3428 220.237 70.4443 220.163 70.4443H210.636C209.847 70.4443 208.383 69.0732 206.242 66.331C204.099 63.5889 201.51 59.7498 198.476 54.8139C198.186 54.8523 197.775 54.8688 197.238 54.8688C195.844 54.8688 194.865 54.8523 194.297 54.8139V66.2543C194.297 67.3237 194.382 68.097 194.558 68.5796C194.74 69.0622 195.086 69.3913 195.603 69.5668C196.125 69.7368 196.957 69.8191 198.101 69.8191C198.169 69.8191 198.203 69.926 198.203 70.1372C198.203 70.3428 198.169 70.4443 198.101 70.4443C196.92 70.4443 195.989 70.4278 195.308 70.3894L191.243 70.3456L187.325 70.3894C186.613 70.4278 185.648 70.4443 184.43 70.4443C184.322 70.4443 184.271 70.3428 184.271 70.1372C184.271 69.926 184.322 69.8191 184.43 69.8191C185.571 69.8191 186.4 69.7368 186.917 69.5668C187.439 69.3913 187.797 69.0568 187.995 68.5577C188.191 68.0531 188.291 67.2853 188.291 66.2543V42.2877C188.291 41.2566 188.2 40.4998 188.018 40.0172C187.842 39.5346 187.487 39.2 186.951 39.0081C186.411 38.8188 185.591 38.7229 184.487 38.7229C184.419 38.7229 184.385 38.6214 184.385 38.4157C184.385 38.2046 184.419 38.0977 184.487 38.0977L187.325 38.1525C188.966 38.2183 190.272 38.2512 191.243 38.2512C192.452 38.2512 193.721 38.2019 195.047 38.0977C195.506 38.0702 196.086 38.0373 196.784 37.9989C197.479 37.9633 198.254 37.9441 199.112 37.9441C202.365 37.9441 204.883 38.5227 206.662 39.6771C208.448 40.8343 209.342 42.4467 209.342 44.5143C209.342 46.4174 208.803 48.134 207.73 49.6696C206.662 51.2052 205.235 52.4392 203.449 53.3661C206.31 57.5067 208.701 60.748 210.625 63.0953C212.555 65.4426 214.27 67.1509 215.769 68.2176C217.273 69.2871 218.738 69.8191 220.163 69.8191ZM194.297 53.3661C195.152 53.5059 196.185 53.5745 197.397 53.5745C199.469 53.5745 200.962 53.0151 201.871 51.8963C202.779 50.772 203.233 48.9676 203.233 46.4887C203.233 43.6588 202.805 41.7118 201.95 40.6424C201.093 39.5675 199.864 39.03 198.26 39.03C196.829 39.03 195.81 39.2905 195.206 39.8088C194.598 40.3298 194.297 41.1908 194.297 42.3974V53.3661Z" fill="#18628D"/>
<path d="M225.575 43.3298C225.575 44.5747 225.904 45.6771 226.562 46.6423C227.221 47.6076 228.03 48.4522 228.992 49.1761C229.96 49.9 231.266 50.783 232.91 51.8195C234.695 52.9164 236.123 53.8816 237.19 54.7153C238.263 55.5434 239.177 56.5525 239.927 57.7426C240.676 58.9355 241.051 60.3066 241.051 61.8559C241.051 63.6493 240.551 65.2425 239.552 66.6382C238.553 68.0367 237.168 69.1254 235.396 69.9069C233.631 70.6802 231.661 71.0696 229.481 71.0696C227.874 71.0696 226.199 70.8529 224.45 70.4224C222.702 69.9919 221.521 69.5175 220.908 68.9965C220.732 68.8594 220.601 68.7305 220.51 68.6126C220.42 68.4892 220.374 68.289 220.374 68.0093L220.215 59.7828V59.728C220.215 59.5963 220.3 59.525 220.476 59.5086C220.658 59.4866 220.766 59.547 220.806 59.6841C221.879 61.7846 222.818 63.4902 223.622 64.8065C224.422 66.1172 225.438 67.2717 226.665 68.2726C227.897 69.2762 229.302 69.7753 230.877 69.7753C232.308 69.7753 233.483 69.4078 234.408 68.6674C235.34 67.9216 235.805 66.6492 235.805 64.8503C235.805 63.3367 235.456 62.0094 234.76 60.8687C234.062 59.728 233.216 58.7627 232.217 57.973C231.218 57.1777 229.844 56.2262 228.095 55.1211C226.375 54.0544 225.044 53.144 224.098 52.3899C223.15 51.6303 222.339 50.7172 221.657 49.6477C220.982 48.5728 220.647 47.3114 220.647 45.8635C220.647 44.0373 221.192 42.4934 222.282 41.2348C223.372 39.9706 224.771 39.0383 226.483 38.4377C228.2 37.8317 230.006 37.5273 231.899 37.5273C233.148 37.5273 234.411 37.6425 235.692 37.8674C236.977 38.095 238.014 38.361 238.803 38.6681C239.126 38.8079 239.342 38.9533 239.45 39.1068C239.555 39.2604 239.609 39.4633 239.609 39.7101V47.3114C239.609 47.4156 239.518 47.4924 239.336 47.5417C239.16 47.5939 239.055 47.5692 239.018 47.465L238.587 46.4888C237.693 44.3115 236.648 42.4633 235.453 40.9496C234.255 39.4304 232.586 38.6681 230.446 38.6681C229.021 38.6681 227.851 39.0684 226.937 39.8637C226.029 40.6534 225.575 41.8106 225.575 43.3298Z" fill="#18628D"/>
<path d="M105.06 112.678C105.165 112.678 105.219 112.785 105.219 112.996C105.219 113.201 105.165 113.303 105.06 113.303C103.803 113.303 102.801 113.286 102.051 113.248L97.9296 113.204L93.1039 113.248C92.468 113.286 91.5937 113.303 90.481 113.303C90.3731 113.303 90.322 113.201 90.322 112.996C90.322 112.785 90.3731 112.678 90.481 112.678C91.8038 112.678 92.7689 112.595 93.3764 112.425C93.981 112.25 94.3898 111.921 94.6027 111.438C94.8213 110.956 94.932 110.182 94.932 109.113V97.2119H77.6276V109.113C77.6276 110.144 77.7326 110.912 77.9455 111.416C78.1641 111.915 78.5757 112.25 79.1831 112.425C79.7878 112.595 80.7529 112.678 82.0786 112.678C82.1467 112.678 82.1808 112.785 82.1808 112.996C82.1808 113.201 82.1467 113.303 82.0786 113.303C80.821 113.303 79.819 113.286 79.0696 113.248L74.4142 113.204L70.3947 113.248C69.6822 113.286 68.7028 113.303 67.4538 113.303C67.3772 113.303 67.3403 113.201 67.3403 112.996C67.3403 112.785 67.3772 112.678 67.4538 112.678C68.7028 112.678 69.6112 112.595 70.1789 112.425C70.7523 112.25 71.1469 111.915 71.3598 111.416C71.5699 110.912 71.6777 110.144 71.6777 109.113V85.1463C71.6777 84.1153 71.5699 83.3584 71.3598 82.8758C71.1469 82.3932 70.7608 82.0587 70.2016 81.8667C69.6481 81.6775 68.7653 81.5815 67.556 81.5815C67.4481 81.5815 67.397 81.4801 67.397 81.2744C67.397 81.0632 67.4481 80.9563 67.556 80.9563L70.4514 81.0111C72.0922 81.077 73.415 81.1099 74.4142 81.1099C75.7682 81.1099 77.338 81.077 79.1264 81.0111L82.0786 80.9563C82.1467 80.9563 82.1808 81.0632 82.1808 81.2744C82.1808 81.4801 82.1467 81.5815 82.0786 81.5815C80.7898 81.5815 79.8417 81.6857 79.2286 81.8886C78.6211 82.0943 78.201 82.448 77.9682 82.9526C77.7411 83.4517 77.6276 84.2195 77.6276 85.256V95.764H94.932V85.256C94.932 84.2195 94.8213 83.4517 94.6027 82.9526C94.3898 82.448 93.981 82.0943 93.3764 81.8886C92.7689 81.6857 91.8038 81.5815 90.481 81.5815C90.3731 81.5815 90.322 81.4801 90.322 81.2744C90.322 81.0632 90.3731 80.9563 90.481 80.9563L93.1039 81.0111C94.8894 81.077 96.4989 81.1099 97.9296 81.1099C98.8891 81.1099 100.263 81.077 102.051 81.0111L105.06 80.9563C105.165 80.9563 105.219 81.0632 105.219 81.2744C105.219 81.4801 105.165 81.5815 105.06 81.5815C103.84 81.5815 102.937 81.6775 102.347 81.8667C101.756 82.0587 101.362 82.3932 101.166 82.8758C100.975 83.3584 100.882 84.1153 100.882 85.1463V109.113C100.882 110.144 100.975 110.912 101.166 111.416C101.362 111.915 101.745 112.25 102.312 112.425C102.886 112.595 103.803 112.678 105.06 112.678Z" fill="#18628D"/>
<path d="M123 113.928C119.676 113.928 116.721 113.18 114.132 111.68C111.543 110.174 109.539 108.137 108.126 105.57C106.718 102.998 106.014 100.193 106.014 97.1571C106.014 93.6032 106.939 90.5594 108.795 88.0202C110.658 85.4837 113.042 83.5779 115.949 82.3055C118.861 81.0277 121.836 80.386 124.874 80.386C128.263 80.386 131.246 81.1538 133.821 82.6894C136.393 84.225 138.366 86.2542 139.737 88.777C141.114 91.2943 141.803 93.9652 141.803 96.7951C141.803 99.9322 140.943 102.814 139.226 105.438C137.514 108.057 135.221 110.128 132.345 111.647C129.467 113.169 126.353 113.928 123 113.928ZM124.76 112.634C126.764 112.634 128.564 112.075 130.154 110.956C131.743 109.831 132.981 108.189 133.866 106.031C134.758 103.875 135.206 101.298 135.206 98.2978C135.206 95.1252 134.707 92.287 133.708 89.7861C132.708 87.2853 131.261 85.3301 129.37 83.9179C127.477 82.5002 125.263 81.79 122.728 81.79C119.48 81.79 116.976 82.9719 115.222 85.3329C113.474 87.6966 112.599 90.9982 112.599 95.2376C112.599 98.5885 113.124 101.583 114.178 104.221C115.236 106.862 116.687 108.924 118.526 110.407C120.366 111.894 122.444 112.634 124.76 112.634Z" fill="#18628D"/>
<path d="M152.458 108.904C152.458 109.804 152.529 110.451 152.674 110.846C152.816 111.241 153.094 111.51 153.503 111.647C153.912 111.787 154.582 111.855 155.513 111.855H157.329C160.114 111.855 162.524 111.139 164.562 109.705C166.598 108.274 167.957 106.332 168.639 103.881C168.639 103.815 168.71 103.782 168.854 103.782C168.923 103.782 169.002 103.81 169.093 103.859C169.184 103.911 169.229 103.955 169.229 103.991C168.903 107.407 168.741 110.251 168.741 112.524C168.741 112.804 168.676 113.004 168.548 113.127C168.426 113.245 168.221 113.303 167.935 113.303H142.659C142.583 113.303 142.546 113.201 142.546 112.996C142.546 112.785 142.583 112.678 142.659 112.678C143.8 112.678 144.629 112.595 145.146 112.425C145.66 112.25 146.015 111.915 146.213 111.416C146.409 110.912 146.509 110.144 146.509 109.113V85.1463C146.509 84.1153 146.409 83.3584 146.213 82.8758C146.015 82.3932 145.648 82.0587 145.112 81.8667C144.581 81.6775 143.764 81.5815 142.659 81.5815C142.583 81.5815 142.546 81.4801 142.546 81.2744C142.546 81.0632 142.583 80.9563 142.659 80.9563L145.384 81.0111C147.025 81.077 148.385 81.1099 149.461 81.1099C150.528 81.1099 151.882 81.077 153.526 81.0111L156.262 80.9563C156.367 80.9563 156.421 81.0632 156.421 81.2744C156.421 81.4801 156.367 81.5815 156.262 81.5815C155.155 81.5815 154.335 81.6775 153.798 81.8667C153.259 82.0587 152.901 82.4042 152.72 82.9087C152.544 83.4078 152.458 84.1701 152.458 85.2012V108.904Z" fill="#18628D"/>
<path d="M178.276 108.904C178.276 109.804 178.347 110.451 178.492 110.846C178.634 111.241 178.912 111.51 179.321 111.647C179.73 111.787 180.4 111.855 181.331 111.855H183.147C185.932 111.855 188.342 111.139 190.38 109.705C192.416 108.274 193.775 106.332 194.457 103.881C194.457 103.815 194.528 103.782 194.672 103.782C194.741 103.782 194.82 103.81 194.911 103.859C195.002 103.911 195.047 103.955 195.047 103.991C194.721 107.407 194.559 110.251 194.559 112.524C194.559 112.804 194.494 113.004 194.366 113.127C194.244 113.245 194.039 113.303 193.753 113.303H168.477C168.401 113.303 168.364 113.201 168.364 112.996C168.364 112.785 168.401 112.678 168.477 112.678C169.618 112.678 170.447 112.595 170.964 112.425C171.478 112.25 171.833 111.915 172.031 111.416C172.227 110.912 172.327 110.144 172.327 109.113V85.1463C172.327 84.1153 172.227 83.3584 172.031 82.8758C171.833 82.3932 171.466 82.0587 170.93 81.8667C170.399 81.6775 169.582 81.5815 168.477 81.5815C168.401 81.5815 168.364 81.4801 168.364 81.2744C168.364 81.0632 168.401 80.9563 168.477 80.9563L171.202 81.0111C172.843 81.077 174.203 81.1099 175.279 81.1099C176.346 81.1099 177.7 81.077 179.344 81.0111L182.08 80.9563C182.185 80.9563 182.239 81.0632 182.239 81.2744C182.239 81.4801 182.185 81.5815 182.08 81.5815C180.973 81.5815 180.153 81.6775 179.616 81.8667C179.077 82.0587 178.719 82.4042 178.538 82.9087C178.362 83.4078 178.276 84.1701 178.276 85.2012V108.904Z" fill="#18628D"/>
<path d="M212.292 113.928C208.968 113.928 206.013 113.18 203.424 111.68C200.836 110.174 198.832 108.137 197.418 105.57C196.01 102.998 195.306 100.193 195.306 97.1571C195.306 93.6032 196.231 90.5594 198.088 88.0202C199.95 85.4837 202.334 83.5779 205.241 82.3055C208.154 81.0277 211.129 80.386 214.166 80.386C217.555 80.386 220.539 81.1538 223.113 82.6894C225.685 84.225 227.658 86.2542 229.029 88.777C230.406 91.2943 231.096 93.9652 231.096 96.7951C231.096 99.9322 230.236 102.814 228.518 105.438C226.806 108.057 224.513 110.128 221.637 111.647C218.759 113.169 215.645 113.928 212.292 113.928ZM214.052 112.634C216.056 112.634 217.856 112.075 219.446 110.956C221.035 109.831 222.273 108.189 223.159 106.031C224.05 103.875 224.499 101.298 224.499 98.2978C224.499 95.1252 223.999 92.287 223 89.7861C222.001 87.2853 220.553 85.3301 218.662 83.9179C216.769 82.5002 214.555 81.79 212.02 81.79C208.772 81.79 206.269 82.9719 204.515 85.3329C202.766 87.6966 201.892 90.9982 201.892 95.2376C201.892 98.5885 202.417 101.583 203.47 104.221C204.529 106.862 205.979 108.924 207.819 110.407C209.658 111.894 211.736 112.634 214.052 112.634Z" fill="#18628D"/>
<path d="M279.459 80.9563C279.533 80.9563 279.573 81.0632 279.573 81.2744C279.573 81.4801 279.533 81.5815 279.459 81.5815C278.142 81.5815 276.899 82.1272 275.735 83.2158C274.577 84.299 273.623 85.7907 272.874 87.6911L262.961 113.248C262.93 113.385 262.734 113.456 262.371 113.456C262.013 113.456 261.817 113.385 261.78 113.248L254.933 99.2301L249.517 113.248C249.478 113.385 249.282 113.456 248.927 113.456C248.569 113.456 248.373 113.385 248.336 113.248L234.677 85.256C234.137 84.1537 233.7 83.3584 233.36 82.8758C233.025 82.3932 232.65 82.0587 232.236 81.8667C231.827 81.6775 231.285 81.5815 230.612 81.5815C230.498 81.5815 230.442 81.4801 230.442 81.2744C230.442 81.0632 230.498 80.9563 230.612 80.9563C231.14 80.9563 231.515 80.9755 231.736 81.0111C232.446 81.077 233.374 81.1099 234.518 81.1099C236.908 81.1099 238.926 81.077 240.57 81.0111C241.03 80.9755 241.603 80.9563 242.284 80.9563C242.389 80.9563 242.443 81.0632 242.443 81.2744C242.443 81.4801 242.389 81.5815 242.284 81.5815C241.39 81.5815 240.754 81.6693 240.377 81.8448C240.005 82.0148 239.82 82.3219 239.82 82.7661C239.82 83.3584 240.232 84.4992 241.058 86.1884L250.698 105.954L254.07 97.4203L248.121 85.256C247.513 84.0138 246.943 83.0924 246.406 82.4919C245.875 81.8859 245.305 81.5815 244.692 81.5815C244.584 81.5815 244.533 81.4801 244.533 81.2744C244.533 81.0632 244.584 80.9563 244.692 80.9563C245.055 80.9563 245.475 80.9837 245.952 81.0331C246.434 81.0852 247.124 81.1099 248.018 81.1099C250.054 81.1099 251.748 81.077 253.105 81.0111C253.46 80.9755 253.926 80.9563 254.502 80.9563C254.607 80.9563 254.661 81.0632 254.661 81.2744C254.661 81.4801 254.607 81.5815 254.502 81.5815C254.002 81.5815 253.633 81.6446 253.401 81.768C253.165 81.8859 253.049 82.097 253.049 82.4042C253.049 82.9965 253.531 84.2579 254.502 86.1884L256.852 91.0036L258.192 87.5265C258.979 85.5686 259.373 84.0879 259.373 83.0842C259.373 82.0833 258.925 81.5815 258.033 81.5815C257.925 81.5815 257.874 81.4801 257.874 81.2744C257.874 81.0632 257.925 80.9563 258.033 80.9563C258.32 80.9563 258.635 80.9837 258.976 81.0331C259.316 81.0852 260.162 81.1099 261.519 81.1099C262.124 81.1099 262.853 81.077 263.711 81.0111L265.698 80.9563C265.766 80.9563 265.8 81.0632 265.8 81.2744C265.8 81.4801 265.766 81.5815 265.698 81.5815C263.305 81.5815 261.32 83.6189 259.748 87.6911L257.772 92.8134L264.199 105.899L271.102 88.053C271.534 86.9507 271.75 85.947 271.75 85.0476C271.75 83.9809 271.471 83.1363 270.921 82.5139C270.367 81.8941 269.626 81.5815 268.695 81.5815C268.587 81.5815 268.536 81.4801 268.536 81.2744C268.536 81.0632 268.587 80.9563 268.695 80.9563L271.159 81.0111C272.445 81.077 273.626 81.1099 274.702 81.1099C275.411 81.1099 276.235 81.077 277.166 81.0111L279.459 80.9563Z" fill="#18628D"/>
</g>
<mask id="mask2_78_93" style="mask-type:luminance" maskUnits="userSpaceOnUse" x="243" y="117" width="39" height="35">
<path d="M243.607 117.185H281.5V151.934H243.607V117.185Z" fill="white"/>
</mask>
<g mask="url(#mask2_78_93)">
<path fill-rule="evenodd" clip-rule="evenodd" d="M262.552 117.185L267.006 130.51L281.5 130.482L269.759 138.692L274.264 152L262.552 143.749L250.843 152L255.347 138.692L243.607 130.482L258.101 130.51L262.552 117.185Z" fill="#FDD692"/>
</g>
<path d="M146.894 133.665C146.894 133.951 146.783 134.2 146.564 134.411L145.679 135.267C143.195 137.666 140.711 139.465 138.23 140.663C135.746 141.865 133.192 142.462 130.566 142.462C129.899 142.673 129.232 142.78 128.567 142.78C127.642 142.78 126.79 142.599 126.013 142.243C125.232 141.886 124.605 141.514 124.128 141.124C123.787 140.834 123.56 140.606 123.446 140.444C123.339 140.285 123.287 140.134 123.287 139.994C123.287 139.709 123.407 139.468 123.651 139.27C123.892 139.073 124.162 138.974 124.457 138.974C124.571 138.974 124.71 139.004 124.877 139.062C125.042 139.114 125.275 139.246 125.57 139.457C125.979 139.706 126.433 139.967 126.932 140.236C127.432 140.507 127.977 140.642 128.567 140.642C129.453 140.642 130.376 140.312 131.338 139.654C132.306 138.991 133.189 138.102 133.984 136.989C134.778 135.878 135.426 134.653 135.925 133.314C136.425 131.971 136.675 130.635 136.675 129.311C136.675 128.705 136.487 128.214 136.118 127.841C135.746 127.463 135.247 127.271 134.619 127.271C134.142 127.271 133.566 127.468 132.893 127.863C132.226 128.258 131.542 128.76 130.838 129.366C129.731 130.331 128.65 131.395 127.591 132.558C126.538 133.72 125.751 134.609 125.229 135.223C124.894 135.574 124.423 136.12 123.81 136.857C123.202 137.59 122.51 138.456 121.732 139.457C121.028 141.601 120.259 143.751 119.427 145.917C118.592 148.081 117.78 150.075 116.986 151.895C116.191 153.722 115.481 155.211 114.851 156.36C114.368 157.215 113.829 157.945 113.239 158.553C112.643 159.168 111.99 159.475 111.286 159.475C110.477 159.475 109.932 159.151 109.651 158.51C109.372 157.865 109.23 157.292 109.23 156.787C109.23 155.537 109.736 153.897 110.741 151.873C111.74 149.855 113.034 147.664 114.624 145.303C116.214 142.939 117.917 140.617 119.733 138.327C120.361 136.397 120.943 134.62 121.482 132.996C122.019 131.368 122.416 130.106 122.674 129.212C121.97 130.032 121.156 130.953 120.233 131.976C119.308 132.994 118.533 133.805 117.905 134.411L117.008 135.267C116.787 135.486 116.531 135.596 116.236 135.596C115.941 135.596 115.686 135.492 115.464 135.278C115.237 135.058 115.124 134.806 115.124 134.521C115.124 134.236 115.234 133.984 115.453 133.764L116.35 132.909C116.864 132.412 117.48 131.762 118.201 130.956C118.927 130.153 119.648 129.338 120.369 128.51C121.096 127.685 121.644 127.04 122.016 126.58C122.234 126.333 122.481 126.163 122.754 126.075C123.032 125.982 123.305 125.933 123.571 125.933C123.94 125.933 124.326 126.05 124.73 126.284C125.138 126.519 125.343 126.939 125.343 127.545C125.343 127.869 125.221 128.442 124.979 129.267C124.744 130.087 124.485 130.929 124.207 131.79C123.926 132.645 123.713 133.304 123.571 133.764C124.639 132.514 125.652 131.381 126.614 130.364C127.582 129.341 128.471 128.488 129.283 127.808C130.137 127.062 131.009 126.432 131.894 125.911C132.786 125.392 133.694 125.132 134.619 125.132C135.914 125.132 136.95 125.535 137.731 126.338C138.508 127.145 138.9 128.135 138.9 129.311C138.9 130.956 138.517 132.719 137.753 134.598C136.995 136.479 136.007 138.116 134.79 139.512C136.379 139.007 137.941 138.302 139.479 137.395C141.015 136.482 142.562 135.272 144.123 133.764L145.009 132.909C145.227 132.697 145.486 132.591 145.781 132.591C146.082 132.591 146.343 132.697 146.564 132.909C146.783 133.123 146.894 133.375 146.894 133.665ZM117.292 145.358C116.256 146.828 115.294 148.276 114.408 149.702C113.517 151.133 112.801 152.469 112.262 153.705C111.726 154.939 111.456 155.968 111.456 156.787V157.215C111.978 156.856 112.555 156.096 113.182 154.934C113.812 153.771 114.476 152.356 115.18 150.689C115.884 149.027 116.588 147.25 117.292 145.358Z" fill="#E89028"/>
<path d="M169.001 133.665C169.001 133.951 168.891 134.2 168.672 134.411L167.775 135.267C167.335 135.7 166.781 136.254 166.117 136.934C165.45 137.614 164.715 138.294 163.914 138.974C163.12 139.654 162.313 140.236 161.496 140.718C160.684 141.201 159.946 141.442 159.282 141.442C158.169 141.442 157.38 141.042 156.92 140.236C156.457 139.432 156.227 138.599 156.227 137.735C156.227 137.45 156.244 137.148 156.284 136.824C156.321 136.504 156.392 136.164 156.5 135.804C155.501 137.063 154.456 138.237 153.366 139.325C152.276 140.417 151.2 141.3 150.141 141.98C149.088 142.66 148.097 143 147.166 143C146.241 143 145.511 142.747 144.975 142.243C144.438 141.747 144.067 141.152 143.862 140.455C143.658 139.753 143.556 139.081 143.556 138.437C143.556 137.077 143.845 135.692 144.419 134.28C144.995 132.87 145.787 131.565 146.803 130.364C147.825 129.166 148.989 128.189 150.3 127.435C151.617 126.684 152.997 126.305 154.445 126.305C155.518 126.305 156.435 126.558 157.192 127.062C157.956 127.561 158.578 128.203 159.055 128.993L160.394 127.172C160.5 126.991 160.636 126.873 160.803 126.821C160.968 126.772 161.127 126.744 161.28 126.744C161.575 126.744 161.831 126.851 162.052 127.062C162.279 127.276 162.393 127.523 162.393 127.808C162.393 128.028 162.316 128.225 162.166 128.4L161.167 129.793C161.059 129.977 160.783 130.501 160.338 131.362C159.889 132.218 159.463 133.227 159.055 134.389C158.652 135.552 158.453 136.668 158.453 137.735C158.453 138.81 158.708 139.347 159.225 139.347C159.594 139.347 160.113 139.117 160.781 138.656C161.445 138.19 162.157 137.614 162.915 136.934C163.679 136.254 164.363 135.612 164.97 135.004C165.584 134.398 165.998 133.983 166.219 133.764L167.116 132.909C167.335 132.697 167.593 132.59 167.889 132.59C168.184 132.59 168.439 132.697 168.661 132.909C168.888 133.122 169.001 133.375 169.001 133.665ZM157.613 130.978C157.354 130.298 156.977 129.711 156.477 129.212C155.978 128.708 155.299 128.455 154.445 128.455C153.406 128.455 152.37 128.751 151.334 129.344C150.295 129.936 149.361 130.726 148.529 131.713C147.694 132.695 147.03 133.772 146.531 134.949C146.031 136.128 145.781 137.291 145.781 138.437C145.781 139.331 145.92 139.956 146.201 140.312C146.479 140.672 146.803 140.85 147.166 140.85C147.802 140.85 148.543 140.548 149.392 139.939C150.246 139.333 151.155 138.541 152.117 137.559C153.076 136.572 154.03 135.508 154.978 134.367C155.924 133.221 156.801 132.091 157.613 130.978Z" fill="#E89028"/>
<path d="M192.549 133.665C192.549 133.951 192.438 134.2 192.219 134.411L191.334 135.267C189.517 137.022 187.578 138.634 185.52 140.104C183.468 141.568 181.296 142.835 179.003 143.91C178.631 145.056 178.211 146.175 177.742 147.267C177.28 148.355 176.735 149.419 176.107 150.458C175.477 151.495 174.748 152.499 173.916 153.464C173.081 154.429 172.147 155.202 171.111 155.789C170.072 156.382 168.925 156.678 167.671 156.678C166.93 156.678 166.18 156.516 165.423 156.195C164.659 155.871 164.026 155.397 163.526 154.769C163.027 154.147 162.777 153.39 162.777 152.499C162.777 151.276 163.129 150.201 163.833 149.274C164.537 148.344 165.445 147.53 166.558 146.828C167.662 146.131 168.874 145.525 170.191 145.007C171.509 144.486 172.786 144.012 174.029 143.581C175.27 143.156 176.334 142.747 177.22 142.353C177.629 141.212 178.006 140.005 178.355 138.733C178.71 137.461 179.054 136.325 179.389 135.322C177.686 137.291 176.073 138.722 174.552 139.621C173.036 140.515 171.668 140.96 170.441 140.96C169.147 140.96 168.139 140.515 167.421 139.621C166.694 138.722 166.331 137.773 166.331 136.769C166.331 135.163 166.737 133.643 167.546 132.217C168.363 130.786 169.419 129.525 170.714 128.433C172.014 127.336 173.405 126.478 174.881 125.856C176.363 125.228 177.791 124.912 179.162 124.912C180.757 124.912 182.074 125.362 183.113 126.262L183.499 125.614C183.718 125.258 184.013 125.077 184.385 125.077C184.68 125.077 184.947 125.187 185.191 125.406C185.432 125.62 185.554 125.867 185.554 126.152C185.554 126.366 185.515 126.544 185.441 126.689C185.327 126.865 185.194 127.081 185.043 127.336C184.899 127.586 184.737 127.852 184.555 128.137C183.516 130.068 182.665 132.146 182 134.367C181.333 136.583 180.649 138.799 179.945 141.014C181.648 140.088 183.312 139.035 184.941 137.855C186.568 136.671 188.18 135.308 189.778 133.764L190.664 132.909C190.882 132.697 191.141 132.59 191.436 132.59C191.731 132.59 191.987 132.697 192.208 132.909C192.435 133.122 192.549 133.375 192.549 133.665ZM181.944 128.192C181.24 127.441 180.311 127.062 179.162 127.062C178.049 127.062 176.871 127.334 175.63 127.874C174.396 128.409 173.24 129.133 172.167 130.046C171.091 130.953 170.22 131.987 169.556 133.15C168.889 134.313 168.556 135.519 168.556 136.769C168.556 137.348 168.73 137.833 169.079 138.228C169.434 138.618 169.888 138.81 170.441 138.81C171.401 138.81 172.408 138.47 173.462 137.79C174.52 137.11 175.557 136.238 176.573 135.168C177.595 134.093 178.566 132.939 179.491 131.702C180.422 130.468 181.24 129.297 181.944 128.192ZM176.278 145.095C175.497 145.38 174.486 145.734 173.246 146.159C172.003 146.589 170.742 147.102 169.465 147.694C168.193 148.287 167.134 148.972 166.285 149.756C165.431 150.546 165.002 151.459 165.002 152.499C165.002 153.031 165.264 153.502 165.786 153.914C166.303 154.33 166.93 154.539 167.671 154.539C168.965 154.539 170.149 154.051 171.225 153.08C172.298 152.115 173.26 150.908 174.109 149.46C174.963 148.012 175.687 146.556 176.278 145.095Z" fill="#E89028"/>
<path d="M209.876 133.665C209.876 133.951 209.765 134.2 209.546 134.411L208.661 135.267C207.622 136.271 206.435 137.345 205.095 138.492C203.761 139.632 202.336 140.617 200.815 141.442C199.299 142.259 197.766 142.671 196.216 142.671C194.218 142.671 192.708 141.958 191.686 140.532C190.672 139.1 190.164 137.362 190.164 135.322C190.164 134.11 190.408 132.859 190.891 131.57C191.368 130.284 192.04 129.086 192.912 127.973C193.781 126.862 194.808 125.96 195.989 125.263C197.176 124.57 198.456 124.221 199.827 124.221C200.826 124.221 201.703 124.49 202.461 125.022C203.216 125.557 203.597 126.344 203.597 127.38C203.597 128.455 203.205 129.432 202.427 130.309C201.655 131.187 200.667 131.949 199.464 132.591C198.26 133.235 197.025 133.781 195.762 134.225C194.504 134.672 193.377 135.02 192.378 135.267C192.378 136.057 192.486 136.855 192.708 137.658C192.935 138.464 193.324 139.144 193.877 139.698C194.436 140.255 195.217 140.532 196.216 140.532C197.511 140.532 198.822 140.148 200.156 139.38C201.488 138.607 202.762 137.685 203.983 136.616C205.209 135.541 206.248 134.592 207.105 133.764L207.991 132.909C208.209 132.697 208.468 132.591 208.763 132.591C209.064 132.591 209.325 132.697 209.546 132.909C209.765 133.123 209.876 133.375 209.876 133.665ZM201.382 127.38C201.382 127.134 201.269 126.903 201.042 126.689C200.82 126.47 200.417 126.36 199.827 126.36C198.714 126.36 197.684 126.684 196.738 127.326C195.799 127.97 194.984 128.804 194.297 129.826C193.616 130.844 193.108 131.889 192.776 132.963C193.585 132.752 194.479 132.459 195.455 132.086C196.438 131.708 197.386 131.285 198.294 130.825C199.202 130.358 199.943 129.826 200.52 129.234C201.093 128.642 201.382 128.025 201.382 127.38Z" fill="#E89028"/>
<path d="M229.873 133.665C229.873 133.951 229.762 134.2 229.544 134.411L228.647 135.267C226.427 137.417 224.448 139.092 222.708 140.291C220.965 141.492 219.29 142.32 217.678 142.78C216.066 143.247 214.297 143.482 212.375 143.482C211.671 143.482 211.07 143.329 210.57 143.022C210.07 142.72 209.653 142.429 209.321 142.144C209.1 141.961 208.992 141.711 208.992 141.387C208.992 141.102 209.119 140.844 209.378 140.609C209.633 140.376 209.911 140.258 210.207 140.258C210.502 140.258 210.743 140.351 210.933 140.532C211.561 141.031 212.04 141.278 212.375 141.278C213.67 141.278 214.714 140.888 215.509 140.104C216.31 139.314 216.713 138.366 216.713 137.252C216.713 136.287 216.56 135.377 216.259 134.521C215.963 133.66 215.648 132.81 215.316 131.976C214.981 131.137 214.783 130.249 214.714 129.311C213.857 130.21 212.966 131.107 212.035 131.998C211.109 132.892 210.28 133.696 209.548 134.411L208.651 135.267C208.43 135.486 208.174 135.596 207.879 135.596C207.584 135.596 207.328 135.492 207.107 135.278C206.88 135.058 206.766 134.806 206.766 134.521C206.766 134.236 206.877 133.984 207.096 133.764L207.993 132.909C208.725 132.193 209.528 131.406 210.4 130.55C211.268 129.689 212.128 128.828 212.977 127.973C213.832 127.117 214.584 126.333 215.237 125.614C215.887 124.899 216.361 124.342 216.656 123.947C216.875 123.626 217.17 123.465 217.542 123.465C217.837 123.465 218.092 123.574 218.314 123.794C218.541 124.008 218.655 124.254 218.655 124.54C218.655 124.825 218.578 125.061 218.427 125.242C218.132 125.601 217.797 126.127 217.428 126.821C217.056 127.518 216.872 128.154 216.872 128.73C216.872 129.695 217.045 130.605 217.394 131.461C217.749 132.316 218.092 133.202 218.427 134.115C218.76 135.031 218.927 136.076 218.927 137.252C218.927 138.401 218.649 139.44 218.098 140.367C219.393 139.871 220.744 139.103 222.152 138.064C223.56 137.027 225.206 135.593 227.091 133.764L227.988 132.909C228.207 132.697 228.465 132.591 228.76 132.591C229.055 132.591 229.311 132.697 229.532 132.909C229.759 133.123 229.873 133.375 229.873 133.665Z" fill="#E89028"/>
</svg>
