<svg version="1.2" xmlns="http://www.w3.org/2000/svg" viewBox="0 0 4000 4000" width="500" height="500">
	<style>
		.s0 { fill: #000000 } 
	</style>
	<g id="Label">
		<g id="&lt;Group&gt;">
			<path id="&lt;Compound Path&gt;" class="s0" d="m3587.8 1769.53c-24.08-27.87-56.47-47.15-92.11-55.03v-30.64c0-34.49-28.06-62.55-62.55-62.55h-67.09c-11.46-56.21-60.98-97.34-119.41-97.34h-2492.99c-58.43 0-107.96 41.13-119.4 97.34h-67.11c-34.49 0-62.55 28.06-62.55 62.55v30.64c-35.63 7.87-68.03 27.16-92.11 55.03-26.68 30.88-41.37 70.39-41.37 111.25v237.42c0 40.86 14.69 80.37 41.37 111.26 24.08 27.87 56.48 47.16 92.11 55.02v30.65c0 34.48 28.06 62.53 62.55 62.53h67.11c11.44 56.22 60.97 97.36 119.4 97.36h2492.99c58.43 0 107.95-41.14 119.41-97.36h67.09c34.49 0 62.55-28.05 62.55-62.53v-30.65c35.64-7.87 68.03-27.16 92.11-55.03 26.67-30.88 41.37-70.39 41.37-111.25v-237.42c0-40.85-14.7-80.36-41.37-111.25zm16.84 348.67c0 72.31-51.77 132.87-123.1 144l-10.38 1.62v51.31c0 20.95-17.05 38-38.02 38h-88.53l-1.22 10.9c-5.52 49.29-47.11 86.46-96.75 86.46h-2492.99c-49.64 0-91.23-37.16-96.74-86.45l-1.22-10.91h-88.55c-20.96 0-38.02-17.05-38.02-38v-51.31l-10.37-1.62c-71.34-11.12-123.11-71.68-123.11-144v-237.42c0-72.32 51.77-132.88 123.11-143.99l10.37-1.62v-51.31c0-20.96 17.06-38.02 38.02-38.02h88.55l1.22-10.9c5.51-49.28 47.1-86.45 96.74-86.45h2492.99c49.64 0 91.23 37.17 96.75 86.45l1.22 10.9h88.53c20.97 0 38.02 17.06 38.02 38.02v51.31l10.38 1.62c71.33 11.12 123.1 71.68 123.1 143.99z"/>
			<path id="&lt;Compound Path&gt;" class="s0" d="m3478.87 1753.86l-24.99-3.9v-66.1c0-11.43-9.3-20.74-20.74-20.74h-103.99l-2.94-26.26c-4.53-40.52-38.74-71.08-79.57-71.08h-2492.99c-40.83 0-75.04 30.55-79.57 71.08l-2.93 26.26h-104.01c-11.43 0-20.74 9.31-20.74 20.74v66.11l-24.99 3.89c-29.92 4.66-57.36 19.94-77.29 43-20.12 23.29-31.2 53.1-31.2 83.92v237.42c0 30.83 11.08 60.63 31.2 83.92 19.93 23.07 47.37 38.34 77.29 43l24.99 3.9v66.11c0 11.42 9.31 20.72 20.74 20.72h104.01l2.93 26.27c4.53 40.53 38.74 71.09 79.57 71.09h2492.99c40.83 0 75.04-30.56 79.57-71.1l2.94-26.26h103.99c11.44 0 20.74-9.3 20.74-20.72v-66.11l24.99-3.9c29.92-4.66 57.36-19.93 77.29-43 20.12-23.29 31.19-53.09 31.19-83.92v-237.42c0-30.82-11.07-60.62-31.19-83.91-19.93-23.07-47.37-38.34-77.29-43.01zm100.68 364.34c0 28.96-10.41 56.95-29.3 78.82-18.72 21.67-44.49 36.01-72.58 40.39l-31.59 4.93v72.79c0 7.12-5.8 12.92-12.94 12.92h-110.97l-3.71 33.2c-4.09 36.57-34.97 64.16-71.82 64.16h-2492.99c-36.85 0-67.72-27.58-71.81-64.16l-3.71-33.2h-110.99c-7.13 0-12.93-5.8-12.93-12.92v-72.79l-31.6-4.93c-28.09-4.38-53.87-18.72-72.58-40.39-18.9-21.87-29.3-49.86-29.3-78.82v-237.42c0-28.95 10.4-56.94 29.3-78.82 18.71-21.67 44.49-36.01 72.58-40.39l31.6-4.92v-72.79c0-7.13 5.8-12.93 12.93-12.93h110.99l3.71-33.21c4.09-36.56 34.96-64.14 71.81-64.14h2492.99c36.85 0 67.73 27.58 71.82 64.15l3.71 33.2h110.97c7.14 0 12.94 5.8 12.94 12.93v72.78l31.59 4.93c28.09 4.38 53.86 18.73 72.58 40.4 18.89 21.87 29.3 49.86 29.3 78.81z"/>
		</g>
	</g>
</svg>